<?xml version="1.0" encoding="utf-8"?>
<!-- Generator: Adobe Illustrator 22.0.1, SVG Export Plug-In . SVG Version: 6.00 Build 0)  -->
<svg version="1.1" id="Layer_1" xmlns="http://www.w3.org/2000/svg" xmlns:xlink="http://www.w3.org/1999/xlink" x="0px" y="0px"
	 viewBox="0 0 890 676.9" style="enable-background:new 0 0 890 676.9;" xml:space="preserve">
<style type="text/css">
	.st0{fill:#FFB000;}
	.st1{fill:#E8624D;}
	.st2{fill:#FBC300;}
	.st3{fill:#DCD2C6;}
	.st4{fill:#01232D;}
	.st5{fill:#003D58;}
	.st6{fill:#FFF7EA;}
	.st7{fill:#849EA8;}
</style>
<circle class="st0" cx="477.6" cy="262.2" r="71.1"/>
<path class="st1" d="M270.5,38.2C324,15.3,383,2.6,445,2.6c244.9,0,443.5,198.6,443.5,443.5c0.5-0.5-886.5-0.5-887,0
	C1.5,263.1,112.3,106,270.5,38.2"/>
<path class="st1" d="M774.5,493.3h-136c0,0-14,0-14-13c0-12.9,13.7-13,14-13h236c0,0,14,0,14-13s0-13,0-13h-662h-12l-213,1
	c0,0,0-1,0,12s14,13,14,13h208c0.2,0,14,0.1,14,13c0,13-14,13-14,13h-86c0,0-14,0-14,13c0,13,14,13,14,13h205.4
	c3.9,1.3,8.6,4.5,8.6,12c0,13-14,13-14,13h-75c0,0-14,0-14,13s14,13,14,13h47c0.2,0,14,0.1,14,13c0,13-14,13-14,13h-8
	c0,0-14,0-14,13s14,13,14,13h99c0.2,0,14,0.1,14,13c0,13-14,13-14,13h-10c0,0-14,0-14,13s14,13,14,13h39h9h107c0,0,14,0,14-13
	s-14-13-14-13h-13c0,0-14,0-14-13c0-12.9,13.7-13,14-13h148c0,0,14,0,14-13s-14-13-14-13h-29c0,0-14,0-14-13c0-12.9,13.7-13,14-13
	h79c0,0,14,0,14-13s-14-13-14-13h-1c0,0-14,0-14-13c0-7.5,4.6-10.7,8.6-12h50.4c0,0,14,0,14-13C788.5,493.3,774.5,493.3,774.5,493.3
	z"/>
<circle class="st2" cx="477.6" cy="262.2" r="57.3"/>
<path class="st3" d="M643.9,293.3H522.1l0,0h-23.2c0,0-10.1,0-10.1,9.4s10.1,9.4,10.1,9.4h121.8l0,0h23.2c0,0,10.2,0,10.2-9.4
	C654,293.3,643.9,293.3,643.9,293.3z"/>
<g>
	<path class="st4" d="M534.9,222.2L371.4,427.7c-1.8,2.3-0.2,5.7,2.7,5.7l336.1,0c2.9,0,4.5-3.3,2.7-5.6L552.8,222.3
		C548.2,216.6,539.6,216.6,534.9,222.2z"/>
	<path class="st4" d="M552.8,222.3c-4.6-5.7-13.3-5.7-17.9-0.1l-28.1,35.4c5.5-2.8,12.1-2.2,17,1.5l8.8,6.7c5.7,4.4,13.7,4.4,19.4,0
		l8.8-6.7c5.1-3.8,11.9-4.3,17.5-1.3l4.1,2.3L552.8,222.3z"/>
</g>
<path class="st5" d="M547.2,218.5c-4.3-1.3-9.2-0.1-12.3,3.7L371.4,427.7c-1.8,2.3-0.2,5.7,2.7,5.7h70.3L547.2,218.5z"/>
<path class="st3" d="M552.8,222.3c-4.6-5.7-13.3-5.7-17.9-0.1l-28.1,35.4c5.5-2.8,12.1-2.2,17,1.5l8.8,6.7c5.7,4.4,13.7,4.4,19.4,0
	l8.8-6.7c5.1-3.8,11.9-4.3,17.5-1.3l4.1,2.3L552.8,222.3z"/>
<path class="st6" d="M547.2,218.5c-0.5-0.2-1.1-0.3-1.6-0.4c0,0,0,0,0,0c-0.3,0-0.5-0.1-0.8-0.1c0,0-0.1,0-0.1,0c-0.5,0-0.9,0-1.4,0
	c-0.1,0-0.2,0-0.3,0c-0.2,0-0.4,0-0.7,0.1c-0.1,0-0.3,0-0.4,0.1c-0.3,0-0.6,0.1-0.9,0.2c-0.2,0-0.4,0.1-0.6,0.2
	c-0.2,0-0.3,0.1-0.5,0.2c-0.2,0.1-0.5,0.2-0.7,0.3c-0.1,0.1-0.3,0.1-0.4,0.2c-0.3,0.1-0.5,0.3-0.8,0.4c-0.1,0.1-0.2,0.1-0.3,0.2
	c-0.3,0.2-0.6,0.4-0.9,0.6c0,0-0.1,0-0.1,0.1c-0.3,0.2-0.6,0.5-0.8,0.7c-0.1,0.1-0.1,0.1-0.2,0.2c-0.3,0.3-0.6,0.6-0.8,0.9
	l-14.1,17.7l-14,17.6c5.5-2.8,12.1-2.2,17,1.5l2.9,2.2L547.2,218.5C547.2,218.5,547.2,218.5,547.2,218.5z"/>
<path class="st3" d="M431.7,246.3h-128c0,0-14,0-14,13s14,13,14,13h128V246.3z"/>
<path class="st6" d="M467.7,272.3h70.5c0,0,7.7,0,7.7,7.2c0,7.2-7.7,7.2-7.7,7.2h-70.5V272.3z"/>
<path class="st6" d="M626.1,528H507.9h-12.2l0,0c0,0-10.8,0-10.8-10c0-10,10.8-10,10.8-10l0,0h60.4c0,0,10.8,0,10.8-10
	s-10.8-10-10.8-10h-3.4l0,0c0,0-10.8,0-10.8-10s10.8-10,10.8-10h55.7h-0.6c0,0,10.8,0,10.8-10s-10.8-10-10.8-10h-65.6H409.4l0,0h-64
	l0,0h-64.8c0,0-10.8,0-10.8,10s10.8,10,10.8,10H280h53c0,0,10.8,0,10.8,10S333,488,333,488l0,0h-3.4c0,0-10.8,0-10.8,10
	s10.8,10,10.8,10H399l0,0c0,0,10.8,0,10.8,10c0,10-10.8,10-10.8,10l0,0h-3.4c0,0-10.8,0-10.8,10s10.8,10,10.8,10h45.2H463
	c0,0,10.8,0,10.8,10S463,568,463,568l0,0h-3.4c0,0-10.8,0-10.8,10s10.8,10,10.8,10h42.2h15.9h42.2c0,0,10.8,0,10.8-10
	s-10.8-10-10.8-10h-3.4l0,0c0,0-10.8,0-10.8-10s10.8-10,10.8-10l0,0h69.4c0,0,10.8,0,10.8-10C636.9,528,626.1,528,626.1,528z"/>
<path class="st7" d="M396.7,164.7L177.3,440.4c-2.4,3.1-0.3,7.6,3.7,7.6l451.1,0c3.9,0,6.1-4.5,3.7-7.6l-215-275.6
	C414.5,157.1,402.9,157.1,396.7,164.7z"/>
<path class="st4" d="M414.2,160.1c-6-2.3-13.1-0.8-17.5,4.6L177.3,440.4c-2.4,3.1-0.3,7.6,3.7,7.6h97.3L414.2,160.1z"/>
<path class="st6" d="M420.7,164.8c-6.2-7.7-17.8-7.7-24-0.1l-37.8,47.5c7.3-3.7,16.2-3,22.8,2.1l11.8,8.9c7.7,5.9,18.4,5.9,26.1,0
	l11.8-8.9c6.8-5.2,16-5.8,23.5-1.7l5.6,3.1L420.7,164.8z"/>
<path class="st3" d="M396.7,164.7l-37.8,47.5c7.3-3.7,16.2-3,22.8,2.1l5.1,3.9l27.4-58C408.2,157.8,401.1,159.3,396.7,164.7z"/>
<path class="st6" d="M446.7,259.3h-168l0,0h-32c0,0-14,0-14,13s14,13,14,13h168l0,0h32c0,0,14,0,14-13S446.7,259.3,446.7,259.3z"/>
<path class="st6" d="M671.4,303.5h-59.5l0,0h-23.2c0,0-10.2,0-10.2,9.4s10.2,9.4,10.2,9.4h82.7c0,0,10.2,0,10.2-9.4
	S671.4,303.5,671.4,303.5z"/>
</svg>
