<?xml version="1.0" encoding="utf-8"?>
<!-- Generator: Adobe Illustrator 22.0.1, SVG Export Plug-In . SVG Version: 6.00 Build 0)  -->
<svg version="1.1" id="Layer_1" xmlns="http://www.w3.org/2000/svg" xmlns:xlink="http://www.w3.org/1999/xlink" x="0px" y="0px"
	 viewBox="0 0 1125.2 900" style="enable-background:new 0 0 1125.2 900;" xml:space="preserve">
<style type="text/css">
	.st0{fill:#849EA8;}
	.st1{fill:#477B8C;}
	.st2{fill:#01232D;}
	.st3{opacity:0.5;fill:#01232D;}
	.st4{opacity:0.5;fill:#F1D1AE;}
	.st5{fill:#FFDCB2;}
	.st6{fill:#DCD2C6;}
	.st7{fill:#FFE074;}
	.st8{fill:#FAAD17;}
	.st9{fill:#E8624D;}
	.st10{fill:#A28F80;}
	.st11{fill:url(#SVGID_1_);}
	.st12{fill:#AE9E8F;}
	.st13{fill:none;}
	.st14{opacity:0.5;}
	.st15{fill:#F1D1AE;}
	.st16{opacity:0.5;fill:url(#SVGID_2_);}
</style>
<path class="st0" d="M311.6,713.5c-130.4,0-233.7,12.4-311.2,27.5v159.1h1124.8c0-367.7,0-293.6,0-361.7
	C728.9,538.4,645.4,713.5,311.6,713.5z"/>
<path class="st1" d="M741.5,608.2c36.1-6.4,276.9-45.5,383.7,27c0-66.3,0-55.5,0-96.7C954.1,538.4,841.3,571.1,741.5,608.2z"/>
<path class="st2" d="M1125.2,442.2c-45,6.8-79.8,55.1-79.8,113.8c0,58.7,34.9,107,79.8,113.8V442.2z"/>
<path class="st1" d="M0,741l-0.2,159l304.9,0.1c15.1-19,23.1-40.6,19.2-65c-10.5-65.5,43.8-105.4,96.3-128.3
	c-33.3,4.3-69.2,6.7-108.6,6.7C181.2,713.5,77.9,725.9,0,741z"/>
<g>
	<polygon class="st3" points="509.4,679.9 509.4,679.9 509.4,679.9 	"/>
</g>
<path class="st4" d="M985.9,800.7c16.3,25.1-13.3,55.2-91.8,68.1c-54.1,8.8-141.6-4.1-150.7-5.3c-36.1-4.9-79.6-5.3-93.6-16.7
	c-12-9.8-17.2-21.1-17.7-32.4c-0.9-19.7,31-52.4,69.7-62.6c18.5-4.9,58.8-5.3,82.9-6.4c29.8-1.4,56-10.9,84.7-6.1
	C921.4,747.9,970.5,777.1,985.9,800.7z"/>
<path class="st5" d="M938.3,799.9c15.7,24-12.7,45.6-66.9,50.6c-13.1,1.2-49.6,1.3-64.7,0.6c-34.8-1.7-39.5-11.5-60.3-21.1
	c-19.4-8.9-30.5-7.9-31-19c-0.4-9,14-14.8,24.7-23.7c6.6-5.5,5.1-16.6,13.2-22c8.6-5.7,28.1-3.8,43.3-4.5
	c17.6-0.8,44.6-5.5,61.9-3.2C899.3,763.1,926.5,781.8,938.3,799.9z"/>
<path class="st6" d="M854.6,798.3c3.4,6.8-8.9,13.4-28.7,14c-20.8,0.6-38-5.6-37.5-13.1c0.4-6.6,15-11.5,31.9-11.5
	C836.6,787.7,851.6,792.2,854.6,798.3z"/>
<path class="st7" d="M826.7,790c0,0-3.3-5.4-4-8.4c-0.5-2.1-2-4.8-2.7-6.9c-0.3-0.9-1-1.6-2.1,0.9c-1.7,3.7-3.6,9.8-1.6,14.4
	C819.8,797.6,827.5,793.6,826.7,790z"/>
<path class="st8" d="M825.7,800c0,0,4.5-6,3-13.7c-0.7-3.8-2.1-6.5-3.1-8.8c-1.1-2.4-2.7-5.9-4.5-1.9c-2.5,5.5-5.5,13.6-4.6,16.8
	C818,797.9,825.7,800,825.7,800z"/>
<path class="st9" d="M815.4,800.9c1.1,0.5,3,1,5.8,1c5.3,0,7.2-1.7,7.2-1.7c1.4-1.7,1.7-5.4,1.3-9.7c-0.2-1.9-4.2-2.7-6.3-4.9
	c-3-3-4.6-6.8-7.2-3.7c-7.7,9.3-2.1,18.3-2.1,18.3S814.5,800.5,815.4,800.9z"/>
<path class="st10" d="M993.9,877.7L931.2,706h0c-1.4-2.7-5.5,0-5.5,1.4c0,0,0,0,0,0l62.8,171.8L993.9,877.7z"/>
<radialGradient id="SVGID_1_" cx="838.383" cy="-34.1306" r="80.6611" gradientTransform="matrix(1.162986e-02 -0.7912 0.4705 6.626297e-03 829.7258 1472.7693)" gradientUnits="userSpaceOnUse">
	<stop  offset="0" style="stop-color:#E8624D"/>
	<stop  offset="1" style="stop-color:#FFE074;stop-opacity:0"/>
</radialGradient>
<path class="st11" d="M813.7,801.6c1.4,0.6,3.8,1.2,7.5,1.2c6.8,0,9.3-2.2,9.3-2.2c4.4-5.2,0-24.4-3.2-36.3c-1.6-5.8-3.2-7.4-3.3-6
	c-0.1,0.9-0.1,0.7-0.4,2.1c-1,4.4-3.4,10.6-8.8,17c-9.9,11.7-2.7,23.2-2.7,23.2S812.7,801,813.7,801.6z"/>
<path class="st5" d="M925.7,706.9c0-0.7,2-2,2.7-0.7L944,749c0,0,0.1,0.1,0.1,0.1l30.3,82.8l0.5,1.4c0,0,0,0.2,0.1,0.4l15,40.9
	l0.5,1.4c0,0,0.2,0.9-0.2,1c-0.5,0.1-2.2,0.5-2.2,0.5l-15.7-42.9c0,0,0,0,0,0l-31.1-85c0,0,0-0.1,0-0.1L925.7,706.9z"/>
<path class="st12" d="M936.4,706l-61.2,167.3l-1,2.7c0,0-0.5,1.8,0.5,2c0.9,0.2,4.4,1.1,4.4,1.1l62.8-171.8
	C941.9,706,937.8,703.2,936.4,706z"/>
<path class="st5" d="M938.9,706.9c0-0.7-2-2-2.7-0.7L920.5,749c0,0-0.1,0.1-0.1,0.1l-30.3,82.8l-0.5,1.4c0,0,0,0.2-0.1,0.4l-15,40.9
	l-0.5,1.4c0,0-0.2,0.9,0.2,1c0.5,0.1,2.2,0.5,2.2,0.5l15.7-42.9c0,0,0,0,0,0l31.1-85c0,0,0-0.1,0-0.1L938.9,706.9z"/>
<rect x="-178.2" y="609" class="st13" width="680.3" height="291.1"/>
<path class="st2" d="M1125.2,501.2c-62,8.3-110.2,74.6-110.2,155.2s48.3,146.8,110.2,155.2V501.2z"/>
<g class="st14">
	<path class="st15" d="M1054.3,606.3c-4.6-10.9-8.2-21.3-10.2-39.1c-12.1,24-19.6,52.2-20.8,82.5c-1.3,32.6,4.9,63.3,16.7,89.5
		c-1.5-14.6-2-30-1.4-45.9C1039.8,661.4,1045.5,631.6,1054.3,606.3z"/>
</g>
<path class="st2" d="M-0.2,774.5l0,125.5h67.5c0.6-4.9,0.9-9.9,0.9-15C68.2,836.6,40.4,794.7-0.2,774.5z"/>
<path class="st2" d="M232.6,900c12.6-19.3,19.9-42.4,19.9-67.2c0-68.2-55.3-123.4-123.4-123.4S5.7,764.7,5.7,832.8
	c0,24.8,7.3,47.8,19.9,67.2H232.6z"/>
<path class="st2" d="M311.6,744c-68.2,0-123.4,69.9-123.4,156H435C435,813.8,379.8,744,311.6,744z"/>
<path class="st4" d="M400.5,893.8c0,2.1,0,4.1-0.1,6.2h26.3c-1.2-75.3-45.2-137.3-102.7-149.5C368.8,773.6,400.5,829.1,400.5,893.8z
	"/>
<polygon class="st9" points="1125.2,900.1 1125.2,741.1 936.4,720.1 878.9,878.8 956.9,900.1 "/>
<path class="st6" d="M1050.5,857c-87.6,6.8-171.7,22.2-171.7,22.2l77.8,21h168.6V798C1121.3,811.4,1102.3,852.9,1050.5,857z"/>
<path class="st3" d="M682.2,759c-22,10.5-39.5,27.2-46.7,41.7l65.5-2.7c17.3-0.7,11-17.9,11-17.9L682.2,759z"/>
<linearGradient id="SVGID_2_" gradientUnits="userSpaceOnUse" x1="645.5071" y1="774.4604" x2="716.3404" y2="803.1271">
	<stop  offset="0" style="stop-color:#FFFFFF;stop-opacity:0"/>
	<stop  offset="1" style="stop-color:#01232D"/>
</linearGradient>
<path class="st16" d="M682.2,759c-22,10.5-39.5,27.2-46.7,41.7l65.5-2.7c17.3-0.7,11-17.9,11-17.9L682.2,759z"/>
<g>
	<polygon class="st2" points="723.7,782.1 704.6,791.5 701.1,798 732.6,803.7 	"/>
	<polygon class="st6" points="723.7,782.1 730.5,769.5 746.5,765.9 757.7,776.2 748.9,787.1 732.6,803.7 	"/>
	<polygon class="st2" points="730.5,769.5 712,780.1 704.6,791.5 723.7,782.1 	"/>
</g>
<polygon class="st6" points="879.1,879.1 884.9,900.1 956.9,900.1 954.9,898.8 "/>
<path class="st4" d="M1125.2,448.6c-29.6,7.7-56.2,32.2-68.1,69.9c-4,12.8-5.3,29-5.6,44.5c0.4,5.1,1.1,10,2.1,14.9
	c2-7.6,5.1-19.1,5.8-21.8c11.1-41.2,35-77.4,65.8-85.7V448.6z"/>
</svg>
