<?xml version="1.0" encoding="utf-8"?>
<!-- Generator: Adobe Illustrator 22.0.1, SVG Export Plug-In . SVG Version: 6.00 Build 0)  -->
<svg version="1.1" id="Layer_1" xmlns="http://www.w3.org/2000/svg" xmlns:xlink="http://www.w3.org/1999/xlink" x="0px" y="0px"
	 viewBox="0 0 349 340.6" style="enable-background:new 0 0 349 340.6;" xml:space="preserve">
<style type="text/css">
	.st0{fill:#849EA8;}
</style>
<g>
	<polygon class="st0" points="164.8,126.3 164.8,81.1 89,131.7 122.8,154.3 	"/>
	<polygon class="st0" points="81.2,149.8 81.2,182.2 105.5,166 	"/>
	<polygon class="st0" points="89,200.3 164.8,250.8 164.8,205.7 122.8,177.7 	"/>
	<polygon class="st0" points="259.9,131.7 184.2,81.1 184.2,126.3 226.1,154.3 	"/>
	<path class="st0" d="M174.5,15.2C91.2,15.2,23.7,82.7,23.7,166c0,83.3,67.5,150.8,150.8,150.8c83.3,0,150.8-67.5,150.8-150.8
		C325.2,82.7,257.7,15.2,174.5,15.2z M282.8,208.3L179.9,277c-3.5,2.2-7.3,2.2-10.8,0L66.1,208.3c-2.6-1.8-4.3-4.9-4.3-8v-68.6
		c0-3.1,1.6-6.3,4.3-8L169.1,55c3.5-2.2,7.3-2.2,10.8,0l102.9,68.6h0c2.6,1.8,4.3,4.9,4.3,8v68.6
		C287.1,203.4,285.5,206.6,282.8,208.3z"/>
	<polygon class="st0" points="174.5,143.1 140.3,166 174.5,188.9 208.7,166 	"/>
	<polygon class="st0" points="267.7,182.2 267.7,149.8 243.5,166 	"/>
	<polygon class="st0" points="184.2,205.7 184.2,250.8 259.9,200.3 226.1,177.7 	"/>
</g>
</svg>
