<?xml version="1.0" encoding="utf-8"?>
<!-- Generator: Adobe Illustrator 22.0.1, SVG Export Plug-In . SVG Version: 6.00 Build 0)  -->
<svg version="1.1" id="Layer_1" xmlns="http://www.w3.org/2000/svg" xmlns:xlink="http://www.w3.org/1999/xlink" x="0px" y="0px"
	 viewBox="0 0 349 340.6" style="enable-background:new 0 0 349 340.6;" xml:space="preserve">
<style type="text/css">
	.st0{fill:#849EA8;}
</style>
<g>
	<path class="st0" d="M174.5,15.2C91.2,15.2,23.7,82.7,23.7,166c0,83.3,67.5,150.8,150.8,150.8c83.3,0,150.8-67.5,150.8-150.8
		C325.2,82.7,257.7,15.2,174.5,15.2z M249.4,245c0,6.9-5.6,12.5-12.5,12.5H112.1c-6.9,0-12.5-5.6-12.5-12.5V86.9
		c0-6.9,5.6-12.5,12.5-12.5h70.7v54.1c0,6.9,5.6,12.5,12.5,12.5h54.1V245z M249.4,124.4h-49.9V74.4h3.2c3.3,0,6.5,1.3,8.8,3.7
		l34.3,34.3c2.3,2.3,3.7,5.5,3.7,8.8V124.4z"/>
</g>
<g>
	<path class="st0" d="M173.5,200.7c-0.5,6.9-3,12.3-7.6,16.3c-4.6,4-10.6,5.9-18.1,5.9c-8.2,0-14.7-2.8-19.4-8.3
		c-4.7-5.5-7.1-13.1-7.1-22.7V188c0-6.2,1.1-11.6,3.3-16.3s5.3-8.3,9.3-10.8c4-2.5,8.7-3.8,14-3.8c7.4,0,13.3,2,17.8,5.9
		s7.1,9.5,7.8,16.7h-13.2c-0.3-4.1-1.5-7.1-3.5-9c-2-1.9-5-2.8-9-2.8c-4.4,0-7.7,1.6-9.9,4.7s-3.3,8-3.4,14.7v4.8
		c0,6.9,1,12,3.1,15.2c2.1,3.2,5.4,4.8,9.9,4.8c4.1,0,7.1-0.9,9.1-2.8s3.2-4.7,3.5-8.6H173.5z"/>
	<path class="st0" d="M205.8,206.2l14.5-48.1H235l-22.3,64h-13.8l-22.2-64h14.6L205.8,206.2z"/>
</g>
</svg>
