<?xml version="1.0" encoding="utf-8"?>
<!-- Generator: Adobe Illustrator 22.0.1, SVG Export Plug-In . SVG Version: 6.00 Build 0)  -->
<svg version="1.1" id="Layer_1" xmlns="http://www.w3.org/2000/svg" xmlns:xlink="http://www.w3.org/1999/xlink" x="0px" y="0px"
	 viewBox="0 0 16 16" style="enable-background:new 0 0 16 16;" xml:space="preserve">
<style type="text/css">
	.st0{fill:#E8624D;}
	.st1{fill:#DCD2C6;}
	.st2{fill:#FBC300;}
	.st3{fill:#01232D;}
	.st4{fill:#FFF7EA;}
	.st5{fill:#003D58;}
	.st6{fill:#849EA8;}
</style>
<g>
	<path class="st0" d="M4.9,2.9c1-0.4,2-0.6,3.1-0.6c4.4,0,8,3.6,8,8c0,0-16,0-16,0C0,6.9,2,4.1,4.9,2.9"/>
	<path class="st0" d="M13.9,11.1h-2.5c0,0-0.3,0-0.3-0.2c0-0.2,0.2-0.2,0.3-0.2h4.3c0,0,0.3,0,0.3-0.2c0-0.2,0-0.2,0-0.2H4.1H3.8
		l-3.8,0c0,0,0,0,0,0.2c0,0.2,0.3,0.2,0.3,0.2H4c0,0,0.3,0,0.3,0.2c0,0.2-0.3,0.2-0.3,0.2H2.5c0,0-0.3,0-0.3,0.2s0.3,0.2,0.3,0.2
		h3.7c0.1,0,0.2,0.1,0.2,0.2C6.3,12,6.1,12,6.1,12H4.7c0,0-0.3,0-0.3,0.2c0,0.2,0.3,0.2,0.3,0.2h0.8c0,0,0.3,0,0.3,0.2
		c0,0.2-0.3,0.2-0.3,0.2H5.4c0,0-0.3,0-0.3,0.2c0,0.2,0.3,0.2,0.3,0.2h1.8c0,0,0.3,0,0.3,0.2c0,0.2-0.3,0.2-0.3,0.2H7
		c0,0-0.3,0-0.3,0.2S7,14.3,7,14.3h0.7h0.2h1.9c0,0,0.3,0,0.3-0.2s-0.3-0.2-0.3-0.2H9.6c0,0-0.3,0-0.3-0.2c0-0.2,0.2-0.2,0.3-0.2
		h2.7c0,0,0.3,0,0.3-0.2c0-0.2-0.3-0.2-0.3-0.2h-0.5c0,0-0.3,0-0.3-0.2c0-0.2,0.2-0.2,0.3-0.2h1.4c0,0,0.3,0,0.3-0.2
		c0-0.2-0.3-0.2-0.3-0.2h0c0,0-0.3,0-0.3-0.2c0-0.1,0.1-0.2,0.2-0.2h0.9c0,0,0.3,0,0.3-0.2S13.9,11.1,13.9,11.1z"/>
	<path class="st1" d="M11.2,7.5L9,7.5v0H8.6c0,0-0.2,0-0.2,0.2c0,0.2,0.2,0.2,0.2,0.2h2.2l0,0h0.4c0,0,0.2,0,0.2-0.2
		C11.4,7.5,11.2,7.5,11.2,7.5z"/>
	<circle class="st2" cx="8.2" cy="6.9" r="1.3"/>
	<path class="st3" d="M12.5,9.9C12.5,9.9,12.5,9.9,12.5,9.9C12.5,9.9,12.5,9.9,12.5,9.9c0-0.1,0-0.1-0.1-0.1h0c0,0,0,0,0,0
		c0,0,0,0,0,0c-0.5-0.6-2-2.5-2.9-3.6c0,0,0,0-0.1,0c0,0,0,0,0,0c0,0-0.1,0-0.1,0.1c-0.1,0.1-3,3.8-3,3.8h2.3h0.8h2.9h0h0L12.5,9.9
		C12.4,10,12.4,10,12.5,9.9C12.4,10,12.5,10,12.5,9.9z"/>
	<path class="st4" d="M11.7,7.7l-1.1,0v0h-0.4c0,0-0.2,0-0.2,0.2C10.1,8,10.2,8,10.2,8h1.5c0,0,0.2,0,0.2-0.2
		C11.9,7.7,11.7,7.7,11.7,7.7z"/>
	<path class="st1" d="M9.3,6.2C9.3,6.2,9.3,6.2,9.3,6.2C9.3,6.2,9.3,6.2,9.3,6.2C9.3,6.2,9.3,6.2,9.3,6.2C9.3,6.2,9.3,6.2,9.3,6.2
		C9.3,6.2,9.3,6.2,9.3,6.2C9.3,6.2,9.3,6.2,9.3,6.2C9.3,6.2,9.3,6.2,9.3,6.2C9.3,6.2,9.3,6.2,9.3,6.2C9.3,6.2,9.3,6.2,9.3,6.2
		C9.3,6.2,9.3,6.2,9.3,6.2C9.3,6.2,9.3,6.2,9.3,6.2C9.3,6.2,9.3,6.2,9.3,6.2C9.3,6.2,9.3,6.2,9.3,6.2C9.3,6.2,9.3,6.2,9.3,6.2
		C9.3,6.2,9.3,6.2,9.3,6.2C9.3,6.2,9.3,6.2,9.3,6.2C9.3,6.3,9.3,6.3,9.3,6.2C9.2,6.3,9.2,6.3,9.3,6.2C9.2,6.3,9.2,6.3,9.3,6.2
		C9.2,6.3,9.2,6.3,9.3,6.2C9.2,6.3,9.2,6.3,9.2,6.3c0,0,0,0,0,0c0,0,0,0,0,0c0,0,0,0,0,0c0,0,0,0,0,0c0,0,0,0,0,0c0,0,0,0,0,0
		C9.1,6.4,9,6.6,8.9,6.8c0,0-0.1,0.3,0.2,0.3c0,0.2,0.3,0.2,0.3,0.2c0,0.1,0.1,0.2,0.2,0.2c0.1,0,0.2,0,0.3,0c0.1,0,0.2-0.1,0.2-0.2
		c0.1,0,0.1,0,0.2-0.1c0,0,0,0,0,0c0,0,0-0.1-0.1-0.1c0,0,0,0,0,0c0,0,0-0.1-0.1-0.1c0,0,0,0,0,0c0,0,0,0,0,0c0,0,0,0,0,0
		c0,0,0,0,0,0c0,0,0,0,0,0c0,0,0,0,0,0c0,0,0,0,0,0c0,0,0,0,0,0c0,0,0,0,0,0c0,0,0,0,0,0c0,0,0,0,0,0c0,0,0,0,0,0c0,0,0,0,0,0
		c0,0,0,0,0,0c0,0,0,0,0,0c0,0,0,0,0,0c0,0,0,0-0.1-0.1c0,0,0,0,0,0c0,0,0,0,0,0c0,0,0,0,0,0c0,0,0,0,0,0c0,0,0,0,0,0c0,0,0,0,0,0
		c0,0,0,0,0,0c0,0,0,0,0,0c0,0,0,0,0,0c0,0,0,0,0,0c0,0,0,0,0,0c0,0,0,0,0,0c0,0,0,0,0,0c0,0,0,0,0,0c0,0,0,0,0,0c0,0,0,0,0,0
		c0,0,0,0,0,0c0,0,0,0,0,0c0,0,0,0,0,0c0,0,0,0,0,0c0,0-0.1-0.1-0.1-0.1c0,0,0,0,0,0c0,0,0,0,0,0c0,0,0,0,0,0c0,0,0,0,0,0
		c0,0,0,0,0,0c0,0,0,0,0,0c0,0,0,0,0,0c0,0,0,0,0,0c0,0,0,0,0,0c0,0,0,0,0,0c0,0,0,0,0,0c0,0,0,0,0,0c0,0,0,0,0,0c0,0,0,0,0,0
		c0,0,0,0,0,0c0,0,0,0,0,0c0,0,0,0,0,0c0,0,0,0,0,0c0,0,0,0,0,0c0,0,0,0,0,0c0,0,0,0,0,0c0,0,0,0,0,0c0,0,0,0,0,0c0,0,0,0,0,0
		c0,0,0,0,0,0c0,0,0,0,0,0c0,0,0,0,0,0c0,0,0,0,0,0c0,0,0,0,0,0c0,0,0,0,0,0c0,0,0,0,0,0c0,0,0,0,0,0c0,0,0,0,0,0c0,0,0,0,0,0
		c0,0,0,0,0,0c0,0,0,0,0,0c0,0,0,0,0,0c0,0,0,0,0,0c0,0,0,0,0,0c0,0,0,0,0,0c0,0,0,0,0,0c0,0,0,0,0,0c0,0,0,0,0,0c0,0,0,0,0,0
		c0,0,0,0,0,0c0,0,0,0,0,0c0,0,0,0,0,0c0,0,0,0,0,0c0,0,0,0,0,0c0,0,0,0,0,0c0,0,0,0,0,0c0,0,0,0,0,0c0,0,0,0,0,0c0,0,0,0,0,0
		c0,0,0,0,0,0c0,0,0,0,0,0c0,0,0,0,0,0c0,0,0,0,0,0c0,0,0,0,0,0C9.4,6.1,9.4,6.1,9.3,6.2C9.4,6.1,9.4,6.1,9.3,6.2
		C9.4,6.1,9.4,6.1,9.3,6.2C9.4,6.1,9.4,6.1,9.3,6.2C9.4,6.1,9.4,6.1,9.3,6.2C9.4,6.1,9.4,6.1,9.3,6.2C9.4,6.1,9.4,6.1,9.3,6.2
		C9.4,6.1,9.4,6.1,9.3,6.2C9.4,6.1,9.4,6.1,9.3,6.2C9.4,6.1,9.4,6.1,9.3,6.2C9.4,6.1,9.4,6.1,9.3,6.2C9.4,6.1,9.4,6.1,9.3,6.2
		C9.4,6.1,9.4,6.1,9.3,6.2C9.4,6.1,9.4,6.1,9.3,6.2C9.4,6.1,9.4,6.1,9.3,6.2C9.4,6.1,9.4,6.1,9.3,6.2C9.4,6.1,9.4,6.1,9.3,6.2
		C9.4,6.1,9.4,6.1,9.3,6.2C9.4,6.1,9.4,6.1,9.3,6.2C9.4,6.1,9.4,6.1,9.3,6.2C9.4,6.1,9.4,6.1,9.3,6.2C9.3,6.1,9.3,6.1,9.3,6.2
		C9.3,6.1,9.3,6.1,9.3,6.2C9.3,6.1,9.3,6.1,9.3,6.2C9.3,6.1,9.3,6.1,9.3,6.2C9.3,6.1,9.3,6.2,9.3,6.2C9.3,6.2,9.3,6.2,9.3,6.2
		C9.3,6.2,9.3,6.2,9.3,6.2C9.3,6.2,9.3,6.2,9.3,6.2C9.3,6.2,9.3,6.2,9.3,6.2C9.3,6.2,9.3,6.2,9.3,6.2C9.3,6.2,9.3,6.2,9.3,6.2z"/>
	<path class="st5" d="M9.5,6.1C9.5,6.1,9.5,6.1,9.5,6.1C9.4,6.1,9.4,6.1,9.5,6.1c-0.1,0-0.1,0-0.2,0.1c-0.1,0.1-3,3.8-3,3.8h1.5
		l1.2-3L9.5,6.1z"/>
	<path class="st4" d="M9.3,6.2C9.3,6.2,9.3,6.2,9.3,6.2C9.3,6.2,9.3,6.2,9.3,6.2C9.3,6.2,9.3,6.2,9.3,6.2C9.3,6.2,9.3,6.2,9.3,6.2
		C9.3,6.2,9.3,6.2,9.3,6.2C9.3,6.2,9.3,6.2,9.3,6.2C9.3,6.2,9.3,6.2,9.3,6.2C9.3,6.2,9.3,6.2,9.3,6.2C9.3,6.2,9.3,6.2,9.3,6.2
		C9.3,6.2,9.3,6.2,9.3,6.2C9.3,6.2,9.3,6.2,9.3,6.2C9.3,6.2,9.3,6.2,9.3,6.2C9.3,6.2,9.3,6.2,9.3,6.2C9.3,6.2,9.3,6.2,9.3,6.2
		C9.3,6.2,9.3,6.2,9.3,6.2C9.3,6.2,9.3,6.2,9.3,6.2C9.3,6.2,9.3,6.2,9.3,6.2C9.3,6.2,9.3,6.2,9.3,6.2C9.3,6.2,9.3,6.2,9.3,6.2
		C9.3,6.2,9.3,6.2,9.3,6.2C9.3,6.3,9.2,6.3,9.3,6.2C9.2,6.3,9.2,6.3,9.3,6.2C9.2,6.3,9.2,6.3,9.3,6.2C9.2,6.3,9.2,6.3,9.2,6.3
		c0,0,0,0,0,0c0,0,0,0,0,0c0,0,0,0,0,0c0,0,0,0,0,0c0,0,0,0,0,0c0,0,0,0,0,0c0,0,0,0,0,0c0,0,0,0,0,0c0,0,0,0,0,0c0,0,0,0,0,0
		c0,0,0,0,0,0c0,0,0,0,0,0c0,0,0,0,0,0c0,0,0,0,0,0c0,0,0,0,0,0c0,0,0,0,0,0c0,0,0,0,0,0c0,0,0,0,0,0c0,0,0,0,0,0c0,0,0,0,0,0
		c0,0,0,0,0,0c0,0,0,0,0,0c0,0,0,0,0,0c0,0,0,0,0,0c0,0,0,0,0,0c0,0,0,0,0,0c0,0,0,0,0,0c0,0,0,0,0,0c0,0,0,0,0,0c0,0,0,0,0,0
		c0,0,0,0,0,0c0,0,0,0,0,0c0,0,0,0,0,0c0,0,0,0,0,0c0,0,0,0,0,0c0,0,0,0,0,0c0,0,0,0,0,0c0,0,0,0,0,0c0,0,0,0,0,0c0,0,0,0,0,0
		c0,0,0,0,0,0c0,0-0.1,0.3,0.2,0.3l0,0l0.4-0.9c0,0,0,0,0,0c0,0,0,0,0,0c0,0,0,0,0,0c0,0,0,0,0,0c0,0,0,0,0,0c0,0,0,0,0,0
		c0,0,0,0,0,0c0,0,0,0,0,0c0,0,0,0,0,0c0,0,0,0,0,0c0,0,0,0,0,0C9.4,6.1,9.4,6.1,9.3,6.2C9.4,6.1,9.4,6.1,9.3,6.2
		C9.4,6.1,9.4,6.1,9.3,6.2C9.4,6.1,9.4,6.1,9.3,6.2C9.4,6.1,9.4,6.1,9.3,6.2C9.4,6.1,9.4,6.1,9.3,6.2C9.4,6.1,9.4,6.1,9.3,6.2
		C9.4,6.1,9.4,6.1,9.3,6.2C9.4,6.1,9.4,6.1,9.3,6.2C9.4,6.1,9.4,6.1,9.3,6.2C9.4,6.1,9.4,6.1,9.3,6.2C9.4,6.1,9.4,6.1,9.3,6.2
		C9.4,6.1,9.4,6.1,9.3,6.2C9.4,6.1,9.4,6.1,9.3,6.2C9.4,6.1,9.4,6.1,9.3,6.2C9.4,6.1,9.4,6.1,9.3,6.2C9.4,6.1,9.4,6.1,9.3,6.2
		C9.4,6.1,9.4,6.1,9.3,6.2C9.4,6.1,9.4,6.1,9.3,6.2C9.4,6.1,9.4,6.1,9.3,6.2C9.4,6.1,9.4,6.1,9.3,6.2C9.4,6.1,9.4,6.1,9.3,6.2
		C9.4,6.1,9.4,6.1,9.3,6.2C9.4,6.1,9.4,6.1,9.3,6.2C9.4,6.1,9.4,6.1,9.3,6.2C9.4,6.1,9.4,6.1,9.3,6.2C9.4,6.1,9.4,6.1,9.3,6.2
		C9.4,6.1,9.4,6.1,9.3,6.2C9.4,6.1,9.3,6.1,9.3,6.2C9.3,6.1,9.3,6.1,9.3,6.2C9.3,6.1,9.3,6.1,9.3,6.2C9.3,6.1,9.3,6.1,9.3,6.2
		C9.3,6.1,9.3,6.1,9.3,6.2C9.3,6.1,9.3,6.1,9.3,6.2C9.3,6.1,9.3,6.2,9.3,6.2C9.3,6.2,9.3,6.2,9.3,6.2C9.3,6.2,9.3,6.2,9.3,6.2
		C9.3,6.2,9.3,6.2,9.3,6.2C9.3,6.2,9.3,6.2,9.3,6.2C9.3,6.2,9.3,6.2,9.3,6.2C9.3,6.2,9.3,6.2,9.3,6.2C9.3,6.2,9.3,6.2,9.3,6.2z"/>
	<path class="st1" d="M7.4,6.6l-2.3,0c0,0-0.3,0-0.3,0.2c0,0.2,0.3,0.2,0.3,0.2l2.3,0V6.6z"/>
	<path class="st4" d="M7.5,6.7l1.3,0c0,0,0.1,0,0.1,0.1c0,0.1-0.1,0.1-0.1,0.1l-1.3,0L7.5,6.7z"/>
	<path class="st4" d="M11.3,11.7H9.1H8.9l0,0c0,0-0.2,0-0.2-0.2s0.2-0.2,0.2-0.2l0,0H10c0,0,0.2,0,0.2-0.2C10.2,11,10,11,10,11H9.9
		l0,0c0,0-0.2,0-0.2-0.2c0-0.2,0.2-0.2,0.2-0.2l1,0h0c0,0,0.2,0,0.2-0.2c0-0.2-0.2-0.2-0.2-0.2l-1.2,0l-2.4,0c0,0,0,0,0,0l-1.2,0
		c0,0,0,0,0,0l-1.2,0c0,0-0.2,0-0.2,0.2c0,0.2,0.2,0.2,0.2,0.2h0l1,0c0,0,0.2,0,0.2,0.2C6.2,11,6,11,6,11l0,0H5.9c0,0-0.2,0-0.2,0.2
		c0,0.2,0.2,0.2,0.2,0.2h1.3l0,0c0,0,0.2,0,0.2,0.2s-0.2,0.2-0.2,0.2l0,0H7.1c0,0-0.2,0-0.2,0.2s0.2,0.2,0.2,0.2h0.8l0.4,0
		c0,0,0.2,0,0.2,0.2c0,0.2-0.2,0.2-0.2,0.2l0,0H8.3c0,0-0.2,0-0.2,0.2s0.2,0.2,0.2,0.2H9h0.3h0.8c0,0,0.2,0,0.2-0.2
		s-0.2-0.2-0.2-0.2H10l0,0c0,0-0.2,0-0.2-0.2c0-0.2,0.2-0.2,0.2-0.2l0,0h1.3c0,0,0.2,0,0.2-0.2S11.3,11.7,11.3,11.7z"/>
	<path class="st6" d="M11.2,10.2C11.2,10.2,11.2,10.2,11.2,10.2C11.2,10.1,11.2,10.1,11.2,10.2c0-0.1-0.1-0.1-0.1-0.1h0c0,0,0,0,0,0
		c0,0,0,0,0,0c-0.8-1-3.8-4.8-3.9-4.9C7.2,5.1,7.2,5.1,7.2,5.1c0,0,0,0-0.1,0c0,0-0.1,0-0.1,0.1c-0.1,0.1-3.3,4.2-3.9,5
		c0,0,0.1,0.2,0.1,0.2h4h4h0h0C11.1,10.3,11.1,10.3,11.2,10.2C11.2,10.3,11.2,10.3,11.2,10.2C11.2,10.3,11.2,10.2,11.2,10.2z"/>
	<path class="st3" d="M7.1,5.2V5.1c0,0,0,0,0,0c0,0,0,0,0,0c0,0,0,0,0,0c0,0,0,0,0,0c0,0,0,0,0,0c0,0,0,0,0,0c0,0,0,0,0,0
		c0,0,0,0,0,0c0,0,0,0,0,0c0,0,0,0,0,0c0,0,0,0,0,0c0,0,0,0,0,0c0,0,0,0,0,0c0,0,0,0,0,0c0,0,0,0,0,0c0,0,0,0,0,0c0,0,0,0,0,0
		c0,0,0,0,0,0c0,0,0,0,0,0c0,0,0,0,0,0c0,0,0,0,0,0c0,0,0,0,0,0c0,0,0,0,0,0c0,0,0,0,0,0c0,0,0,0,0,0c0,0,0,0,0,0c0,0,0,0,0,0
		c0,0,0,0,0,0c0,0,0,0,0,0c0,0,0,0,0,0c0,0,0,0,0,0c0,0,0,0,0,0c0,0,0,0,0,0C6.9,5.3,3.9,9,3.1,10c0,0,0,0,0,0c0,0,0,0,0,0h0
		c0,0,0,0-0.1,0.1c0,0,0,0,0,0c0,0,0,0,0,0c0,0,0,0.1,0.1,0.1c0,0,0,0,0,0c0,0,0,0,0,0h0h0H5l1.7-4L7.1,5.2z"/>
	<path class="st4" d="M7,5.2C7,5.2,7,5.2,7,5.2C7,5.2,7,5.2,7,5.2C7,5.2,7,5.2,7,5.2C6.9,5.2,6.9,5.2,7,5.2C6.9,5.2,6.9,5.2,7,5.2
		C6.9,5.2,6.9,5.2,7,5.2C6.9,5.2,6.9,5.2,7,5.2C6.9,5.2,6.9,5.2,7,5.2C6.9,5.2,6.9,5.2,7,5.2C6.9,5.2,6.9,5.2,7,5.2
		C6.9,5.2,6.9,5.2,7,5.2C6.9,5.2,6.9,5.2,7,5.2C6.9,5.2,6.9,5.2,7,5.2C6.9,5.2,6.9,5.2,7,5.2C6.9,5.2,6.9,5.2,7,5.2
		C6.9,5.2,6.9,5.2,7,5.2C6.9,5.3,6.9,5.3,6.9,5.3c0,0,0,0,0,0c0,0,0,0,0,0c0,0,0,0,0,0c0,0,0,0,0,0c0,0,0,0,0,0c0,0,0,0,0,0
		c0,0,0,0,0,0c0,0,0,0,0,0c0,0,0,0,0,0c0,0,0,0,0,0C6.7,5.5,6.5,5.7,6.4,5.9c0,0-0.1,0.4,0.3,0.4c0,0.3,0.5,0.2,0.5,0.2
		c0,0.2,0.1,0.2,0.3,0.2c0.1,0,0.3,0,0.4,0c0.1,0,0.3-0.1,0.3-0.2c0.1,0,0.2,0,0.2-0.1c0,0,0,0,0,0c0,0-0.1-0.1-0.1-0.1c0,0,0,0,0,0
		c0,0-0.1-0.1-0.1-0.1c0,0,0,0,0,0c0,0,0,0,0,0c0,0,0,0,0,0c0,0,0,0,0,0c0,0,0,0,0,0c0,0,0,0,0,0c0,0,0,0,0,0c0,0,0,0,0,0
		c0,0,0,0,0,0c0,0,0,0,0-0.1c0,0,0,0,0,0c0,0,0,0,0,0c0,0,0,0-0.1-0.1c0,0,0,0,0,0c0,0,0,0,0,0c0,0,0,0,0,0c0,0-0.1-0.1-0.1-0.1
		c0,0,0,0,0,0c0,0,0,0,0,0c0,0,0,0,0,0c0,0,0,0,0,0c0,0,0,0,0,0c0,0,0,0,0,0c0,0,0,0,0,0c0,0,0,0,0-0.1c0,0,0,0,0,0c0,0,0,0,0,0
		c0,0,0,0,0,0c0,0,0,0,0-0.1c0,0,0,0,0,0c0,0,0,0,0,0c0,0,0,0,0-0.1c0,0,0,0,0,0c0,0,0,0,0,0c0,0,0,0,0,0c0,0,0,0,0,0c0,0,0,0,0,0
		c0-0.1-0.1-0.1-0.1-0.1c0,0,0,0,0,0c0,0,0,0,0,0c0,0,0,0,0,0c0,0,0,0,0-0.1c0,0,0,0,0,0c0,0,0,0,0,0c0,0,0,0,0,0c0,0,0,0,0,0
		c0,0,0,0,0,0c0,0,0,0,0,0c0,0,0,0,0,0c0,0,0,0,0,0c0,0,0,0,0,0c0,0,0,0,0,0c0,0,0,0,0,0c0,0,0,0,0,0c0,0,0,0,0,0c0,0,0,0,0,0
		c0,0,0,0,0,0c0,0,0,0,0,0c0,0,0,0,0,0c0,0,0,0,0,0c0,0,0,0,0,0c0,0,0,0,0,0c0,0,0,0,0,0c0,0,0,0,0,0c0,0,0,0,0,0c0,0,0,0,0,0
		c0,0,0,0,0,0c0,0,0,0,0,0c0,0,0,0,0,0c0,0,0,0,0,0c0,0,0,0,0,0c0,0,0,0,0,0c0,0,0,0,0,0c0,0,0,0,0,0c0,0,0,0,0,0c0,0,0,0,0,0
		c0,0,0,0,0,0c0,0,0,0,0,0c0,0,0,0,0,0c0,0,0,0,0,0c0,0,0,0,0,0c0,0,0,0,0,0c0,0,0,0,0,0c0,0,0,0,0,0c0,0,0,0,0,0c0,0,0,0,0,0
		c0,0,0,0,0,0c0,0,0,0,0,0c0,0,0,0,0,0c0,0,0,0,0,0c0,0,0,0,0,0c0,0,0,0,0,0c0,0,0,0,0,0c0,0,0,0,0,0c0,0,0,0,0,0c0,0,0,0-0.1,0
		c0,0,0,0,0,0c0,0,0,0,0,0c0,0,0,0,0,0c0,0,0,0,0,0c0,0,0,0,0,0c0,0,0,0,0,0c0,0,0,0,0,0c0,0,0,0,0,0c0,0,0,0,0,0c0,0,0,0,0,0
		c0,0,0,0,0,0C7.1,5.1,7.1,5.1,7,5.2C7.1,5.1,7.1,5.1,7,5.2C7.1,5.1,7.1,5.1,7,5.2C7,5.1,7,5.1,7,5.2C7,5.1,7,5.1,7,5.2
		C7,5.1,7,5.1,7,5.2C7,5.1,7,5.1,7,5.2C7,5.1,7,5.1,7,5.2C7,5.1,7,5.1,7,5.2C7,5.1,7,5.1,7,5.2C7,5.1,7,5.1,7,5.2C7,5.1,7,5.1,7,5.2
		C7,5.1,7,5.1,7,5.2C7,5.1,7,5.1,7,5.2C7,5.1,7,5.1,7,5.2C7,5.1,7,5.1,7,5.2C7,5.1,7,5.1,7,5.2C7,5.1,7,5.1,7,5.2C7,5.1,7,5.1,7,5.2
		C7,5.1,7,5.1,7,5.2C7,5.2,7,5.2,7,5.2C7,5.2,7,5.2,7,5.2z"/>
	<path class="st1" d="M7,5.2C7,5.2,7,5.2,7,5.2C7,5.2,7,5.2,7,5.2C7,5.2,7,5.2,7,5.2C7,5.2,7,5.2,7,5.2C6.9,5.2,6.9,5.2,7,5.2
		C6.9,5.2,6.9,5.2,7,5.2C6.9,5.2,6.9,5.2,7,5.2C6.9,5.2,6.9,5.2,7,5.2C6.9,5.2,6.9,5.2,7,5.2C6.9,5.2,6.9,5.2,7,5.2
		C6.9,5.2,6.9,5.2,7,5.2C6.9,5.2,6.9,5.2,7,5.2C6.9,5.2,6.9,5.2,7,5.2C6.9,5.2,6.9,5.2,7,5.2C6.9,5.2,6.9,5.2,7,5.2
		C6.9,5.2,6.9,5.2,7,5.2C6.9,5.2,6.9,5.2,7,5.2C6.9,5.2,6.9,5.2,7,5.2C6.9,5.2,6.9,5.2,7,5.2C6.9,5.2,6.9,5.2,7,5.2
		C6.9,5.3,6.9,5.3,6.9,5.3c0,0,0,0,0,0c0,0,0,0,0,0c0,0,0,0,0,0c0,0,0,0,0,0c0,0,0,0,0,0c0,0,0,0,0,0c0,0,0,0,0,0c0,0,0,0,0,0
		c0,0,0,0,0,0c0,0,0,0,0,0c0,0,0,0,0,0c0,0,0,0,0,0c0,0,0,0,0,0c0,0,0,0,0,0c0,0,0,0,0,0c0,0,0,0,0,0c0,0,0,0,0,0c0,0,0,0,0,0
		c0,0,0,0,0,0c0,0,0,0,0,0c0,0,0,0,0,0c0,0,0,0,0,0c0,0,0,0,0,0c0,0,0,0,0,0c0,0,0,0,0,0c0,0,0,0,0,0c0,0,0,0,0,0c0,0,0,0,0,0
		c0,0,0,0,0,0c0,0,0,0,0,0c0,0,0,0,0,0c0,0,0,0,0,0c0,0,0,0,0,0c0,0,0,0,0,0c0,0,0,0,0,0c0,0,0,0,0,0c0,0,0,0,0,0c0,0,0,0,0,0
		c0,0,0,0,0,0c0,0,0,0,0,0c0,0,0,0,0,0.1c0,0,0,0,0,0.1c0,0,0,0,0,0c0,0,0,0,0,0c0,0-0.1,0.4,0.3,0.4l0,0l0.5-1.2c0,0,0,0,0,0
		c0,0,0,0,0,0c0,0,0,0,0,0c0,0,0,0,0,0c0,0,0,0,0,0c0,0,0,0,0,0c0,0,0,0,0,0c0,0,0,0,0,0c0,0,0,0,0,0c0,0,0,0,0,0c0,0,0,0,0,0
		c0,0,0,0,0,0c0,0,0,0,0,0c0,0,0,0,0,0c0,0,0,0,0,0c0,0,0,0,0,0c0,0,0,0,0,0c0,0,0,0,0,0c0,0,0,0,0,0c0,0,0,0,0,0c0,0,0,0,0,0
		c0,0,0,0,0,0c0,0,0,0,0,0c0,0,0,0,0,0c0,0,0,0,0,0C7.1,5.1,7.1,5.1,7,5.2C7.1,5.1,7.1,5.1,7,5.2C7.1,5.1,7.1,5.1,7,5.2
		C7.1,5.1,7.1,5.1,7,5.2C7,5.1,7,5.1,7,5.2C7,5.1,7,5.1,7,5.2C7,5.1,7,5.1,7,5.2C7,5.1,7,5.1,7,5.2C7,5.1,7,5.1,7,5.2
		C7,5.1,7,5.1,7,5.2C7,5.1,7,5.1,7,5.2C7,5.1,7,5.1,7,5.2C7,5.1,7,5.1,7,5.2C7,5.1,7,5.1,7,5.2C7,5.1,7,5.1,7,5.2C7,5.1,7,5.1,7,5.2
		C7,5.1,7,5.1,7,5.2C7,5.1,7,5.1,7,5.2C7,5.1,7,5.1,7,5.2C7,5.1,7,5.1,7,5.2C7,5.1,7,5.1,7,5.2C7,5.1,7,5.1,7,5.2C7,5.1,7,5.1,7,5.2
		C7,5.1,7,5.1,7,5.2C7,5.1,7,5.1,7,5.2C7,5.1,7,5.1,7,5.2C7,5.2,7,5.2,7,5.2C7,5.2,7,5.2,7,5.2z"/>
	<path class="st4" d="M7.7,6.9l-3,0v0H4.1c0,0-0.3,0-0.3,0.2s0.3,0.2,0.3,0.2h3l0,0h0.6c0,0,0.3,0,0.3-0.2S7.7,6.9,7.7,6.9z"/>
</g>
</svg>
