<?xml version="1.0" encoding="utf-8"?>
<!-- Generator: Adobe Illustrator 22.0.1, SVG Export Plug-In . SVG Version: 6.00 Build 0)  -->
<svg version="1.1" id="Layer_1" xmlns="http://www.w3.org/2000/svg" xmlns:xlink="http://www.w3.org/1999/xlink" x="0px" y="0px"
	 viewBox="0 0 349 340.6" style="enable-background:new 0 0 349 340.6;" xml:space="preserve">
<style type="text/css">
	.st0{fill:#849EA8;}
</style>
<g>
	<path class="st0" d="M174.5,15.2C91.2,15.2,23.7,82.7,23.7,166c0,83.3,67.5,150.8,150.8,150.8c83.3,0,150.8-67.5,150.8-150.8
		C325.2,82.7,257.7,15.2,174.5,15.2z M213,281.7c-6.1,1.1-8.3-2.7-8.3-5.8c0-3.9,0.1-23.9,0.1-40.1c0-11.3-3.7-18.5-8.2-22.3
		c26.8-3,55.1-6.7,55.1-53c0-13.1-4.7-19.8-12.4-28.3c1.2-3.1,5.3-15.9-1.2-32.6c-10-3.2-33.1,13-33.1,13
		c-9.6-2.7-19.9-4.1-30.1-4.1c-10.2,0-20.5,1.4-30.1,4.1c0,0-23.1-16.1-33.1-13c-6.6,16.6-2.5,29.5-1.2,32.6
		c-7.7,8.4-11.3,15.1-11.3,28.3c0,46.2,27.1,50.1,53.9,53c-3.5,3.2-6.6,8.5-7.7,16.2c-6.9,3.2-24.5,8.5-35-10
		c-6.6-11.4-18.5-12.4-18.5-12.4c-11.8-0.1-0.8,7.4-0.8,7.4c7.9,3.6,13.3,17.6,13.3,17.6c7.1,21.5,40.6,14.3,40.6,14.3
		c0,10.1,0.1,26.5,0.1,29.5c0,3.1-2.2,6.9-8.3,5.8C89,265.8,55.5,220.3,55.5,167c0-66.6,50.9-117.1,117.5-117.1
		c66.6,0,120.5,50.5,120.5,117.1C293.5,220.3,261,265.8,213,281.7z M142,237.4c-1.4,0.3-2.7-0.3-2.8-1.2c-0.1-1.1,0.8-2,2.2-2.4
		c1.4-0.1,2.7,0.5,2.8,1.4C144.3,236.2,143.4,237.1,142,237.4z M135.1,236.8c0,1-1.1,1.7-2.5,1.7c-1.6,0.1-2.7-0.6-2.7-1.7
		c0-1,1.1-1.7,2.5-1.7C133.8,234.9,135.1,235.7,135.1,236.8z M125.2,236c-0.3,1-1.7,1.4-3,1c-1.4-0.3-2.4-1.4-2.1-2.4l0,0
		c0.3-1,1.7-1.4,3-1.1C124.6,234,125.5,235.1,125.2,236z M116.2,232.1c-0.6,0.8-2,0.6-3.1-0.5c-1.1-0.9-1.4-2.4-0.6-3
		c0.6-0.8,2.1-0.6,3.1,0.5C116.6,230,116.8,231.5,116.2,232.1z M109.7,225.5c-0.6,0.5-1.9,0-2.7-1.1c-0.8-1.1-0.8-2.4,0-2.8l0,0
		c0.8-0.6,2-0.1,2.7,1C110.5,223.7,110.5,224.9,109.7,225.5z M104.9,218.4c-0.6,0.6-1.7,0.3-2.5-0.5c-0.8-0.9-1-2-0.3-2.5
		c0.6-0.6,1.7-0.3,2.5,0.5C105.4,216.8,105.6,218,104.9,218.4z M100.1,213.1c-0.3,0.7-1.3,0.8-2.1,0.3c-1-0.5-1.4-1.2-1.1-1.9
		c0.3-0.5,1.1-0.6,2.1-0.3C100,211.7,100.4,212.5,100.1,213.1z"/>
</g>
</svg>
