<?xml version="1.0" encoding="utf-8"?>
<!-- Generator: Adobe Illustrator 22.0.1, SVG Export Plug-In . SVG Version: 6.00 Build 0)  -->
<svg version="1.1" id="Layer_1" xmlns="http://www.w3.org/2000/svg" xmlns:xlink="http://www.w3.org/1999/xlink" x="0px" y="0px"
	 viewBox="0 0 349 340.6" style="enable-background:new 0 0 349 340.6;" xml:space="preserve">
<style type="text/css">
	.st0{fill:#849EA8;}
</style>
<g>
	<path class="st0" d="M174.5,15.2C91.2,15.2,23.7,82.7,23.7,166c0,83.3,67.5,150.8,150.8,150.8c83.3,0,150.8-67.5,150.8-150.8
		C325.2,82.7,257.7,15.2,174.5,15.2z M132,242.8L132,242.8h-31.9V140.2H132V242.8z M116,126.2c-10.2,0-18.5-8.3-18.5-18.5
		c0-10.2,8.3-18.5,18.5-18.5c10.2,0,18.5,8.3,18.5,18.5C134.5,117.9,126.3,126.2,116,126.2z M251.4,242.8h-31.9v-49.9
		c0-11.9-0.2-27.2-16.6-27.2c-16.6,0-19.1,13-19.1,26.3v50.8H152V140.2h30.6v14h0.4c4.3-8.1,14.7-16.6,30.2-16.6
		c32.2,0,38.2,21.3,38.2,48.9V242.8z"/>
</g>
</svg>
