<?xml version="1.0" encoding="utf-8"?>
<!-- Generator: Adobe Illustrator 22.0.1, SVG Export Plug-In . SVG Version: 6.00 Build 0)  -->
<svg version="1.1" id="Layer_1" xmlns="http://www.w3.org/2000/svg" xmlns:xlink="http://www.w3.org/1999/xlink" x="0px" y="0px"
	 viewBox="0 0 900 900" style="enable-background:new 0 0 900 900;" xml:space="preserve">
<style type="text/css">
	.st0{fill:#E8624D;}
	.st1{fill:#DCD2C6;}
	.st2{fill:#FBC300;}
	.st3{fill:#01232D;}
	.st4{fill:#FFF7EA;}
	.st5{fill:#003D58;}
	.st6{fill:#849EA8;}
</style>
<g>
	<path class="st0" d="M275.5,149.8C329,126.8,388,114.1,450,114.1c244.9,0,443.5,198.6,443.5,443.5c0.5-0.5-886.5-0.5-887,0
		C6.5,374.6,117.3,217.5,275.5,149.8"/>
	<path class="st0" d="M779.5,604.9h-136c0,0-14,0-14-13c0-12.9,13.7-13,14-13h236c0,0,14,0,14-13s0-13,0-13h-662h-12l-213,1
		c0,0,0-1,0,12s14,13,14,13h208c0.2,0,14,0.1,14,13c0,13-14,13-14,13h-86c0,0-14,0-14,13s14,13,14,13h205.4c3.9,1.3,8.6,4.5,8.6,12
		c0,13-14,13-14,13h-75c0,0-14,0-14,13s14,13,14,13h47c0.2,0,14,0.1,14,13c0,13-14,13-14,13h-8c0,0-14,0-14,13s14,13,14,13h99
		c0.2,0,14,0.1,14,13c0,13-14,13-14,13h-10c0,0-14,0-14,13s14,13,14,13h39h9h107c0,0,14,0,14-13s-14-13-14-13h-13c0,0-14,0-14-13
		c0-12.9,13.7-13,14-13h148c0,0,14,0,14-13s-14-13-14-13h-29c0,0-14,0-14-13c0-12.9,13.7-13,14-13h79c0,0,14,0,14-13s-14-13-14-13
		h-1c0,0-14,0-14-13c0-7.5,4.6-10.7,8.6-12h50.4c0,0,14,0,14-13S779.5,604.9,779.5,604.9z"/>
	<path class="st1" d="M629.7,404.9l-121.8,0v0h-23.2c0,0-10.1,0-10.1,9.4c0,9.4,10.1,9.4,10.1,9.4h121.8l0,0h23.2
		c0,0,10.2,0,10.2-9.4C639.8,404.9,629.7,404.9,629.7,404.9z"/>
	<circle class="st2" cx="463.4" cy="373.7" r="71.1"/>
	<path class="st3" d="M698.3,539.9c0-0.9-0.2-1.7-0.6-2.4c-0.1-0.1-0.3-0.5-0.4-0.6c-0.8-1-1.7-2.1-2.6-3.3h0c0-0.1-0.1-0.1-0.1-0.1
		c-0.3-0.4-0.7-0.9-1-1.3c-28.2-35.7-109.7-138.6-159.3-201.6c-1.4-1.3-2.6-1.6-3.5-1.6c-0.4,0-1.6,0-2.3,0c-1.2,0-3.3,0.6-5.6,3.9
		c-3.7,5.2-167.3,211.9-167.3,211.9h130.3h43.7h161h0.1h0.8h1.9c0.3,0,0.6,0,1,0C696.1,544.1,698.3,542,698.3,539.9z"/>
	<path class="st4" d="M657.2,415l-59.5,0v0h-23.2c0,0-10.2,0-10.2,9.4c0,9.4,10.2,9.4,10.2,9.4h82.7c0,0,10.2,0,10.2-9.4
		C667.4,415,657.2,415,657.2,415z"/>
	<path class="st1" d="M522.6,333.1c0,0-0.1,0.1-0.1,0.1c0,0-0.1,0.1-0.1,0.1c0,0.1-0.1,0.1-0.1,0.2c0,0.1-0.1,0.1-0.1,0.2
		c0,0.1-0.1,0.1-0.1,0.2c-0.1,0.1-0.1,0.2-0.2,0.2c0,0.1-0.1,0.1-0.1,0.2c-0.1,0.1-0.1,0.2-0.2,0.3c-0.1,0.1-0.1,0.1-0.2,0.2
		c-0.1,0.1-0.2,0.2-0.2,0.3c-0.1,0.1-0.1,0.1-0.2,0.2c-0.1,0.1-0.2,0.2-0.3,0.4c-0.1,0.1-0.1,0.2-0.2,0.3c-0.1,0.1-0.2,0.2-0.3,0.3
		c-0.1,0.1-0.2,0.3-0.3,0.4c-0.1,0.1-0.1,0.2-0.2,0.3c-0.1,0.2-0.2,0.3-0.4,0.5c-0.1,0.1-0.2,0.2-0.3,0.4c-0.1,0.1-0.2,0.3-0.3,0.4
		c-0.1,0.1-0.2,0.3-0.3,0.4c-0.1,0.1-0.2,0.2-0.3,0.4c-0.2,0.2-0.3,0.4-0.5,0.6c0,0-0.1,0.1-0.1,0.1c-0.2,0.3-0.4,0.5-0.6,0.8
		c-0.1,0.1-0.1,0.2-0.2,0.3c-0.2,0.2-0.3,0.4-0.5,0.7c-0.1,0.1-0.2,0.2-0.3,0.3c-4.4,5.6-10.7,13.6-18.3,23.3
		c0,0-4.5,14.7,12.6,14.7c0,11.2,19.3,9.7,19.3,9.7c0,6.2,6,8.5,11.3,9.3c4.2,0.7,11.9,0.7,16.2,0c5.3-0.8,11.3-3.1,11.3-9.3
		c5,0,8.1-1.3,10.1-3c0,0-0.1-0.1-0.1-0.1c-1.2-1.5-2.4-3.1-3.6-4.6c-0.1-0.1-0.2-0.3-0.3-0.4c-1.2-1.5-2.4-3-3.5-4.5
		c0,0-0.1-0.1-0.1-0.1c-0.1-0.2-0.3-0.3-0.4-0.5c-0.1-0.1-0.1-0.2-0.2-0.2c-0.2-0.3-0.5-0.6-0.7-0.9c-0.2-0.2-0.4-0.5-0.6-0.7
		c-0.2-0.2-0.4-0.4-0.5-0.7c-0.2-0.2-0.3-0.4-0.5-0.7c-0.2-0.2-0.3-0.4-0.5-0.6c0,0-0.1-0.1-0.1-0.1c-0.6-0.8-1.2-1.6-1.8-2.3
		c0-0.1-0.1-0.1-0.1-0.2c-0.1-0.1-0.2-0.2-0.3-0.4c-0.7-0.9-1.4-1.8-2.1-2.7c-0.1-0.1-0.2-0.3-0.3-0.4c-0.1-0.1-0.2-0.2-0.3-0.3
		c-0.1-0.1-0.1-0.1-0.2-0.2c-1.1-1.4-2.1-2.7-3.1-4c-0.2-0.3-0.5-0.6-0.7-0.9c-0.3-0.4-0.6-0.7-0.9-1.1c0,0,0,0,0,0
		c-0.5-0.7-1.1-1.3-1.6-2c0-0.1-0.1-0.1-0.1-0.2c-0.1-0.1-0.1-0.2-0.2-0.2c-0.1-0.1-0.2-0.2-0.2-0.3c-0.6-0.7-1.1-1.4-1.6-2.1
		c0,0,0,0,0,0c0-0.1-0.1-0.1-0.1-0.2c0,0-0.1-0.1-0.1-0.1c-0.6-0.8-1.3-1.6-1.9-2.4c0,0,0,0,0,0c0,0,0,0,0,0
		c-0.6-0.8-1.3-1.6-1.9-2.4c-0.1-0.1-0.2-0.3-0.3-0.4c-0.1-0.1-0.2-0.2-0.3-0.3c-0.4-0.5-0.7-0.9-1.1-1.4c-0.1-0.1-0.2-0.2-0.3-0.3
		c0,0,0,0,0,0c-1.6-2.1-3.1-3.9-4.4-5.6c0,0,0-0.1-0.1-0.1c0,0-0.1-0.1-0.1-0.1c0,0-0.1-0.1-0.3-0.4c-0.6-0.8-1.2-1.6-1.8-2.3
		c-0.1-0.1-0.1-0.2-0.2-0.3c-0.1-0.2-0.3-0.4-0.4-0.5c-0.1-0.1-0.1-0.2-0.2-0.2c-0.1-0.2-0.3-0.3-0.4-0.5c-0.1-0.1-0.2-0.2-0.2-0.3
		c-0.1-0.1-0.2-0.2-0.3-0.4c-0.1-0.1-0.2-0.2-0.2-0.3c-0.1-0.1-0.2-0.2-0.3-0.4c-0.1-0.1-0.1-0.1-0.2-0.2c-0.3-0.4-0.7-0.8-0.9-1.2
		c0,0-0.1-0.1-0.1-0.1c-0.1-0.1-0.1-0.1-0.2-0.2c-0.1-0.1-0.1-0.2-0.2-0.2c0,0-0.1-0.1-0.1-0.1c-0.1-0.1-0.1-0.2-0.2-0.2
		c0,0-0.1-0.1-0.1-0.1c0-0.1-0.1-0.1-0.1-0.2c0,0-0.1-0.1-0.1-0.1c0-0.1-0.1-0.1-0.1-0.1c0,0,0,0-0.1-0.1c0-0.1-0.1-0.1-0.1-0.1
		c-0.1-0.2-0.3-0.4-0.4-0.6c0-0.1-0.1-0.1-0.1-0.2c-0.1-0.1-0.2-0.2-0.3-0.3c-0.1-0.1-0.1-0.1-0.2-0.2c-0.1-0.1-0.2-0.2-0.2-0.3
		c-0.1-0.1-0.1-0.1-0.2-0.2c-0.1-0.1-0.2-0.2-0.2-0.2c-0.1-0.1-0.1-0.1-0.2-0.2c-0.1-0.1-0.1-0.1-0.2-0.2c-0.1-0.1-0.1-0.1-0.2-0.1
		c-0.1-0.1-0.1-0.1-0.2-0.2c-0.1,0-0.1-0.1-0.2-0.1c-0.1,0-0.1-0.1-0.2-0.1c-0.1,0-0.1-0.1-0.2-0.1c-0.1,0-0.1-0.1-0.2-0.1
		c-0.1,0-0.1-0.1-0.2-0.1c-0.1,0-0.1-0.1-0.2-0.1c-0.1,0-0.1-0.1-0.2-0.1c-0.1,0-0.1-0.1-0.2-0.1c-0.1,0-0.1,0-0.2-0.1
		c-0.1,0-0.1,0-0.2-0.1c-0.1,0-0.1,0-0.1-0.1c-0.1,0-0.1,0-0.2-0.1c0,0-0.1,0-0.1,0c0,0-0.1,0-0.1,0c0,0-0.1,0-0.1,0
		c0,0-0.1,0-0.1,0c0,0-0.1,0-0.1,0c0,0-0.1,0-0.1,0c0,0-0.1,0-0.1,0c0,0-0.1,0-0.1,0c0,0,0,0-0.1,0c-0.4,0-1.5,0-2.2,0
		c0,0-0.1,0-0.1,0c0,0-0.1,0-0.1,0c0,0-0.1,0-0.1,0c0,0-0.1,0-0.1,0c0,0-0.1,0-0.1,0c0,0-0.1,0-0.1,0c0,0-0.1,0-0.1,0
		c0,0-0.1,0-0.1,0c-0.1,0-0.1,0-0.2,0c0,0-0.1,0-0.1,0c-0.1,0-0.1,0-0.2,0.1c-0.1,0-0.1,0-0.2,0.1c-0.1,0-0.1,0.1-0.2,0.1
		c-0.1,0-0.1,0.1-0.2,0.1c-0.1,0-0.1,0.1-0.2,0.1c-0.1,0-0.1,0.1-0.2,0.1c-0.1,0-0.1,0.1-0.2,0.1c-0.1,0-0.1,0.1-0.2,0.1
		c-0.1,0-0.1,0.1-0.2,0.1c-0.1,0-0.1,0.1-0.2,0.1c-0.1,0.1-0.1,0.1-0.2,0.2c-0.1,0-0.1,0.1-0.2,0.1c-0.1,0.1-0.1,0.1-0.2,0.2
		c-0.1,0.1-0.1,0.1-0.2,0.2c-0.1,0.1-0.1,0.2-0.2,0.2c-0.1,0.1-0.1,0.1-0.2,0.2c-0.1,0.1-0.2,0.2-0.2,0.3c-0.1,0.1-0.1,0.1-0.2,0.2
		c-0.1,0.1-0.2,0.2-0.3,0.4c0,0.1-0.1,0.1-0.1,0.2c-0.1,0.2-0.3,0.4-0.4,0.6C522.8,332.9,522.7,332.9,522.6,333.1
		C522.7,333,522.6,333,522.6,333.1z"/>
	<path class="st5" d="M531.7,329.1c-0.4-0.1-0.8-0.2-1.1-0.2c-0.4,0-1.6,0-2.3,0c-1.2,0-3.3,0.6-5.6,3.9
		c-3.7,5.2-167.3,211.9-167.3,211.9H441L510,380.1L531.7,329.1z"/>
	<path class="st4" d="M522.7,333c0,0-0.1,0.1-0.1,0.1c0,0-0.1,0.1-0.1,0.1c0,0,0,0,0,0c-0.1,0.1-0.2,0.3-0.3,0.4c0,0,0,0,0,0
		c0,0,0,0,0,0.1c-0.1,0.1-0.2,0.2-0.3,0.4c0,0.1-0.1,0.1-0.1,0.2c0,0,0,0,0,0c-0.2,0.2-0.4,0.5-0.6,0.8c0,0.1-0.1,0.1-0.1,0.2
		c0,0,0,0,0,0c-0.1,0.1-0.2,0.2-0.3,0.3c0,0,0,0,0,0c-0.1,0.1-0.1,0.2-0.2,0.3c0,0,0,0,0,0c-0.1,0.1-0.1,0.2-0.2,0.3c0,0,0,0,0,0
		c-0.1,0.1-0.2,0.3-0.3,0.4c0,0,0,0,0,0c-0.3,0.4-0.6,0.8-1,1.3c0,0.1-0.1,0.1-0.1,0.2c0,0,0,0.1-0.1,0.1c-0.1,0.1-0.2,0.2-0.3,0.3
		c0,0,0,0,0,0c-0.1,0.1-0.2,0.2-0.3,0.4c0,0,0,0-0.1,0.1c-0.1,0.2-0.2,0.3-0.4,0.5c0,0,0,0.1-0.1,0.1c0,0-0.1,0.1-0.1,0.1
		c-0.2,0.2-0.4,0.5-0.6,0.7c0,0,0,0,0,0.1c-0.1,0.1-0.1,0.2-0.2,0.3c-0.1,0.1-0.2,0.2-0.3,0.4c-0.1,0.1-0.1,0.2-0.2,0.2
		c0,0,0,0-0.1,0.1c-0.1,0.1-0.2,0.2-0.3,0.3c-0.1,0.1-0.1,0.2-0.2,0.2c-0.2,0.2-0.4,0.5-0.5,0.7c-0.1,0.1-0.2,0.2-0.3,0.3
		c-0.2,0.3-0.5,0.6-0.8,1c0,0,0,0,0,0c-0.3,0.4-0.6,0.7-0.9,1.1c-0.1,0.1-0.1,0.1-0.2,0.2c-0.2,0.3-0.4,0.6-0.7,0.9
		c-0.2,0.2-0.4,0.5-0.6,0.7c-0.1,0.2-0.3,0.3-0.4,0.5c-0.2,0.2-0.4,0.5-0.5,0.7c-0.2,0.3-0.4,0.6-0.7,0.8c-0.1,0.1-0.2,0.2-0.3,0.3
		c-0.3,0.4-0.6,0.7-0.9,1.1c-0.1,0.1-0.2,0.2-0.2,0.3c-0.3,0.3-0.6,0.7-0.8,1.1c-0.1,0.2-0.3,0.4-0.4,0.6c-0.3,0.3-0.5,0.7-0.8,1
		c-0.1,0.1-0.2,0.2-0.3,0.3c-0.3,0.4-0.7,0.9-1,1.3c0,0,0,0,0,0c-0.4,0.4-0.7,0.9-1.1,1.4c-0.2,0.2-0.4,0.5-0.6,0.7
		c-0.2,0.2-0.4,0.5-0.6,0.7c-0.7,0.9-1.4,1.7-2.1,2.6c-0.7,0.8-1.3,1.7-2,2.5c-0.2,0.3-0.4,0.6-0.7,0.9c-0.3,0.4-0.7,0.8-1,1.3
		c0,0-4.5,14.7,12.6,14.7l0,0l21.6-50.6c0,0,0,0,0,0c-0.2-0.1-0.4-0.1-0.5-0.1c0,0,0,0,0,0c-0.2,0-0.3,0-0.5,0c0,0,0,0-0.1,0
		c0,0,0,0,0,0c-0.1,0-0.1,0-0.2,0c0,0,0,0,0,0c-0.4,0-0.9,0-1.4,0c-0.2,0-0.4,0-0.6,0c0,0-0.1,0-0.2,0c0,0-0.1,0-0.1,0
		c0,0,0,0-0.1,0c0,0-0.1,0-0.1,0c0,0-0.1,0-0.1,0c0,0-0.1,0-0.1,0c0,0,0,0,0,0c0,0-0.1,0-0.1,0c0,0-0.1,0-0.1,0c0,0,0,0,0,0
		c0,0-0.1,0-0.1,0c0,0-0.1,0-0.1,0c0,0,0,0,0,0c0,0-0.1,0-0.1,0c-0.1,0-0.1,0-0.2,0.1c-0.1,0-0.1,0-0.2,0.1c0,0-0.1,0-0.1,0
		c0,0,0,0-0.1,0c-0.1,0-0.1,0-0.2,0.1c0,0-0.1,0-0.1,0c0,0-0.1,0-0.1,0.1c-0.1,0-0.1,0.1-0.2,0.1c-0.1,0-0.1,0.1-0.2,0.1
		c-0.1,0-0.1,0.1-0.2,0.1c-0.1,0-0.1,0.1-0.2,0.1c0,0,0,0,0,0c-0.1,0-0.1,0.1-0.2,0.1c-0.1,0.1-0.1,0.1-0.2,0.2
		c-0.1,0-0.1,0.1-0.2,0.1c-0.1,0-0.1,0.1-0.2,0.2c0,0,0,0,0,0c-0.1,0.1-0.1,0.1-0.2,0.2c0,0,0,0-0.1,0.1c-0.1,0.1-0.1,0.1-0.2,0.2
		c-0.1,0.1-0.1,0.1-0.2,0.2c0,0-0.1,0.1-0.1,0.2c0,0-0.1,0.1-0.1,0.1c-0.1,0.1-0.1,0.1-0.2,0.2c-0.1,0.1-0.2,0.2-0.3,0.4
		c0,0.1-0.1,0.1-0.1,0.2c-0.1,0.2-0.3,0.4-0.4,0.6C522.8,332.9,522.7,332.9,522.7,333C522.7,333,522.7,333,522.7,333z"/>
	<path class="st1" d="M417.5,357.9l-128,0c0,0-14,0-14,13s14,13,14,13l128,0V357.9z"/>
	<path class="st4" d="M423.8,360l70.5,0c0,0,7.7,0,7.7,7.2s-7.7,7.2-7.7,7.2l-70.5,0L423.8,360z"/>
	<path class="st4" d="M630.7,640.9H512.5h-12.2l0,0c0,0-10.8,0-10.8-10c0-10,10.8-10,10.8-10l0,0h60.4c0,0,10.8,0,10.8-10
		c0-10-10.8-10-10.8-10h-3.4l0,0c0,0-10.8,0-10.8-10c0-10,10.8-10,10.8-10l55.7,0h-0.6c0,0,10.8,0,10.8-10c0-10-10.8-10-10.8-10
		l-65.6,0l-132.8,0c0,0,0,0,0,0l-64,0c0,0,0,0,0,0l-64.8,0c0,0-10.8,0-10.8,10c0,10,10.8,10,10.8,10h-0.6l53,0c0,0,10.8,0,10.8,10
		c0,10-10.8,10-10.8,10l0,0h-3.4c0,0-10.8,0-10.8,10c0,10,10.8,10,10.8,10h69.4l0,0c0,0,10.8,0,10.8,10c0,10-10.8,10-10.8,10l0,0
		h-3.4c0,0-10.8,0-10.8,10c0,10,10.8,10,10.8,10h45.2l22.2,0c0,0,10.8,0,10.8,10c0,10-10.8,10-10.8,10l0,0h-3.4c0,0-10.8,0-10.8,10
		s10.8,10,10.8,10h42.2h15.9h42.2c0,0,10.8,0,10.8-10s-10.8-10-10.8-10h-3.4l0,0c0,0-10.8,0-10.8-10c0-10,10.8-10,10.8-10l0,0h69.4
		c0,0,10.8,0,10.8-10C641.5,640.9,630.7,640.9,630.7,640.9z"/>
	<path class="st6" d="M629.9,555.7c0-1-0.3-1.9-0.7-2.7c-0.1-0.1-0.2-0.4-0.3-0.5c-0.9-1.1-1.9-2.4-2.9-3.7h0c0-0.1-0.1-0.1-0.1-0.2
		c-0.4-0.5-0.7-0.9-1.1-1.4c-44.2-55.9-209.9-265.3-214.2-271.4c-3.1-4.3-5.8-5.2-7.4-5.3c-0.6,0-2.1,0-3,0c-1.6,0-4.4,0.8-7.6,5.3
		c-4.5,6.3-182.6,231.5-217,275c-1.2,1.5,7,10,7,10h219h220h0.1h0.9c0.4,0,1.1,0,2,0c0.3,0,0.7,0,1,0
		C627.6,560.1,629.9,557.9,629.9,555.7z"/>
	<path class="st3" d="M401.5,277.9v-7.3c0,0,0,0,0,0c-0.5,0-1,0-1.4,0c-0.1,0-0.2,0-0.2,0c0,0-0.1,0-0.1,0c-0.1,0-0.1,0-0.2,0
		c-0.1,0-0.1,0-0.2,0c-0.1,0-0.1,0-0.2,0c-0.1,0-0.1,0-0.2,0c-0.1,0-0.1,0-0.2,0c-0.1,0-0.1,0-0.2,0c-0.1,0-0.1,0-0.2,0.1
		c-0.1,0-0.1,0-0.2,0.1c-0.1,0-0.1,0.1-0.2,0.1c-0.1,0-0.1,0.1-0.2,0.1c-0.1,0-0.2,0.1-0.2,0.1c-0.1,0-0.1,0.1-0.2,0.1
		c-0.1,0-0.2,0.1-0.2,0.1c-0.1,0-0.2,0.1-0.2,0.1c-0.1,0-0.2,0.1-0.3,0.2c-0.1,0-0.2,0.1-0.2,0.2c-0.1,0.1-0.2,0.1-0.3,0.2
		c-0.1,0.1-0.2,0.1-0.2,0.2c-0.1,0.1-0.2,0.1-0.3,0.2c-0.1,0.1-0.2,0.1-0.2,0.2c-0.1,0.1-0.2,0.2-0.3,0.3c-0.1,0.1-0.2,0.1-0.2,0.2
		c-0.1,0.1-0.2,0.2-0.3,0.3c-0.1,0.1-0.2,0.2-0.2,0.2c-0.1,0.1-0.2,0.2-0.3,0.4c-0.1,0.1-0.2,0.2-0.2,0.3c-0.1,0.1-0.3,0.3-0.4,0.5
		c-0.1,0.1-0.1,0.2-0.2,0.2c-0.2,0.2-0.4,0.5-0.6,0.8c-4.3,6.1-170,215.5-214.2,271.4c-0.4,0.5-0.8,1-1.1,1.4c0,0.1-0.1,0.1-0.1,0.2
		h0c-1,1.3-2,2.6-2.9,3.7c0,0.1-0.2,0.4-0.3,0.5c-0.5,0.8-0.7,1.7-0.7,2.7c0,2.3,2.3,4.5,4.4,5.2c0.3,0,0.7,0,1,0c0.9,0,1.6,0,2,0
		h0.9h0.1h101l93-222L401.5,277.9z"/>
	<path class="st4" d="M392.3,276.2c0,0.1-0.1,0.1-0.1,0.2c0,0-0.1,0.1-0.1,0.2c-0.1,0.1-0.1,0.2-0.2,0.2c-0.1,0.1-0.1,0.1-0.2,0.2
		c-0.1,0.1-0.1,0.2-0.2,0.2c-0.1,0.1-0.2,0.2-0.2,0.3c-0.1,0.1-0.1,0.2-0.2,0.2c-0.1,0.1-0.2,0.2-0.3,0.4c-0.1,0.1-0.1,0.2-0.2,0.3
		c-0.1,0.1-0.2,0.3-0.3,0.4c-0.1,0.1-0.1,0.2-0.2,0.3c-0.1,0.2-0.3,0.3-0.4,0.5c-0.1,0.1-0.2,0.2-0.3,0.4c-0.1,0.1-0.2,0.3-0.3,0.4
		c-0.1,0.2-0.3,0.4-0.4,0.5c-0.1,0.1-0.2,0.2-0.3,0.3c-0.2,0.2-0.3,0.4-0.5,0.6c-0.1,0.2-0.2,0.3-0.4,0.5c-0.1,0.2-0.3,0.3-0.4,0.5
		c-0.1,0.2-0.3,0.4-0.5,0.6c-0.1,0.2-0.2,0.3-0.4,0.5c-0.2,0.3-0.4,0.6-0.7,0.8c0,0-0.1,0.1-0.1,0.1c-0.3,0.3-0.5,0.7-0.8,1
		c-0.1,0.1-0.2,0.3-0.3,0.4c-0.2,0.3-0.5,0.6-0.7,0.9c-0.1,0.2-0.2,0.3-0.4,0.5c-5.9,7.6-14.4,18.3-24.6,31.3
		c0,0-6.1,19.8,16.9,19.8c0,15,26,13,26,13c0,8.3,8,11.4,15.1,12.5c5.7,0.9,16,0.9,21.7,0c7.1-1.1,15.1-4.2,15.1-12.5
		c6.7,0,10.9-1.7,13.6-4.1c0-0.1-0.1-0.1-0.1-0.2c-1.6-2.1-3.3-4.1-4.9-6.1c-0.2-0.2-0.3-0.4-0.5-0.6c-1.6-2-3.2-4-4.7-6
		c0,0-0.1-0.1-0.1-0.1c-0.2-0.2-0.4-0.5-0.5-0.7c-0.1-0.1-0.2-0.2-0.2-0.3c-0.3-0.4-0.7-0.8-1-1.3c-0.3-0.3-0.5-0.6-0.8-1
		c-0.2-0.3-0.5-0.6-0.7-0.9c-0.2-0.3-0.5-0.6-0.7-0.9c-0.2-0.3-0.4-0.5-0.6-0.8c0-0.1-0.1-0.1-0.1-0.2c-0.8-1.1-1.7-2.1-2.5-3.2
		c-0.1-0.1-0.1-0.2-0.2-0.2c-0.1-0.2-0.3-0.3-0.4-0.5c-1-1.2-1.9-2.4-2.8-3.6c-0.1-0.2-0.3-0.4-0.4-0.6c-0.1-0.2-0.2-0.3-0.4-0.4
		c-0.1-0.1-0.1-0.2-0.2-0.3c-1.4-1.8-2.9-3.6-4.2-5.4c-0.3-0.4-0.7-0.9-1-1.3c-0.4-0.5-0.8-1-1.2-1.5c0,0,0,0,0,0
		c-0.7-0.9-1.4-1.8-2.1-2.7c-0.1-0.1-0.1-0.1-0.2-0.2c-0.1-0.1-0.2-0.2-0.3-0.3c-0.1-0.1-0.2-0.3-0.3-0.4c-0.7-0.9-1.5-1.9-2.2-2.8
		c0,0,0,0,0,0c-0.1-0.1-0.1-0.2-0.2-0.2c0,0-0.1-0.1-0.1-0.1c-0.9-1.1-1.7-2.2-2.5-3.2c0,0,0,0,0,0c0,0,0,0,0-0.1
		c-0.9-1.1-1.7-2.2-2.5-3.2c-0.1-0.2-0.3-0.3-0.4-0.5c-0.1-0.2-0.2-0.3-0.4-0.5c-0.5-0.6-1-1.2-1.4-1.8c-0.1-0.1-0.2-0.3-0.3-0.4
		c0,0,0,0,0-0.1c-2.2-2.8-4.2-5.3-5.9-7.5c0,0-0.1-0.1-0.1-0.1c0,0-0.1-0.1-0.1-0.1c0,0-0.2-0.2-0.4-0.5c-0.9-1.1-1.7-2.1-2.4-3.1
		c-0.1-0.1-0.2-0.3-0.3-0.4c-0.2-0.2-0.4-0.5-0.6-0.7c-0.1-0.1-0.2-0.2-0.2-0.3c-0.2-0.2-0.3-0.4-0.5-0.6c-0.1-0.1-0.2-0.3-0.3-0.4
		c-0.1-0.2-0.3-0.3-0.4-0.5c-0.1-0.1-0.2-0.3-0.3-0.4c-0.1-0.2-0.3-0.3-0.4-0.5c-0.1-0.1-0.2-0.2-0.2-0.3c-0.5-0.6-0.9-1.1-1.3-1.6
		c-0.1-0.1-0.1-0.1-0.2-0.2c-0.1-0.1-0.1-0.2-0.2-0.3c-0.1-0.1-0.2-0.2-0.3-0.3c0-0.1-0.1-0.1-0.1-0.2c-0.1-0.1-0.2-0.2-0.2-0.3
		c0-0.1-0.1-0.1-0.1-0.2c-0.1-0.1-0.1-0.2-0.2-0.2c0-0.1-0.1-0.1-0.1-0.1c-0.1-0.1-0.1-0.1-0.1-0.2c0,0,0-0.1-0.1-0.1
		c-0.1-0.1-0.1-0.1-0.1-0.2c-0.2-0.3-0.4-0.5-0.6-0.8c-0.1-0.1-0.1-0.2-0.2-0.2c-0.1-0.2-0.2-0.3-0.4-0.5c-0.1-0.1-0.1-0.2-0.2-0.2
		c-0.1-0.1-0.2-0.3-0.3-0.4c-0.1-0.1-0.2-0.2-0.2-0.2c-0.1-0.1-0.2-0.2-0.3-0.3c-0.1-0.1-0.2-0.1-0.2-0.2c-0.1-0.1-0.2-0.2-0.3-0.3
		c-0.1-0.1-0.2-0.1-0.2-0.2c-0.1-0.1-0.2-0.2-0.3-0.2c-0.1-0.1-0.2-0.1-0.2-0.2c-0.1-0.1-0.2-0.1-0.3-0.2c-0.1-0.1-0.2-0.1-0.2-0.1
		c-0.1-0.1-0.2-0.1-0.3-0.2c-0.1,0-0.1-0.1-0.2-0.1c-0.1,0-0.2-0.1-0.2-0.1c-0.1,0-0.1-0.1-0.2-0.1c-0.1,0-0.2-0.1-0.2-0.1
		c-0.1,0-0.1-0.1-0.2-0.1c-0.1,0-0.1-0.1-0.2-0.1c-0.1,0-0.1,0-0.2-0.1c-0.1,0-0.1,0-0.2-0.1c-0.1,0-0.1,0-0.2-0.1
		c-0.1,0-0.1,0-0.2-0.1c-0.1,0-0.1,0-0.2,0c-0.1,0-0.1,0-0.2,0c-0.1,0-0.1,0-0.2,0c-0.1,0-0.1,0-0.2,0c-0.1,0-0.1,0-0.2,0
		c-0.1,0-0.1,0-0.2,0c0,0-0.1,0-0.1,0c-0.6,0-2.1,0-3,0c-0.1,0-0.1,0-0.2,0c-0.1,0-0.1,0-0.2,0c-0.1,0-0.1,0-0.2,0
		c-0.1,0-0.1,0-0.2,0c-0.1,0-0.1,0-0.2,0c-0.1,0-0.1,0-0.2,0c-0.1,0-0.1,0-0.2,0c-0.1,0-0.1,0-0.2,0c-0.1,0-0.1,0-0.2,0.1
		c-0.1,0-0.1,0-0.2,0.1c-0.1,0-0.1,0.1-0.2,0.1c-0.1,0-0.1,0.1-0.2,0.1c-0.1,0-0.2,0.1-0.2,0.1c-0.1,0-0.1,0.1-0.2,0.1
		c-0.1,0-0.2,0.1-0.2,0.1c-0.1,0-0.2,0.1-0.2,0.1c-0.1,0.1-0.2,0.1-0.3,0.2c-0.1,0-0.2,0.1-0.2,0.1c-0.1,0.1-0.2,0.1-0.3,0.2
		c-0.1,0.1-0.2,0.1-0.2,0.2c-0.1,0.1-0.2,0.1-0.3,0.2c-0.1,0.1-0.2,0.1-0.2,0.2c-0.1,0.1-0.2,0.2-0.3,0.3c-0.1,0.1-0.2,0.1-0.2,0.2
		c-0.1,0.1-0.2,0.2-0.3,0.3c-0.1,0.1-0.2,0.2-0.2,0.3c-0.1,0.1-0.2,0.2-0.3,0.4c-0.1,0.1-0.2,0.2-0.2,0.3c-0.1,0.2-0.3,0.3-0.4,0.5
		c-0.1,0.1-0.1,0.1-0.2,0.2c-0.2,0.2-0.4,0.5-0.6,0.8c0,0.1-0.1,0.1-0.2,0.2C392.3,276.1,392.3,276.2,392.3,276.2z"/>
	<path class="st1" d="M392.3,276.1c0,0-0.1,0.1-0.1,0.2c0,0-0.1,0.1-0.1,0.1c0,0,0,0,0,0c-0.1,0.2-0.3,0.4-0.5,0.6c0,0,0,0,0,0
		c0,0,0,0-0.1,0.1c-0.1,0.2-0.3,0.3-0.4,0.5c-0.1,0.1-0.1,0.1-0.2,0.2c0,0,0,0,0,0c-0.3,0.3-0.5,0.7-0.9,1.1
		c-0.1,0.1-0.1,0.2-0.2,0.2c0,0,0,0,0,0c-0.1,0.1-0.2,0.3-0.4,0.5c0,0,0,0,0,0c-0.1,0.1-0.2,0.2-0.3,0.4c0,0,0,0,0,0.1
		c-0.1,0.1-0.2,0.2-0.3,0.4c0,0,0,0,0,0c-0.1,0.2-0.3,0.4-0.4,0.5c0,0,0,0,0,0c-0.4,0.5-0.9,1.1-1.3,1.7c-0.1,0.1-0.1,0.2-0.2,0.2
		c0,0-0.1,0.1-0.1,0.1c-0.1,0.2-0.2,0.3-0.4,0.5c0,0,0,0,0,0c-0.1,0.2-0.2,0.3-0.4,0.5c0,0,0,0.1-0.1,0.1c-0.2,0.2-0.3,0.4-0.5,0.6
		c0,0-0.1,0.1-0.1,0.1c0,0-0.1,0.1-0.1,0.1c-0.3,0.3-0.5,0.6-0.8,1c0,0,0,0.1-0.1,0.1c-0.1,0.1-0.2,0.3-0.3,0.4
		c-0.1,0.2-0.3,0.3-0.4,0.5c-0.1,0.1-0.2,0.2-0.2,0.3c0,0-0.1,0.1-0.1,0.1c-0.1,0.2-0.2,0.3-0.4,0.5c-0.1,0.1-0.2,0.2-0.3,0.3
		c-0.2,0.3-0.5,0.6-0.7,0.9c-0.1,0.1-0.2,0.3-0.3,0.4c-0.3,0.4-0.7,0.9-1,1.3c0,0,0,0,0,0c-0.4,0.5-0.8,1-1.2,1.5
		c-0.1,0.1-0.1,0.2-0.2,0.3c-0.3,0.4-0.6,0.8-0.9,1.1c-0.2,0.3-0.5,0.6-0.7,0.9c-0.2,0.2-0.4,0.5-0.5,0.7c-0.2,0.3-0.5,0.6-0.7,0.9
		c-0.3,0.4-0.6,0.7-0.9,1.1c-0.1,0.2-0.2,0.3-0.4,0.5c-0.4,0.5-0.8,1-1.1,1.5c-0.1,0.1-0.2,0.3-0.3,0.4c-0.4,0.5-0.7,0.9-1.1,1.4
		c-0.2,0.2-0.4,0.5-0.6,0.7c-0.4,0.4-0.7,0.9-1.1,1.3c-0.1,0.1-0.2,0.3-0.4,0.5c-0.5,0.6-0.9,1.2-1.4,1.8c0,0,0,0-0.1,0.1
		c-0.5,0.6-1,1.2-1.4,1.8c-0.3,0.3-0.5,0.7-0.8,1c-0.2,0.3-0.5,0.6-0.7,0.9c-0.9,1.1-1.8,2.3-2.8,3.5c-0.9,1.1-1.8,2.2-2.7,3.4
		c-0.3,0.4-0.6,0.8-0.9,1.2c-0.4,0.6-0.9,1.1-1.3,1.7c0,0-6.1,19.8,16.9,19.8l0,0l29-68c0,0,0,0,0,0c-0.2-0.1-0.5-0.1-0.7-0.2
		c0,0,0,0-0.1,0c-0.2,0-0.4-0.1-0.6-0.1c0,0-0.1,0-0.1,0c0,0,0,0,0,0c-0.1,0-0.2,0-0.2,0c0,0,0,0,0,0c-0.5,0-1.3,0-1.9,0
		c-0.3,0-0.5,0-0.7,0c-0.1,0-0.1,0-0.2,0c0,0-0.1,0-0.2,0c0,0,0,0-0.1,0c0,0-0.1,0-0.1,0c-0.1,0-0.1,0-0.2,0c0,0-0.1,0-0.1,0
		c0,0,0,0,0,0c-0.1,0-0.1,0-0.2,0c-0.1,0-0.1,0-0.2,0c0,0,0,0,0,0c-0.1,0-0.1,0-0.2,0c0,0-0.1,0-0.1,0c0,0,0,0-0.1,0
		c-0.1,0-0.1,0-0.2,0.1c-0.1,0-0.1,0.1-0.2,0.1c-0.1,0-0.1,0.1-0.2,0.1c0,0-0.1,0-0.1,0.1c0,0-0.1,0-0.1,0c-0.1,0-0.1,0.1-0.2,0.1
		c0,0-0.1,0-0.1,0.1c0,0-0.1,0.1-0.1,0.1c-0.1,0-0.2,0.1-0.2,0.1c-0.1,0.1-0.2,0.1-0.3,0.2c-0.1,0-0.2,0.1-0.2,0.1
		c-0.1,0.1-0.2,0.1-0.3,0.2c0,0,0,0,0,0c-0.1,0.1-0.2,0.1-0.2,0.2c-0.1,0.1-0.2,0.1-0.3,0.2c-0.1,0.1-0.2,0.1-0.2,0.2
		c-0.1,0.1-0.2,0.1-0.2,0.2c0,0,0,0-0.1,0.1c-0.1,0.1-0.2,0.1-0.2,0.2c0,0-0.1,0.1-0.1,0.1c-0.1,0.1-0.1,0.1-0.2,0.2
		c-0.1,0.1-0.2,0.2-0.2,0.3c-0.1,0.1-0.1,0.1-0.2,0.2c0,0.1-0.1,0.1-0.1,0.2c-0.1,0.1-0.2,0.2-0.2,0.3c-0.1,0.2-0.3,0.3-0.4,0.5
		c-0.1,0.1-0.1,0.1-0.2,0.2c-0.2,0.2-0.4,0.5-0.6,0.8C392.5,275.9,392.4,276,392.3,276.1C392.3,276.1,392.3,276.1,392.3,276.1z"/>
	<path class="st4" d="M432.5,370.9l-168,0v0h-32c0,0-14,0-14,13s14,13,14,13h168l0,0h32c0,0,14,0,14-13S432.5,370.9,432.5,370.9z"/>
</g>
</svg>
