<?xml version="1.0" encoding="utf-8"?>
<!-- Generator: Adobe Illustrator 22.0.1, SVG Export Plug-In . SVG Version: 6.00 Build 0)  -->
<svg version="1.1" id="Layer_1" xmlns="http://www.w3.org/2000/svg" xmlns:xlink="http://www.w3.org/1999/xlink" x="0px" y="0px"
	 viewBox="0 0 1125.2 1475.8" style="enable-background:new 0 0 1125.2 1475.8;" xml:space="preserve">
<style type="text/css">
	.st0{clip-path:url(#SVGID_2_);}
	.st1{fill:#012E35;}
	.st2{opacity:0.5;fill:#F1D1AE;enable-background:new    ;}
	.st3{fill:#01232D;}
	.st4{fill:#003D58;}
	.st5{clip-path:url(#SVGID_2_);fill:none;}
	.st6{clip-path:url(#SVGID_2_);fill:#012E35;}
</style>
<g>
	<defs>
		<rect id="SVGID_1_" x="-4.6" y="5.3" width="1129.8" height="1470.5"/>
	</defs>
	<clipPath id="SVGID_2_">
		<use xlink:href="#SVGID_1_"  style="overflow:visible;"/>
	</clipPath>
	<g class="st0">
		<g>
			<g>
				<path class="st1" d="M42.5,417.9c2-53.8-5.5-126.8-13.4-185.7C32.7,175,13.4,69.3,13.4,69.3l-86.9,181.4c0,0-0.7,7.4,23.6,12.5
					L-145,461.6c0,0-1.1,11.6,33.8,20.7l-112.4,234.6c0,0-4.6,47.3,237,47.3C72.2,764.3,61.1,573.2,42.5,417.9z"/>
				<path class="st1" d="M13.5,222.4l237,494.6c0,0,4.6,47.3-237,47.3C-85.4,764.3,13.5,222.4,13.5,222.4z"/>
				<path class="st2" d="M13.5,222.4l237,494.6c0,0,4.6,47.3-237,47.3C-85.4,764.3,13.5,222.4,13.5,222.4z"/>
				<path class="st1" d="M13.5,131.1l158.4,330.6c0,0,3.1,31.6-158.5,31.6C-52.6,493.4,13.5,131.1,13.5,131.1z"/>
				<path class="st2" d="M13.5,131.1l158.4,330.6c0,0,3.1,31.6-158.5,31.6C-52.6,493.4,13.5,131.1,13.5,131.1z"/>
				<path class="st1" d="M13.5,69.4l86.9,181.4c0,0,1.7,17.3-86.9,17.3C-22.8,268.1,13.5,69.4,13.5,69.4z"/>
				<path class="st2" d="M13.5,69.4l86.9,181.4c0,0,1.7,17.3-86.9,17.3C-22.8,268.1,13.5,69.4,13.5,69.4z"/>
			</g>
			<g>
				<path class="st3" d="M168.6,451c2.5-67.8-6.9-159.8-16.9-234C156.2,144.9,132,11.7,132,11.7L22.5,240.3c0,0-0.9,9.3,29.7,15.8
					L-67.7,506.2c0,0-1.4,14.6,42.6,26.1l-141.7,295.6c0,0-5.8,59.6,298.7,59.6C206,887.5,192.1,646.6,168.6,451z"/>
				<path class="st1" d="M132,204.5l298.7,623.4c0,0,5.8,59.6-298.7,59.6C7.5,887.5,132,204.5,132,204.5z"/>
				<path class="st1" d="M132,204.5l298.7,623.4c0,0,5.8,59.6-298.7,59.6C7.5,887.5,132,204.5,132,204.5z"/>
				<path class="st1" d="M132,89.5l199.7,416.7c0,0,3.9,39.8-199.7,39.8C48.8,546,132,89.5,132,89.5z"/>
				<path class="st1" d="M132,89.5l199.7,416.7c0,0,3.9,39.8-199.7,39.8C48.8,546,132,89.5,132,89.5z"/>
				<path class="st1" d="M132,11.7l109.6,228.6c0,0,2.1,21.9-109.6,21.9C86.4,262.1,132,11.7,132,11.7z"/>
				<path class="st1" d="M132,11.7l109.6,228.6c0,0,2.1,21.9-109.6,21.9C86.4,262.1,132,11.7,132,11.7z"/>
			</g>
			<g>
				<path class="st1" d="M1348.7,779l-126.3-263.6c39.3-10.3,38-23.3,38-23.3l-106.9-223c27.3-5.8,26.5-14.1,26.5-14.1l-97.7-203.9
					c0,0-21.6,118.7-17.6,183c-8.8,66.2-17.3,148.2-15,208.7c-20.9,174.5-33.3,389.3,32.6,389.3C1353.9,832.1,1348.7,779,1348.7,779
					z"/>
				<path class="st1" d="M1082.3,223.1L815.9,779c0,0-5.2,53.1,266.4,53.1C1193.3,832.1,1082.3,223.1,1082.3,223.1z"/>
				<path class="st2" d="M1082.3,223.1L815.9,779c0,0-5.2,53.1,266.4,53.1C1193.3,832.1,1082.3,223.1,1082.3,223.1z"/>
				<path class="st1" d="M1082.3,120.5L904.2,492.1c0,0-3.5,35.5,178.1,35.5C1156.5,527.6,1082.3,120.5,1082.3,120.5z"/>
				<path class="st2" d="M1082.3,120.5L904.2,492.1c0,0-3.5,35.5,178.1,35.5C1156.5,527.6,1082.3,120.5,1082.3,120.5z"/>
				<path class="st1" d="M1082.3,51.1L984.6,255c0,0-1.9,19.5,97.7,19.5C1123,274.4,1082.3,51.1,1082.3,51.1z"/>
				<path class="st2" d="M1082.3,51.1L984.6,255c0,0-1.9,19.5,97.7,19.5C1123,274.4,1082.3,51.1,1082.3,51.1z"/>
			</g>
			<g>
				<path class="st3" d="M1282.4,904.2l-156-325.5c48.5-12.7,46.9-28.8,46.9-28.8l-132-275.4c33.7-7.1,32.7-17.4,32.7-17.4
					L953.4,5.3c0,0-26.7,146.6-21.7,226c-10.9,81.7-21.3,183-18.6,257.7c-25.9,215.5-41.2,480.8,40.3,480.8
					C1288.8,969.8,1282.4,904.2,1282.4,904.2z"/>
				<path class="st1" d="M953.4,217.7l-329,686.5c0,0-6.4,65.6,329,65.6C1090.6,969.8,953.4,217.7,953.4,217.7z"/>
				<path class="st1" d="M953.4,217.7l-329,686.5c0,0-6.4,65.6,329,65.6C1090.6,969.8,953.4,217.7,953.4,217.7z"/>
				<path class="st1" d="M953.4,91L733.5,549.9c0,0-4.3,43.9,219.9,43.9C1045.1,593.8,953.4,91,953.4,91z"/>
				<path class="st1" d="M953.4,91L733.5,549.9c0,0-4.3,43.9,219.9,43.9C1045.1,593.8,953.4,91,953.4,91z"/>
				<path class="st1" d="M953.4,5.3L832.8,257.1c0,0-2.4,24.1,120.6,24.1C1003.7,281.2,953.4,5.3,953.4,5.3z"/>
				<path class="st1" d="M953.4,5.3L832.8,257.1c0,0-2.4,24.1,120.6,24.1C1003.7,281.2,953.4,5.3,953.4,5.3z"/>
			</g>
		</g>
		<rect x="128.3" y="238" class="st4" width="868.5" height="629.8"/>
	</g>
	<rect x="-4.6" y="-191.6" class="st5" width="1134.3" height="1667.4"/>
	<rect x="-4.6" y="-191.6" class="st5" width="1134.3" height="1667.4"/>
	<rect x="-4.6" y="-191.6" class="st5" width="1134.3" height="1667.4"/>
	<path class="st6" d="M190.6,947.7"/>
	<rect x="-4.6" y="-191.6" class="st5" width="1134.3" height="1667.4"/>
	<rect x="-4.6" y="-191.6" class="st5" width="1134.3" height="1667.4"/>
	<rect x="-4.6" y="-191.6" class="st5" width="1134.3" height="1667.4"/>
</g>
</svg>
