<?xml version="1.0" encoding="utf-8"?>
<!-- Generator: Adobe Illustrator 22.0.1, SVG Export Plug-In . SVG Version: 6.00 Build 0)  -->
<svg version="1.1" id="Layer_1" xmlns="http://www.w3.org/2000/svg" xmlns:xlink="http://www.w3.org/1999/xlink" x="0px" y="0px"
	 viewBox="0 0 1125.2 1470.5" style="enable-background:new 0 0 1125.2 1470.5;" xml:space="preserve">
<style type="text/css">
	.st0{fill:none;}
	.st1{clip-path:url(#SVGID_2_);}
	.st2{fill:#012E35;}
	.st3{fill:#01232D;}
	.st4{clip-path:url(#SVGID_4_);fill:none;}
	.st5{clip-path:url(#SVGID_6_);fill:none;}
	.st6{clip-path:url(#SVGID_8_);fill:none;}
	.st7{clip-path:url(#SVGID_10_);fill:#012E35;}
	.st8{clip-path:url(#SVGID_12_);fill:none;}
	.st9{clip-path:url(#SVGID_14_);fill:none;}
	.st10{clip-path:url(#SVGID_16_);fill:none;}
	.st11{fill:#DCD2C6;}
	.st12{fill:#C44E41;}
	.st13{fill:#E8624D;}
	.st14{fill:#003D58;}
</style>
<rect x="-4.6" y="-196.9" class="st0" width="1134.3" height="1667.4"/>
<rect x="-4.6" y="-196.9" class="st0" width="1134.3" height="1667.4"/>
<rect x="-4.6" y="-196.9" class="st0" width="1134.3" height="1667.4"/>
<rect x="-4.6" y="-196.9" class="st0" width="1134.3" height="1667.4"/>
<rect x="-4.6" y="-196.9" class="st0" width="1134.3" height="1667.4"/>
<rect x="-4.6" y="-196.9" class="st0" width="1134.3" height="1667.4"/>
<g>
	<defs>
		<rect id="SVGID_1_" width="1125.2" height="1470.5"/>
	</defs>
	<clipPath id="SVGID_2_">
		<use xlink:href="#SVGID_1_"  style="overflow:visible;"/>
	</clipPath>
	<g class="st1">
		<g>
			<g>
				<path class="st2" d="M46.9,412.6c2-53.8-5.5-126.8-13.3-185.7C37.1,169.7,17.9,64,17.9,64l-86.5,181.4c0,0-0.7,7.4,23.5,12.5
					l-94.7,198.4c0,0-1.1,11.6,33.7,20.7l-111.9,234.6c0,0-4.6,47.3,236,47.3C76.5,759,65.4,567.9,46.9,412.6z"/>
				<g>
					<path class="st2" d="M162.2,504.5l2.2,5.7C164.3,510.2,166,507.7,162.2,504.5z"/>
					<path class="st2" d="M104.6,245.5L18,64.1c0,0-19.2,105.7-15.6,162.9c-14.3,107.2-27.3,261.1,15.5,261
						c107.3,0,136.6,9.9,144.2,16.5L69.1,260C105.5,255.2,104.6,245.5,104.6,245.5z"/>
				</g>
			</g>
			<g>
				<path class="st3" d="M132,436.2c2.5-67.8,33.6-150.3,23.7-224.5C160.1,139.6,136,6.4,136,6.4L27,235c0,0-0.9,9.3,29.6,15.8
					L-62.8,500.9c0,0-1.4,14.6,42.4,26.1l-141.1,295.6c0,0-5.8,59.6,297.5,59.6C209.7,882.2,155.4,631.8,132,436.2z"/>
			</g>
			<g>
				<path class="st2" d="M1347.8,773.7L1222,510.1c39.1-10.3,37.8-23.3,37.8-23.3l-106.5-223c27.2-5.8,26.4-14.1,26.4-14.1
					l-97.3-203.9c0,0-21.5,118.7-17.5,183c-8.8,66.2-17.2,148.2-14.9,208.7c-20.8,174.5-33.2,389.3,32.5,389.3
					C1353,826.8,1347.8,773.7,1347.8,773.7z"/>
				<g>
					<path class="st2" d="M1100,228.8c4-64.4-17.5-183-17.5-183l-97.3,203.9c0,0-1.3,13.9,57.8,18.2l-67.1,259.6
						c17.1-3,49.3-5.2,106.6-5.2C1130.7,522.3,1116,349.3,1100,228.8z"/>
					<path class="st2" d="M971.5,544.3l4.3-16.8C938.9,534,971.5,544.3,971.5,544.3z"/>
				</g>
			</g>
			<g>
				<path class="st3" d="M1281.8,898.9l-155.4-325.5c48.3-12.7,46.7-28.8,46.7-28.8l-131.5-275.4c33.6-7.1,32.6-17.4,32.6-17.4
					L954.1,0c0,0-26.6,146.6-21.6,226c-10.9,81.7,59.6,177.6,62.3,252.3C969,693.8,872.9,964.5,954.1,964.5
					C1288.1,964.5,1281.8,898.9,1281.8,898.9z"/>
			</g>
		</g>
		<path class="st2" d="M132.4,862.5V232.7h111.7L136,6.4c0,0-24.1,133-19.6,205.2c-9.9,74.2-19.3,166.1-16.8,234
			C76.2,641.2,62.4,882.2,136,882.2c116.8,0,187.7-8.8,230.8-19.7H132.4z"/>
		<g>
			<path class="st2" d="M976.6,232.7c-0.3-2.2-0.6-4.4-0.9-6.6C980.7,146.6,954.1,0,954.1,0l-111,232.7H976.6z"/>
			<path class="st2" d="M997.3,510.2v352.3H643.8l-17.4,36.4c0,0-6.4,65.6,327.7,65.6C1032,964.5,1021.1,720.3,997.3,510.2z"/>
		</g>
	</g>
</g>
<g>
	<defs>
		<rect id="SVGID_3_" width="1125.2" height="1470.5"/>
	</defs>
	<clipPath id="SVGID_4_">
		<use xlink:href="#SVGID_3_"  style="overflow:visible;"/>
	</clipPath>
	<rect y="-196.9" class="st4" width="1129.7" height="1667.4"/>
</g>
<g>
	<defs>
		<rect id="SVGID_5_" width="1125.2" height="1470.5"/>
	</defs>
	<clipPath id="SVGID_6_">
		<use xlink:href="#SVGID_5_"  style="overflow:visible;"/>
	</clipPath>
	<rect y="-196.9" class="st5" width="1129.7" height="1667.4"/>
</g>
<g>
	<defs>
		<rect id="SVGID_7_" width="1125.2" height="1470.5"/>
	</defs>
	<clipPath id="SVGID_8_">
		<use xlink:href="#SVGID_7_"  style="overflow:visible;"/>
	</clipPath>
	<rect y="-196.9" class="st6" width="1129.7" height="1667.4"/>
</g>
<g>
	<defs>
		<rect id="SVGID_9_" width="1125.2" height="1470.5"/>
	</defs>
	<clipPath id="SVGID_10_">
		<use xlink:href="#SVGID_9_"  style="overflow:visible;"/>
	</clipPath>
	<path class="st7" d="M194.4,942.4"/>
</g>
<g>
	<defs>
		<rect id="SVGID_11_" width="1125.2" height="1470.5"/>
	</defs>
	<clipPath id="SVGID_12_">
		<use xlink:href="#SVGID_11_"  style="overflow:visible;"/>
	</clipPath>
	<rect y="-196.9" class="st8" width="1129.7" height="1667.4"/>
</g>
<g>
	<defs>
		<rect id="SVGID_13_" width="1125.2" height="1470.5"/>
	</defs>
	<clipPath id="SVGID_14_">
		<use xlink:href="#SVGID_13_"  style="overflow:visible;"/>
	</clipPath>
	<rect y="-196.9" class="st9" width="1129.7" height="1667.4"/>
</g>
<g>
	<defs>
		<rect id="SVGID_15_" width="1125.2" height="1470.5"/>
	</defs>
	<clipPath id="SVGID_16_">
		<use xlink:href="#SVGID_15_"  style="overflow:visible;"/>
	</clipPath>
	<rect y="-196.9" class="st10" width="1129.7" height="1667.4"/>
</g>
<path class="st2" d="M190.6,942.4"/>
<path class="st11" d="M1012.8,228c-0.7-0.8-1.5-1.5-2.3-2.1c-0.6-0.4-1.2-0.7-1.9-1c-1-0.4-2.1-0.7-3.2-0.8c-0.4,0-0.7-0.1-1.1-0.1
	H116.8c-0.4,0-0.8,0-1.1,0.1c-1.1,0.1-2.2,0.4-3.2,0.8c-0.7,0.3-1.3,0.6-1.9,1c-0.9,0.6-1.7,1.3-2.3,2.1c-1.6,1.9-2.5,4.3-2.5,7
	v582.7v0.1c0,6.1,4.9,11,11,11h8.1h2.8l-1.4-584.2h10.5h847.5h10.5l-1.4,584.2h2.8h8.1c6.1,0,11-4.9,11-11v-0.1V235
	C1015.3,232.3,1014.4,229.9,1012.8,228z"/>
<g>
	<path class="st12" d="M146.7,441.2c0,0,159.9-58.1,159.9-196.6H126.3v584.2h90.1C216.4,828.8,242.2,533.5,146.7,441.2z"/>
	<path class="st12" d="M974.4,441.2c0,0-159.9-58.1-159.9-196.6h180.3v584.2h-90.1C904.7,828.8,878.9,533.5,974.4,441.2z"/>
	<g>
		<path class="st13" d="M178.7,395.8c0,0,27.6-41.6,41.2-78.9c10.7-29.4,4.7-56,24.1-57.6C288,255.8,240,365.8,178.7,395.8z"/>
		<path class="st13" d="M144.5,397.4c0,0,16.3-41,19.8-77.8c2.7-29-10.5-55.3,8.5-56.8C215.8,259.2,197.7,367.8,144.5,397.4z"/>
		<path class="st13" d="M143.5,505.8c0,0,16,61.7,18.8,134.4c2.9,76.2-7.1,163.7,8.4,163.7c15.6,0,19.1-90,8.1-166.4
			C168.2,565,143.5,505.8,143.5,505.8z"/>
	</g>
	<g>
		<path class="st13" d="M944.4,395.8c0,0-27.6-41.6-41.2-78.9c-10.7-29.4-4.7-56-24.1-57.6C835,255.8,883,365.8,944.4,395.8z"/>
		<path class="st13" d="M978.6,397.4c0,0-16.3-41-19.8-77.8c-2.7-29,10.5-55.3-8.5-56.8C907.3,259.2,925.4,367.8,978.6,397.4z"/>
		<path class="st13" d="M979.6,505.8c0,0-16,61.7-18.8,134.4c-2.9,76.2,7.1,163.7-8.4,163.7c-15.6,0-19.1-90-8.1-166.4
			C954.9,565,979.6,505.8,979.6,505.8z"/>
	</g>
</g>
<path class="st14" d="M-1.9,1472.2h1127.1V830.4c0,0-199.4-24.9-554.5-24.9S-1.9,830.4-1.9,830.4V1472.2z"/>
<path class="st13" d="M1006.3,819.8c-93.3-6.8-240.7-14.3-435.7-14.3c-200.5,0-357.1,7.9-455.4,14.8c-1.3,3.7-0.4,9.4-0.4,12.2l0,0
	c0,34.8,18.5,63.1,41.4,63.1h137.9c0,0,0,0-0.1,0c22.8,0.1,41.3,28.3,41.3,63.1s-18.5,63-41.3,63.1c0,0,0,0,0.1,0h-68.5
	c-22.9,0-41.4,28.2-41.4,63.1c0,34.8,18.5,63.1,41.4,63.1h50.7v-0.1h130.9c22.9,0,41.4,28.2,41.4,63.1c0,34.8-18.5,63.1-41.4,63.1
	h-39c-0.7,0.1-1.5,0.1-2.2,0.1c0,0,0,0,0.1,0h0.1c-22.9,0-41.4,28.2-41.4,63.1c0,34.8,18.5,63.1,41.4,63.1h68.5c0,0,0,0-0.1,0
	c22.8,0.1,41.3,28.3,41.3,63.1c0,3.1,0,6.1,0,9.1h168.3c0-3,0-6,0-9.1c0-34.8,18.5-63,41.3-63.1c0,0,0,0-0.1,0h68.5
	c22.9,0,41.4-28.2,41.4-63.1c0-34.8-18.5-63.1-41.4-63.1l0,0c-0.8,0-1.5,0-2.2-0.1h-17.4c-22.9,0-41.4-28.2-41.4-63.1
	c0-34.8,18.5-63.1,41.4-63.1h130.9v0.1h20.4c22.9,0,41.4-28.2,41.4-63.1c0-34.8-18.5-63.1-41.4-63.1h-59.7c0,0,0,0,0.1,0
	c-22.8-0.1-41.3-28.3-41.3-63.1s18.5-63,41.3-63.1c0,0,0,0-0.1,0h137.9c22.9,0,41.4-28.2,41.4-63.1l0,0
	C1005.1,829.8,1007.3,823.9,1006.3,819.8z"/>
</svg>
