<?xml version="1.0" encoding="utf-8"?>
<!-- Generator: Adobe Illustrator 22.0.1, SVG Export Plug-In . SVG Version: 6.00 Build 0)  -->
<svg version="1.1" id="Layer_1" xmlns="http://www.w3.org/2000/svg" xmlns:xlink="http://www.w3.org/1999/xlink" x="0px" y="0px"
	 viewBox="0 0 1125.2 900" style="enable-background:new 0 0 1125.2 900;" xml:space="preserve">
<style type="text/css">
	.st0{clip-path:url(#SVGID_2_);fill:#849EA8;}
	.st1{clip-path:url(#SVGID_2_);}
	.st2{fill:#01232D;}
	.st3{clip-path:url(#SVGID_2_);fill:#DCD2C6;}
	.st4{clip-path:url(#SVGID_2_);fill:#FFF7EA;}
	.st5{fill:#E8624D;}
	.st6{clip-path:url(#SVGID_2_);fill:#01232D;}
	.st7{fill:#849EA8;}
</style>
<g>
	<defs>
		<rect id="SVGID_1_" x="0.1" width="1125" height="364.8"/>
	</defs>
	<clipPath id="SVGID_2_">
		<use xlink:href="#SVGID_1_"  style="overflow:visible;"/>
	</clipPath>
	<path class="st0" d="M1312.8,68.1V0H-123.7v68.3h908.3c4.7,0.5,17.2,3.2,17.2,17.5c0,17.6,21.6,17.6,21.6,17.6h42
		c0,0,4.3,0,6.2,0.2h0c5.2,0.7,16.4,3.9,16.4,17.4c0,12.6-9.7,16.2-15.2,17.2c-1.2,0.2-3.5,0.4-7.5,0.4H746.4c0,0-19,0-19,17.6
		c0,17.6,19,17.6,19,17.6h403.7v-70.4H1313V68.1H1312.8z"/>
	<path class="st0" d="M1201.6,244.3v-50.4H912.6h-4.5h-6.9c0,0,4.3,0,6.2,0.2h0c5.2,0.7,16.4,3.9,16.4,17.4
		c0,12.6-9.7,16.2-15.2,17.2c-1.2,0.2-3.5,0.4-7.5,0.4h-25.6c0,0-19,0-19,17.6s19,17.6,19,17.6h58.8c-1.2,10.6-9.9,13.8-15.1,14.8
		c-1.2,0.2-3.5,0.4-7.5,0.4H804.3c0,0-19,0-19,17.6c0,17.6,19,17.6,19,17.6h407.9v-70.4H1201.6z"/>
	<g class="st1">
		<path class="st2" d="M437.7,277.1l81.9,0c3.6,0,5.7-0.2,6.8-0.4c5-0.9,13.8-4.2,13.8-15.6c0-12.3-10.1-15.1-14.9-15.8h0
			c-1.7-0.2-5.6-0.2-5.6-0.2h6.2l4,0l67.7,0V309l-159.9,0c0,0-17.2,0-17.2-16C420.5,277.1,437.7,277.1,437.7,277.1z"/>
		<path class="st2" d="M757.6,277.1l-135.5,0c-3.6,0-5.7-0.2-6.8-0.4c-5-0.9-13.8-4.2-13.8-15.6c0-12.3,10.1-15.1,14.9-15.8h37.9
			c1.7-0.2-32.3-0.2-32.3-0.2l-24.3,0V309l159.9,0c0,0,17.2,0,17.2-16C774.8,277.1,757.6,277.1,757.6,277.1z"/>
		<path class="st2" d="M335.4,213.1l164.1,0c3.6,0,5.7-0.2,6.8-0.4c5-0.9,13.8-4.2,13.8-15.6c0-12.3-10.1-15.1-14.9-15.8h0
			c-1.7-0.2-5.6-0.2-5.6-0.2h6.2h4l139.1,0v63.9l-313.5,0c0,0-17.2,0-17.2-16S335.4,213.1,335.4,213.1z"/>
		<path class="st2" d="M377.6,149.2l271.4,0v32H377.6c0,0-17.2,0-17.2-16C360.4,149.2,377.6,149.2,377.6,149.2z"/>
		<path class="st2" d="M808.9,213.1l-97.6,0c-3.6,0-5.7-0.2-6.8-0.4c-5-0.9-13.8-4.2-13.8-15.6c0-12.3,10.1-15.1,14.9-15.8h0
			c1.7-0.2,5.6-0.2,5.6-0.2h-6.2h-4l-51.9,0v63.9l159.9,0c0,0,17.2,0,17.2-16S808.9,213.1,808.9,213.1z"/>
		<path class="st2" d="M766.7,149.2l-117.8,0v32h117.8c0,0,17.2,0,17.2-16C783.9,149.2,766.7,149.2,766.7,149.2z"/>
	</g>
	<path class="st3" d="M387.4,43.6c-26.6,29.6-42.8,68.7-42.8,111.6c0,92.2,74.8,167,167,167s167-74.8,167-167
		c0-42.9-16.2-82-42.8-111.6H387.4z"/>
	<path class="st4" d="M656.2,112.4c0-17.6-2.2-34.8-6.4-51.1c-4.2-6.2-8.9-12.1-13.9-17.7H387.4c-26.6,29.6-42.8,68.7-42.8,111.6
		c0,77.9,53.3,143.3,125.4,161.8C574.5,307.2,656.2,219.4,656.2,112.4z"/>
	<path class="st0" d="M441.6,43.2c-0.9,2-1.4,4.5-1.4,7.4c0,17.6,19,17.6,19,17.6H1313v-25H441.6z"/>
	<path class="st3" d="M408.2,210.9c0,14.7-12.2,22.4-25.8,19.2c-12.1-2.8-23.3-13.8-26.4-26.1c-3.5-14,4-26.7,18.8-26.7
		C392.2,177.2,408.2,193.6,408.2,210.9z"/>
	<path class="st3" d="M594,120.1c3.4-14.9,15-24.2,26.3-22.2c11.2,2,19.6,14.9,18.7,30.1c-1,17.1-13.1,30.6-26.9,28.2
		C598.2,153.9,590.2,136.8,594,120.1z"/>
	<path class="st3" d="M547.8,246.7c11.5-10.1,25.3-13.3,31.9-8.1c6.5,5.2,4.4,17.5-5.6,28.6c-11.2,12.4-27.9,18.7-36,12.4
		C529.8,273.4,534.8,258.1,547.8,246.7z"/>
	<g class="st1">
		<g>
			<path class="st5" d="M1189.8,371.1c1.9,0,1.9-3,0-3C1187.9,368.1,1187.9,371.1,1189.8,371.1L1189.8,371.1z"/>
		</g>
	</g>
	<line class="st6" x1="202.1" y1="163.8" x2="221.7" y2="163.8"/>
	<path class="st6" d="M847.7,163.8h122.7c4.5,0,7.1-0.3,8.5-0.5c6.3-1.2,17.3-5.3,17.3-19.6c0-15.4-12.7-19-18.7-19.8h0
		c-2.2-0.2-7.1-0.3-7.1-0.3h7.9h5.1h329.8V204H847.7c0,0-21.6,0-21.6-20.1S847.7,163.8,847.7,163.8z"/>
	<path class="st6" d="M878.2,244.2h118.4c4.5,0,7.1-0.3,8.5-0.5c6.3-1.2,17.3-5.3,17.3-19.6c0-15.4-12.7-19-18.7-19.8h0
		c-2.2-0.2-7.1-0.3-7.1-0.3h7.9h5.1h303.1v80.4H878.2c0,0-21.6,0-21.6-20.1C856.6,244.2,878.2,244.2,878.2,244.2z"/>
	<line class="st6" x1="985.8" y1="123.6" x2="966.2" y2="123.6"/>
	<path class="st6" d="M1313,83.1c-229.9,0.2-232.3,0.4-236,0.4H958.6c0,0-21.6,0-21.6,20.1s21.6,20.1,21.6,20.1H1313V83.1z"/>
	<path class="st6" d="M1312.8,284.4h-173.3h-5.1h-7.9c0,0,4.9,0,7.1,0.3h0c5.9,0.8,18.7,4.4,18.7,19.8c0,14.4-11,18.5-17.3,19.6
		c-1.4,0.2-4,0.5-8.5,0.5h-29c0,0-21.6,0-21.6,20.1s21.6,20.1,21.6,20.1h215.4V284.4z"/>
	<g class="st1">
		<path class="st7" d="M1310.8,192.4c0,0,0.8,0,2,0.1v-58.8l-156.1,0c0,0-31.6,0-31.6,29.4c0,29.4,31.6,29.4,31.6,29.4h-1.7
			L1310.8,192.4z"/>
		<path class="st7" d="M1312.8,251c-1.3,0.1-2,0.1-2,0.1l0.1,0h-10c0,0-31.6,0-31.6,29.4c0,29.4,31.6,29.4,31.6,29.4h12V251z"/>
	</g>
	<g class="st1">
		<path class="st7" d="M621.4,68.1h-25H245v35.2H55.2v70.4h0.6v70.4h407.9c0,0,19,0,19-17.6s-19-17.6-19-17.6h-137
			c-4,0-6.2-0.2-7.5-0.4c-5.5-1-15.2-4.6-15.2-17.2c0-13.5,11.2-16.7,16.4-17.4H350c1.9-0.2-23.3-0.2-23.3-0.2h204.7
			c0,0,19,0,19-17.6c0-17.6-19-17.6-19-17.6H423.9c-4,0-6.2-0.2-7.5-0.4c-5.5-1-15.2-4.6-15.2-17.2c0-13.5,11.2-16.7,16.4-17.4h0
			c1.9-0.2,6.2-0.2,6.2-0.2h172.5h25h9.5c0,0,21.6,0,21.6-17.6c0-17.6,19-17.6,19-17.6H621.4z"/>
		<path class="st7" d="M352.1,279.5H244.6c-4,0-6.2-0.2-7.5-0.4c-5.5-1-15.2-4.6-15.2-17.2c0-13.5,11.2-16.7,16.4-17.4h0
			c1.9-0.2,6.2-0.2,6.2-0.2h-6.9h-4.5H-55.8v70.4h407.9c0,0,19,0,19-17.6C371.1,279.5,352.1,279.5,352.1,279.5z"/>
	</g>
	<path class="st6" d="M563,43.2h-48.6h-60H-55.8v40.2v80.4h0.7v80.4h-0.7v80.4v35.2h192.7c0,0,21.6,0,21.6-17.6
		c0-17.6,19-17.6,19-17.6h269.2c0,0,21.6,0,21.6-20.1s-21.6-20.1-21.6-20.1H260.4c-4.5,0-7.1-0.3-8.5-0.5
		c-6.3-1.2-17.3-5.3-17.3-19.6c0-15.4,12.7-19,18.7-19.8h0c2.2-0.2,7.1-0.3,7.1-0.3h150.3c0,0,21.6,0,21.6-20.1
		c0-20.1-21.6-20.1-21.6-20.1H287.8c-4.5,0-7.1-0.3-8.5-0.5c-6.3-1.2-17.3-5.3-17.3-19.6c0-15.4,12.7-19,18.7-19.8h0
		c2.2-0.2,7.1-0.3,7.1-0.3h200c0,0,21.6,0,21.6-20.1s-21.6-20.1-21.6-20.1H365c-4.5,0-7.1-0.3-8.5-0.5c-6.3-1.2-17.3-5.3-17.3-19.6
		c0-15.4,12.7-19,18.7-19.8h0c2.2-0.2,7.1-0.3,7.1-0.3H563c0,0,21.6,0,21.6-20.1S563,43.2,563,43.2z"/>
	<path class="st6" d="M563,309h-48.6h-60H-55.8v-40.2v-80.4h0.7V108h-0.7V27.7V-7.6h482.1c0,0,21.6,0,21.6,17.6
		c0,17.6,19,17.6,19,17.6h50.7c0,0,21.6,0,21.6,20.1s-21.6,20.1-21.6,20.1H260.4c-4.5,0-7.1,0.3-8.5,0.5
		c-6.3,1.2-17.3,5.3-17.3,19.6c0,15.4,12.7,19,18.7,19.8h0c2.2,0.2,7.1,0.3,7.1,0.3h150.3c0,0,21.6,0,21.6,20.1
		c0,20.1-21.6,20.1-21.6,20.1H287.8c-4.5,0-7.1,0.3-8.5,0.5c-6.3,1.2-17.3,5.3-17.3,19.6c0,15.4,12.7,19,18.7,19.8h0
		c2.2,0.2,7.1,0.3,7.1,0.3h200c0,0,21.6,0,21.6,20.1s-21.6,20.1-21.6,20.1H365c-4.5,0-7.1,0.3-8.5,0.5c-6.3,1.2-17.3,5.3-17.3,19.6
		c0,15.4,12.7,19,18.7,19.8h0c2.2,0.2,7.1,0.3,7.1,0.3H563c0,0,21.6,0,21.6,20.1S563,309,563,309z"/>
	<path class="st0" d="M91.4,96.1h-215.6v45.1v45.1v45.1h74.4c0,0,24.3,0,24.3-22.6c0-22.6-24.3-22.6-24.3-22.6h-25.8
		c0,0,0.8,0,2.1-0.1c-5.9-0.6-22.2-4-22.2-22.4c0-18.5,16.3-21.8,22.2-22.4c-1.3-0.1-2.1-0.1-2.1-0.1h167c0,0,24.3,0,24.3-22.6
		C115.7,96.1,91.4,96.1,91.4,96.1z"/>
</g>
</svg>
