<?xml version="1.0" encoding="utf-8"?>
<!-- Generator: Adobe Illustrator 22.0.1, SVG Export Plug-In . SVG Version: 6.00 Build 0)  -->
<svg version="1.1" id="Layer_1" xmlns="http://www.w3.org/2000/svg" xmlns:xlink="http://www.w3.org/1999/xlink" x="0px" y="0px"
	 viewBox="0 0 1125.2 1275.3" style="enable-background:new 0 0 1125.2 1275.3;" xml:space="preserve">
<style type="text/css">
	.st0{fill:#012E35;}
	.st1{fill:#DCD2C6;}
	.st2{fill:#C44E41;}
	.st3{fill:#E8624D;}
	.st4{fill:none;}
	.st5{fill:#003D58;}
</style>
<path class="st0" d="M190.6,747.2"/>
<path class="st1" d="M1012.8,32.8c-0.7-0.8-1.5-1.5-2.3-2.1c-0.6-0.4-1.2-0.7-1.9-1c-1-0.4-2.1-0.7-3.2-0.8c-0.4,0-0.7-0.1-1.1-0.1
	H116.8c-0.4,0-0.8,0-1.1,0.1c-1.1,0.1-2.2,0.4-3.2,0.8c-0.7,0.3-1.3,0.6-1.9,1c-0.9,0.6-1.7,1.3-2.3,2.1c-1.6,1.9-2.5,4.3-2.5,7
	v582.7v0.1c0,6.1,4.9,11,11,11h8.1h2.8l-1.4-584.2h10.5h847.5h10.5l-1.4,584.2h2.8h8.1c6.1,0,11-4.9,11-11v-0.1V39.8
	C1015.3,37.1,1014.4,34.7,1012.8,32.8z"/>
<g>
	<path class="st2" d="M146.7,246c0,0,159.9-58.1,159.9-196.6H126.3v584.2h90.1C216.4,633.6,242.2,338.3,146.7,246z"/>
	<path class="st2" d="M974.4,246c0,0-159.9-58.1-159.9-196.6h180.3v584.2h-90.1C904.7,633.6,878.9,338.3,974.4,246z"/>
	<g>
		<path class="st3" d="M178.7,200.6c0,0,27.6-41.6,41.2-78.9c10.7-29.4,4.7-56,24.1-57.6C288,60.6,240,170.6,178.7,200.6z"/>
		<path class="st3" d="M144.5,202.2c0,0,16.3-41,19.8-77.8c2.7-29-10.5-55.3,8.5-56.8C215.8,64,197.7,172.6,144.5,202.2z"/>
		<path class="st3" d="M143.5,310.6c0,0,16,61.7,18.8,134.4c2.9,76.2-7.1,163.7,8.4,163.7c15.6,0,19.1-90,8.1-166.4
			C168.2,369.8,143.5,310.6,143.5,310.6z"/>
	</g>
	<g>
		<path class="st3" d="M944.4,200.6c0,0-27.6-41.6-41.2-78.9c-10.7-29.4-4.7-56-24.1-57.6C835,60.6,883,170.6,944.4,200.6z"/>
		<path class="st3" d="M978.6,202.2c0,0-16.3-41-19.8-77.8c-2.7-29,10.5-55.3-8.5-56.8C907.3,64,925.4,172.6,978.6,202.2z"/>
		<path class="st3" d="M979.6,310.6c0,0-16,61.7-18.8,134.4c-2.9,76.2,7.1,163.7-8.4,163.7c-15.6,0-19.1-90-8.1-166.4
			C954.9,369.8,979.6,310.6,979.6,310.6z"/>
	</g>
</g>
<rect x="-4.6" y="-392.1" class="st4" width="1134.3" height="1667.4"/>
<rect x="-4.6" y="-392.1" class="st4" width="1134.3" height="1667.4"/>
<rect x="-4.6" y="-392.1" class="st4" width="1134.3" height="1667.4"/>
<rect x="-4.6" y="-392.1" class="st4" width="1134.3" height="1667.4"/>
<rect x="-4.6" y="-392.1" class="st4" width="1134.3" height="1667.4"/>
<rect x="-4.6" y="-392.1" class="st4" width="1134.3" height="1667.4"/>
<path class="st5" d="M-1.9,1277h1127.1V635.2c0,0-199.4-24.9-554.5-24.9S-1.9,635.2-1.9,635.2V1277z"/>
<path class="st3" d="M1006.3,624.6c-93.3-6.8-240.7-14.3-435.7-14.3c-200.5,0-357.1,7.9-455.4,14.8c-1.3,3.7-0.4,9.4-0.4,12.2l0,0
	c0,34.8,18.5,63.1,41.4,63.1h137.9c0,0,0,0-0.1,0c22.8,0.1,41.3,28.3,41.3,63.1s-18.5,63-41.3,63.1c0,0,0,0,0.1,0h-68.5
	c-22.9,0-41.4,28.2-41.4,63.1c0,34.8,18.5,63.1,41.4,63.1h50.7v-0.1h130.9c22.9,0,41.4,28.2,41.4,63.1c0,34.8-18.5,63.1-41.4,63.1
	h-39c-0.7,0.1-1.5,0.1-2.2,0.1c0,0,0,0,0.1,0h0.1c-22.9,0-41.4,28.2-41.4,63.1c0,34.8,18.5,63.1,41.4,63.1h68.5c0,0,0,0-0.1,0
	c22.8,0.1,41.3,28.3,41.3,63.1c0,3.1,0,6.1,0,9.1h168.3c0-3,0-6,0-9.1c0-34.8,18.5-63,41.3-63.1c0,0,0,0-0.1,0h68.5
	c22.9,0,41.4-28.2,41.4-63.1c0-34.8-18.5-63.1-41.4-63.1l0,0c-0.8,0-1.5,0-2.2-0.1h-17.4c-22.9,0-41.4-28.2-41.4-63.1
	c0-34.8,18.5-63.1,41.4-63.1h130.9v0.1h20.4c22.9,0,41.4-28.2,41.4-63.1c0-34.8-18.5-63.1-41.4-63.1h-59.7c0,0,0,0,0.1,0
	c-22.8-0.1-41.3-28.3-41.3-63.1s18.5-63,41.3-63.1c0,0,0,0-0.1,0h137.9c22.9,0,41.4-28.2,41.4-63.1l0,0
	C1005.1,634.6,1007.3,628.7,1006.3,624.6z"/>
</svg>
