<?xml version="1.0" encoding="utf-8"?>
<!-- Generator: Adobe Illustrator 22.0.1, SVG Export Plug-In . SVG Version: 6.00 Build 0)  -->
<svg version="1.1" id="Layer_1" xmlns="http://www.w3.org/2000/svg" xmlns:xlink="http://www.w3.org/1999/xlink" x="0px" y="0px"
	 viewBox="0 0 1125.2 1954.3" style="enable-background:new 0 0 1125.2 1954.3;" xml:space="preserve">
<style type="text/css">
	.st0{clip-path:url(#SVGID_2_);fill:none;}
	.st1{clip-path:url(#SVGID_2_);fill:#01232D;}
	.st2{clip-path:url(#SVGID_2_);fill:#E8624D;}
	.st3{clip-path:url(#SVGID_2_);fill:#C44E41;}
	.st4{clip-path:url(#SVGID_2_);}
	.st5{fill:#01232D;}
	.st6{fill:#E8624D;}
	.st7{clip-path:url(#SVGID_2_);fill:#012E35;}
	.st8{clip-path:url(#SVGID_2_);fill:#DCD2C6;}
	.st9{fill:#DCD2C6;}
	.st10{fill:#FFE174;}
	.st11{fill:none;}
	.st12{fill:#E9624D;}
	.st13{fill:#FF7B65;}
	.st14{fill:#FEFEFF;}
	.st15{fill:#E5E5E6;}
	.st16{fill:#E9E9E8;}
	.st17{fill:#FFFFFE;}
	.st18{fill:#DD4B33;}
	.st19{clip-path:url(#SVGID_2_);fill:#FFF7EA;}
	.st20{clip-path:url(#SVGID_2_);fill:#003D58;}
	.st21{fill:#FFF7EA;}
	.st22{fill:#003D58;}
	.st23{fill:#C44E41;}
</style>
<g>
	<defs>
		<rect id="SVGID_1_" x="0.1" y="1.6" width="1125" height="1952.7"/>
	</defs>
	<clipPath id="SVGID_2_">
		<use xlink:href="#SVGID_1_"  style="overflow:visible;"/>
	</clipPath>
	<ellipse class="st0" cx="747.2" cy="13.2" rx="33" ry="24.5"/>
	<path class="st1" d="M892,908.9h-13.8h-11.7H831l6.1,214.4c0,0,63.2-30.4,60.8-29.7c0,0,0,0,0,0c26-8.4,44.7-32.7,44.7-61.4V972
		C942.6,941.1,921,915.3,892,908.9z"/>
	<path class="st1" d="M258.2,908.9H272h11.7h35.5l-6.1,214.4c0,0-63.2-30.4-60.8-29.7c0,0,0,0,0,0c-26-8.4-44.7-32.7-44.7-61.4V972
		C207.6,941.1,229.2,915.3,258.2,908.9z"/>
	<path class="st2" d="M794.8,31.5c0,0-180.2,45-219.7,127c-39.4,82-74.5,55-84.9,70.5c-10.4,15.5-43.8,51.5-10.4,82
		s158.3,1,181.8-45.5c23.5-46.5,32.6-94.4,145.5-98.7C763.5,126.9,794.8,31.5,794.8,31.5z"/>
	<path class="st3" d="M785,31.5c0,0-180.2,45-219.7,127c-32.9,68.5-68.3,64-83.3,68.7c-0.8,0.3-2.1,0.7-3.5,1.5
		c-3.7,2.2-3,2.9-5.1,5.3c-12.1,13.7-30.2,52.5-3.3,77c33.4,30.5,158.3,1,181.8-45.5c20.5-40.7,31.8-83.9,109.4-96.6
		c11.1-1.8,22-1.6,36.1-2.1C753.7,126.9,785,31.5,785,31.5z"/>
	<g class="st4">
		<path class="st5" d="M661.9,1096.1L1013.7,175c0,0,3.4-5.8,6.4-8.2s5.8-1.4,7.7,1.6c3.9,6,1.3,7.7-5.6,27
			s-320.6,914.1-320.6,914.1S671.5,1132.2,661.9,1096.1z"/>
	</g>
	<g class="st4">
		<path class="st5" d="M721.6,1516.5c0,0-278.5-757.9-293.7-807c-25.7-83-53.8-200.8-94.5-268.9c-20.6-34.5-53.1-54.2-67-47.4
			c-57.5,27.8,5.4,215.1,56.1,367.1s295.4,801,295.4,801L721.6,1516.5z"/>
		<path class="st5" d="M475,450.4c0,0-57-80-77.8-72.2c-20.8,7.8-21,27.5-7.3,87.3c7,30.6,28.3,176.9,42.5,294.2
			c13.6,112.3,20,193,27,344.4c98.2,309.9,148.1,404.5,148.1,404.5L574,1161.8C574,1161.8,545.8,574.7,475,450.4z"/>
	</g>
	<g class="st4">
		<path class="st6" d="M583.1,1204.2c-13.2-13.2-29.6-63.1-70.2-127.5c-39.8-63.2-175.5-265-222.7-331.7l0,0c0,0,0,0,0,0
			c-0.9-1.3-1.8-2.6-2.7-3.8c0,0-0.1,0-0.2-0.1c-11.5-15.5-53.2-72.1-55.5-76.1c-2.7-4.7-12.1,2.6-29.6,13.8
			c-17.6,11.3-27.1,26.1-29.1,30.1c-2.1,4-5.8,3.7-1.8,6.8c4,3.1,47.5,63.1,47.5,63.1c0,0,0,0,0,0c2.2,2.1,4.1,3.9,5.6,3.9
			c3.9,0,134,163.9,188.7,244.4c54.7,80.5,66.3,96.6,74.7,128.8c8.4,32.2-5.8,79.2,9,79.2c14.8,0,53.1,5.5,58.6,0
			C560.9,1229.7,596.3,1217.4,583.1,1204.2z"/>
		<path class="st5" d="M269.1,765.5c10.9-9.7-1-19,17.6-31.5c2.8-3.2,9.4-6.4,15.2-12.2c6.8-6.8-27.2-83.9-41.9-69.2
			c0,0-151.4,116.4-178,142.9c-7.5,7.5-8.5,8.4-6.5,11.1c1.3,1.6,12.2,15.9,18.2,22.1c18.1,18.6,51.7,49.1,70.1,59.5
			c7.5,4.3,13.5,8.5,13.5,3c0-19.2,9.2-83.8,21.7-107c2.1-3.9,6.3-16,23.2-11.7S258.2,775.2,269.1,765.5z"/>
		<path class="st6" d="M82,795.5c-7.5,7.5-8.5,8.4-6.5,11.1c1.3,1.6,12.2,15.9,18.2,22.1c18.1,18.6,51.7,49.1,70.1,59.5
			c7.5,4.3,13.5,8.5,13.5,3c0-9.4,2.2-29.5,5.9-50.4c0,0,0,0,0,0c-8.2,3.1-30.8,9.3-30.8,1.5c0-7.7,4.6-21.5-5.6-21.5
			s-22.5,8-22.5-7.2s4.6-17.1-17.1-17.1c-21.7,0,4.3-26.6,4.3-26.7C98.1,780.9,87.4,790.1,82,795.5z"/>
	</g>
	<g class="st4">
		<g>
			<path class="st6" d="M889.2,665.6c-11.4-14.5-37.9-35.5-56.5-44.8c-7-3.5-16.9-3.9-6.7,1.4c3.4,1.8,7.3,4.2,11.7,7.5
				c4.3,3.4,15.8,10.2,27.1,22.6c3.4,3.8,15.8,16.3,21.6,28.8c4.6,9.8,3.4,20.4,3.4,21.1c0,4.8,2,7.8,2.5,12.5
				c0.6,5.6,0.3,13.1,7.3,19.8c8.5,8,4.2-13,6.5-25.6c0.3-1.4,5.1-6.7,8-6.6c1.3,0,6.8,4.2,8,4.2c9,0,7.1-3.6,7.1-3.6
				S904.9,685.6,889.2,665.6z"/>
			<path class="st6" d="M1069.5,928.7c-2-5.2-16-52.8-48.5-113.5s-56.4-80.8-56.4-80.8c-4,6.8-18.4-13.6-33.8,1.8
				c-15.3,15.3-6,23.6-6,23.6l-6.7,3.2l2.6,8.4c5.4,2,32.5-10.5,42.6,18c0.4,1.2,0.2,4.4,2.1,5.6c0.7,0.4,5,0.8,8.2,3.5
				c4.7,4,8.7,10.3,8.5,14.7c-0.4,7.3,1.5,5.5,4.7,6.8c0.5,0.2,4.1,1.5,7.2,4.5c3.1,3,5.7,7.7,5.8,9.7c0.1,6.4,1.1,5.3,4.9,7.8
				c2.8,1.9,8.7,6.9,11.5,13c1.9,3.2,0.4,8.4,1.2,8.8s3.9,1.6,5.9,3.3c3.7,3.1,7.6,6.9,6.4,14.3c-0.4,2.7,6.8,2.4,10.5,11.7
				c1.9,4.6-0.1,5.9,0.6,7.2s4,1.7,6,5c0.4,0.7,1.7,2.3,2,3.7c0.4,2.2-0.1,4.5,0.7,6.2c0.3,0.6,2.7,0.6,4.5,2.4
				c1.8,1.8,2.8,5.4,2.8,5.8c-0.5,1.8-0.6,2.8-0.4,3.4c0.3,1,2.2,1.8,3.6,2.7c2.2,1.5,2.6,5.7,1.6,8.7s4,10,5,11s5.2-11.5,5.2-11.5
				S1071.5,934,1069.5,928.7z M984.7,788.3c-2.2,1.5-18.5-12-18.5-12c-14.6-14.6-16.3-20.2-9.8-23.5c6.5-3.3,9.7-0.5,19.1,13.7
				C984.9,780.6,986.9,786.8,984.7,788.3z"/>
		</g>
		<path class="st5" d="M952.8,714c-11.8-12-23.6-11.2-23.6-11.2c-1,0-1.9,0-2.8-0.1c-2.5-0.2-4.8-3.9-7-4.6c-3.4-1.1-6.4,0.4-8.7-1
			c-5.2-3.2-8.2,3.9-8.8,7.2c-1.4,8-8.5,19.8-8.5,19.8c-7.1,9.8-45.3,62.8-77.5,107.1c-35.7,49-75.3,138.3-75.3,138.3
			s-115.7,260.3-121.2,273.1c-2.8,6.5-0.6,9.8,0.7,16c1.3,6.1,1.6,15.2,1.6,19.2c0,2,9.7-2.3,11.5-3.1c5.9-2.9,9.8-4.5,13.8-9.5
			c7.4-9.2,13-23.7,13-23.7l64.7-139c0,0,65.5-142.3,82.5-176c17-33.7,46.2-70.7,68.8-99.7s44-54.7,44-54.7s1.8-5.1,9.4-6.3
			c7.6-1.2,1.6-11.4,10.1-19.7c8.5-8.3,21.3-4.6,25.3-11.4S964.6,726,952.8,714z M641.3,1262.3c-0.3,1.2-1.7,4.4-5.6,6.7
			c-2.9,1.7-8.4,2.9-9,2.5c-1.3-0.9-1.4-3.8-1.6-6.6c-0.3-2.9-0.7-5.7-0.7-7.8c0-3.2,3.2-1.9,5.9-2.2s4.9-2.1,4.9-2.1
			C644.1,1254.7,641.8,1260.2,641.3,1262.3z M916.9,715.3c-2.3,2.3-8.8,0.5-8.8-1.6s4.2-8.6,7.4-7.1s5.4-0.1,7.6,2.1
			S919.2,713,916.9,715.3z"/>
	</g>
	<path class="st1" d="M168.5,1665.1l0-487.7c0-51.4,41.7-93,93-93l631,0c51.4,0,93,41.7,93,93l0,487.7c0,51.4-41.7,93-93,93l-631,0
		C210.1,1758.2,168.5,1716.5,168.5,1665.1z"/>
	<path class="st7" d="M785.5,881.3H575.1H364.7c-51.4,0-93,41.7-93,93v690.8c0,36.9,21.5,68.8,52.7,83.9c4.5,2.1,7,7.8,11.8,9.2
		c8.4,2.5,19.4,0,28.6,0h210.4h210.4c9.2,0,20.2,2.5,28.6,0c4.8-1.4,7.3-7,11.8-9.2c31.2-15,52.7-46.9,52.7-83.9V974.3
		C878.6,922.9,836.9,881.3,785.5,881.3z"/>
	<path class="st8" d="M472.6,1193c0,0,21.4-62.5,21.4-110s83,4,83,4v198C577,1285,472.6,1278.5,472.6,1193z"/>
	<g class="st4">
		<g>
			<g>
				<path class="st9" d="M322.4,1032.7c-12.6-3.1-25.4,4.7-28.5,17.3c-3.1,12.6,4.7,25.4,17.3,28.5c12.6,3.1,25.4-4.7,28.5-17.3
					C342.8,1048.6,335,1035.8,322.4,1032.7z M337.2,1060.6c-2.7,11.2-14.1,18.1-25.3,15.4c-11.2-2.7-18.1-14.1-15.4-25.3
					c2.7-11.2,14.1-18.1,25.3-15.4C333,1038,339.9,1049.3,337.2,1060.6z"/>
				<path class="st10" d="M337.2,1060.6c-2.7,11.2-14.1,18.1-25.3,15.4c-11.2-2.7-18.1-14.1-15.4-25.3c2.7-11.2,14.1-18.1,25.3-15.4
					C333,1038,339.9,1049.3,337.2,1060.6z"/>
			</g>
			<path class="st11" d="M311.2,1078.5c-12.6-3.1-20.4-15.8-17.3-28.5s15.8-20.4,28.5-17.3c12.6,3.1,20.4,15.8,17.3,28.5
				C336.6,1073.9,323.8,1081.6,311.2,1078.5z"/>
			<g>
				<polygon class="st12" points="307.8,1038.2 303.6,1063.5 313.3,1069.8 324.7,1068.6 332.6,1044.3 				"/>
				<polygon class="st13" points="319.6,1043.7 329.5,1046.2 323.3,1066.3 313.9,1067.3 				"/>
				<polygon class="st14" points="315.4,1061.1 314.5,1064.5 321.6,1063.9 324.5,1054.8 317.3,1053 316.6,1056.1 320.3,1057 
					319,1061 				"/>
				<polygon class="st15" points="318.9,1046.8 311.2,1045 309.6,1054.4 316.6,1056.1 317.3,1053 313.3,1052 313.8,1048.9 
					318.1,1049.9 				"/>
				<polygon class="st14" points="318.1,1049.9 318.9,1046.8 326.3,1048.6 325.2,1051.7 				"/>
				<polygon class="st15" points="315.4,1061.1 314.5,1064.5 308.6,1060.7 309.5,1055.7 312.6,1056.5 312.2,1059.3 				"/>
			</g>
		</g>
		<g>
			<g>
				
					<ellipse transform="matrix(0.839 -0.5441 0.5441 0.839 -478.6288 328.1849)" class="st10" cx="315.3" cy="972.9" rx="20.4" ry="20.4"/>
			</g>
			<path class="st9" d="M321.3,950.9c-12.2-3.3-24.7,3.8-28,16s3.8,24.7,16,28s24.7-3.8,28-16S333.5,954.3,321.3,950.9z
				 M309.9,992.6c-10.9-3-17.3-14.2-14.3-25.1c3-10.9,14.2-17.3,25.1-14.3c10.9,3,17.3,14.2,14.3,25.1
				C332,989.2,320.7,995.6,309.9,992.6z"/>
			<g>
				<polygon class="st12" points="308.1,957.7 303.9,979.4 312,985.1 322,984.4 329.4,963.5 				"/>
				<polygon class="st13" points="318.2,962.8 326.7,965.1 320.8,982.4 312.6,983 				"/>
			</g>
			<g id="Layer_x0020_1_1_">
				<g id="_400352496_1_">
					<g>
						<polygon class="st16" points="316.7,967.8 309.5,968.7 309,971.4 316,970.5 323.5,969.4 324.5,966.8 						"/>
						<polygon class="st16" points="317.5,964.9 317.6,964.9 317.6,964.9 317.7,964.9 317.7,964.9 317.8,964.9 317.9,964.9 
							317.9,965 318,965 318,965 318.1,965 318.1,965 318.2,965 318.2,965 318.3,965.1 318.4,965.1 318.4,965.1 318.5,965.1 
							318.5,965.1 318.6,965.1 318.6,965.2 318.7,965.2 318.7,965.2 318.8,965.2 318.8,965.2 318.9,965.2 319,965.2 319,965.3 
							319.1,965.3 319.1,965.3 319.2,965.3 319.2,965.3 319.3,965.3 319.3,965.3 319.4,965.4 319.5,965.4 319.5,965.4 319.6,965.4 
							319.6,965.4 319.7,965.4 319.7,965.5 319.8,965.5 319.8,965.5 319.9,965.5 319.9,965.5 320,965.5 320.1,965.5 320.1,965.6 
							320.2,965.6 320.2,965.6 320.3,965.6 320.3,965.6 320.4,965.6 320.4,965.7 320.5,965.7 320.6,965.7 320.6,965.7 320.7,965.7 
							320.7,965.7 320.8,965.7 320.8,965.8 320.9,965.8 320.9,965.8 321,965.8 321,965.8 321.1,965.8 321.2,965.8 321.2,965.9 
							321.3,965.9 321.3,965.9 321.4,965.9 321.4,965.9 321.5,965.9 321.5,966 321.6,966 321.7,966 321.7,966 321.8,966 321.8,966 
							321.9,966 321.9,966.1 322,966.1 322,966.1 322.1,966.1 322.1,966.1 322.2,966.1 322.3,966.1 322.3,966.2 322.4,966.2 
							322.4,966.2 322.5,966.2 322.5,966.2 322.6,966.2 322.6,966.3 322.7,966.3 322.8,966.3 322.8,966.3 322.9,966.3 322.9,966.3 
							323,966.3 323,966.4 323.1,966.4 323.1,966.4 323.2,966.4 323.2,966.4 323.3,966.4 323.4,966.5 323.4,966.5 323.5,966.5 
							323.5,966.5 323.6,966.5 323.6,966.5 323.7,966.5 323.7,966.6 323.8,966.6 323.8,966.6 323.9,966.6 324,966.6 324,966.6 
							324.1,966.6 324.1,966.7 324.2,966.7 324.2,966.7 324.3,966.7 324.3,966.7 324.4,966.7 324.5,966.8 324.5,966.8 324.3,967.3 
							324.1,967.8 323.9,968.4 323.7,968.9 323.5,969.4 323.5,969.4 323.5,969.4 323.4,969.4 323.4,969.4 323.3,969.4 323.3,969.4 
							323.2,969.4 323.2,969.3 323.1,969.3 323,969.3 323,969.3 322.9,969.3 322.9,969.3 322.8,969.3 322.8,969.2 322.7,969.2 
							322.7,969.2 322.6,969.2 322.5,969.2 322.5,969.2 322.4,969.1 322.4,969.1 322.3,969.1 322.3,969.1 322.2,969.1 322.2,969.1 
							322.1,969.1 322.1,969 322,969 321.9,969 321.9,969 321.8,969 321.8,969 321.7,969 321.7,968.9 321.6,968.9 321.6,968.9 
							321.5,968.9 321.4,968.9 321.4,968.9 321.3,968.8 321.3,968.8 321.2,968.8 321.2,968.8 321.1,968.8 321.1,968.8 321,968.8 
							321,968.7 320.9,968.7 320.8,968.7 320.8,968.7 320.7,968.7 320.7,968.7 320.6,968.6 320.6,968.6 320.5,968.6 320.5,968.6 
							320.4,968.6 320.3,968.6 320.3,968.6 320.2,968.5 320.2,968.5 320.1,968.5 320.1,968.5 320,968.5 320,968.5 319.9,968.5 
							319.9,968.4 319.8,968.4 319.7,968.4 319.7,968.4 319.6,968.4 319.6,968.4 319.5,968.3 319.5,968.3 319.4,968.3 319.4,968.3 
							319.3,968.3 319.2,968.3 319.2,968.3 319.1,968.2 319.1,968.2 319,968.2 319,968.2 318.9,968.2 318.9,968.2 318.8,968.2 
							318.8,968.1 318.7,968.1 318.6,968.1 318.6,968.1 318.5,968.1 318.5,968.1 318.4,968 318.4,968 318.3,968 318.3,968 
							318.2,968 318.1,968 318.1,968 318,967.9 318,967.9 317.9,967.9 317.9,967.9 317.8,967.9 317.8,967.9 317.7,967.8 
							317.7,967.8 317.6,967.8 317.5,967.8 317.5,967.8 317.4,967.8 317.4,967.8 317.3,967.7 317.3,967.7 317.2,967.7 317.2,967.7 
							317.2,967.7 317.1,967.7 317.1,967.7 317,967.7 316.9,967.6 316.9,967.6 316.8,967.6 316.8,967.6 316.8,967.6 316.8,967.6 
							316.7,967.6 316.7,967.6 316.6,967.5 316.6,967.5 316.5,967.5 316.4,967.5 316.4,967.5 316.3,967.5 316.3,967.5 316.2,967.4 
							316.2,967.4 316.1,967.4 316.1,967.4 316,967.4 316,967.4 315.9,967.4 315.8,967.3 315.8,967.3 315.7,967.3 315.7,967.3 
							315.6,967.3 315.6,967.3 315.5,967.2 315.5,967.2 315.4,967.2 315.3,967.2 315.3,967.2 315.2,967.2 315.2,967.2 315.1,967.1 
							315.1,967.1 315,967.1 315,967.1 314.9,967.1 314.9,967.1 314.8,967 314.7,967 314.7,967 314.6,967 314.6,967 314.5,967 
							314.5,967 314.4,966.9 314.4,966.9 314.3,966.9 314.2,966.9 314.2,966.9 314.1,966.9 314.1,966.9 314,966.8 314,966.8 
							313.9,966.8 313.9,966.8 313.8,966.8 313.8,966.8 313.7,966.7 313.6,966.7 313.6,966.7 313.5,966.7 313.5,966.7 313.4,966.7 
							313.4,966.7 313.3,966.6 313.3,966.6 313.2,966.6 313.1,966.6 313.1,966.6 313,966.6 313,966.6 312.9,966.5 312.9,966.5 
							312.8,966.5 312.8,966.5 312.7,966.5 312.7,966.5 312.6,966.4 312.5,966.4 312.5,966.4 312.4,966.4 312.4,966.4 312.3,966.4 
							312.3,966.4 312.2,966.3 312.2,966.3 312.1,966.3 312,966.3 312,966.3 311.9,966.3 311.9,966.2 311.8,966.2 311.8,966.2 
							311.7,966.2 311.7,966.2 311.6,966.2 311.6,966.2 311.5,966.1 311.4,966.1 311.4,966.1 311.3,966.1 311.3,966.1 311.2,966.1 
							311.2,966.1 311.1,966 311.1,966 311,966 310.9,966 310.9,966 310.8,966 310.8,965.9 310.7,965.9 310.7,965.9 310.6,965.9 
							310.6,965.9 310.5,965.9 310.5,965.9 310.4,965.8 310.3,965.8 310.3,965.8 310.2,965.8 310.2,965.8 310.1,965.8 310.1,965.8 
							310,965.7 310,965.7 310.1,965.2 310.2,964.7 310.2,964.3 310.3,963.8 310.4,963.4 310.4,962.9 310.5,962.9 310.5,962.9 
							310.6,963 310.7,963 310.7,963 310.8,963 310.8,963 310.9,963 310.9,963 311,963.1 311,963.1 311.1,963.1 311.2,963.1 
							311.2,963.1 311.3,963.1 311.3,963.1 311.4,963.2 311.4,963.2 311.5,963.2 311.5,963.2 311.6,963.2 311.6,963.2 311.7,963.3 
							311.8,963.3 311.8,963.3 311.9,963.3 311.9,963.3 312,963.3 312,963.3 312.1,963.4 312.1,963.4 312.2,963.4 312.3,963.4 
							312.3,963.4 312.4,963.4 312.4,963.4 312.5,963.5 312.5,963.5 312.6,963.5 312.6,963.5 312.7,963.5 312.7,963.5 312.8,963.6 
							312.9,963.6 312.9,963.6 313,963.6 313,963.6 313.1,963.6 313.1,963.6 313.2,963.7 313.2,963.7 313.3,963.7 313.4,963.7 
							313.4,963.7 313.5,963.7 313.5,963.8 313.6,963.8 313.6,963.8 313.7,963.8 313.7,963.8 313.8,963.8 313.8,963.8 313.9,963.9 
							314,963.9 314,963.9 314.1,963.9 314.1,963.9 314.2,963.9 314.2,963.9 314.3,964 314.3,964 314.4,964 314.4,964 314.5,964 
							314.6,964 314.6,964.1 314.7,964.1 314.7,964.1 314.8,964.1 314.8,964.1 314.9,964.1 314.9,964.1 315,964.2 315.1,964.2 
							315.1,964.2 315.2,964.2 315.2,964.2 315.3,964.2 315.3,964.2 315.4,964.3 315.4,964.3 315.5,964.3 315.5,964.3 315.6,964.3 
							315.7,964.3 315.7,964.4 315.8,964.4 315.8,964.4 315.9,964.4 315.9,964.4 316,964.4 316,964.4 316.1,964.5 316.2,964.5 
							316.2,964.5 316.3,964.5 316.3,964.5 316.4,964.5 316.4,964.5 316.5,964.6 316.5,964.6 316.6,964.6 316.6,964.6 316.7,964.6 
							316.8,964.6 316.8,964.7 316.9,964.7 316.9,964.7 317,964.7 317,964.7 317.1,964.7 317.1,964.7 317.2,964.8 317.3,964.8 
							317.3,964.8 317.4,964.8 317.4,964.8 317.5,964.8 317.5,964.9 						"/>
						<polygon class="st16" points="309.5,968.7 322.5,972.2 321.5,974.9 309,971.4 						"/>
						<polygon class="st16" points="308.7,973 311.6,973.8 311.2,976 314,977.6 317.4,977.6 318.6,974 321.5,974.8 319.4,980.5 
							313.2,980.6 307.9,977.4 						"/>
					</g>
					<g>
						<polygon class="st17" points="316,970.4 323.5,969.4 324.5,966.8 316.8,967.8 						"/>
						<polygon class="st17" points="317.5,964.9 317.6,964.9 317.6,964.9 317.7,964.9 317.7,964.9 317.8,964.9 317.9,964.9 
							317.9,965 318,965 318,965 318.1,965 318.1,965 318.2,965 318.2,965 318.3,965.1 318.4,965.1 318.4,965.1 318.5,965.1 
							318.5,965.1 318.6,965.1 318.6,965.2 318.7,965.2 318.7,965.2 318.8,965.2 318.8,965.2 318.9,965.2 319,965.2 319,965.3 
							319.1,965.3 319.1,965.3 319.2,965.3 319.2,965.3 319.3,965.3 319.3,965.3 319.4,965.4 319.5,965.4 319.5,965.4 319.6,965.4 
							319.6,965.4 319.7,965.4 319.7,965.5 319.8,965.5 319.8,965.5 319.9,965.5 319.9,965.5 320,965.5 320.1,965.5 320.1,965.6 
							320.2,965.6 320.2,965.6 320.3,965.6 320.3,965.6 320.4,965.6 320.4,965.7 320.5,965.7 320.6,965.7 320.6,965.7 320.7,965.7 
							320.7,965.7 320.8,965.7 320.8,965.8 320.9,965.8 320.9,965.8 321,965.8 321,965.8 321.1,965.8 321.2,965.8 321.2,965.9 
							321.3,965.9 321.3,965.9 321.4,965.9 321.4,965.9 321.5,965.9 321.5,966 321.6,966 321.7,966 321.7,966 321.8,966 321.8,966 
							321.9,966 321.9,966.1 322,966.1 322,966.1 322.1,966.1 322.1,966.1 322.2,966.1 322.3,966.1 322.3,966.2 322.4,966.2 
							322.4,966.2 322.5,966.2 322.5,966.2 322.6,966.2 322.6,966.3 322.7,966.3 322.8,966.3 322.8,966.3 322.9,966.3 322.9,966.3 
							323,966.3 323,966.4 323.1,966.4 323.1,966.4 323.2,966.4 323.2,966.4 323.3,966.4 323.4,966.5 323.4,966.5 323.5,966.5 
							323.5,966.5 323.6,966.5 323.6,966.5 323.7,966.5 323.7,966.6 323.8,966.6 323.8,966.6 323.9,966.6 324,966.6 324,966.6 
							324.1,966.6 324.1,966.7 324.2,966.7 324.2,966.7 324.3,966.7 324.3,966.7 324.4,966.7 324.5,966.8 324.5,966.8 324.3,967.3 
							324.1,967.8 323.9,968.4 323.7,968.9 323.5,969.4 323.5,969.4 323.5,969.4 323.4,969.4 323.4,969.4 323.3,969.4 323.3,969.4 
							323.2,969.4 323.2,969.3 323.1,969.3 323,969.3 323,969.3 322.9,969.3 322.9,969.3 322.8,969.3 322.8,969.2 322.7,969.2 
							322.7,969.2 322.6,969.2 322.5,969.2 322.5,969.2 322.4,969.1 322.4,969.1 322.3,969.1 322.3,969.1 322.2,969.1 322.2,969.1 
							322.1,969.1 322.1,969 322,969 321.9,969 321.9,969 321.8,969 321.8,969 321.7,969 321.7,968.9 321.6,968.9 321.6,968.9 
							321.5,968.9 321.4,968.9 321.4,968.9 321.3,968.8 321.3,968.8 321.2,968.8 321.2,968.8 321.1,968.8 321.1,968.8 321,968.8 
							321,968.7 320.9,968.7 320.8,968.7 320.8,968.7 320.7,968.7 320.7,968.7 320.6,968.6 320.6,968.6 320.5,968.6 320.5,968.6 
							320.4,968.6 320.3,968.6 320.3,968.6 320.2,968.5 320.2,968.5 320.1,968.5 320.1,968.5 320,968.5 320,968.5 319.9,968.5 
							319.9,968.4 319.8,968.4 319.7,968.4 319.7,968.4 319.6,968.4 319.6,968.4 319.5,968.3 319.5,968.3 319.4,968.3 319.4,968.3 
							319.3,968.3 319.2,968.3 319.2,968.3 319.1,968.2 319.1,968.2 319,968.2 319,968.2 318.9,968.2 318.9,968.2 318.8,968.2 
							318.8,968.1 318.7,968.1 318.6,968.1 318.6,968.1 318.5,968.1 318.5,968.1 318.4,968 318.4,968 318.3,968 318.3,968 
							318.2,968 318.1,968 318.1,968 318,967.9 318,967.9 317.9,967.9 317.9,967.9 317.8,967.9 317.8,967.9 317.7,967.8 
							317.7,967.8 317.6,967.8 317.5,967.8 317.5,967.8 317.4,967.8 317.4,967.8 317.3,967.7 317.3,967.7 317.2,967.7 317.2,967.7 
							317.2,967.7 317.1,967.7 317.1,967.7 317,967.7 316.9,967.6 316.9,967.6 316.8,967.6 316.8,967.6 						"/>
						<polygon class="st17" points="316,970.5 322.5,972.2 321.5,974.9 315.3,973.2 						"/>
						<polygon class="st17" points="314,977.6 317.4,977.6 318.6,974 321.5,974.8 319.4,980.5 313.2,980.6 313.2,980.6 						"/>
					</g>
				</g>
			</g>
		</g>
		<g>
			<g>
				
					<ellipse transform="matrix(0.921 -0.3895 0.3895 0.921 -364.0518 223.5646)" class="st10" cx="369.3" cy="1009.6" rx="20.8" ry="20.8"/>
			</g>
			<path class="st9" d="M363.1,987.2c-12.4,3.4-19.6,16.2-16.2,28.6c3.4,12.4,16.2,19.6,28.6,16.2c12.4-3.4,19.6-16.2,16.2-28.6
				C388.3,991,375.5,983.8,363.1,987.2z M374.9,1029.6c-11.1,3.1-22.5-3.4-25.6-14.5c-3.1-11.1,3.4-22.5,14.5-25.6
				s22.5,3.4,25.6,14.5S385.9,1026.5,374.9,1029.6z"/>
			<polygon class="st13" points="358.3,999 352.8,1008.5 372.7,1021.8 365.8,996.9 			"/>
			<polygon class="st12" points="356.9,1007.4 367.9,1004.4 358.3,999 			"/>
			<polygon class="st12" points="372.7,1021.8 361.4,1006.2 367.9,1004.4 			"/>
			<polygon class="st13" points="373.3,994.8 383,1000.2 372.7,1021.8 365.8,996.9 			"/>
			<polygon class="st12" points="378.8,1001.3 367.9,1004.4 373.3,994.8 			"/>
			<polygon class="st12" points="372.7,1021.8 374.4,1002.5 367.9,1004.4 			"/>
			<polygon class="st12" points="361.4,1006.2 358.3,999 356.9,1007.4 			"/>
			<polygon class="st18" points="383,1000.2 374.4,1002.5 372.7,1021.8 			"/>
		</g>
		<path class="st9" d="M315.4,991.7c-13.9-3.8-22.1-18.2-18.3-32.1c0.1-0.2,0.1-0.4,0.2-0.6c-1.8,2.3-3.1,4.9-3.9,7.9
			c-3.3,12.2,3.8,24.7,16,28c6.5,1.8,13.1,0.6,18.4-2.8C323.8,992.9,319.5,992.8,315.4,991.7z"/>
		<path class="st9" d="M391.7,1003.4c-1.4-5.1-4.4-9.3-8.2-12.2c6.2,12.9,1.9,28.7-10.5,36.6c-3.3,2.1-6.8,3.4-10.4,4
			c4.1,1.2,8.5,1.4,12.9,0.2C387.9,1028.5,395.1,1015.7,391.7,1003.4z"/>
		<path class="st9" d="M311.2,1078.5c7.1,1.7,14.2,0.1,19.6-3.9c-4.2,1.1-8.7,1.3-13.3,0.2c-14.3-3.5-23.1-17.9-19.6-32.2
			c0.1-0.5,0.3-1,0.4-1.5c-0.7,0.8-1.3,1.7-1.9,2.6c-1.1,1.9-2,4.1-2.6,6.4C290.8,1062.7,298.6,1075.4,311.2,1078.5z"/>
	</g>
	<path class="st19" d="M681.2,1193c0,0-21.4-62.5-21.4-110s-83,4-83,4v198C576.8,1285,681.2,1278.5,681.2,1193z"/>
	<path class="st20" d="M415.8,864.8c0,29.4-5.8,53.3-12.8,53.3c-5.3,0-6.9-15.7-8.9-34.8c-0.7-6.4-4-25.3-4-32.7
		c0-29.4,5.8-39.1,12.8-39.1C410,811.5,415.8,835.3,415.8,864.8z"/>
	<path class="st20" d="M735,864.8c0,29.4,5.8,53.3,12.8,53.3c5.3,0,6.9-15.7,8.9-34.8c0.7-6.4,4-25.3,4-32.7
		c0-29.4-5.8-39.1-12.8-39.1S735,835.3,735,864.8z"/>
	<path class="st20" d="M742.3,867.8V761l-166.9-36.8l-167.5,51.5l0.6,92.1c0,0,2.5,126.8,25.4,148.2c22.9,21.4,85,79.3,146.5,79.3
		s144.5-93.2,144.5-93.2S742.3,944.8,742.3,867.8z"/>
	<g class="st4">
		
			<ellipse transform="matrix(0.9649 -0.2627 0.2627 0.9649 -210.1303 160.4343)" class="st21" cx="494.9" cy="866" rx="29.9" ry="29.9"/>
		
			<ellipse transform="matrix(0.9649 -0.2627 0.2627 0.9649 -210.1302 160.4343)" class="st22" cx="494.9" cy="866" rx="19.5" ry="19.5"/>
		<path class="st6" d="M488.4,856.3L488.4,856.3c-0.3,0.3-0.4,0.9-0.1,1.2l1.2,1.4c0.3,0.4,0.8,0.4,1.2,0.1l0,0
			c3.6-1.9,8.2-1.1,10.9,2.3c2.7,3.5,2.3,8.7-1,11.7c-3.7,3.4-9.4,3-12.5-0.8c-1.6-1.9-2.2-4.3-1.9-6.7l0,0c0-0.5-0.3-0.9-0.8-0.9
			l-1.8-0.2c-0.5,0-0.9,0.3-0.9,0.8l0,0c-0.4,3.4,0.6,6.9,3.1,9.6c4.2,4.6,11.4,5.4,16.4,1.6c5.7-4.2,6.6-12.3,2.1-17.7
			C500.2,854.2,493.5,853.2,488.4,856.3z"/>
		<path class="st22" d="M536.2,858.3c0,0-15.2-7.1-29.8-8.4c-14.6-1.3-28.6,3.2-32.5,4.5c-10.6,3.7-20.5,12.6-27,13.3
			C423.6,870.2,527.6,777.9,536.2,858.3z"/>
		<path class="st22" d="M459.6,881.2c0,0,14.9,9.6,32.9,11.2c16.9,1.5,36.5-5,46.5-4.1C559.6,890.2,453.2,952.6,459.6,881.2z"/>
	</g>
	<g class="st4">
		
			<ellipse transform="matrix(0.2627 -0.9649 0.9649 0.2627 -351.9486 1271.3712)" class="st21" cx="655.9" cy="866" rx="29.9" ry="29.9"/>
		
			<ellipse transform="matrix(0.2627 -0.9649 0.9649 0.2627 -351.9486 1271.3712)" class="st22" cx="655.9" cy="866" rx="19.5" ry="19.5"/>
		<path class="st6" d="M662.4,856.3L662.4,856.3c0.3,0.3,0.4,0.9,0.1,1.2l-1.2,1.4c-0.3,0.4-0.8,0.4-1.2,0.1l0,0
			c-3.6-1.9-8.2-1.1-10.9,2.3c-2.7,3.5-2.3,8.7,1,11.7c3.7,3.4,9.4,3,12.5-0.8c1.6-1.9,2.2-4.3,1.9-6.7l0,0c0-0.5,0.3-0.9,0.8-0.9
			l1.8-0.2c0.5,0,0.9,0.3,0.9,0.8l0,0c0.4,3.4-0.6,6.9-3.1,9.6c-4.2,4.6-11.4,5.4-16.4,1.6c-5.7-4.2-6.6-12.3-2.1-17.7
			C650.6,854.2,657.3,853.2,662.4,856.3z"/>
		<path class="st22" d="M614.6,858.3c0,0,15.2-7.1,29.8-8.4c14.6-1.3,28.6,3.2,32.5,4.5c10.6,3.7,20.5,12.6,27,13.3
			C727.2,870.2,623.2,777.9,614.6,858.3z"/>
		<path class="st22" d="M691.2,881.2c0,0-14.9,9.6-32.9,11.2c-16.9,1.5-36.5-5-46.5-4.1C591.2,890.2,697.6,952.6,691.2,881.2z"/>
	</g>
	<path class="st2" d="M541.2,827.6c-0.9,16.5-12.2-1.9-46.4-1.5s-45.8,15.8-46.8,6.7c-0.7-5.9,20-17.7,45.7-19.1
		c19.1-1.1,39.9-3.8,47.3,2C543.5,817.6,541.4,824.6,541.2,827.6z"/>
	<path class="st2" d="M609.6,827.6c0.9,16.5,12.2-1.9,46.4-1.5c34.2,0.3,45.8,15.8,46.8,6.7c0.7-5.9-20-17.7-45.7-19.1
		c-19.1-1.1-39.9-3.8-47.3,2C607.3,817.6,609.4,824.6,609.6,827.6z"/>
	<path class="st19" d="M589.3,863.7c-7.9-31.4-12.2-68.3-12.2-68.3s0-2.5-1.7-2.5c-1.8,0-1.7,2.5-1.7,2.5s-4.2,37-12.2,68.3
		c-7.9,31.4-19.6,57.2-12,62.5c15.1,10.6,18-1.8,13.1,14c-4.9,15.8-7.7,24.3-7.7,24.3s-1.7,5.4,18.3,5.4c0.4,0,1.4,0,2.4,0
		c0.9,0,1.7,0,2.1,0c20,0,18.3-5.4,18.3-5.4s-2.8-8.5-7.7-24.3c-4.9-15.8-2-3.4,13.1-14C608.9,920.9,597.2,895.1,589.3,863.7z"/>
	<path class="st1" d="M258.8,908.9c-28.9,6.4-50.6,32.2-50.6,63v60.3c0,30.9,21.7,56.6,50.6,63V958.2c0-14,5.6-35.5,25.5-49.3H258.8
		z"/>
	<path class="st8" d="M573.7,795.3c0,0-4.2,37-12.2,68.3c-7.9,31.4-19.6,57.2-12,62.5c15.1,10.6,18-1.8,13.1,14
		c-4.9,15.8-7.7,24.3-7.7,24.3s-1.7,5.4,18.3,5.4c0.4,0,1.3,0,2.2,0v-177C573.6,792.8,573.7,795.3,573.7,795.3z"/>
	<path class="st2" d="M750.2,708.7c-0.7-3.7-8.1-11.5-12.5-23.1c-6.7-17.8-27.3-44.6-39.1-56.4c-19.5-19.5-51-30.6-63.8-33.8
		c-12.7-3.2-9.8-5.9-60.7-5.9c-50.9,0-45,2.7-57.8,5.9c-12.7,3.2-44.2,14.3-63.8,33.8c-11.8,11.8-32.5,38.7-39.1,56.4
		c-4.4,11.6-11.7,19.3-12.5,23.1c-5.6,28.6-1.9,69,18.6,60.3c9.9-4.2,39.9,6,56.1,3.6c59.1-8.8,66.4,6.5,99.9,6.4c0,0,0,0,0.1,0
		c0,0,0,0,0.1,0c33.5,0.1,40.8-15.2,99.9-6.4c16.2,2.4,46.2-7.8,56.1-3.6C752.1,777.7,755.8,737.3,750.2,708.7z"/>
	<g class="st4">
		<path class="st23" d="M744.3,708.7c-7.8-0.7-15,11.1-15,11.1s-5.4-12.9-13.2-13.6c-7.8-0.6-14.8,11.4-14.8,11.4
			s-5.6-12.9-13.3-13.4c-7.8-0.5-14.7,11.6-14.7,11.6s-5.7-12.8-13.5-13.1c-7.8-0.4-14.3,5-14.5,11.8c0,0,0,0-0.1,0
			c0.2-6.9-5.9-12.7-13.7-12.9c-7.8-0.2-14.3,12-14.3,12s-6.1-12.6-13.8-12.7c-7.8-0.1-14.2,12.3-14.2,12.3s-6.2-12.5-14-12.5
			c-0.1,0-0.1,0-0.2,0c-0.1,0-0.1,0-0.2,0c-7.8,0-14,12.5-14,12.5s-6.4-12.4-14.2-12.3c-7.8,0.1-13.8,12.7-13.8,12.7
			s-6.6-12.3-14.3-12c-7.8,0.2-13.9,6.1-13.7,12.9c0,0,0,0-0.1,0c-0.2-6.9-6.7-12.2-14.5-11.8c-7.8,0.4-13.5,13.1-13.5,13.1
			s-6.9-12.1-14.7-11.6c-7.8,0.5-13.3,13.4-13.3,13.4s-7-12-14.8-11.4c-7.8,0.6-13.2,13.6-13.2,13.6s-7.2-11.9-15-11.1
			s-13.6,6.9-13,13.8c0.8,9.6,1.7,19.1,2.5,28.7c0.4,5,0.7,7.5,1.1,12.5c0.8,9.6,1.7,19.1,2.5,28.7c0.6,6.8,7.1,11.8,14.5,11.1
			s12.5-13.6,12.5-13.6s6.9,11.9,14.3,11.3s12.7-13.4,12.7-13.4s6.8,12,14.2,11.5c7.4-0.5,12.9-13.2,12.9-13.2s6.6,12.1,14,11.7
			c7.4-0.4,13.3-6.1,13-13c0,0,0,0,0,0c0.2,6.9,6.4,12.2,13.9,12c7.4-0.2,13.2-12.8,13.2-12.8s6.3,12.3,13.7,12.2
			c7.4-0.1,13.4-12.6,13.4-12.6s6.1,12.4,13.5,12.4c0.1,0,0.1,0,0.2,0c0.1,0,0.1,0,0.2,0c7.4,0,13.5-12.4,13.5-12.4
			s5.9,12.5,13.4,12.6c7.4,0.1,13.7-12.2,13.7-12.2s5.8,12.6,13.2,12.8c7.4,0.2,13.6-5.1,13.9-12c0,0,0,0,0,0
			c-0.2,6.9,5.6,12.7,13,13c7.4,0.4,14-11.7,14-11.7s5.4,12.7,12.9,13.2c7.4,0.5,14.2-11.5,14.2-11.5s5.3,12.8,12.7,13.4
			c7.4,0.6,14.3-11.3,14.3-11.3s5.1,12.9,12.5,13.6c7.4,0.7,13.9-4.2,14.5-11.1c0.8-9.6,1.7-19.1,2.5-28.7c0.4-5,0.7-7.5,1.1-12.5
			c0.8-9.6,1.7-19.1,2.5-28.7C757.9,715.6,752.1,709.4,744.3,708.7z"/>
	</g>
	<path class="st2" d="M242.9,923.4c-13.1,6.6-20.3,19.2-24.1,28.7c-1.3,3.3-3.3,11.8-3.4,14.6c-0.2,5.1-0.4,12-0.4,12v56.6
		c0,3.7,3,6.6,6.6,6.6h0.3c3.7,0,6.6-3,6.6-6.6v-64.6c0-0.6,0-1.1,0-1.7C228.6,932.7,265.9,911.7,242.9,923.4z"/>
	<path class="st2" d="M907.9,923.4c13.1,6.6,20.3,19.2,24.1,28.7c1.3,3.3,3.3,11.8,3.4,14.6c0.2,5.1,0.4,12,0.4,12v56.6
		c0,3.7-3,6.6-6.6,6.6h-0.3c-3.7,0-6.6-3-6.6-6.6v-64.6c0-0.6,0-1.1,0-1.7C922.2,932.7,884.9,911.7,907.9,923.4z"/>
	<path class="st2" d="M482,227.1c0,0-14.6,6.4-7.6,20.8c12.4,25.5,67.1,60.7,208.7,19.4c221.5-64.5,214.2-93.4,267-94.2
		s52.8-0.7,52.8-0.7L845.7,580.3c0,0-241.1-0.8-317.5-126.2c-31.4-51.5-57-69.5-74.3-79c-24.9-13.7-10.5-80.9-7.8-88.3
		c14.9-41.7,25.7-54.4,31.3-58.1C478.7,227.8,481.3,227.3,482,227.1C483,226.8,482,227.1,482,227.1z"/>
	<path class="st2" d="M402.9,733.6"/>
	<path class="st2" d="M742.9,887.4c0,0-6.7,17-9.9,31.3c-4.9,22.5-7.1,36.1-8.1,43.5c-4.5,15.8-7.9,28.3-13.7,33.6
		c-16.5,15.1-30.1,13.2-35.4,10.1c-3.9-2.3-3.5-10.1-17.6-23.2c-16-14.9-26.4-28.2-42.7-28.2c-10.2-0.2-30.6,5-40.1,5
		c-0.1,0-0.2,0-0.3,0c-0.1,0-0.2,0-0.3,0c-9.5,0-29.9-5.2-40.1-5c-16.3,0-26.7,13.3-42.7,28.2c-14.1,13.1-13.7,21-17.6,23.2
		c-5.3,3.1-18.9,5-35.4-10.1c-5.8-5.3-9.2-17.8-13.7-33.6c-1-7.4-3.2-21-8.1-43.5c-3.1-14.3-9.9-31.3-9.9-31.3c0,0.7,0,1.3,0,1.5
		c0,2.2,0.1,6.1,0.3,11.1c0.1,3.4,0.2,6.6,0.4,9.7c1.3,26.9,3.8,68.7,4.4,73c5.2,38.6,23,63.6,36.8,87.7
		c11,19.4,23.9,33.7,37.2,42.4c9.8,6.5,47.9,21.4,88.3,21.4c0.1,0,0.2,0,0.3,0c0.1,0,0.2,0,0.3,0c40.4,0,78.5-15,88.3-21.4
		c13.3-8.7,26.2-23,37.2-42.4c13.8-24.1,31.6-49.1,36.8-87.7c0.6-4.3,3.1-46.1,4.4-73c0.2-3.1,0.4-6.3,0.4-9.7
		c0.2-5,0.3-8.9,0.3-11.1C742.9,888.6,742.9,888.1,742.9,887.4z"/>
	<path class="st20" d="M640.5,1029.1c-0.8-4.1-23.5-14.7-36.7-17.1c-9.6-1.8-15.7,0.9-28.4,0.9c-12.7,0-22.4-2.3-33.8,0
		c-9.6,1.9-30.4,12.1-31.3,16.2c-0.4,1.7,1.5,3.8,3.7,5.6c2.3,1.9,14.3,12.1,26.6,17.4c8.5,3.6,19.8,6.6,34.8,7.1
		c15-0.5,26.4-3.5,34.8-7.1c12.3-5.2,24.3-15.5,26.6-17.4C638.9,1033,640.9,1030.9,640.5,1029.1z"/>
	<path class="st20" d="M590.1,930.9l-15.1-0.2l-15.1,0.2c0,0-12.2,16.7-2.8,26.3c0,0,4.1-4.8,8.1-10.1c3-3.9,5.1-8.6,9.7-8.6
		s6.8,4.7,9.7,8.6c4,5.3,8.1,10.1,8.1,10.1C602.4,947.6,590.1,930.9,590.1,930.9z"/>
	<path class="st2" d="M315.6,1472.2l6.5-21.1c9.6-2.7,16.4-11.6,16-22c0,0,0,0,0,0l-0.6-13.6c4.9-3.6,11.4-4.6,17.9-2.5h0
		c10.3,3.3,16,14.4,12.7,24.7l-16.5,51.5c-3.2,23.1-9,49.7-19.5,55.6c-19.2,10.9-41.6-46-41.6-46S297.3,1485.2,315.6,1472.2z"/>
	<path class="st2" d="M324,1456c0,0-2.4,5.6-2.4,14.6c0,9-7.4,0.3-7.4,0S324,1445.5,324,1456z"/>
	<path class="st7" d="M267.7,1580.6c5.2,54,72,64.6,66.1-26.1c-1.1-16.3-1.8-27.4-2.1-30.6c-2-27.1-3.1-56.5-3.5-86.4
		C327,1351.3,256.2,1461.4,267.7,1580.6z"/>
	<path class="st2" d="M254.4,1451.3c0.3,0.1,0.6,0.1,0.9,0.2c1.3,0.2,2.6,0.3,4,0.2c0,0,0.1,0,0.1,0h0l20.3-0.8l31.2-1.3h0
		c0,0,0.1,0,0.1,0c1.4-0.1,2.7-0.3,4-0.6c0.3-0.1,0.6-0.1,0.9-0.2c9.6-2.6,16.5-11.6,16.1-22c0,0,0,0,0,0l-2-49.5c0,0,0,0,0,0
		c-0.1-1.5-0.3-3-0.6-4.4c-2.3-9.2-10.3-16-19.9-16.6c-0.7,0-1.5-0.1-2.2,0h0l-31.2,1.3l-20.3,0.8h0c-0.8,0-1.5,0.1-2.2,0.2
		C243.8,1360,244.6,1449.5,254.4,1451.3z"/>
	<path class="st2" d="M325.2,1477.9"/>
	<path class="st2" d="M324.7,1123.4c-25.3,0.4-64.5,5.3-74.8,30.6c-4.2,10.2-18.9,68.1-18.6,128.8c0.4,80.6,17.7,178.7,29.2,297.8
		c5.2,54,53.5,76.9,53.6,144.6c0.1,41,11.5,48,16.2,74.8c5.1,29.1,10,86.8,10,86.8c9.2,15.1-14.3-341.9-15.8-362.9
		c-7.8-105.3-2.1-244.5,6.4-317c2.1-17.6,4.3-37.5,9.2-49.3c8.1-19.7,19-25.9,17.4-27.3C349.4,1123.6,331.1,1123.2,324.7,1123.4z"/>
	<path class="st7" d="M311.9,1135.4c-22.3,0.4-57,5.3-66,30.6c-3.7,10.2-16.6,68.1-16.4,128.8c0.3,80.6,15.6,178.7,25.8,297.8
		c3.4,39.6,24.5,67.1,35.3,117.9c1.5,7.2,19.3,9.5,19.3,41.9c0,18,10,17.4,12.5,33.5c8.4,53.1,18,109.5,18,100.8
		c0.6-66.9-27.4-332.8-28.6-350.8c-6.9-105.3-1.8-244.5,5.7-317c1.8-17.6,3.8-37.5,8.1-49.3c7.1-19.7,11.1-27.8,9.7-29.2
		C328,1133.8,317.5,1135.3,311.9,1135.4z"/>
	<path class="st2" d="M205.2,1530.6c2.8-2.7,3.6-5.4,5.2-7.3c4.7-5.7,6.5-7.9,10.3-10c7.3-4,16.8-7.6,20-10.6
		c4.8-4.5,5.4-12.3,12.7-15c3.7,31.3,7.4,63.9,10.7,97.9c2.2,22.3,5.9,48,10.7,75.3c-21.4-26.6-31-66.8-28.7-100.5
		C234.7,1547.8,194.2,1541.2,205.2,1530.6z"/>
	<path class="st20" d="M238.5,1429.3c0.4,9,6.9,16.2,15.4,17.8c0.3,0,0.5,0.1,0.8,0.1c1.1,0.2,2.3,0.2,3.4,0.2c0,0,0.1,0,0.1,0h0
		l17.6-0.7l27-1.1h0c0,0,0.1,0,0.1,0c1.2-0.1,2.3-0.2,3.4-0.5c0.3-0.1,0.5-0.1,0.7-0.2c8.3-2.3,14.3-10.1,13.9-19.1c0,0,0,0,0,0
		l-1.8-42.9c0,0,0,0,0,0c-0.1-1.3-0.2-2.6-0.5-3.8c-2-8-8.9-13.9-17.2-14.4c-0.6,0-1.3,0-1.9,0h0l-27,1.1l-17.6,0.7h0
		c-0.7,0-1.3,0.1-1.9,0.2c-8.2,1.2-14.7,7.6-16,15.7c-0.2,1.2-0.3,2.5-0.2,3.8c0,0,0,0,0,0L238.5,1429.3
		C238.5,1429.3,238.5,1429.3,238.5,1429.3z"/>
	<path class="st20" d="M235.8,1430.9c0.4,9.6,7.4,17.4,16.5,19.1c0.3,0.1,0.5,0.1,0.8,0.1c1.2,0.2,2.4,0.3,3.7,0.2c0,0,0.1,0,0.1,0
		h0l18.8-0.8l28.8-1.2h0c0,0,0.1,0,0.1,0c1.3-0.1,2.5-0.2,3.7-0.5c0.3-0.1,0.5-0.1,0.8-0.2c8.9-2.4,15.3-10.8,14.9-20.4c0,0,0,0,0,0
		l-1.9-45.8c0,0,0,0,0,0c-0.1-1.4-0.3-2.8-0.6-4.1c-2.1-8.5-9.5-14.8-18.4-15.3c-0.7,0-1.4,0-2.1,0h0l-28.8,1.2l-18.8,0.8h0
		c-0.7,0-1.4,0.1-2.1,0.2c-8.8,1.3-15.7,8.2-17.1,16.8c-0.2,1.3-0.3,2.7-0.2,4.1c0,0,0,0,0,0L235.8,1430.9
		C235.8,1430.9,235.8,1430.9,235.8,1430.9z M243.7,1388.9c-0.2-4.2,1.5-8.1,4.2-10.8c2.5-3,6.3-4.9,10.5-5.1l14.1-0.6l24.2-1
		c4.2-0.2,8.1,1.5,10.8,4.2c3,2.5,4.9,6.3,5.1,10.5l1.5,37.5c0.2,4.2-1.5,8.1-4.2,10.8c-2.5,3-6.3,4.9-10.5,5.1l-24.2,1l-14.1,0.6
		c-4.2,0.2-8.1-1.5-10.8-4.2c-3-2.5-4.9-6.3-5.1-10.5L243.7,1388.9z"/>
	<path class="st2" d="M243.8,1426.3c0.3,7.8,6,14.1,13.4,15.5c0.2,0,0.4,0.1,0.7,0.1c1,0.1,2,0.2,3,0.2c0,0,0.1,0,0.1,0h0l15.3-0.6
		l23.5-1h0c0,0,0.1,0,0.1,0c1,0,2-0.2,3-0.4c0.2-0.1,0.4-0.1,0.7-0.2c7.2-2,12.4-8.8,12.1-16.6c0,0,0,0,0,0l-1.5-37.3c0,0,0,0,0,0
		c0-1.1-0.2-2.2-0.5-3.3c-1.7-6.9-7.8-12.1-15-12.5c-0.6,0-1.1,0-1.7,0h0l-23.5,1l-15.3,0.6h0c-0.6,0-1.1,0.1-1.7,0.2
		c-7.2,1-12.8,6.6-13.9,13.7c-0.2,1.1-0.2,2.2-0.2,3.3c0,0,0,0,0,0L243.8,1426.3C243.8,1426.3,243.8,1426.3,243.8,1426.3z
		 M250.2,1392.1c-0.1-3.4,1.2-6.6,3.4-8.8c2.1-2.4,5.1-4,8.5-4.1l11.5-0.5l19.7-0.8c3.4-0.1,6.6,1.2,8.8,3.4c2.4,2.1,4,5.1,4.1,8.5
		l1.3,30.5c0.1,3.4-1.2,6.6-3.4,8.8c-2.1,2.4-5.1,4-8.5,4.1l-19.7,0.8l-11.5,0.5c-3.4,0.1-6.6-1.2-8.8-3.4c-2.4-2.1-4-5.1-4.1-8.5
		L250.2,1392.1z"/>
	<path class="st2" d="M257.1,1418.7c0.2,4.9,3.8,8.8,8.3,9.6c0.1,0,0.3,0.1,0.4,0.1c0.6,0.1,1.2,0.1,1.9,0.1c0,0,0,0,0.1,0h0
		l9.5-0.4l14.6-0.6h0c0,0,0,0,0.1,0c0.6,0,1.3-0.1,1.8-0.3c0.1,0,0.3-0.1,0.4-0.1c4.5-1.2,7.7-5.4,7.5-10.3c0,0,0,0,0,0l-1-23.2
		c0,0,0,0,0,0c0-0.7-0.1-1.4-0.3-2.1c-1.1-4.3-4.8-7.5-9.3-7.8c-0.3,0-0.7,0-1.1,0h0l-14.6,0.6l-9.5,0.4h0c-0.4,0-0.7,0-1,0.1
		c-4.5,0.6-7.9,4.1-8.7,8.5c-0.1,0.7-0.2,1.4-0.1,2.1c0,0,0,0,0,0L257.1,1418.7C257.1,1418.7,257.1,1418.7,257.1,1418.7z
		 M261.1,1397.4c-0.1-2.1,0.7-4.1,2.1-5.5c1.3-1.5,3.2-2.5,5.3-2.6l7.1-0.3l12.2-0.5c2.1-0.1,4.1,0.7,5.5,2.1
		c1.5,1.3,2.5,3.2,2.6,5.3l0.8,19c0.1,2.1-0.7,4.1-2.1,5.5c-1.3,1.5-3.2,2.5-5.3,2.6l-12.2,0.5l-7.1,0.3c-2.1,0.1-4.1-0.7-5.5-2.1
		c-1.5-1.3-2.5-3.2-2.6-5.3L261.1,1397.4z"/>
	<path class="st2" d="M273.4,1423.7l2.4-0.1l7.6-0.3l2.4-0.1l-0.6-13.4l0,0c0-0.5,0.5-7.5-6.5-7.2c-7,0.3-5.9,7.2-5.9,7.7l0,0
		L273.4,1423.7z"/>
	<path class="st2" d="M196.9,1548.1c-5-11.6,11.1-23.1,11.1-23.1h0c3.4-3.6,7.9-6.1,13.2-6.9c0,0,22.5,3.5,35.1,5.4
		c5.8,0.9,14.9,2.1,21.3,5.6c7.5,4.1,11.5,12,12,14.5c1.6,8.3-1.4,17.8-3.2,19.7c-6.6,7.1-6.4,7.8-11.5,8.5
		c4.5-0.7,17.1,10.1,17.1,24.3c0,14.2-16.1,19.2-10,20.6c3.7,0.4,13.4,3.8,16.6,10.6c3,6.5,5.3,16,1.9,22.8
		c-2.9,5.7-8.5,8.3-12.2,8.9c1.9-0.3,7.1-0.2,11.8,4.7c5.4,5.6,7.3,15.3,6.2,22.1c-0.9,5.2-3.8,8.8-7.2,12.9s-14.7,6.5-18.7,6
		c-8.1-0.9-21.8-2.6-30.2-3.9c-12.5-2-17.6-4.1-22.5-9.4c0,0,0,0,0,0c-5.8-5.8-6.1-6.5-9.7-15c-2.9-6.7,1.3-13.4,5.3-17.8
		c-0.1-0.3-0.2-0.7-0.2-1.1c0-7.4-10-10.4-14.9-22.1c-4-9.4,5.7-18.7,9.5-21.9c-1.3-6.4-10.2-9.7-14.8-20.5
		c-3.9-9.2,5.2-18.2,9.2-21.6c-0.1-0.3-0.2-0.7-0.2-1.1C211.9,1562.8,201.9,1559.8,196.9,1548.1z"/>
	<path class="st20" d="M227.4,1561.6l35.9,4.5c8.6,1.1,16.4-5,17.5-13.6l0,0c1.1-8.6-5-16.4-13.6-17.5l-35.9-4.5
		c-8.6-1.1-28.7-0.6-28.7,12.3C202.6,1555.5,218.8,1560.5,227.4,1561.6z"/>
	<path class="st20" d="M227.4,1605.6l35.9,4.5c8.6,1.1,16.4-5,17.5-13.6l0,0c1.1-8.6-5-16.4-13.6-17.5l-35.9-4.5
		c-2.9-0.4-14.3-0.5-19.7,4.7c-2,1.8-2.7,5.1-2.9,7.9c-0.2,2.9,2.9,9.8,4.8,11.6C217.6,1602.3,222.9,1605,227.4,1605.6z"/>
	<path class="st20" d="M239.5,1651.7l35.9,4.5c8.6,1.1,16.4-5,17.5-13.6l0,0c1.1-8.6-5-16.4-13.6-17.5l-35.9-4.5
		c-5.8-0.7-15.7-0.3-21.7,2.6c-1.5,0.8-4.8,2.7-6.1,5.6c-1.1,2.5-0.5,5.8,0.8,7.5c1.5,1.9,5.9,7.3,8.3,9.3
		C230.4,1650.3,235.6,1651.2,239.5,1651.7z"/>
	<path class="st20" d="M245,1691.6l35.9,4.5c8.6,1.1,16.4-5,17.5-13.6v0c1.1-8.6-5-16.4-13.6-17.5l-35.9-4.5
		c-8.6-1.1-27.1,1.3-27.1,12.2c0,3.3,3.9,5.5,6,8.1C232.6,1686.5,239,1690.9,245,1691.6z"/>
	<path class="st2" d="M818.2,1477.9"/>
	<path class="st2" d="M838.2,1472.2l-6.5-21.1c-9.6-2.7-16.4-11.6-16-22c0,0,0,0,0,0l0.6-13.6c-4.9-3.6-11.4-4.6-17.9-2.5h0
		c-10.3,3.3-16,14.4-12.7,24.7l16.5,51.5c3.2,23.1,9,49.7,19.5,55.6c19.2,10.9,41.6-46,41.6-46S856.5,1485.2,838.2,1472.2z"/>
	<path class="st2" d="M829.8,1456c0,0,2.4,5.6,2.4,14.6c0,9,7.4,0.3,7.4,0C839.6,1470.3,829.8,1445.5,829.8,1456z"/>
	<path class="st7" d="M886.1,1580.6c-5.2,54-72,64.6-66.1-26.1c1.1-16.3,1.8-27.4,2.1-30.6c2-27.1,3.1-56.5,3.5-86.4
		C826.8,1351.3,897.6,1461.4,886.1,1580.6z"/>
	<path class="st2" d="M900.5,1358.6c-0.7-0.1-1.5-0.2-2.2-0.2h0l-20.3-0.8l-31.2-1.3h0c-0.8,0-1.5,0-2.2,0
		c-9.6,0.6-17.6,7.4-19.9,16.6c-0.4,1.4-0.6,2.9-0.6,4.4c0,0,0,0,0,0l-2,49.5c0,0,0,0,0,0c-0.4,10.4,6.5,19.4,16.1,22
		c0.3,0.1,0.6,0.2,0.9,0.2c1.3,0.3,2.6,0.5,4,0.6c0,0,0.1,0,0.1,0h0l31.2,1.3l20.3,0.8h0c0,0,0.1,0,0.1,0c1.4,0,2.7,0,4-0.2
		c0.3,0,0.6-0.1,0.9-0.2C909.2,1449.5,910,1360,900.5,1358.6z"/>
	<path class="st2" d="M828.5,1477.9"/>
	<path class="st2" d="M829.1,1123.4c25.3,0.4,64.5,5.3,74.8,30.6c4.2,10.2,18.9,68.1,18.6,128.8c-0.4,80.6-17.7,178.7-29.2,297.8
		c-5.2,54-53.5,76.9-53.6,144.6c-0.1,41-11.5,48-16.2,74.8c-5.1,29.1-10,86.8-10,86.8c-9.2,15.1,14.3-341.9,15.8-362.9
		c7.8-105.3,2.1-244.5-6.4-317c-2.1-17.6-4.3-37.5-9.2-49.3c-8.1-19.7-19-25.9-17.4-27.3C804.4,1123.6,822.7,1123.2,829.1,1123.4z"
		/>
	<path class="st7" d="M841.9,1135.4c22.3,0.4,57,5.3,66,30.6c3.7,10.2,16.6,68.1,16.4,128.8c-0.3,80.6-15.6,178.7-25.8,297.8
		c-3.4,39.6-24.5,67.1-35.3,117.9c-1.5,7.2-19.3,9.5-19.3,41.9c0,18-10,17.4-12.5,33.5c-8.4,53.1-18,109.5-18,100.8
		c-0.6-66.9,27.4-332.8,28.6-350.8c6.9-105.3,1.8-244.5-5.7-317c-1.8-17.6-3.8-37.5-8.1-49.3c-7.1-19.7-11.1-27.8-9.7-29.2
		C825.8,1133.8,836.3,1135.3,841.9,1135.4z"/>
	<path class="st2" d="M948.6,1530.6c-2.8-2.7-3.6-5.4-5.2-7.3c-4.7-5.7-6.5-7.9-10.3-10c-7.3-4-16.8-7.6-20-10.6
		c-4.8-4.5-5.4-12.3-12.7-15c-3.7,31.3-7.4,63.9-10.7,97.9c-2.2,22.3-5.9,48-10.7,75.3c21.4-26.6,31-66.8,28.7-100.5
		C919.1,1547.8,959.6,1541.2,948.6,1530.6z"/>
	<g class="st4">
		<path class="st22" d="M915.3,1429.3l1.8-42.9c0,0,0,0,0,0c0.1-1.3,0-2.6-0.2-3.8c-1.3-8.1-7.8-14.5-16-15.7
			c-0.6-0.1-1.3-0.2-1.9-0.2h0l-17.6-0.7l-27-1.1l0,0c-0.7,0-1.3,0-1.9,0c-8.3,0.5-15.3,6.4-17.2,14.4c-0.3,1.2-0.5,2.5-0.5,3.8
			c0,0,0,0,0,0l-1.8,42.9c0,0,0,0,0,0c-0.4,9,5.6,16.8,13.9,19.1c0.2,0.1,0.5,0.1,0.7,0.2c1.1,0.3,2.2,0.4,3.4,0.5c0,0,0.1,0,0.1,0
			h0l27,1.1l17.6,0.7h0c0,0,0.1,0,0.1,0c1.2,0,2.3,0,3.4-0.2c0.3,0,0.5-0.1,0.8-0.1C908.3,1445.6,914.9,1438.3,915.3,1429.3
			C915.3,1429.3,915.3,1429.3,915.3,1429.3z"/>
		<path class="st22" d="M918,1430.9l1.9-45.8c0,0,0,0,0,0c0.1-1.4,0-2.8-0.2-4.1c-1.4-8.6-8.3-15.5-17.1-16.8
			c-0.7-0.1-1.4-0.2-2.1-0.2h0l-18.8-0.8l-28.8-1.2h0c-0.7,0-1.4,0-2.1,0c-8.9,0.5-16.3,6.8-18.4,15.3c-0.3,1.3-0.5,2.7-0.6,4.1
			c0,0,0,0,0,0l-1.9,45.8c0,0,0,0,0,0c-0.4,9.6,6,17.9,14.9,20.4c0.3,0.1,0.5,0.1,0.8,0.2c1.2,0.3,2.4,0.5,3.7,0.5c0,0,0.1,0,0.1,0
			h0l28.8,1.2l18.8,0.8h0c0,0,0.1,0,0.1,0c1.3,0,2.5,0,3.7-0.2c0.3,0,0.5-0.1,0.8-0.1C910.6,1448.3,917.6,1440.5,918,1430.9
			C918,1430.9,918,1430.9,918,1430.9z M908.6,1426.4c-0.2,4.2-2.1,7.9-5.1,10.5c-2.8,2.7-6.6,4.4-10.8,4.2l-14.1-0.6l-24.2-1
			c-4.2-0.2-7.9-2.1-10.5-5.1c-2.7-2.8-4.4-6.6-4.2-10.8l1.5-37.5c0.2-4.2,2.1-7.9,5.1-10.5c2.8-2.7,6.6-4.4,10.8-4.2l24.2,1
			l14.1,0.6c4.2,0.2,7.9,2.1,10.5,5.1c2.7,2.8,4.4,6.6,4.2,10.8L908.6,1426.4z"/>
		<path class="st6" d="M910,1426.3l1.5-37.3c0,0,0,0,0,0c0-1.1,0-2.3-0.2-3.3c-1.1-7-6.8-12.7-13.9-13.7c-0.6-0.1-1.1-0.1-1.7-0.2h0
			l-15.3-0.6l-23.5-1h0c-0.6,0-1.1,0-1.7,0c-7.2,0.4-13.3,5.6-15,12.5c-0.3,1.1-0.4,2.2-0.5,3.3c0,0,0,0,0,0l-1.5,37.3c0,0,0,0,0,0
			c-0.3,7.8,4.9,14.6,12.1,16.6c0.2,0.1,0.4,0.1,0.7,0.2c1,0.2,2,0.4,3,0.4c0,0,0.1,0,0.1,0h0l23.5,1l15.3,0.6h0c0,0,0.1,0,0.1,0
			c1,0,2,0,3-0.2c0.2,0,0.4-0.1,0.7-0.1C904,1440.5,909.7,1434.2,910,1426.3C910,1426.3,910,1426.3,910,1426.3z M902.3,1422.6
			c-0.1,3.4-1.7,6.4-4.1,8.5c-2.3,2.2-5.4,3.6-8.8,3.4l-11.5-0.5l-19.7-0.8c-3.4-0.1-6.4-1.7-8.5-4.1c-2.2-2.3-3.6-5.4-3.4-8.8
			l1.3-30.5c0.1-3.4,1.7-6.4,4.1-8.5c2.3-2.2,5.4-3.6,8.8-3.4l19.7,0.8l11.5,0.5c3.4,0.1,6.4,1.7,8.5,4.1c2.2,2.3,3.6,5.4,3.4,8.8
			L902.3,1422.6z"/>
		<path class="st6" d="M896.7,1418.7l1-23.2c0,0,0,0,0,0c0-0.7,0-1.4-0.1-2.1c-0.7-4.4-4.2-7.9-8.7-8.5c-0.3,0-0.7-0.1-1-0.1l0,0
			l-9.5-0.4l-14.6-0.6l0,0c-0.4,0-0.7,0-1.1,0c-4.5,0.3-8.3,3.5-9.3,7.8c-0.2,0.7-0.3,1.3-0.3,2.1c0,0,0,0,0,0l-1,23.2c0,0,0,0,0,0
			c-0.2,4.9,3,9.1,7.5,10.3c0.1,0,0.3,0.1,0.4,0.1c0.6,0.1,1.2,0.2,1.8,0.3c0,0,0,0,0.1,0l0,0l14.6,0.6l9.5,0.4h0c0,0,0,0,0.1,0
			c0.6,0,1.3,0,1.9-0.1c0.1,0,0.3,0,0.4-0.1C893,1427.5,896.5,1423.6,896.7,1418.7C896.7,1418.7,896.7,1418.7,896.7,1418.7z
			 M891.9,1416.4c-0.1,2.1-1.1,4-2.6,5.3c-1.4,1.4-3.4,2.2-5.5,2.1l-7.1-0.3l-12.2-0.5c-2.1-0.1-4-1.1-5.3-2.6
			c-1.4-1.4-2.2-3.4-2.1-5.5l0.8-19c0.1-2.1,1.1-4,2.6-5.3c1.4-1.4,3.4-2.2,5.5-2.1l12.2,0.5l7.1,0.3c2.1,0.1,4,1.1,5.3,2.6
			c1.4,1.4,2.2,3.4,2.1,5.5L891.9,1416.4z"/>
		<path class="st6" d="M880.4,1423.7l-2.4-0.1l-7.6-0.3l-2.4-0.1l0.6-13.4v0c0-0.5-0.5-7.5,6.5-7.2c7,0.3,5.9,7.2,5.9,7.7l0,0
			L880.4,1423.7z"/>
	</g>
	<path class="st2" d="M956.9,1548.1c5-11.6-11.1-23.1-11.1-23.1h0c-3.4-3.6-7.9-6.1-13.2-6.9c0,0-22.5,3.5-35.1,5.4
		c-5.8,0.9-14.9,2.1-21.3,5.6c-7.5,4.1-11.5,12-12,14.5c-1.6,8.3,1.4,17.8,3.2,19.7c6.6,7.1,6.4,7.8,11.5,8.5
		c-4.5-0.7-17.1,10.1-17.1,24.3c0,14.2,16.1,19.2,10,20.6c-3.7,0.4-13.4,3.8-16.6,10.6c-3,6.5-5.3,16-1.9,22.8
		c2.9,5.7,8.5,8.3,12.2,8.9c-1.9-0.3-7.1-0.2-11.8,4.7c-5.4,5.6-7.3,15.3-6.2,22.1c0.9,5.2,3.8,8.8,7.2,12.9s14.7,6.5,18.7,6
		c8.1-0.9,21.8-2.6,30.2-3.9c12.5-2,17.6-4.1,22.5-9.4c0,0,0,0,0,0c5.8-5.8,6.1-6.5,9.7-15c2.9-6.7-1.3-13.4-5.3-17.8
		c0.1-0.3,0.2-0.7,0.2-1.1c0-7.4,10-10.4,14.9-22.1c4-9.4-5.7-18.7-9.5-21.9c1.3-6.4,10.2-9.7,14.8-20.5c3.9-9.2-5.2-18.2-9.2-21.6
		c0.1-0.3,0.2-0.7,0.2-1.1C941.9,1562.8,951.9,1559.8,956.9,1548.1z"/>
	<path class="st20" d="M926.3,1561.6l-35.9,4.5c-8.6,1.1-16.4-5-17.5-13.6l0,0c-1.1-8.6,5-16.4,13.6-17.5l35.9-4.5
		c8.6-1.1,28.7-0.6,28.7,12.3C951.2,1555.5,934.9,1560.5,926.3,1561.6z"/>
	<path class="st20" d="M926.3,1605.6l-35.9,4.5c-8.6,1.1-16.4-5-17.5-13.6l0,0c-1.1-8.6,5-16.4,13.6-17.5l35.9-4.5
		c2.9-0.4,14.2-0.5,19.7,4.7c2,1.8,2.7,5.1,2.9,7.9c0.2,2.9-2.9,9.8-4.8,11.6C936.2,1602.3,930.8,1605,926.3,1605.6z"/>
	<path class="st20" d="M914.3,1651.7l-35.9,4.5c-8.6,1.1-16.4-5-17.5-13.6l0,0c-1.1-8.6,5-16.4,13.6-17.5l35.9-4.5
		c5.8-0.7,15.7-0.3,21.7,2.6c1.5,0.8,4.8,2.7,6.1,5.6c1.1,2.5,0.5,5.8-0.8,7.5c-1.5,1.9-5.9,7.3-8.3,9.3
		C923.3,1650.3,918.2,1651.2,914.3,1651.7z"/>
	<path class="st20" d="M908.8,1691.6l-35.9,4.5c-8.6,1.1-16.4-5-17.5-13.6v0c-1.1-8.6,5-16.4,13.6-17.5l35.9-4.5
		c8.6-1.1,27.1,1.3,27.1,12.2c0,3.3-3.9,5.5-6,8.1C921.2,1686.5,914.8,1690.9,908.8,1691.6z"/>
	<path class="st20" d="M805.1,1714.6c3.9-89,7.8-148.5,7.8-148.5s-9-17.3-16.7-44.8c-3.1-11.3-4-28.5-7.2-40.3
		c-4.5-16.6-13.6-27.1-13.6-42.2c0-52.2,37.4-52.3,37.4-52.3s3.2-50.2,3.2-96c0-25.8-7-101.7-12-120.3c-0.1-0.4-0.2-1-0.5-1.7
		c-0.8-2.3-1.7-4.5-2.6-6.5c-1.1-2.5-2.3-5.4-3.7-8.3l0,0c0,0-7.4-14.5-16.1-20.8h-9.7c-2.4,0-4.6,1.2-5.9,3.1
		c-1.4-1.9-3.6-3.1-6.1-3.1h-10.9c-4.2,0-7.5,3.4-7.5,7.5c0-4.2-3.4-7.5-7.5-7.5h-10.9c-4.2,0-7.5,3.4-7.5,7.5
		c0-4.2-3.4-7.5-7.5-7.5h-10.9c-4.2,0-7.5,3.4-7.5,7.5v0.9c-0.3-0.3-0.6-0.5-0.9-0.8c-3.1-2.8-8.3-2.1-11.8,1.4
		c-3.9,3.7-5.9,5.5-10,8.8c-3.7,3-5,8-2.6,11.4c-2.4-3.4-7.5-3.9-11.5-1.4c-4.4,2.7-6.6,4-11.2,6.3c-4.2,2.1-6.3,6.7-4.7,10.5
		c-1.6-3.8-6.4-5.4-10.8-3.8c-4.8,1.7-7.2,2.5-12.1,3.8c-4.4,1.2-7.4,5.2-6.6,9.3c-0.8-4.1-5.2-6.6-9.7-6c-5,0.7-7.5,1-12.5,1.2
		c-3.6,0.2-6.7,2.4-7.8,5.3l-0.2,2.5v-2.5c-1.1-3-4.2-5.1-7.8-5.3c-5-0.3-7.5-0.5-12.5-1.2c-4.5-0.7-8.9,1.9-9.7,6
		c0.8-4.1-2.1-8.1-6.6-9.3c-4.9-1.3-7.3-2-12.1-3.8c-4.3-1.6-9.1,0-10.8,3.8c1.6-3.8-0.5-8.4-4.7-10.5c-4.6-2.3-6.8-3.6-11.2-6.3
		c-4-2.5-9.1-2-11.5,1.4c2.4-3.4,1.2-8.4-2.6-11.4c-4.1-3.3-6.1-5.1-10-8.8c-3.5-3.4-8.7-4.2-11.8-1.4c-0.3,0.3-0.6,0.5-0.9,0.8
		v-0.9c0-4.2-3.4-7.5-7.5-7.5h-10.9c-4.2,0-7.5,3.4-7.5,7.5c0-4.2-3.4-7.5-7.5-7.5h-10.9c-4.2,0-7.5,3.4-7.5,7.5
		c0-4.2-3.4-7.5-7.5-7.5h-10.9c-2.5,0-4.7,1.2-6.1,3.1c-1.3-1.9-3.5-3.1-5.9-3.1h-9.7c-8.7,6.3-16.1,20.8-16.1,20.8l0,0
		c-1.4,2.9-2.6,5.8-3.7,8.3c-1,2-1.9,4.2-2.6,6.5c-0.3,0.7-0.4,1.3-0.5,1.7c-5,18.6-12,94.5-12,120.3c0,45.8,3.2,96,3.2,96
		s37.4,0,37.4,52.3c0,15.2-9.1,25.6-13.6,42.2c-3.2,11.8-4,29.1-7.2,40.3c-7.7,27.5-16.7,44.8-16.7,44.8s3.9,59.5,7.8,148.5
		c0,25.6-11,29-10.9,30c3.6,87.2,19,196.6,19,304.9h220v-2.5l0.2,2.5h220c0-108.3,15.4-217.6,19-304.9
		C816,1743.6,805.1,1740.2,805.1,1714.6z"/>
	<path class="st2" d="M808.9,118.4c5.9-24.6,20.8-50.4,19.2-65.5c-3.2-30-32.2-21.5-32.2-21.5s-34.1,0.9-80.3,0.4
		c-24.6-1.7-58.9-8.3-75.9-30.2C611.7-34.7,479.5-6,479.5-6l5.3,9.9c-3.6-2.7-4.7-7-5.3-9.9c-0.1-0.6-0.4-2.6-0.6-2
		c-1.6,5.5-3.4,14.2-4.9,21.5c0,0,0,0,0,0c-0.5,2.4-1.1,5-1.7,7.9c-2.2,9.6-3.7,19.5-4,29.4c-1.7,63.5,167.4,118.7,275.5,117.1
		c26.6-0.4,48.5,8.9,64.4-1.2C821,156.4,804.2,137.9,808.9,118.4z"/>
	<g class="st4">
		<path class="st5" d="M548.3,828.8c-5.3-2.7-12.6-3.9-20.2-5.4c-17.3-3.4-38.5-3.6-53.1-3.5c-6.2,0.1-30,2.2-38.4,4.4
			c-10.2,2.7-19.9,5.6-29.7,5.6c-4,0-4,4.3-4,9.4c0,5.1,1.6,13.3,4,13.3s12.3,2.2,12.3,7.6c0,12.2,4.5,65,52.7,65
			c48.2,0,71.8-2.2,83-33.6c11.2-31.4,9-31.4,16.8-31.4h3.7v-21.7c-2.1,0-8.5-0.2-15-1.1C558.8,837.2,555,832.2,548.3,828.8z
			 M550.4,890.2c-10.4,29.1-32.2,31.1-77,31.1c-44.7,0-48.9-48.9-48.9-60.3c0-3.1-0.4-11.9,0.8-18.4c0.7-3.9,6.8-8,9.5-8.5
			c5.1-0.9,28.8-4.7,50.7-5.4c19.5-0.6,37.5,1.8,39.3,2.2c6.5,1.3,13,4.1,17.7,6.5c2.7,1.4,10.4,11,11.4,15.2
			C555.9,861.7,554.9,877.7,550.4,890.2z"/>
		<path class="st5" d="M744.2,829.8c-9.8,0-19.5-2.9-29.7-5.6c-8.3-2.2-32.2-4.3-38.4-4.4c-14.6-0.2-35.8,0.1-53.1,3.5
			c-7.5,1.5-14.9,2.7-20.2,5.4c-6.7,3.5-10.5,8.4-12.3,8.7c-6.4,0.9-12.8,1-15,1.1v21.7h3.7c7.9,0,5.6,0,16.8,31.4
			c11.2,31.4,34.8,33.6,83,33.6c48.2,0,52.7-52.8,52.7-65c0-5.4,10-7.6,12.3-7.6s4-8.3,4-13.3C748.2,834.2,748.2,829.8,744.2,829.8z
			 M726.6,861.1c0,11.3-4.2,60.3-48.9,60.3c-44.7,0-66.6-2-77-31.1c-4.5-12.5-5.5-28.5-3.4-37.6c1-4.2,8.6-13.8,11.4-15.2
			c4.7-2.4,11.2-5.2,17.7-6.5c1.8-0.4,19.8-2.8,39.3-2.2c21.8,0.7,45.6,4.5,50.7,5.4c2.7,0.5,8.8,4.6,9.5,8.5
			C726.9,849.2,726.6,857.9,726.6,861.1z"/>
	</g>
</g>
</svg>
