<?xml version="1.0" encoding="utf-8"?>
<!-- Generator: Adobe Illustrator 22.0.1, SVG Export Plug-In . SVG Version: 6.00 Build 0)  -->
<svg version="1.1" id="Layer_1" xmlns="http://www.w3.org/2000/svg" xmlns:xlink="http://www.w3.org/1999/xlink" x="0px" y="0px"
	 viewBox="0 0 1125 823.9" style="enable-background:new 0 0 1125 823.9;" xml:space="preserve">
<style type="text/css">
	.st0{fill:#477B8C;}
	.st1{fill:#01232D;}
	.st2{fill:#849EA8;}
	.st3{fill:#DCD2C6;}
	.st4{fill:#FFF7EA;}
	.st5{opacity:0.5;fill:#01232D;}
	.st6{opacity:0.5;fill:#F1D1AE;}
	.st7{fill:#FFDCB2;}
	.st8{fill:#FFE074;}
	.st9{fill:#FAAD17;}
	.st10{fill:#E8624D;}
	.st11{fill:url(#SVGID_1_);}
	.st12{opacity:0.5;}
	.st13{fill:#012E35;}
	.st14{opacity:0.5;fill:url(#SVGID_2_);}
	.st15{opacity:0.5;fill:#012E35;}
	.st16{fill:#A28F80;}
	.st17{fill:#C44E41;}
</style>
<g>
	<g>
		<path class="st0" d="M690.6,755H589.9c-2.7,0-4.2-0.2-5-0.3c-3.7-0.7-10.2-3.1-10.2-11.6c0-9.1,7.5-11.2,11-11.7h28.2
			c1.3-0.1-24-0.2-24-0.2h-18.1h-50.3h-3h-4.6c0,0,2.9,0,4.2,0.2l0,0c3.5,0.5,11,2.6,11,11.7c0,8.5-6.5,10.9-10.2,11.6
			c-0.8,0.1-2.4,0.3-5,0.3h-60.8c0,0-12.8,0-12.8,11.9s12.8,11.9,12.8,11.9l118.8,0l118.8,0c0,0,12.8,0,12.8-11.9
			S690.6,755,690.6,755z"/>
		<path class="st0" d="M728.7,707.5h-72.5c-2.7,0-4.2-0.2-5-0.3c-3.7-0.7-10.2-3.1-10.2-11.6c0-9.1,7.5-11.2,11-11.7h0
			c1.3-0.1,4.2-0.1,4.2-0.1l-4.6,0h-3l-38.6,0l-103.3,0h-3l-4.6,0c0,0,2.9,0,4.2,0.1h0c3.5,0.5,11,2.6,11,11.7
			c0,8.5-6.5,10.9-10.2,11.6c-0.8,0.1-2.4,0.3-5,0.3H376.9c0,0-12.8,0-12.8,11.9s12.8,11.9,12.8,11.9l232.9,0l118.8,0
			c0,0,12.8,0,12.8-11.9S728.7,707.5,728.7,707.5z"/>
		<path class="st0" d="M710.2,671.9c0-11.9-12.8-11.9-12.8-11.9l-87.5,0l-201.6,0c0,0-12.8,0-12.8,11.9c0,11.9,12.8,11.9,12.8,11.9
			h201.6h87.5C697.4,683.7,710.2,683.7,710.2,671.9z"/>
	</g>
	<g>
		<path class="st1" d="M669,659.4h-81.3c-2.2,0-3.4-0.1-4.1-0.2c-3-0.6-8.3-2.5-8.3-9.4c0-7.4,6.1-9.1,8.9-9.5H607
			c1-0.1-19.4-0.1-19.4-0.1l-14.6,0l-40.6,0H530h-3.7c0,0,2.3,0,3.4,0.1l0,0c2.8,0.4,8.9,2.1,8.9,9.5c0,6.8-5.3,8.8-8.3,9.4
			c-0.7,0.1-1.9,0.2-4.1,0.2h-49.1c0,0-10.3,0-10.3,9.6s10.3,9.6,10.3,9.6l96,0l96,0c0,0,10.3,0,10.3-9.6S669,659.4,669,659.4z"/>
		<path class="st1" d="M699.8,621h-58.6c-2.2,0-3.4-0.1-4.1-0.2c-3-0.6-8.3-2.5-8.3-9.4c0-7.4,6.1-9.1,8.9-9.5h0
			c1-0.1,3.4-0.1,3.4-0.1l-3.7,0H635h-31.2h-83.4H518l-3.7,0c0,0,2.3,0,3.4,0.1h0c2.8,0.4,8.9,2.1,8.9,9.5c0,6.8-5.3,8.8-8.3,9.4
			c-0.7,0.1-1.9,0.2-4.1,0.2h-98.5c0,0-10.3,0-10.3,9.6s10.3,9.6,10.3,9.6l188.1,0l96,0c0,0,10.3,0,10.3-9.6S699.8,621,699.8,621z"
			/>
		<path class="st1" d="M684.8,592.2c0-9.6-10.3-9.6-10.3-9.6l-70.7,0l-162.8,0c0,0-10.3,0-10.3,9.6c0,9.6,10.3,9.6,10.3,9.6h162.8
			h70.7C674.5,601.8,684.8,601.8,684.8,592.2z"/>
	</g>
	<path class="st2" d="M495,790.3H222.1c-3.3,0-5.1-0.2-6.2-0.3c-4.6-0.8-12.5-3.8-12.5-14.2s8-13.3,12.5-14.2c1-0.2,2.9-0.3,6.2-0.3
		h113c0,0,15.6,0,15.6-14.5s-15.6-14.5-15.6-14.5h-241c-1.3,0-15.5-0.6-15.5-14.5c0-14.5,15.6-14.5,15.6-14.5l113,0
		c3.3,0,5.1-0.2,6.2-0.3C218,702,226,699,226,688.7c0-10.4-8-13.3-12.5-14.2C212.7,674.4,0.1,688,0.1,688v131.4H495
		c0,0,15.6,0,15.6-14.5C510.6,790.3,495,790.3,495,790.3z"/>
	<g>
		<path class="st3" d="M295.1,512.6c-26.6,29.6-42.8,68.7-42.8,111.6c0,92.2,74.8,167,167,167s167-74.8,167-167
			c0-42.9-16.2-82-42.8-111.6H295.1z"/>
		<path class="st4" d="M563.9,581.4c0-17.6-2.2-34.8-6.4-51.1c-4.2-6.2-8.9-12.1-13.9-17.7H295.1c-26.6,29.6-42.8,68.7-42.8,111.6
			c0,77.9,53.3,143.3,125.4,161.8C482.2,776.2,563.9,688.4,563.9,581.4z"/>
		<path class="st3" d="M316,679.9c0,14.7-12.2,22.4-25.8,19.2c-12.1-2.8-23.3-13.8-26.4-26.1c-3.5-14,4-26.7,18.8-26.7
			C299.9,646.3,316,662.6,316,679.9z"/>
		<path class="st3" d="M501.7,589.1c3.4-14.9,15-24.2,26.3-22.2c11.2,2,19.6,14.9,18.7,30.1c-1,17.1-13.1,30.6-26.9,28.2
			C505.9,622.9,498,605.9,501.7,589.1z"/>
		<path class="st3" d="M455.5,715.7c11.5-10.1,25.3-13.3,31.9-8.1c6.5,5.2,4.4,17.5-5.6,28.6c-11.2,12.4-27.9,18.7-36,12.4
			C437.6,742.4,442.6,727.1,455.5,715.7z"/>
	</g>
	<path class="st2" d="M1125.3,652.9H907h-4.5h-6.9c0,0,4.3,0,6.2,0.2l0,0c5.2,0.7,16.4,3.9,16.4,17.4c0,12.6-9.7,16.2-15.2,17.2
		c-1.2,0.2-3.5,0.4-7.5,0.4H870c0,0-19,0-19,17.6s19,17.6,19,17.6h58.8c-1.2,10.6-9.9,13.8-15.1,14.8c-1.2,0.2-3.5,0.4-7.5,0.4
		H798.7c0,0-19,0-19,17.6c0,17.6,19,17.6,19,17.6h326.6V652.9z"/>
	<path class="st2" d="M1125.3,459H0.1v68.3h697.1c4.7,0.5,17.2,3.2,17.2,17.5c0,17.6,21.6,17.6,21.6,17.6h42c0,0,4.3,0,6.2,0.2h0
		c5.2,0.7,16.4,3.9,16.4,17.4c0,12.6-9.7,16.2-15.2,17.2c-1.2,0.2-3.5,0.4-7.5,0.4H659.1c0,0-19,0-19,17.6c0,17.6,19,17.6,19,17.6
		h466.2v-70.4V459z"/>
	<path class="st2" d="M314.5,502.3c-0.9,2-1.4,4.5-1.4,7.4c0,17.6,19,17.6,19,17.6h793.1v-25H314.5z"/>
	<path class="st1" d="M842.2,622.8h122.7c4.5,0,7.1-0.3,8.5-0.5c6.3-1.2,17.3-5.3,17.3-19.6c0-15.4-12.7-19-18.7-19.8h0
		c-2.2-0.2-7.1-0.3-7.1-0.3h7.9h5.1h147.2V663h-283c0,0-21.6,0-21.6-20.1C820.5,622.8,842.2,622.8,842.2,622.8z"/>
	<path class="st1" d="M872.7,703.2H991c4.5,0,7.1-0.3,8.5-0.5c6.3-1.2,17.3-5.3,17.3-19.6c0-15.4-12.7-19-18.7-19.8h0
		c-2.2-0.2-7.1-0.3-7.1-0.3h7.9h5.1h121v80.4H872.7c0,0-21.6,0-21.6-20.1C851,703.2,872.7,703.2,872.7,703.2z"/>
	<line class="st1" x1="980.2" y1="582.6" x2="960.6" y2="582.6"/>
	<path class="st1" d="M1125.1,542.1c-177.6,0.2-50,0.4-53.7,0.4H953.1c0,0-21.6,0-21.6,20.1s21.6,20.1,21.6,20.1h172.1V542.1z"/>
	<path class="st1" d="M1125.1,743.4h-43.2h-5.1h-7.9c0,0,4.9,0,7.1,0.3l0,0c5.9,0.8,18.7,4.4,18.7,19.8c0,14.4-11,18.5-17.3,19.6
		c-1.4,0.2-4,0.5-8.5,0.5h-29c0,0-21.6,0-21.6,20.1s21.6,20.1,21.6,20.1h85.3V743.4z"/>
	<g>
		<path class="st2" d="M594,527.1h-25H217.7v35.2H27.9l0.6,140.9h407.9c0,0,19,0,19-17.6s-19-17.6-19-17.6h-137
			c-4,0-6.2-0.2-7.5-0.4c-5.5-1-15.2-4.6-15.2-17.2c0-13.5,11.2-16.7,16.4-17.4h29.5c1.9-0.2-23.3-0.2-23.3-0.2h204.7
			c0,0,19,0,19-17.6c0-17.6-19-17.6-19-17.6H396.5c-4,0-6.2-0.2-7.5-0.4c-5.5-1-15.2-4.6-15.2-17.2c0-13.5,11.2-16.7,16.4-17.4h0
			c1.9-0.2,6.2-0.2,6.2-0.2H569h25h9.5c0,0,21.6,0,21.6-17.6c0-17.6,19-17.6,19-17.6H594z"/>
	</g>
	<path class="st2" d="M305.7,272.3c-130.4,0-233.7,12.4-305.6,27.5v159.1l704,20.1l415.2-20.1c0-367.7,0-293.6,0-361.7
		C723,97.2,639.5,272.3,305.7,272.3z"/>
	<path class="st0" d="M0.1,299.8v159.1h298.7c15.1-19,23.1-40.6,19.2-65c-10.5-65.5,43.8-105.4,96.3-128.3
		c-33.3,4.3-69.2,6.7-108.6,6.7C175.4,272.3,72,284.7,0.1,299.8z"/>
	<path class="st0" d="M735.6,166.9c36.1-6.4,276.9-45.5,383.7,27c0-66.3,0-55.5,0-96.7C948.2,97.2,835.4,129.8,735.6,166.9z"/>
	<g>
		<polygon class="st5" points="503.5,238.7 503.5,238.7 503.5,238.7 		"/>
	</g>
	<path class="st6" d="M992.6,363.7c16.4,19.1-13.2,42-91.8,51.8c-54.1,6.7-141.6-3.1-150.7-4.1c-36.1-3.8-79.6-4-93.6-12.7
		c-12-7.5-17.2-16-17.8-24.6c-0.9-15,30.9-39.9,69.7-47.7c18.5-3.7,58.8-4,82.9-4.9c29.8-1.1,56-8.3,84.7-4.6
		C928,323.5,977.2,345.8,992.6,363.7z"/>
	<path class="st7" d="M945,363.1c15.7,18.3-12.6,34.7-66.9,38.5c-13.1,0.9-49.5,1-64.7,0.5c-34.8-1.3-39.5-8.8-60.3-16
		c-19.4-6.8-30.5-6-31-14.5c-0.4-6.8,14-11.3,24.6-18c6.6-4.2,5.1-12.6,13.1-16.7c8.6-4.4,28.1-2.9,43.3-3.4
		c17.6-0.6,44.6-4.1,61.9-2.4C905.9,335,933.2,349.3,945,363.1z"/>
	<path class="st3" d="M861.2,361.9c3.4,5.2-8.9,10.2-28.7,10.6c-20.8,0.5-38-4.3-37.5-9.9c0.4-5,15-8.7,31.9-8.7
		C843.3,353.8,858.2,357.2,861.2,361.9z"/>
	<path class="st8" d="M833.4,355.5c0,0-3.3-4.1-4-6.4c-0.5-1.6-2-3.7-2.7-5.2c-0.3-0.7-1-1.2-2.1,0.7c-1.7,2.8-3.6,7.5-1.5,11
		C826.4,361.3,834.1,358.2,833.4,355.5z"/>
	<path class="st9" d="M832.4,363.2c0,0,4.5-4.6,3-10.4c-0.7-2.9-2.1-5-3.1-6.7c-1.1-1.8-2.7-4.5-4.5-1.4c-2.5,4.2-5.5,10.4-4.6,12.8
		C824.6,361.5,832.4,363.2,832.4,363.2z"/>
	<path class="st10" d="M822,363.8c1.1,0.4,3,0.7,5.8,0.7c5.3,0,7.2-1.3,7.2-1.3c1.4-1.3,1.6-4.1,1.3-7.4c-0.2-1.5-4.2-2.1-6.3-3.7
		c-3-2.3-4.6-5.2-7.2-2.8c-7.6,7.1-2.1,13.9-2.1,13.9S821.2,363.5,822,363.8z"/>
	
		<radialGradient id="SVGID_1_" cx="967.5247" cy="-136.7556" r="80.6611" gradientTransform="matrix(1.101562e-02 -0.602 0.4705 5.041628e-03 883.7531 953.2814)" gradientUnits="userSpaceOnUse">
		<stop  offset="0" style="stop-color:#E8624D"/>
		<stop  offset="1" style="stop-color:#FFE074;stop-opacity:0"/>
	</radialGradient>
	<path class="st11" d="M820.4,364.3c1.4,0.5,3.8,0.9,7.5,0.9c6.8,0,9.3-1.7,9.3-1.7c4.4-4,0-18.5-3.3-27.7c-1.6-4.4-3.2-5.6-3.3-4.6
		c-0.1,0.7-0.1,0.5-0.4,1.6c-1,3.3-3.4,8.1-8.8,13c-9.9,8.9-2.7,17.6-2.7,17.6S819.3,363.9,820.4,364.3z"/>
	<path class="st1" d="M1119.3,59.9c-62,8.3-110.2,74.6-110.2,155.2s48.3,146.8,110.2,155.2h5.8v-74.4l0.2-235.9H1119.3z"/>
	<g class="st12">
		<path class="st13" d="M1048.4,165c-4.6-10.9-8.2-21.3-10.2-39.1c-12.1,24-19.6,52.2-20.8,82.5c-1.3,32.6,4.9,63.3,16.7,89.5
			c-1.5-14.6-2-30-1.4-45.9C1033.9,220.1,1039.6,190.3,1048.4,165z"/>
	</g>
	<path class="st1" d="M1120.5,0.8c-45.5,6.1-81,54.8-81,114s35.5,107.9,81,114h4.6l0.1-168.9l-0.1-59.1H1120.5z"/>
	<path class="st5" d="M688.8,332c-21.9,8-39.5,20.7-46.7,31.8l65.5-2.1c17.3-0.5,10.9-13.6,10.9-13.6L688.8,332z"/>
	
		<linearGradient id="SVGID_2_" gradientUnits="userSpaceOnUse" x1="651.0466" y1="677.8105" x2="721.8799" y2="706.4772" gradientTransform="matrix(1 0 7.763593e-04 0.7609 0.5587 -171.998)">
		<stop  offset="0" style="stop-color:#FFFFFF;stop-opacity:0"/>
		<stop  offset="1" style="stop-color:#01232D"/>
	</linearGradient>
	<path class="st14" d="M688.8,332c-21.9,8-39.5,20.7-46.7,31.8l65.5-2.1c17.3-0.5,10.9-13.6,10.9-13.6L688.8,332z"/>
	<g>
		<polygon class="st1" points="730.3,349.5 711.3,356.7 707.7,361.6 739.2,365.9 		"/>
		<polygon class="st3" points="730.3,349.5 737.1,340 753.1,337.2 764.3,345 755.5,353.3 739.2,365.9 		"/>
		<polygon class="st1" points="737.1,340 718.7,348 711.3,356.7 730.3,349.5 		"/>
	</g>
	<path class="st15" d="M1051.2,77.2c-4,12.8-5.3,29-5.6,44.5c0.4,5.1,1.1,10,2.1,14.9c2-7.6,5.1-19.1,5.8-21.8
		c11.2-41.7,35.6-78.4,67-86.1V7C1090.4,14.4,1063.3,39,1051.2,77.2z"/>
	<polygon class="st1" points="442.4,469.1 442,457.4 437.8,454.2 436.3,464.5 	"/>
	<polygon class="st15" points="904.2,415.1 909.5,419.1 949.1,422.8 951.6,419.5 918.4,408.1 	"/>
	<path class="st16" d="M1004.7,414.1l-54.9-150.2h0c-1.2-2.4-4.8,0-4.8,1.2c0,0,0,0,0,0l54.9,150.2L1004.7,414.1z"/>
	<path class="st7" d="M945,264.7c0-0.6,1.8-1.8,2.4-0.6l13.7,37.4c0,0,0.1,0.1,0.1,0.1l26.5,72.4l0.4,1.2c0,0,0,0.1,0,0.3l13.1,35.8
		l0.4,1.2c0,0,0.2,0.8-0.2,0.9c-0.4,0.1-1.9,0.5-1.9,0.5l-13.7-37.5c0,0,0,0,0,0L958.6,302c0,0,0-0.1,0-0.1L945,264.7z"/>
	<path class="st16" d="M904.2,415.1l57.4-148.8l0,0c0.6-2.6-3.7-3.1-4.4-2.2c0,0,0,0,0,0l-55,150.2L904.2,415.1z"/>
	<path class="st7" d="M957.4,263.8c0.4-0.5,2.5-0.2,2.2,1.1l-13.7,37.4c0,0,0,0.1,0,0.1l-26.5,72.4l-0.4,1.2c0,0-0.1,0.1-0.2,0.3
		l-13.1,35.8l-1.5,3c0,0-0.4-0.1-0.7-0.3c-0.4-0.2-1.3-0.5-1.3-0.5L957.4,263.8z"/>
	<polygon class="st10" points="1125.1,295.8 955.3,276.4 904.2,415.1 1125.3,438.6 	"/>
	<path class="st17" d="M1054.5,395.9c-76.6,6-150.3,19.1-150.3,19.1l221.1,23.5l-0.2-142.8C1121.7,307.5,1099.7,392.4,1054.5,395.9z
		"/>
	<path class="st1" d="M1106,330.5c-16.6-14.7-39.8-17.6-60.8-17.6c-50.1,0-91.3,48.2-96.2,110c-8.1-3.3-16.9-5.1-26-5.1
		c-33.1,0-61.1,23.5-70.3,55.7c-2.3-0.5-4.7-0.7-7.2-0.7c-18.3,0-34,13.7-41.2,33.4c-31.9,7.2-56.1,42.4-56.1,84.7l136.3,45.8
		l240.6,8.5l0.1-289.8C1122.5,340,1108.4,332.6,1106,330.5z"/>
	<path class="st15" d="M1035.6,318c-44.2,8.5-76.9,51.5-77,104l-0.1,0l0.1,2c0.1,3.5,20.7,2.9,20.6,0c-0.1-2.8,0,0,0,0h0
		c-0.1-1.5-0.2-2.9-0.2-4.4C977.5,373.7,1001,334.4,1035.6,318z"/>
	<path class="st1" d="M748.3,586.5h56v-80.3C773.5,513.1,749.9,546.1,748.3,586.5z"/>
	<path class="st1" d="M748.3,586.5h370.6l1,80.3H804.3C773.5,659.9,749.9,626.9,748.3,586.5z"/>
	<path class="st1" d="M352.9,460c12.6-19.3,19.9-42.4,19.9-67.2c0-68.2-55.3-123.4-123.4-123.4s-123.4,55.3-123.4,123.4
		c0,24.8,7.3,47.8,19.9,67.2H352.9z"/>
	<path class="st1" d="M547.9,487h-48.6h-60H0.1v201h245.1h64.3h86c0,0,21.6,0,21.6-20.1c0-20.1-21.6-20.1-21.6-20.1H272.8
		c-4.5,0-7.1-0.3-8.5-0.5c-6.3-1.2-17.3-5.3-17.3-19.6c0-15.4,12.7-19,18.7-19.8c2.2-0.2,7.1-0.3,7.1-0.3h200c0,0,21.6,0,21.6-20.1
		s-21.6-20.1-21.6-20.1H349.9c-4.5,0-7.1-0.3-8.5-0.5c-6.3-1.2-17.3-5.3-17.3-19.6c0-15.4,12.7-19,18.7-19.8h0
		c2.2-0.2,7.1-0.3,7.1-0.3h198.1c0,0,21.6,0,21.6-20.1S547.9,487,547.9,487z"/>
	<path class="st1" d="M565.4,486.7h-50.7c0,0-19,0-19-17.6c0-17-5.3-44.3-6.8-51.3C474.3,352.1,426.6,304,370,304
		c-65.9,0-119.7,65.3-123.2,147.5H0.1v94.9h282.1c0.3-13.8,11.1-17.8,17.3-19c1.4-0.2,4-0.5,8.5-0.5h257.2c0,0,21.6,0,21.6-20.1
		S565.4,486.7,565.4,486.7z"/>
	<path class="st1" d="M80.5,203.5c-29.2,0-56.5,7.5-80.4,20.7V460h219.7c16.9-26,26.7-57.1,26.7-90.4
		C246.6,277.9,172.2,203.5,80.5,203.5z"/>
	<path class="st15" d="M207.3,367.8c0,2.1,0,4.1-0.1,6.2h26.3c-1.2-75.3-45.2-137.3-102.7-149.5
		C175.7,247.7,207.3,303.1,207.3,367.8z"/>
	<path class="st15" d="M453.1,453.8c0,2.1-0.1,3-0.1,6.2s26.3,5.9,26.3,0s-0.1-3.9-0.2-5.9c-3.3-72.6-46.5-131.8-102.5-143.7
		C421.5,333.7,453.1,389.1,453.1,453.8z"/>
</g>
</svg>
