<?xml version="1.0" encoding="utf-8"?>
<!-- Generator: Adobe Illustrator 22.0.1, SVG Export Plug-In . SVG Version: 6.00 Build 0)  -->
<svg version="1.1" id="Layer_1" xmlns="http://www.w3.org/2000/svg" xmlns:xlink="http://www.w3.org/1999/xlink" x="0px" y="0px"
	 viewBox="0 0 1125 861.4" style="enable-background:new 0 0 1125 861.4;" xml:space="preserve">
<style type="text/css">
	.st0{clip-path:url(#SVGID_2_);fill:#01232D;}
	.st1{clip-path:url(#SVGID_2_);fill:#012E35;}
	.st2{clip-path:url(#SVGID_2_);fill:#DCD2C6;}
	.st3{clip-path:url(#SVGID_2_);}
	.st4{fill:#C44E41;}
	.st5{fill:#E8624D;}
	.st6{clip-path:url(#SVGID_2_);fill:#003D58;}
	.st7{clip-path:url(#SVGID_2_);fill:#E8624D;}
</style>
<g>
	<defs>
		<rect id="SVGID_1_" y="1.1" width="1125.2" height="860.3"/>
	</defs>
	<clipPath id="SVGID_2_">
		<use xlink:href="#SVGID_1_"  style="overflow:visible;"/>
	</clipPath>
	<path class="st0" d="M0.2,880.9h126.7c17.4-90.8,5.9-254.9-10.1-396.7c2.5-72.4-6.9-170.6-16.9-249.9c4.5-77-19.7-219.2-19.7-219.2
		l-80,178.3v82.6c0.1,0,0.1,0,0.2,0l-0.2,0.4V880.9z"/>
	<path class="st1" d="M33.5,880.9h94.7V257.4h60.7L80.2,15.2c0,0-24.3,142.1-19.7,219.2c-9.9,79.2-19.4,177.5-16.9,249.9
		C27.7,626.1,16.1,790.2,33.5,880.9z"/>
	<path class="st0" d="M992.1,880.9h133.1V163.8L1051.6-0.1c0,0-26.7,156.5-21.7,241.3c-10.9,87.2-21.3,195.4-18.6,275.2
		C997.4,639.9,986.6,778.9,992.1,880.9z"/>
	<path class="st1" d="M997.2,880.9h113.9c5.5-102.1-5.3-241-19.2-364.5c2.7-79.8-7.6-187.9-18.6-275.2c5-84.8-21.7-241.3-21.7-241.3
		L936,257.4h61.1v623.6H997.2z"/>
	<path class="st2" d="M1006.4,234.8H118.9c-6.1,0-11,5.2-11,11.7v622.2c0,6.5,4.9,11.7,11,11.7h887.5c6.1,0,11-5.2,11-11.7V246.6
		C1017.5,240.1,1012.5,234.8,1006.4,234.8z M986.4,872.5H139V256.8h847.5L986.4,872.5L986.4,872.5z"/>
	<g class="st3">
		<path class="st4" d="M148.8,466.8c0,0,159.9-62,159.9-209.9H128.4v623.8h90.1C218.6,880.6,244.4,565.3,148.8,466.8z"/>
		<path class="st4" d="M976.6,466.8c0,0-159.9-62-159.9-209.9H997v623.8h-90.1C906.8,880.6,881,565.3,976.6,466.8z"/>
		<g>
			<path class="st5" d="M180.8,418.4c0,0,27.6-44.4,41.2-84.2c10.7-31.4,4.7-59.8,24.1-61.5C290.2,268.9,242.2,386.3,180.8,418.4z"
				/>
			<path class="st5" d="M146.7,420c0,0,16.3-43.8,19.8-83.1c2.7-31-10.5-59,8.5-60.6C217.9,272.4,199.8,388.4,146.7,420z"/>
			<path class="st5" d="M145.6,535.7c0,0,16,65.9,18.8,143.5c2.9,81.4-7.1,174.8,8.4,174.8c15.6,0,19.1-96.1,8.1-177.7
				C170.3,598.9,145.6,535.7,145.6,535.7z"/>
		</g>
		<g>
			<path class="st5" d="M946.5,418.4c0,0-27.6-44.4-41.2-84.2c-10.7-31.4-4.7-59.8-24.1-61.5C837.2,268.9,885.2,386.3,946.5,418.4z"
				/>
			<path class="st5" d="M980.7,420c0,0-16.3-43.8-19.8-83.1c-2.7-31,10.5-59-8.5-60.6C909.4,272.4,927.5,388.4,980.7,420z"/>
			<path class="st5" d="M981.8,535.7c0,0-16,65.9-18.8,143.5c-2.9,81.4,7.1,174.8-8.4,174.8c-15.6,0-19.1-96.1-8.1-177.7
				C957,598.9,981.8,535.7,981.8,535.7z"/>
		</g>
	</g>
	<polygon class="st6" points="1125.2,880.9 1125.2,861.4 906.8,861.4 913.1,880.9 	"/>
	<polygon class="st6" points="216.1,880.9 222.5,861.4 0.2,861.4 0.2,880.9 	"/>
	<polygon class="st7" points="916.8,880.9 910.7,861.4 564.6,861.4 218.6,861.4 212.3,880.9 	"/>
</g>
</svg>
