<?xml version="1.0" encoding="utf-8"?>
<!-- Generator: Adobe Illustrator 22.0.1, SVG Export Plug-In . SVG Version: 6.00 Build 0)  -->
<svg version="1.1" id="Layer_1" xmlns="http://www.w3.org/2000/svg" xmlns:xlink="http://www.w3.org/1999/xlink" x="0px" y="0px"
	 viewBox="0 0 1125 1231.4" style="enable-background:new 0 0 1125 1231.4;" xml:space="preserve">
<style type="text/css">
	.st0{fill:#01232D;}
	.st1{fill:#012E35;}
	.st2{fill:#DCD2C6;}
	.st3{fill:#C44E41;}
	.st4{fill:#E8624D;}
	.st5{fill:#003D58;}
</style>
<path class="st0" d="M0.2,824h126.7c17.4-85,5.9-238.7-10.1-371.5c2.5-67.8-6.9-159.8-16.9-234c4.5-72.1-19.7-205.3-19.7-205.3
	l-80,167v77.4c0.1,0,0.1,0,0.2,0L0.2,258V824z"/>
<path class="st1" d="M33.5,824h94.7V240h60.7L80.2,13.2c0,0-24.3,133.1-19.7,205.3c-9.9,74.2-19.4,166.2-16.9,234
	C27.7,585.3,16.1,739,33.5,824z"/>
<path class="st0" d="M992.1,824h133.1V152.4L1051.6-1.1c0,0-26.7,146.6-21.7,226c-10.9,81.7-21.3,183-18.6,257.7
	C997.4,598.3,986.6,728.4,992.1,824z"/>
<path class="st1" d="M997.2,824h113.9c5.5-95.6-5.3-225.7-19.2-341.4c2.7-74.7-7.6-176-18.6-257.7c5-79.4-21.7-226-21.7-226L936,240
	h61.1v584H997.2z"/>
<path class="st2" d="M1006.4,218.9H118.9c-6.1,0-11,4.9-11,11v582.7c0,6.1,4.9,11,11,11h887.5c6.1,0,11-4.9,11-11V229.9
	C1017.5,223.8,1012.5,218.9,1006.4,218.9z M986.4,816.1H139V239.5h847.5L986.4,816.1L986.4,816.1z"/>
<g>
	<path class="st3" d="M148.8,436.1c0,0,159.9-58.1,159.9-196.6H128.4v584.2h90.1C218.6,823.7,244.4,528.4,148.8,436.1z"/>
	<path class="st3" d="M976.6,436.1c0,0-159.9-58.1-159.9-196.6H997v584.2h-90.1C906.8,823.7,881,528.4,976.6,436.1z"/>
	<g>
		<path class="st4" d="M180.8,390.8c0,0,27.6-41.6,41.2-78.9c10.7-29.4,4.7-56,24.1-57.6C290.2,250.8,242.2,360.8,180.8,390.8z"/>
		<path class="st4" d="M146.7,392.3c0,0,16.3-41,19.8-77.8c2.7-29-10.5-55.3,8.5-56.8C217.9,254.1,199.8,362.7,146.7,392.3z"/>
		<path class="st4" d="M145.6,500.7c0,0,16,61.7,18.8,134.4c2.9,76.2-7.1,163.7,8.4,163.7c15.6,0,19.1-90,8.1-166.4
			C170.3,559.9,145.6,500.7,145.6,500.7z"/>
	</g>
	<g>
		<path class="st4" d="M946.5,390.8c0,0-27.6-41.6-41.2-78.9c-10.7-29.4-4.7-56-24.1-57.6C837.2,250.8,885.2,360.8,946.5,390.8z"/>
		<path class="st4" d="M980.7,392.3c0,0-16.3-41-19.8-77.8c-2.7-29,10.5-55.3-8.5-56.8C909.4,254.1,927.5,362.7,980.7,392.3z"/>
		<path class="st4" d="M981.8,500.7c0,0-16,61.7-18.8,134.4c-2.9,76.2,7.1,163.7-8.4,163.7c-15.6,0-19.1-90-8.1-166.4
			C957,559.9,981.8,500.7,981.8,500.7z"/>
	</g>
</g>
<polygon class="st5" points="1125.2,1231.4 1125.2,805.7 906.8,805.7 997,1231.4 "/>
<polygon class="st5" points="128.4,1231.4 218.6,805.7 0.2,805.7 0.2,1231.4 "/>
<polygon class="st4" points="906.8,805.7 218.6,805.7 128.4,1231.4 997,1231.4 "/>
</svg>
