<?xml version="1.0" encoding="utf-8"?>
<!-- Generator: Adobe Illustrator 22.0.1, SVG Export Plug-In . SVG Version: 6.00 Build 0)  -->
<svg version="1.1" id="Layer_1" xmlns="http://www.w3.org/2000/svg" xmlns:xlink="http://www.w3.org/1999/xlink" x="0px" y="0px"
	 viewBox="0 0 1125 2436" style="enable-background:new 0 0 1125 2436;" xml:space="preserve">
<style type="text/css">
	.st0{fill:#003D58;}
	.st1{fill:#E8624D;}
	.st2{fill:none;}
	.st3{fill:#C44E41;}
	.st4{fill:#01232D;}
	.st5{fill:#012E35;}
	.st6{fill:#DCD2C6;}
	.st7{fill:#FFE174;}
	.st8{fill:#E9624D;}
	.st9{fill:#FF7B65;}
	.st10{fill:#FEFEFF;}
	.st11{fill:#E5E5E6;}
	.st12{fill:#E9E9E8;}
	.st13{fill:#FFFFFE;}
	.st14{fill:#DD4B33;}
	.st15{fill:#FFF7EA;}
</style>
<g>
	<path class="st0" d="M0,613.1h1125l0-518.6c0,0-83.2-20.2-157.9-41.9c-86.7-25.2-723.5-23.5-814.9,2.4C78.8,75.8,0,94.6,0,94.6
		L0,613.1z"/>
	<path class="st1" d="M569.2,0.2C569.2,0.2,569.2,0.2,569.2,0.2C569.2,0.2,569.2,0.2,569.2,0.2c-182.4,0-325.6,29-416.9,54.8
		c6.7,17.1,19,28.6,33,28.6H313c0,0,0,0-0.1,0c21.2,0.1,38.3,26.2,38.3,58.4s-17.1,58.4-38.3,58.4c0,0,0,0,0.1,0h-63.5
		c-21.2,0-38.4,26.2-38.4,58.4c0,32.3,17.2,58.4,38.4,58.4h47v-0.1h121.2c21.2,0,38.4,26.2,38.4,58.4c0,32.3-17.2,58.4-38.4,58.4
		h-36.2c-0.7,0.1-1.4,0.1-2.1,0.1c0,0,0,0,0.1,0h0.1c-21.2,0-38.4,26.1-38.4,58.4c0,32.3,17.2,58.4,38.4,58.4h63.5c0,0,0,0-0.1,0
		c21.2,0.1,38.3,26.2,38.3,58.4c0,2.9,0,5.7,0,8.4h155.9c0-2.8,0-5.6,0-8.4c0-32.2,17.1-58.4,38.3-58.4c0,0,0,0-0.1,0h63.5
		c21.2,0,38.4-26.1,38.4-58.4c0-32.3-17.2-58.4-38.4-58.4c0,0,0,0,0,0c-0.7,0-1.4,0-2.1-0.1h-16.1c-21.2,0-38.4-26.1-38.4-58.4
		c0-32.3,17.2-58.4,38.4-58.4h121.2v0.1h18.9c21.2,0,38.4-26.1,38.4-58.4c0-32.3-17.2-58.4-38.4-58.4h-55.3c0,0,0,0,0.1,0
		c-21.2-0.1-38.3-26.2-38.3-58.4s17.1-58.4,38.3-58.4c0,0,0,0-0.1,0h127.7c14.7,0,27.4-12.6,33.9-31C880.5,27.4,746,0.2,569.2,0.2z"
		/>
	<ellipse class="st2" cx="730.9" cy="635.5" rx="30.6" ry="22.8"/>
	<path class="st1" d="M775,652.5c0,0-167,41.9-203.5,118.3s-69,51.3-78.6,65.7c-9.6,14.4-40.6,48-9.6,76.4s146.7,0.9,168.4-42.4
		c21.7-43.3,30.2-87.9,134.8-92C746,741.4,775,652.5,775,652.5z"/>
	<path class="st3" d="M765.8,652.5c0,0-167,41.9-203.5,118.3c-30.5,63.8-63.3,59.6-77.2,64c-0.8,0.2-1.9,0.6-3.2,1.4
		c-3.4,2-2.8,2.7-4.7,5c-11.2,12.8-28,48.9-3.1,71.7c30.9,28.4,146.7,0.9,168.4-42.4c19-37.9,29.5-78.2,101.3-90
		c10.3-1.7,20.3-1.4,33.4-1.9C736.9,741.4,765.8,652.5,765.8,652.5z"/>
	<g>
		<path class="st4" d="M651.8,1644.5l325.8-858.3c0,0,3.1-5.4,6-7.7s5.4-1.3,7.2,1.5c3.6,5.6,1.2,7.2-5.2,25.2
			c-6.4,18-297,851.8-297,851.8S660.7,1678.1,651.8,1644.5z"/>
	</g>
	<path class="st1" d="M485.2,834.7c0,0-13.5,6-7,19.4c11.5,23.8,62.2,56.5,193.4,18.1c205.2-60.1,198.4-87.1,247.3-87.7
		s48.9-0.7,48.9-0.7l-145.5,380c0,0-223.3-0.7-294.1-117.6c-29.1-48-52.8-64.8-68.9-73.6c-23-12.7-9.7-75.3-7.2-82.3
		c13.8-38.9,23.8-50.7,29-54.2C482.1,835.4,484.5,834.9,485.2,834.7C486.2,834.5,485.2,834.7,485.2,834.7z"/>
	<path class="st1" d="M412,1306.7"/>
	<path class="st1" d="M788,733.5c5.5-22.9,19.3-47,17.7-61c-3-28-29.8-20-29.8-20s-31.6,0.9-74.4,0.3c-21.3-1.5-47.9-17.5-64.4-35
		c-0.4-0.4-25.9-24.6-48.3-24.7c-45.7-0.1-100.7,23.4-101.2,20.8c-0.1-0.5-6.3,3.3-6.4,3.9c-1.2,11.9-2.1,11.2-3.5,18c0,0,0,0,0,0
		c-0.5,2.3-1,4.7-1.6,7.3c-2.1,8.9-3.4,18.2-3.7,27.4c-1.6,59.2,155.1,110.6,255.2,109.1c24.7-0.4,45,8.3,59.7-1.1
		C799.2,768.9,783.7,751.7,788,733.5z"/>
	<g>
		<path class="st4" d="M857.6,1470.1h-12.8h-10.8H801l5.7,199.8c0,0,58.5-28.3,56.3-27.6c0,0,0,0,0,0c24-7.8,41.4-30.5,41.4-57.2
			v-56.2C904.4,1500.1,884.4,1476.1,857.6,1470.1z"/>
		<path class="st4" d="M270.4,1470.1h12.8H294H327l-5.7,199.8c0,0-58.5-28.3-56.3-27.6c0,0,0,0,0,0c-24-7.8-41.4-30.5-41.4-57.2
			v-56.2C223.6,1500.1,243.6,1476.1,270.4,1470.1z"/>
		<g>
			<path class="st4" d="M699.7,2036.2c0,0-258-706.2-272.1-752c-23.8-77.3-49.9-187.1-87.5-250.6c-19.1-32.1-49.2-50.5-62-44.2
				c-53.3,26,5,200.4,52,342.1S603.6,2078,603.6,2078L699.7,2036.2z"/>
			<path class="st4" d="M471.3,1042.8c0,0-52.8-74.6-72.1-67.3c-19.3,7.3-19.5,25.6-6.8,81.4c6.5,28.5,26.2,164.8,39.4,274.2
				c12.6,104.7,18.6,179.8,25,320.9c91,288.7,137.2,376.9,137.2,376.9L563,1705.8C563,1705.8,536.9,1158.6,471.3,1042.8z"/>
		</g>
		<g>
			<path class="st1" d="M571.4,1745.3c-12.2-12.3-27.4-58.8-65-118.8c-36.9-58.8-162.6-246.9-206.3-309.1l0,0c0,0,0,0,0,0
				c-0.9-1.2-1.7-2.4-2.5-3.6c0,0-0.1,0-0.2-0.1c-10.6-14.5-49.3-67.1-51.4-70.9c-2.5-4.4-11.2,2.4-27.4,12.9
				c-16.3,10.5-25.1,24.3-27,28.1c-1.9,3.8-5.4,3.5-1.6,6.3c3.7,2.9,44,58.8,44,58.8c0,0,0,0,0,0c2,2,3.8,3.6,5.2,3.6
				c3.6,0,124.1,152.8,174.8,227.8c50.7,75,61.5,90,69.2,120c7.8,30-5.4,73.8,8.4,73.8c13.7,0,49.2,5.1,54.3,0
				C550.8,1769,583.6,1757.6,571.4,1745.3z"/>
			<path class="st4" d="M280.5,1336.4c10.1-9-0.9-17.7,16.3-29.3c2.6-2.9,8.7-5.9,14.1-11.4c6.3-6.3-25.2-78.2-38.9-64.5
				c0,0-140.3,108.4-164.9,133.2c-7,7-7.9,7.8-6,10.3c1.2,1.5,11.3,14.8,16.9,20.6c16.7,17.4,47.9,45.7,64.9,55.5
				c7,4,12.5,7.9,12.5,2.8c0-17.9,8.5-78.1,20.1-99.7c1.9-3.6,5.8-15,21.5-10.9C252.8,1347,270.5,1345.4,280.5,1336.4z"/>
			<path class="st1" d="M107.2,1364.4c-7,7-7.9,7.8-6,10.3c1.2,1.5,11.3,14.8,16.9,20.6c16.7,17.4,47.9,45.7,64.9,55.5
				c7,4,12.5,7.9,12.5,2.8c0-8.7,2-27.5,5.5-47c0,0,0,0,0,0c-7.6,2.9-28.5,8.6-28.5,1.4s4.3-20-5.1-20c-9.4,0-20.8,7.4-20.8-6.8
				s4.3-16-15.9-16c-20.1,0,4-24.8,4-24.9C122.1,1350.8,112.2,1359.4,107.2,1364.4z"/>
		</g>
		<g>
			<g>
				<path class="st1" d="M855,1243.4c-10.5-13.5-35.1-33.1-52.3-41.8c-6.5-3.3-15.6-3.6-6.3,1.3c3.1,1.6,6.8,3.9,10.8,7
					c4,3.1,14.7,9.5,25.1,21c3.2,3.5,14.6,15.2,20,26.8c4.3,9.2,3.1,19,3.1,19.7c0,4.5,1.8,7.2,2.3,11.7c0.6,5.2,0.2,12.2,6.8,18.4
					c7.9,7.5,3.8-12.2,6-23.9c0.2-1.3,4.7-6.2,7.4-6.2c1.2,0,6.3,3.9,7.4,3.9c8.4,0,6.6-3.3,6.6-3.3S869.5,1262,855,1243.4z"/>
				<path class="st1" d="M1022,1488.5c-1.9-4.9-14.8-49.2-44.9-105.8c-30.1-56.6-52.3-75.2-52.3-75.2c-3.7,6.4-17.1-12.6-31.3,1.6
					c-14.2,14.3-5.5,22-5.5,22l-6.2,2.9l2.4,7.8c5,1.8,30.1-9.8,39.4,16.8c0.4,1.1,0.2,4.1,1.9,5.2c0.6,0.4,4.7,0.7,7.6,3.2
					c4.3,3.7,8.1,9.6,7.9,13.7c-0.3,6.8,1.4,5.2,4.4,6.4c0.5,0.2,3.8,1.4,6.7,4.2c2.9,2.8,5.3,7.2,5.3,9c0.1,5.9,1,5,4.5,7.3
					c2.6,1.7,8,6.4,10.7,12.1c1.7,3,0.4,7.8,1.1,8.2s3.6,1.5,5.4,3c3.4,2.9,7,6.5,6,13.3c-0.4,2.5,6.3,2.3,9.7,10.9
					c1.7,4.3-0.1,5.5,0.6,6.7c0.7,1.1,3.7,1.5,5.6,4.7c0.4,0.7,1.6,2.1,1.8,3.5c0.4,2.1-0.1,4.2,0.6,5.7c0.3,0.6,2.5,0.6,4.2,2.3
					s2.6,5.1,2.5,5.4c-0.4,1.7-0.5,2.6-0.4,3.1c0.2,0.9,2,1.7,3.3,2.5c2.1,1.4,2.4,5.3,1.5,8.1c-0.9,2.8,3.7,9.3,4.6,10.2
					c0.9,0.9,4.9-10.7,4.9-10.7S1023.8,1493.4,1022,1488.5z M943.5,1357.7c-2,1.4-17.1-11.2-17.1-11.2
					c-13.5-13.6-15.1-18.8-9.1-21.9c6-3.1,9-0.5,17.7,12.7C943.6,1350.6,945.5,1356.3,943.5,1357.7z"/>
			</g>
			<path class="st4" d="M913.9,1288.4c-10.9-11.2-21.8-10.4-21.8-10.4c-0.9,0-1.8,0-2.6-0.1c-2.3-0.2-4.5-3.7-6.5-4.3
				c-3.1-1.1-5.9,0.4-8.1-0.9c-4.9-3-7.6,3.6-8.2,6.7c-1.3,7.4-7.9,18.4-7.9,18.4c-6.6,9.1-41.9,58.5-71.8,99.8
				c-33,45.7-69.8,128.9-69.8,128.9S610.1,1768.9,605,1780.8c-2.6,6-0.6,9.1,0.6,14.9c1.2,5.7,1.5,14.2,1.5,17.9
				c0,1.9,9-2.1,10.7-2.9c5.5-2.7,9-4.2,12.8-8.9c6.9-8.6,12-22.1,12-22.1l59.9-129.5c0,0,60.7-132.6,76.4-164
				c15.7-31.4,42.8-65.8,63.8-92.9c21-27,40.7-50.9,40.7-50.9s1.6-4.8,8.7-5.9c7.1-1.1,1.5-10.6,9.3-18.4
				c7.9-7.8,19.7-4.3,23.4-10.7C928.5,1301.2,924.8,1299.6,913.9,1288.4z M625.3,1799.4c-0.2,1.1-1.6,4.1-5.2,6.2
				c-2.7,1.6-7.8,2.7-8.3,2.3c-1.2-0.9-1.3-3.5-1.5-6.2c-0.2-2.7-0.7-5.3-0.7-7.3c0-3,2.9-1.8,5.4-2.1c2.5-0.3,4.5-2,4.5-2
				C627.9,1792.3,625.8,1797.5,625.3,1799.4z M880.6,1289.7c-2.1,2.2-8.1,0.5-8.1-1.5s3.9-8,6.8-6.6c2.9,1.4,5-0.1,7.1,2
				C888.5,1285.6,882.7,1287.5,880.6,1289.7z"/>
		</g>
		<path class="st4" d="M187.3,2168.4l0-441.8c0-51.4,41.7-93,93-93l570.8,0c51.4,0,93,41.7,93,93l0,441.8c0,51.4-41.7,93-93,93
			l-570.8,0C229,2261.4,187.3,2219.8,187.3,2168.4z"/>
		<path class="st5" d="M758.9,1444.3H564H369.1c-47.6,0-86.2,38.8-86.2,86.7v643.7c0,34.4,19.9,64.1,48.8,78.1
			c4.1,2,6.5,7.2,10.9,8.6c7.8,2.3,18,0,26.5,0H564h194.9c8.5,0,18.7,2.3,26.5,0c4.5-1.3,6.8-6.6,10.9-8.6
			c28.9-14,48.8-43.7,48.8-78.1V1531C845.1,1483.2,806.5,1444.3,758.9,1444.3z"/>
		<path class="st6" d="M469,1734.8c0,0,19.8-58.2,19.8-102.5s76.9,3.7,76.9,3.7v184.5C565.8,1820.6,469,1814.5,469,1734.8z"/>
		<g>
			<g>
				<g>
					<path class="st6" d="M329.9,1585.4c-11.7-2.9-23.5,4.3-26.4,16.1c-2.9,11.8,4.3,23.7,16,26.5c11.7,2.9,23.5-4.3,26.4-16.1
						C348.8,1600.2,341.6,1588.3,329.9,1585.4z M343.6,1611.4c-2.5,10.5-13.1,16.9-23.5,14.3c-10.4-2.6-16.8-13.1-14.3-23.6
						c2.5-10.5,13.1-16.9,23.5-14.3C339.8,1590.4,346.1,1600.9,343.6,1611.4z"/>
					<path class="st7" d="M343.6,1611.4c-2.5,10.5-13.1,16.9-23.5,14.3c-10.4-2.6-16.8-13.1-14.3-23.6c2.5-10.5,13.1-16.9,23.5-14.3
						C339.8,1590.4,346.1,1600.9,343.6,1611.4z"/>
				</g>
				<path class="st2" d="M319.5,1628.1c-11.7-2.9-18.9-14.8-16-26.5s14.7-19,26.4-16.1c11.7,2.9,18.9,14.8,16,26.5
					C343.1,1623.8,331.3,1631,319.5,1628.1z"/>
				<g>
					<polygon class="st8" points="316.4,1590.6 312.5,1614.1 321.5,1620 332.1,1618.9 339.4,1596.2 					"/>
					<polygon class="st9" points="327.3,1595.7 336.5,1598 330.8,1616.7 322,1617.7 					"/>
					<polygon class="st10" points="323.4,1611.9 322.6,1615.1 329.2,1614.5 331.8,1606 325.2,1604.4 324.5,1607.3 328,1608.1 
						326.8,1611.8 					"/>
					<polygon class="st11" points="326.6,1598.6 319.5,1596.8 318,1605.7 324.5,1607.3 325.2,1604.4 321.5,1603.5 321.9,1600.5 
						325.9,1601.5 					"/>
					<polygon class="st10" points="325.9,1601.5 326.6,1598.6 333.5,1600.3 332.5,1603.1 					"/>
					<polygon class="st11" points="323.4,1611.9 322.6,1615.1 317.1,1611.6 317.9,1606.9 320.8,1607.6 320.5,1610.2 					"/>
				</g>
			</g>
			<g>
				<g>
					<ellipse class="st7" cx="323.3" cy="1529.7" rx="18.9" ry="19"/>
				</g>
				<path class="st6" d="M328.9,1509.2c-11.3-3.1-22.9,3.6-26,14.9s3.5,23,14.8,26.1c11.3,3.1,22.9-3.6,26-14.9
					S340.2,1512.3,328.9,1509.2z M318.3,1548.1c-10.1-2.8-16-13.2-13.2-23.4c2.8-10.1,13.2-16.1,23.2-13.3
					c10.1,2.8,16,13.2,13.2,23.4S328.4,1550.8,318.3,1548.1z"/>
				<g>
					<polygon class="st8" points="316.7,1515.5 312.7,1535.8 320.3,1541.1 329.5,1540.4 336.4,1521 					"/>
					<polygon class="st9" points="326,1520.3 333.9,1522.4 328.4,1538.5 320.9,1539.1 					"/>
				</g>
				<g id="Layer_x0020_1_4_">
					<g id="_400352496_4_">
						<g>
							<polygon class="st12" points="324.7,1524.9 318,1525.8 317.5,1528.3 324,1527.4 330.9,1526.5 331.9,1524 							"/>
							<polygon class="st12" points="325.4,1522.2 325.5,1522.2 325.5,1522.2 325.6,1522.2 325.6,1522.3 325.7,1522.3 325.7,1522.3 
								325.8,1522.3 325.8,1522.3 325.9,1522.3 325.9,1522.3 326,1522.4 326,1522.4 326.1,1522.4 326.1,1522.4 326.2,1522.4 
								326.2,1522.4 326.3,1522.4 326.3,1522.5 326.4,1522.5 326.4,1522.5 326.5,1522.5 326.5,1522.5 326.6,1522.5 326.6,1522.5 
								326.7,1522.6 326.7,1522.6 326.8,1522.6 326.8,1522.6 326.9,1522.6 326.9,1522.6 327,1522.6 327,1522.7 327.1,1522.7 
								327.1,1522.7 327.2,1522.7 327.2,1522.7 327.3,1522.7 327.3,1522.7 327.4,1522.8 327.4,1522.8 327.5,1522.8 327.5,1522.8 
								327.6,1522.8 327.6,1522.8 327.7,1522.8 327.7,1522.9 327.8,1522.9 327.9,1522.9 327.9,1522.9 328,1522.9 328,1522.9 
								328.1,1522.9 328.1,1523 328.2,1523 328.2,1523 328.3,1523 328.3,1523 328.4,1523 328.4,1523 328.5,1523.1 328.5,1523.1 
								328.6,1523.1 328.6,1523.1 328.7,1523.1 328.7,1523.1 328.8,1523.1 328.8,1523.1 328.9,1523.2 328.9,1523.2 329,1523.2 
								329,1523.2 329.1,1523.2 329.1,1523.2 329.2,1523.2 329.2,1523.3 329.3,1523.3 329.3,1523.3 329.4,1523.3 329.4,1523.3 
								329.5,1523.3 329.5,1523.3 329.6,1523.4 329.6,1523.4 329.7,1523.4 329.7,1523.4 329.8,1523.4 329.8,1523.4 329.9,1523.4 
								329.9,1523.5 330,1523.5 330,1523.5 330.1,1523.5 330.1,1523.5 330.2,1523.5 330.2,1523.5 330.3,1523.6 330.3,1523.6 
								330.4,1523.6 330.4,1523.6 330.5,1523.6 330.5,1523.6 330.6,1523.6 330.7,1523.7 330.7,1523.7 330.8,1523.7 330.8,1523.7 
								330.9,1523.7 330.9,1523.7 331,1523.7 331,1523.8 331.1,1523.8 331.1,1523.8 331.2,1523.8 331.2,1523.8 331.3,1523.8 
								331.3,1523.8 331.4,1523.9 331.4,1523.9 331.5,1523.9 331.5,1523.9 331.6,1523.9 331.6,1523.9 331.7,1523.9 331.7,1524 
								331.8,1524 331.8,1524 331.9,1524 331.7,1524.5 331.5,1525 331.3,1525.5 331.1,1526 330.9,1526.4 330.9,1526.5 330.9,1526.5 
								330.9,1526.5 330.8,1526.4 330.8,1526.4 330.7,1526.4 330.7,1526.4 330.6,1526.4 330.6,1526.4 330.5,1526.4 330.5,1526.3 
								330.4,1526.3 330.4,1526.3 330.3,1526.3 330.3,1526.3 330.2,1526.3 330.2,1526.3 330.1,1526.3 330.1,1526.2 330,1526.2 
								330,1526.2 329.9,1526.2 329.9,1526.2 329.8,1526.2 329.8,1526.2 329.7,1526.1 329.6,1526.1 329.6,1526.1 329.5,1526.1 
								329.5,1526.1 329.4,1526.1 329.4,1526.1 329.3,1526 329.3,1526 329.2,1526 329.2,1526 329.1,1526 329.1,1526 329,1526 
								329,1525.9 328.9,1525.9 328.9,1525.9 328.8,1525.9 328.8,1525.9 328.7,1525.9 328.7,1525.9 328.6,1525.8 328.6,1525.8 
								328.5,1525.8 328.5,1525.8 328.4,1525.8 328.4,1525.8 328.3,1525.8 328.3,1525.7 328.2,1525.7 328.2,1525.7 328.1,1525.7 
								328.1,1525.7 328,1525.7 328,1525.7 327.9,1525.6 327.9,1525.6 327.8,1525.6 327.8,1525.6 327.7,1525.6 327.7,1525.6 
								327.6,1525.6 327.6,1525.5 327.5,1525.5 327.5,1525.5 327.4,1525.5 327.4,1525.5 327.3,1525.5 327.3,1525.5 327.2,1525.4 
								327.2,1525.4 327.1,1525.4 327.1,1525.4 327,1525.4 327,1525.4 326.9,1525.4 326.8,1525.4 326.8,1525.3 326.7,1525.3 
								326.7,1525.3 326.6,1525.3 326.6,1525.3 326.5,1525.3 326.5,1525.3 326.4,1525.2 326.4,1525.2 326.3,1525.2 326.3,1525.2 
								326.2,1525.2 326.2,1525.2 326.1,1525.2 326.1,1525.1 326,1525.1 326,1525.1 325.9,1525.1 325.9,1525.1 325.8,1525.1 
								325.8,1525.1 325.7,1525 325.7,1525 325.6,1525 325.6,1525 325.5,1525 325.5,1525 325.4,1525 325.4,1524.9 325.3,1524.9 
								325.3,1524.9 325.2,1524.9 325.2,1524.9 325.1,1524.9 325.1,1524.9 325.1,1524.9 325,1524.8 325,1524.8 324.9,1524.8 
								324.9,1524.8 324.8,1524.8 324.8,1524.8 324.7,1524.8 324.7,1524.8 324.7,1524.8 324.7,1524.7 324.6,1524.7 324.6,1524.7 
								324.5,1524.7 324.5,1524.7 324.4,1524.7 324.4,1524.7 324.3,1524.6 324.3,1524.6 324.2,1524.6 324.1,1524.6 324.1,1524.6 
								324,1524.6 324,1524.6 323.9,1524.5 323.9,1524.5 323.8,1524.5 323.8,1524.5 323.7,1524.5 323.7,1524.5 323.6,1524.5 
								323.6,1524.5 323.5,1524.4 323.5,1524.4 323.4,1524.4 323.4,1524.4 323.3,1524.4 323.3,1524.4 323.2,1524.4 323.2,1524.3 
								323.1,1524.3 323.1,1524.3 323,1524.3 323,1524.3 322.9,1524.3 322.9,1524.3 322.8,1524.2 322.8,1524.2 322.7,1524.2 
								322.7,1524.2 322.6,1524.2 322.6,1524.2 322.5,1524.2 322.5,1524.1 322.4,1524.1 322.4,1524.1 322.3,1524.1 322.3,1524.1 
								322.2,1524.1 322.2,1524.1 322.1,1524 322.1,1524 322,1524 322,1524 321.9,1524 321.9,1524 321.8,1524 321.8,1523.9 
								321.7,1523.9 321.7,1523.9 321.6,1523.9 321.6,1523.9 321.5,1523.9 321.5,1523.9 321.4,1523.8 321.3,1523.8 321.3,1523.8 
								321.2,1523.8 321.2,1523.8 321.1,1523.8 321.1,1523.8 321,1523.7 321,1523.7 320.9,1523.7 320.9,1523.7 320.8,1523.7 
								320.8,1523.7 320.7,1523.7 320.7,1523.6 320.6,1523.6 320.6,1523.6 320.5,1523.6 320.5,1523.6 320.4,1523.6 320.4,1523.6 
								320.3,1523.6 320.3,1523.5 320.2,1523.5 320.2,1523.5 320.1,1523.5 320.1,1523.5 320,1523.5 320,1523.5 319.9,1523.4 
								319.9,1523.4 319.8,1523.4 319.8,1523.4 319.7,1523.4 319.7,1523.4 319.6,1523.4 319.6,1523.3 319.5,1523.3 319.5,1523.3 
								319.4,1523.3 319.4,1523.3 319.3,1523.3 319.3,1523.3 319.2,1523.2 319.2,1523.2 319.1,1523.2 319.1,1523.2 319,1523.2 
								319,1523.2 318.9,1523.2 318.9,1523.1 318.8,1523.1 318.8,1523.1 318.7,1523.1 318.7,1523.1 318.6,1523.1 318.5,1523.1 
								318.5,1523 318.5,1523 318.5,1523 318.5,1522.5 318.6,1522.1 318.7,1521.7 318.7,1521.2 318.8,1520.8 318.8,1520.4 
								318.9,1520.4 318.9,1520.4 319,1520.4 319,1520.4 319.1,1520.5 319.1,1520.5 319.2,1520.5 319.2,1520.5 319.3,1520.5 
								319.3,1520.5 319.4,1520.5 319.4,1520.6 319.5,1520.6 319.6,1520.6 319.6,1520.6 319.7,1520.6 319.7,1520.6 319.8,1520.6 
								319.8,1520.7 319.9,1520.7 319.9,1520.7 320,1520.7 320,1520.7 320.1,1520.7 320.1,1520.7 320.2,1520.8 320.2,1520.8 
								320.3,1520.8 320.3,1520.8 320.4,1520.8 320.4,1520.8 320.5,1520.8 320.5,1520.9 320.6,1520.9 320.6,1520.9 320.7,1520.9 
								320.7,1520.9 320.8,1520.9 320.8,1520.9 320.9,1521 320.9,1521 321,1521 321,1521 321.1,1521 321.1,1521 321.2,1521 
								321.2,1521.1 321.3,1521.1 321.3,1521.1 321.4,1521.1 321.4,1521.1 321.5,1521.1 321.5,1521.1 321.6,1521.2 321.6,1521.2 
								321.7,1521.2 321.7,1521.2 321.8,1521.2 321.8,1521.2 321.9,1521.2 321.9,1521.3 322,1521.3 322,1521.3 322.1,1521.3 
								322.1,1521.3 322.2,1521.3 322.2,1521.3 322.3,1521.3 322.4,1521.4 322.4,1521.4 322.5,1521.4 322.5,1521.4 322.6,1521.4 
								322.6,1521.4 322.7,1521.4 322.7,1521.5 322.8,1521.5 322.8,1521.5 322.9,1521.5 322.9,1521.5 323,1521.5 323,1521.5 
								323.1,1521.6 323.1,1521.6 323.2,1521.6 323.2,1521.6 323.3,1521.6 323.3,1521.6 323.4,1521.6 323.4,1521.7 323.5,1521.7 
								323.5,1521.7 323.6,1521.7 323.6,1521.7 323.7,1521.7 323.7,1521.7 323.8,1521.8 323.8,1521.8 323.9,1521.8 323.9,1521.8 
								324,1521.8 324,1521.8 324.1,1521.8 324.1,1521.9 324.2,1521.9 324.2,1521.9 324.3,1521.9 324.3,1521.9 324.4,1521.9 
								324.4,1521.9 324.5,1522 324.5,1522 324.6,1522 324.6,1522 324.7,1522 324.7,1522 324.8,1522 324.8,1522.1 324.9,1522.1 
								324.9,1522.1 325,1522.1 325.1,1522.1 325.1,1522.1 325.2,1522.1 325.2,1522.2 325.3,1522.2 325.3,1522.2 325.4,1522.2 
								325.4,1522.2 							"/>
							<polygon class="st12" points="318,1525.8 330,1529.1 329.1,1531.5 317.5,1528.3 							"/>
							<polygon class="st12" points="317.3,1529.8 319.9,1530.5 319.5,1532.6 322.2,1534.1 325.3,1534.1 326.4,1530.8 329.1,1531.5 
								327.1,1536.8 321.4,1536.9 316.5,1533.9 							"/>
						</g>
						<g>
							<polygon class="st13" points="324,1527.4 330.9,1526.5 331.9,1524 324.7,1524.9 							"/>
							<polygon class="st13" points="325.4,1522.2 325.5,1522.2 325.5,1522.2 325.6,1522.2 325.6,1522.3 325.7,1522.3 325.7,1522.3 
								325.8,1522.3 325.8,1522.3 325.9,1522.3 325.9,1522.3 326,1522.4 326,1522.4 326.1,1522.4 326.1,1522.4 326.2,1522.4 
								326.2,1522.4 326.3,1522.4 326.3,1522.5 326.4,1522.5 326.4,1522.5 326.5,1522.5 326.5,1522.5 326.6,1522.5 326.6,1522.5 
								326.7,1522.6 326.7,1522.6 326.8,1522.6 326.8,1522.6 326.9,1522.6 326.9,1522.6 327,1522.6 327,1522.7 327.1,1522.7 
								327.1,1522.7 327.2,1522.7 327.2,1522.7 327.3,1522.7 327.3,1522.7 327.4,1522.8 327.4,1522.8 327.5,1522.8 327.5,1522.8 
								327.6,1522.8 327.6,1522.8 327.7,1522.8 327.7,1522.9 327.8,1522.9 327.9,1522.9 327.9,1522.9 328,1522.9 328,1522.9 
								328.1,1522.9 328.1,1523 328.2,1523 328.2,1523 328.3,1523 328.3,1523 328.4,1523 328.4,1523 328.5,1523.1 328.5,1523.1 
								328.6,1523.1 328.6,1523.1 328.7,1523.1 328.7,1523.1 328.8,1523.1 328.8,1523.1 328.9,1523.2 328.9,1523.2 329,1523.2 
								329,1523.2 329.1,1523.2 329.1,1523.2 329.2,1523.2 329.2,1523.3 329.3,1523.3 329.3,1523.3 329.4,1523.3 329.4,1523.3 
								329.5,1523.3 329.5,1523.3 329.6,1523.4 329.6,1523.4 329.7,1523.4 329.7,1523.4 329.8,1523.4 329.8,1523.4 329.9,1523.4 
								329.9,1523.5 330,1523.5 330,1523.5 330.1,1523.5 330.1,1523.5 330.2,1523.5 330.2,1523.5 330.3,1523.6 330.3,1523.6 
								330.4,1523.6 330.4,1523.6 330.5,1523.6 330.5,1523.6 330.6,1523.6 330.7,1523.7 330.7,1523.7 330.8,1523.7 330.8,1523.7 
								330.9,1523.7 330.9,1523.7 331,1523.7 331,1523.8 331.1,1523.8 331.1,1523.8 331.2,1523.8 331.2,1523.8 331.3,1523.8 
								331.3,1523.8 331.4,1523.9 331.4,1523.9 331.5,1523.9 331.5,1523.9 331.6,1523.9 331.6,1523.9 331.7,1523.9 331.7,1524 
								331.8,1524 331.8,1524 331.9,1524 331.7,1524.5 331.5,1525 331.3,1525.5 331.1,1526 330.9,1526.4 330.9,1526.5 330.9,1526.5 
								330.9,1526.5 330.8,1526.4 330.8,1526.4 330.7,1526.4 330.7,1526.4 330.6,1526.4 330.6,1526.4 330.5,1526.4 330.5,1526.3 
								330.4,1526.3 330.4,1526.3 330.3,1526.3 330.3,1526.3 330.2,1526.3 330.2,1526.3 330.1,1526.3 330.1,1526.2 330,1526.2 
								330,1526.2 329.9,1526.2 329.9,1526.2 329.8,1526.2 329.8,1526.2 329.7,1526.1 329.6,1526.1 329.6,1526.1 329.5,1526.1 
								329.5,1526.1 329.4,1526.1 329.4,1526.1 329.3,1526 329.3,1526 329.2,1526 329.2,1526 329.1,1526 329.1,1526 329,1526 
								329,1525.9 328.9,1525.9 328.9,1525.9 328.8,1525.9 328.8,1525.9 328.7,1525.9 328.7,1525.9 328.6,1525.8 328.6,1525.8 
								328.5,1525.8 328.5,1525.8 328.4,1525.8 328.4,1525.8 328.3,1525.8 328.3,1525.7 328.2,1525.7 328.2,1525.7 328.1,1525.7 
								328.1,1525.7 328,1525.7 328,1525.7 327.9,1525.6 327.9,1525.6 327.8,1525.6 327.8,1525.6 327.7,1525.6 327.7,1525.6 
								327.6,1525.6 327.6,1525.5 327.5,1525.5 327.5,1525.5 327.4,1525.5 327.4,1525.5 327.3,1525.5 327.3,1525.5 327.2,1525.4 
								327.2,1525.4 327.1,1525.4 327.1,1525.4 327,1525.4 327,1525.4 326.9,1525.4 326.8,1525.4 326.8,1525.3 326.7,1525.3 
								326.7,1525.3 326.6,1525.3 326.6,1525.3 326.5,1525.3 326.5,1525.3 326.4,1525.2 326.4,1525.2 326.3,1525.2 326.3,1525.2 
								326.2,1525.2 326.2,1525.2 326.1,1525.2 326.1,1525.1 326,1525.1 326,1525.1 325.9,1525.1 325.9,1525.1 325.8,1525.1 
								325.8,1525.1 325.7,1525 325.7,1525 325.6,1525 325.6,1525 325.5,1525 325.5,1525 325.4,1525 325.4,1524.9 325.3,1524.9 
								325.3,1524.9 325.2,1524.9 325.2,1524.9 325.1,1524.9 325.1,1524.9 325.1,1524.9 325,1524.8 325,1524.8 324.9,1524.8 
								324.9,1524.8 324.8,1524.8 324.8,1524.8 324.7,1524.8 							"/>
							<polygon class="st13" points="324,1527.4 330,1529.1 329.1,1531.5 323.3,1529.9 							"/>
							<polygon class="st13" points="322.2,1534.1 325.3,1534.1 326.4,1530.8 329.1,1531.5 327.1,1536.8 321.4,1536.9 321.4,1536.9 
															"/>
						</g>
					</g>
				</g>
			</g>
			<g>
				<g>
					<ellipse class="st7" cx="373.4" cy="1563.9" rx="19.2" ry="19.4"/>
				</g>
				<path class="st6" d="M367.6,1543c-11.5,3.2-18.2,15.1-15,26.6s15,18.3,26.5,15.1c11.5-3.2,18.2-15.1,15-26.6
					C390.9,1546.6,379.1,1539.8,367.6,1543z M378.5,1582.5c-10.2,2.9-20.8-3.2-23.7-13.5c-2.8-10.3,3.2-21,13.4-23.8
					c10.2-2.9,20.8,3.2,23.7,13.5C394.8,1569,388.8,1579.7,378.5,1582.5z"/>
				<polygon class="st9" points="363.2,1554 358.1,1562.9 376.5,1575.3 370.1,1552.1 				"/>
				<polygon class="st8" points="361.9,1561.8 372,1559 363.2,1554 				"/>
				<polygon class="st8" points="376.5,1575.3 366,1560.7 372,1559 				"/>
				<polygon class="st9" points="377,1550.1 386,1555.1 376.5,1575.3 370.1,1552.1 				"/>
				<polygon class="st8" points="382.2,1556.2 372,1559 377,1550.1 				"/>
				<polygon class="st8" points="376.5,1575.3 378.1,1557.3 372,1559 				"/>
				<polygon class="st8" points="366,1560.7 363.2,1554 361.9,1561.8 				"/>
				<polygon class="st14" points="386,1555.1 378.1,1557.3 376.5,1575.3 				"/>
			</g>
			<path class="st6" d="M323.4,1547.2c-12.9-3.6-20.5-16.9-16.9-29.9c0.1-0.2,0.1-0.4,0.2-0.6c-1.6,2.1-2.9,4.6-3.6,7.3
				c-3.1,11.3,3.5,23,14.8,26.1c6,1.7,12.2,0.5,17-2.6C331.2,1548.3,327.3,1548.3,323.4,1547.2z"/>
			<path class="st6" d="M394.1,1558.1c-1.3-4.7-4.1-8.6-7.6-11.4c5.8,12,1.8,26.8-9.7,34.1c-3,1.9-6.3,3.2-9.7,3.8
				c3.8,1.2,7.9,1.3,12,0.1C390.6,1581.6,397.3,1569.6,394.1,1558.1z"/>
			<path class="st6" d="M319.5,1628.1c6.5,1.6,13.1,0.1,18.1-3.7c-3.9,1.1-8.1,1.2-12.3,0.1c-13.2-3.3-21.4-16.7-18.1-30
				c0.1-0.5,0.2-0.9,0.4-1.4c-0.6,0.8-1.2,1.6-1.8,2.4c-1.1,1.8-1.9,3.8-2.4,5.9C300.7,1613.4,307.8,1625.2,319.5,1628.1z"/>
		</g>
		<path class="st15" d="M662.3,1734.8c0,0-19.8-58.2-19.8-102.5s-76.9,3.7-76.9,3.7v184.5C565.6,1820.6,662.3,1814.5,662.3,1734.8z"
			/>
		<path class="st0" d="M416.4,1428.9c0,27.4-5.3,49.6-11.9,49.6c-4.9,0-6.4-14.6-8.2-32.4c-0.6-5.9-3.7-23.6-3.7-30.4
			c0-27.4,5.3-36.4,11.9-36.4S416.4,1401.5,416.4,1428.9z"/>
		<path class="st0" d="M712.1,1428.9c0,27.4,5.3,49.6,11.9,49.6c4.9,0,6.4-14.6,8.2-32.4c0.6-5.9,3.7-23.6,3.7-30.4
			c0-27.4-5.3-36.4-11.9-36.4C717.5,1379.3,712.1,1401.5,712.1,1428.9z"/>
		<path class="st0" d="M718.8,1431.8v-99.5L564.3,1298l-155.1,48l0.6,85.8c0,0,2.3,118.2,23.5,138.1s78.7,73.9,135.7,73.9
			c56.9,0,133.9-86.8,133.9-86.8S718.8,1503.5,718.8,1431.8z"/>
		<g>
			<ellipse class="st15" cx="489.7" cy="1430.1" rx="27.7" ry="27.8"/>
			<ellipse class="st0" cx="489.7" cy="1430.1" rx="18.1" ry="18.2"/>
			<path class="st1" d="M483.7,1421.1L483.7,1421.1c-0.3,0.3-0.4,0.8-0.1,1.1l1.1,1.3c0.3,0.3,0.8,0.4,1.1,0.1l0,0
				c3.4-1.8,7.6-1,10.1,2.2c2.5,3.3,2.2,8.1-0.9,10.9c-3.4,3.1-8.7,2.8-11.6-0.8c-1.5-1.8-2.1-4.1-1.8-6.2h0c0-0.4-0.3-0.8-0.7-0.8
				l-1.7-0.2c-0.4,0-0.8,0.3-0.9,0.7l0,0c-0.4,3.1,0.5,6.4,2.8,9c3.9,4.3,10.6,5,15.2,1.5c5.3-4,6.1-11.5,1.9-16.5
				C494.6,1419.1,488.4,1418.2,483.7,1421.1z"/>
			<path class="st0" d="M527.9,1422.9c0,0-14.1-6.6-27.6-7.8c-13.5-1.2-26.5,3-30.1,4.2c-9.8,3.5-19,11.7-25,12.4
				C423.7,1434,520,1348,527.9,1422.9z"/>
			<path class="st0" d="M457,1444.3c0,0,13.8,8.9,30.5,10.4c15.6,1.4,33.8-4.6,43.1-3.8C549.6,1452.6,451.1,1510.8,457,1444.3z"/>
		</g>
		<g>
			<ellipse class="st15" cx="638.9" cy="1430.1" rx="27.7" ry="27.8"/>
			<ellipse class="st0" cx="638.9" cy="1430.1" rx="18.1" ry="18.2"/>
			<path class="st1" d="M644.9,1421.1L644.9,1421.1c0.3,0.3,0.4,0.8,0.1,1.1l-1.1,1.3c-0.3,0.3-0.8,0.4-1.1,0.1l0,0
				c-3.4-1.8-7.6-1-10.1,2.2c-2.5,3.3-2.2,8.1,0.9,10.9c3.4,3.1,8.7,2.8,11.6-0.8c1.5-1.8,2.1-4.1,1.8-6.2h0c0-0.4,0.3-0.8,0.7-0.8
				l1.7-0.2c0.4,0,0.8,0.3,0.9,0.7l0,0c0.4,3.1-0.5,6.4-2.8,9c-3.9,4.3-10.6,5-15.2,1.5c-5.3-4-6.1-11.5-1.9-16.5
				C633.9,1419.1,640.2,1418.2,644.9,1421.1z"/>
			<path class="st0" d="M600.6,1422.9c0,0,14.1-6.6,27.6-7.8c13.5-1.2,26.5,3,30.1,4.2c9.8,3.5,19,11.7,25,12.4
				C704.9,1434,608.5,1348,600.6,1422.9z"/>
			<path class="st0" d="M671.6,1444.3c0,0-13.8,8.9-30.5,10.4c-15.6,1.4-33.8-4.6-43.1-3.8C578.9,1452.6,677.5,1510.8,671.6,1444.3z
				"/>
		</g>
		<path class="st1" d="M532.6,1394.3c-0.8,15.4-11.3-1.7-43-1.4s-42.5,14.7-43.4,6.3c-0.6-5.5,18.5-16.5,42.3-17.8
			c17.7-1,37-3.5,43.8,1.8C534.8,1385,532.8,1391.5,532.6,1394.3z"/>
		<path class="st1" d="M595.9,1394.3c0.8,15.4,11.3-1.7,43-1.4s42.5,14.7,43.4,6.3c0.6-5.5-18.5-16.5-42.3-17.8
			c-17.7-1-37-3.5-43.8,1.8C593.8,1385,595.8,1391.5,595.9,1394.3z"/>
		<path class="st15" d="M577.2,1427.9c-7.3-29.2-11.3-63.7-11.3-63.7s0-2.3-1.6-2.3s-1.6,2.3-1.6,2.3s-3.9,34.4-11.3,63.7
			c-7.3,29.2-18.1,53.3-11.1,58.2c14,9.9,16.7-1.7,12.1,13c-4.6,14.7-7.2,22.6-7.2,22.6s-1.6,5,17,5c0.4,0,1.3,0,2.2,0
			c0.8,0,1.6,0,1.9,0c18.5,0,17-5,17-5s-2.6-7.9-7.2-22.6c-4.6-14.7-1.8-3.1,12.1-13C595.3,1481.2,584.5,1457.2,577.2,1427.9z"/>
		<path class="st4" d="M271,1470.1c-26.8,5.9-46.9,30-46.9,58.7v56.2c0,28.8,20.1,52.8,46.9,58.7V1516c0-13,5.2-33.1,23.6-45.9H271z
			"/>
		<path class="st6" d="M562.7,1364.2c0,0-3.9,34.4-11.3,63.7c-7.3,29.2-18.1,53.3-11.1,58.2c14,9.9,16.7-1.7,12.1,13
			c-4.6,14.7-7.2,22.6-7.2,22.6s-1.6,5,17,5c0.3,0,1.2,0,2.1,0v-164.9C562.7,1361.9,562.7,1364.2,562.7,1364.2z"/>
		<path class="st1" d="M726.2,1283.5c-0.7-3.5-7.5-10.7-11.6-21.5c-6.2-16.5-25.3-41.6-36.3-52.6c-18.1-18.2-47.3-28.5-59.1-31.5
			c-11.8-3-9.1-5.5-56.3-5.5s-41.7,2.5-53.5,5.5c-11.8,3-41,13.3-59.1,31.5c-10.9,11-30.1,36-36.3,52.6c-4.1,10.8-10.9,18-11.6,21.5
			c-5.2,26.7-1.8,64.3,17.2,56.2c9.2-3.9,36.9,5.6,52,3.4c54.7-8.2,61.5,6,92.5,6c0,0,0,0,0,0s0,0,0,0c31,0.1,37.8-14.2,92.5-6
			c15,2.3,42.8-7.3,52-3.4C728,1347.8,731.4,1310.2,726.2,1283.5z"/>
		<g>
			<path class="st3" d="M721.2,1283.6c-7.2-0.7-13.9,10.3-13.9,10.3s-5-12-12.2-12.6c-7.2-0.6-13.8,10.6-13.8,10.6
				s-5.2-12-12.4-12.4s-13.6,10.8-13.6,10.8s-5.3-11.9-12.5-12.2c-7.2-0.3-13.3,4.6-13.5,11c0,0,0,0,0,0c0.2-6.4-5.5-11.8-12.7-12
				c-7.2-0.2-13.3,11.2-13.3,11.2s-5.6-11.7-12.9-11.8c-7.2-0.1-13.2,11.4-13.2,11.4s-5.8-11.6-13-11.6c-0.1,0-0.1,0-0.2,0
				c-0.1,0-0.1,0-0.2,0c-7.2,0-13,11.6-13,11.6s-5.9-11.5-13.2-11.4c-7.2,0.1-12.9,11.8-12.9,11.8s-6.1-11.4-13.3-11.2
				c-7.2,0.2-12.9,5.6-12.7,12c0,0,0,0,0,0c-0.2-6.4-6.2-11.3-13.5-11c-7.2,0.3-12.5,12.2-12.5,12.2s-6.4-11.2-13.6-10.8
				c-7.2,0.5-12.4,12.4-12.4,12.4s-6.5-11.1-13.8-10.6c-7.2,0.6-12.2,12.6-12.2,12.6s-6.7-11-13.9-10.3s-12.6,6.4-12.1,12.8
				c0.9,10.7,1.4,16,2.3,26.6c0.4,4.7,0.6,7,1,11.6c0.9,10.7,1.4,16,2.3,26.6c0.6,6.4,6.6,10.9,13.5,10.3
				c6.9-0.7,11.6-12.6,11.6-12.6s6.4,11,13.3,10.5c6.9-0.5,11.8-12.5,11.8-12.5s6.3,11.1,13.2,10.7c6.9-0.4,12-12.3,12-12.3
				s6.1,11.2,13,10.9s12.3-5.7,12.1-12.1c0,0,0,0,0,0c0.2,6.4,6,11.3,12.9,11.1c6.9-0.2,12.3-11.9,12.3-11.9s5.8,11.4,12.7,11.3
				c6.9-0.1,12.4-11.7,12.4-11.7s5.7,11.5,12.6,11.5c0,0,0.1,0,0.1,0c0,0,0.1,0,0.1,0c6.9,0,12.6-11.5,12.6-11.5s5.5,11.6,12.4,11.7
				c6.9,0.1,12.7-11.3,12.7-11.3s5.4,11.7,12.3,11.9c6.9,0.2,12.7-4.7,12.9-11.1c0,0,0,0,0,0c-0.2,6.4,5.2,11.8,12.1,12.1
				c6.9,0.3,13-10.9,13-10.9s5.1,11.8,12,12.3c6.9,0.4,13.2-10.7,13.2-10.7s4.9,11.9,11.8,12.5c6.9,0.5,13.3-10.5,13.3-10.5
				s4.7,12,11.6,12.6c6.9,0.7,12.9-3.9,13.5-10.3c0.9-10.7,1.4-16,2.3-26.6c0.4-4.7,0.6-7,1-11.6c0.9-10.7,1.4-16,2.3-26.6
				C733.8,1290.1,728.4,1284.3,721.2,1283.6z"/>
		</g>
		<path class="st1" d="M256.3,1483.6c-12.1,6.2-18.8,17.9-22.3,26.8c-1.2,3-3,11-3.1,13.6c-0.2,4.8-0.4,11.2-0.4,11.2v52.8
			c0,3.4,2.7,6.2,6.1,6.2h0.2c3.4,0,6.1-2.8,6.1-6.2v-60.2c0-0.5,0-1.1,0-1.6C243,1492.3,277.6,1472.7,256.3,1483.6z"/>
		<path class="st1" d="M872.3,1483.6c12.1,6.2,18.8,17.9,22.3,26.8c1.2,3,3,11,3.1,13.6c0.2,4.8,0.4,11.2,0.4,11.2v52.8
			c0,3.4-2.7,6.2-6.1,6.2h-0.2c-3.4,0-6.1-2.8-6.1-6.2v-60.2c0-0.5,0-1.1,0-1.6C885.6,1492.3,851,1472.7,872.3,1483.6z"/>
		<path class="st1" d="M719.4,1450c0,0-6.3,15.8-9.2,29.2c-4.6,20.9-6.6,33.6-7.5,40.5c-4.2,14.7-7.3,26.4-12.7,31.3
			c-15.3,14.1-27.9,12.3-32.8,9.4c-3.6-2.1-3.2-9.4-16.3-21.6c-14.8-13.9-24.5-26.2-39.6-26.2c-9.4-0.2-28.4,4.7-37.2,4.7
			c-0.1,0-0.2,0-0.3,0c-0.1,0-0.2,0-0.3,0c-8.8,0-27.7-4.9-37.2-4.7c-15.1,0-24.8,12.4-39.6,26.2c-13,12.2-12.7,19.5-16.3,21.6
			c-4.9,2.9-17.5,4.7-32.8-9.4c-5.4-5-8.5-16.6-12.7-31.3c-0.9-6.9-2.9-19.6-7.5-40.5c-2.9-13.3-9.2-29.2-9.2-29.2
			c0,0.7,0,1.2,0,1.4c0,2,0.1,5.6,0.3,10.3c0.1,3.2,0.2,6.2,0.4,9.1c1.2,25.1,3.5,64,4.1,68c4.8,36,21.3,59.2,34.1,81.7
			c10.2,18,22.2,31.4,34.5,39.5c9.1,6,44.4,20,81.8,20c0.1,0,0.2,0,0.3,0c0.1,0,0.2,0,0.3,0c37.4,0,72.7-14,81.8-20
			c12.3-8.1,24.3-21.5,34.5-39.5c12.7-22.5,29.2-45.7,34.1-81.7c0.5-4,2.9-43,4.1-68c0.2-2.9,0.3-5.9,0.4-9.1
			c0.2-4.7,0.3-8.3,0.3-10.3C719.4,1451.2,719.4,1450.7,719.4,1450z"/>
		<path class="st0" d="M624.6,1582.1c-0.8-3.8-21.8-13.7-34-16c-8.9-1.7-14.6,0.9-26.3,0.9c-11.7,0-20.8-2.2-31.3,0
			c-8.9,1.8-28.2,11.3-29,15.1c-0.3,1.6,1.4,3.6,3.4,5.2c2.1,1.8,13.2,11.3,24.6,16.2c7.8,3.4,18.3,6.2,32.3,6.6
			c13.9-0.4,24.4-3.2,32.3-6.6c11.4-4.9,22.5-14.4,24.6-16.2C623.1,1585.7,624.9,1583.7,624.6,1582.1z"/>
		<path class="st0" d="M577.9,1490.6l-13.9-0.2l-13.9,0.2c0,0-11.3,15.5-2.6,24.5c0,0,3.8-4.5,7.5-9.4c2.8-3.6,4.7-8,9-8
			c4.3,0,6.3,4.4,9,8c3.7,4.9,7.5,9.4,7.5,9.4C589.3,1506.1,577.9,1490.6,577.9,1490.6z"/>
		<path class="st1" d="M323.6,1995l6-19.6c8.9-2.5,15.2-10.8,14.8-20.5c0,0,0,0,0,0l-0.5-12.7c4.5-3.3,10.6-4.3,16.5-2.3h0
			c9.6,3.1,14.9,13.4,11.8,23.1l-15.3,48c-2.9,21.5-8.4,46.3-18,51.8c-17.8,10.2-38.5-42.9-38.5-42.9S306.7,2007.1,323.6,1995z"/>
		<path class="st1" d="M331.4,1979.8c0,0-2.2,5.2-2.2,13.6c0,8.4-6.9,0.2-6.9,0C322.3,1993.2,331.4,1970.1,331.4,1979.8z"/>
		<path class="st5" d="M279.2,2096c4.8,50.3,66.7,60.2,61.2-24.3c-1-15.2-1.7-25.5-1.9-28.5c-1.9-25.3-2.9-52.6-3.3-80.5
			C334.2,1882.3,268.6,1984.9,279.2,2096z"/>
		<path class="st1" d="M266.9,1975.5c0.3,0.1,0.5,0.1,0.8,0.1c1.2,0.2,2.4,0.3,3.7,0.2c0,0,0.1,0,0.1,0h0l18.8-0.8l28.9-1.2h0
			c0,0,0.1,0,0.1,0c1.3-0.1,2.5-0.2,3.7-0.5c0.3-0.1,0.5-0.1,0.8-0.2c8.9-2.5,15.3-10.8,14.9-20.5c0,0,0,0,0,0l-1.9-46.1
			c0,0,0,0,0,0c-0.1-1.4-0.3-2.8-0.6-4.1c-2.1-8.6-9.6-14.9-18.5-15.4c-0.7,0-1.4,0-2.1,0h0l-28.9,1.2l-18.8,0.8h0
			c-0.7,0-1.4,0.1-2.1,0.2C257.1,1890.4,257.9,1973.8,266.9,1975.5z"/>
		<path class="st1" d="M332.6,2000.3"/>
		<path class="st1" d="M332.1,1669.9c-23.4,0.4-59.8,5-69.3,28.5c-3.9,9.5-17.5,63.5-17.2,120c0.3,75.1,16.4,166.5,27,277.5
			c4.8,50.3,49.6,71.7,49.6,134.7c0.1,38.2,10.6,44.7,15,69.7c4.8,27.1,9.3,80.9,9.3,80.9c8.5,14.1-13.2-318.6-14.7-338.2
			c-7.3-98.1-1.9-227.8,5.9-295.4c1.9-16.4,4-34.9,8.5-45.9c7.5-18.3,17.6-24.1,16.1-25.4C354.9,1670.1,337.9,1669.8,332.1,1669.9z"
			/>
		<path class="st5" d="M320.2,1681.2c-20.7,0.4-52.8,5-61.2,28.5c-3.4,9.5-15.4,63.5-15.2,120c0.3,75.1,14.5,166.5,23.9,277.5
			c3.1,36.9,22.7,62.6,32.7,109.9c1.4,6.8,17.9,8.9,17.9,39c0,16.7,9.2,16.2,11.6,31.2c7.7,49.5,16.6,102.1,16.7,93.9
			c0.6-62.3-25.4-310.1-26.5-326.9c-6.4-98.1-1.7-227.8,5.2-295.4c1.7-16.4,3.6-34.9,7.5-45.9c6.6-18.3,10.3-25.9,8.9-27.2
			C335.1,1679.6,325.4,1681.1,320.2,1681.2z"/>
		<path class="st1" d="M221.3,2049.4c2.5-2.5,3.3-5,4.8-6.8c4.4-5.3,6-7.4,9.5-9.3c6.7-3.7,15.5-7,18.5-9.9c4.4-4.2,5-11.4,11.8-14
			c3.4,29.1,6.9,59.5,9.9,91.3c2,20.8,5.5,44.7,9.9,70.1c-19.8-24.8-28.7-62.3-26.5-93.6C248.7,2065.4,211.1,2059.3,221.3,2049.4z"
			/>
		<path class="st0" d="M252.2,1955c0.3,8.4,6.4,15.1,14.3,16.6c0.2,0,0.5,0.1,0.7,0.1c1,0.2,2.1,0.2,3.2,0.2c0,0,0.1,0,0.1,0h0
			l16.3-0.7l25-1h0c0,0,0.1,0,0.1,0c1.1-0.1,2.1-0.2,3.2-0.4c0.2-0.1,0.5-0.1,0.7-0.2c7.7-2.1,13.2-9.4,12.9-17.8c0,0,0,0,0,0
			l-1.6-40c0,0,0,0,0,0c0-1.2-0.2-2.4-0.5-3.5c-1.8-7.4-8.3-12.9-16-13.4c-0.6,0-1.2,0-1.8,0h0l-25,1l-16.3,0.7h0
			c-0.6,0-1.2,0.1-1.8,0.2c-7.6,1.1-13.6,7.1-14.8,14.6c-0.2,1.2-0.3,2.4-0.2,3.6c0,0,0,0,0,0L252.2,1955
			C252.2,1955,252.2,1955,252.2,1955z"/>
		<path class="st0" d="M249.7,1956.5c0.4,9,6.9,16.2,15.3,17.8c0.3,0,0.5,0.1,0.8,0.1c1.1,0.2,2.3,0.2,3.4,0.2c0,0,0.1,0,0.1,0h0
			l17.4-0.7l26.7-1.1h0c0,0,0.1,0,0.1,0c1.2-0.1,2.3-0.2,3.4-0.5c0.2-0.1,0.5-0.1,0.7-0.2c8.2-2.3,14.1-10,13.8-19c0,0,0,0,0,0
			l-1.7-42.7c0,0,0,0,0,0c-0.1-1.3-0.2-2.6-0.5-3.8c-2-7.9-8.8-13.8-17.1-14.3c-0.6,0-1.3,0-1.9,0h0l-26.7,1.1l-17.4,0.7l0,0
			c-0.6,0-1.3,0.1-1.9,0.2c-8.2,1.2-14.6,7.6-15.9,15.7c-0.2,1.2-0.3,2.5-0.2,3.8c0,0,0,0,0,0L249.7,1956.5
			C249.7,1956.5,249.7,1956.5,249.7,1956.5z M257,1917.3c-0.2-3.9,1.4-7.5,3.9-10.1c2.4-2.8,5.8-4.6,9.7-4.7l13.1-0.5l22.4-0.9
			c3.9-0.2,7.5,1.4,10,3.9c2.7,2.4,4.5,5.8,4.7,9.7l1.4,34.9c0.2,3.9-1.4,7.5-3.9,10.1c-2.4,2.8-5.8,4.6-9.7,4.7l-22.4,0.9
			l-13.1,0.5c-3.9,0.2-7.5-1.4-10-3.9c-2.7-2.4-4.5-5.8-4.7-9.7L257,1917.3z"/>
		<path class="st1" d="M257.1,1952.2c0.3,7.3,5.6,13.2,12.4,14.5c0.2,0,0.4,0.1,0.6,0.1c0.9,0.1,1.8,0.2,2.8,0.2c0,0,0.1,0,0.1,0h0
			l14.2-0.6l21.8-0.9h0c0,0,0.1,0,0.1,0c0.9,0,1.9-0.2,2.8-0.4c0.2,0,0.4-0.1,0.6-0.2c6.7-1.9,11.5-8.2,11.2-15.5c0,0,0,0,0,0
			l-1.4-34.8c0,0,0,0,0,0c0-1.1-0.2-2.1-0.4-3.1c-1.6-6.5-7.2-11.2-13.9-11.6c-0.5,0-1,0-1.6,0h0l-21.8,0.9l-14.2,0.6h0
			c-0.5,0-1,0.1-1.6,0.1c-6.7,1-11.9,6.2-12.9,12.8c-0.2,1-0.2,2.1-0.2,3.1c0,0,0,0,0,0L257.1,1952.2
			C257.1,1952.2,257.1,1952.2,257.1,1952.2z M263,1920.3c-0.1-3.2,1.1-6.1,3.2-8.2c1.9-2.2,4.7-3.7,7.9-3.8l10.7-0.4l18.3-0.8
			c3.2-0.1,6.1,1.1,8.2,3.2c2.2,1.9,3.7,4.7,3.8,7.9l1.2,28.5c0.1,3.2-1.1,6.1-3.2,8.2c-1.9,2.2-4.7,3.7-7.9,3.8l-18.3,0.8
			l-10.7,0.4c-3.2,0.1-6.1-1.1-8.2-3.2c-2.2-1.9-3.7-4.7-3.8-7.9L263,1920.3z"/>
		<path class="st1" d="M269.4,1945.1c0.2,4.5,3.5,8.2,7.7,9c0.1,0,0.3,0,0.4,0.1c0.6,0.1,1.1,0.1,1.7,0.1c0,0,0,0,0,0h0l8.8-0.4
			l13.5-0.6h0c0,0,0,0,0,0c0.6,0,1.2-0.1,1.7-0.2c0.1,0,0.3-0.1,0.4-0.1c4.2-1.2,7.2-5.1,7-9.6c0,0,0,0,0,0l-0.9-21.6c0,0,0,0,0,0
			c0-0.7-0.1-1.3-0.3-1.9c-1-4-4.5-7-8.6-7.2c-0.3,0-0.6,0-1,0h0l-13.5,0.6l-8.8,0.4h0c-0.3,0-0.7,0-1,0.1c-4.1,0.6-7.4,3.8-8,7.9
			c-0.1,0.6-0.1,1.3-0.1,1.9c0,0,0,0,0,0L269.4,1945.1C269.4,1945.1,269.4,1945.1,269.4,1945.1z M273.1,1925.3c-0.1-2,0.7-3.8,2-5.1
			c1.2-1.4,2.9-2.3,4.9-2.4l6.6-0.3l11.3-0.5c2-0.1,3.8,0.7,5.1,2c1.4,1.2,2.3,2.9,2.4,4.9l0.7,17.7c0.1,2-0.7,3.8-2,5.1
			c-1.2,1.4-2.9,2.3-4.9,2.4l-11.3,0.5l-6.6,0.3c-2,0.1-3.8-0.7-5.1-2c-1.4-1.2-2.3-2.9-2.4-4.9L273.1,1925.3z"/>
		<path class="st1" d="M284.5,1949.7l2.2-0.1l7.1-0.3l2.2-0.1l-0.5-12.5l0,0c0-0.5,0.5-7-6-6.7c-6.4,0.2-5.5,6.7-5.5,7.2l0,0
			L284.5,1949.7z"/>
		<path class="st1" d="M213.7,2065.7c-4.6-10.8,10.3-21.5,10.3-21.5h0c3.1-3.3,7.4-5.7,12.2-6.4c0,0,20.8,3.3,32.5,5
			c5.4,0.8,13.8,1.9,19.7,5.2c6.9,3.8,10.6,11.1,11.1,13.5c1.5,7.7-1.3,16.5-3,18.4c-6.1,6.6-5.9,7.3-10.7,8
			c4.2-0.6,15.9,9.4,15.9,22.7c0,13.2-14.9,17.9-9.3,19.2c3.4,0.3,12.5,3.5,15.4,9.9c2.8,6.1,5,14.9,1.8,21.2
			c-2.7,5.3-7.9,7.8-11.3,8.3c1.8-0.3,6.6-0.2,11,4.4c5,5.2,6.8,14.3,5.7,20.6c-0.8,4.8-3.6,8.2-6.7,12.1s-13.6,6.1-17.3,5.6
			c-7.5-0.9-20.2-2.4-27.9-3.7c-11.5-1.9-16.3-3.8-20.9-8.8c0,0,0,0,0,0c-5.4-5.4-5.6-6.1-9-14c-2.7-6.3,1.2-12.5,4.9-16.6
			c-0.1-0.3-0.2-0.6-0.2-1.1c0-6.9-9.2-9.7-13.8-20.6c-3.7-8.8,5.3-17.4,8.8-20.4c-1.2-5.9-9.4-9.1-13.7-19.1
			c-3.6-8.5,4.8-17,8.6-20.2c-0.1-0.3-0.2-0.6-0.2-1.1C227.5,2079.4,218.3,2076.6,213.7,2065.7z"/>
		<path class="st0" d="M242,2078.2l33.3,4.2c8,1,15.2-4.7,16.2-12.7l0,0c1-8-4.7-15.3-12.6-16.3l-33.3-4.2c-8-1-26.6-0.5-26.6,11.4
			S234,2077.3,242,2078.2z"/>
		<path class="st0" d="M242,2119.2l33.3,4.2c8,1,15.2-4.7,16.2-12.7l0,0c1-8-4.7-15.3-12.6-16.3l-33.3-4.2
			c-2.7-0.3-13.2-0.4-18.3,4.4c-1.8,1.7-2.5,4.7-2.6,7.4c-0.2,2.7,2.7,9.2,4.5,10.8C232.8,2116.2,237.8,2118.7,242,2119.2z"/>
		<path class="st0" d="M253.1,2162.2l33.3,4.2c8,1,15.2-4.7,16.2-12.7l0,0c1-8-4.7-15.3-12.6-16.3l-33.3-4.2
			c-5.4-0.7-14.5-0.3-20.1,2.5c-1.4,0.7-4.4,2.6-5.6,5.2c-1,2.3-0.5,5.4,0.8,7c1.4,1.7,5.5,6.8,7.7,8.6
			C244.7,2160.9,249.5,2161.8,253.1,2162.2z"/>
		<path class="st0" d="M258.2,2199.4l33.3,4.2c8,1,15.2-4.7,16.2-12.7l0,0c1-8-4.7-15.3-12.6-16.3l-33.3-4.2
			c-8-1-25.1,1.2-25.1,11.3c0,3.1,3.6,5.2,5.6,7.5C246.7,2194.7,252.6,2198.7,258.2,2199.4z"/>
		<path class="st1" d="M789.2,2000.3"/>
		<path class="st1" d="M807.7,1995l-6-19.6c-8.9-2.5-15.2-10.8-14.8-20.5c0,0,0,0,0,0l0.5-12.7c-4.5-3.3-10.6-4.3-16.5-2.3h0
			c-9.6,3.1-14.9,13.4-11.8,23.1l15.3,48c2.9,21.5,8.4,46.3,18,51.8c17.8,10.2,38.5-42.9,38.5-42.9S824.6,2007.1,807.7,1995z"/>
		<path class="st1" d="M800,1979.8c0,0,2.2,5.2,2.2,13.6c0,8.4,6.9,0.2,6.9,0C809,1993.2,800,1970.1,800,1979.8z"/>
		<path class="st5" d="M852.1,2096c-4.8,50.3-66.7,60.2-61.2-24.3c1-15.2,1.7-25.5,1.9-28.5c1.9-25.3,2.9-52.6,3.3-80.5
			C797.1,1882.3,862.8,1984.9,852.1,2096z"/>
		<path class="st1" d="M865.4,1889.1c-0.7-0.1-1.4-0.2-2.1-0.2h0l-18.8-0.8l-28.9-1.2h0c-0.7,0-1.4,0-2.1,0
			c-8.9,0.5-16.3,6.9-18.5,15.4c-0.3,1.3-0.5,2.7-0.6,4.1c0,0,0,0,0,0l-1.9,46.1c0,0,0,0,0,0c-0.4,9.7,6,18,14.9,20.5
			c0.3,0.1,0.5,0.1,0.8,0.2c1.2,0.3,2.4,0.5,3.7,0.5c0,0,0.1,0,0.1,0h0l28.9,1.2l18.8,0.8h0c0,0,0.1,0,0.1,0c1.3,0,2.5,0,3.7-0.2
			c0.3,0,0.5-0.1,0.8-0.1C873.5,1973.8,874.2,1890.4,865.4,1889.1z"/>
		<path class="st1" d="M798.8,2000.3"/>
		<path class="st1" d="M799.2,1669.9c23.4,0.4,59.8,5,69.3,28.5c3.9,9.5,17.5,63.5,17.2,120c-0.3,75.1-16.4,166.5-27,277.5
			c-4.8,50.3-49.6,71.7-49.6,134.7c-0.1,38.2-10.6,44.7-15,69.7c-4.8,27.1-9.3,80.9-9.3,80.9c-8.5,14.1,13.2-318.6,14.7-338.2
			c7.3-98.1,1.9-227.8-5.9-295.4c-1.9-16.4-4-34.9-8.5-45.9c-7.5-18.3-17.6-24.1-16.1-25.4C776.4,1670.1,793.4,1669.8,799.2,1669.9z
			"/>
		<path class="st5" d="M811.1,1681.2c20.7,0.4,52.8,5,61.2,28.5c3.4,9.5,15.4,63.5,15.2,120c-0.3,75.1-14.5,166.5-23.9,277.5
			c-3.1,36.9-22.7,62.6-32.7,109.9c-1.4,6.8-17.9,8.9-17.9,39c0,16.7-9.2,16.2-11.6,31.2c-7.7,49.5-16.6,102.1-16.7,93.9
			c-0.6-62.3,25.4-310.1,26.5-326.9c6.4-98.1,1.7-227.8-5.2-295.4c-1.7-16.4-3.6-34.9-7.5-45.9c-6.6-18.3-10.3-25.9-8.9-27.2
			C796.2,1679.6,806,1681.1,811.1,1681.2z"/>
		<path class="st1" d="M910,2049.4c-2.5-2.5-3.3-5-4.8-6.8c-4.4-5.3-6-7.4-9.5-9.3c-6.7-3.7-15.5-7-18.5-9.9
			c-4.4-4.2-5-11.4-11.8-14c-3.4,29.1-6.9,59.5-9.9,91.3c-2,20.8-5.5,44.7-9.9,70.1c19.8-24.8,28.7-62.3,26.5-93.6
			C882.6,2065.4,920.2,2059.3,910,2049.4z"/>
		<g>
			<path class="st0" d="M879.1,1955l1.6-40c0,0,0,0,0,0c0-1.2,0-2.4-0.2-3.6c-1.2-7.5-7.2-13.5-14.8-14.6c-0.6-0.1-1.2-0.1-1.8-0.2
				h0l-16.3-0.7l-25-1h0c-0.6,0-1.2,0-1.8,0c-7.7,0.5-14.2,6-16,13.4c-0.3,1.1-0.5,2.3-0.5,3.5c0,0,0,0,0,0l-1.6,40c0,0,0,0,0,0
				c-0.3,8.4,5.2,15.6,12.9,17.8c0.2,0.1,0.5,0.1,0.7,0.2c1,0.2,2.1,0.4,3.2,0.4c0,0,0.1,0,0.1,0h0l25,1l16.3,0.7h0c0,0,0.1,0,0.1,0
				c1.1,0,2.2,0,3.2-0.2c0.2,0,0.5-0.1,0.7-0.1C872.7,1970.2,878.8,1963.4,879.1,1955C879.1,1955,879.1,1955,879.1,1955z"/>
			<path class="st0" d="M881.7,1956.5l1.7-42.7c0,0,0,0,0,0c0.1-1.3,0-2.6-0.2-3.8c-1.3-8.1-7.7-14.5-15.9-15.7
				c-0.6-0.1-1.3-0.2-1.9-0.2l0,0l-17.4-0.7l-26.7-1.1h0c-0.6,0-1.3,0-1.9,0c-8.2,0.5-15.1,6.4-17.1,14.3c-0.3,1.2-0.5,2.5-0.5,3.8
				c0,0,0,0,0,0l-1.7,42.7c0,0,0,0,0,0c-0.4,9,5.5,16.7,13.8,19c0.2,0.1,0.5,0.1,0.7,0.2c1.1,0.3,2.2,0.4,3.4,0.5c0,0,0.1,0,0.1,0h0
				l26.7,1.1l17.4,0.7h0c0,0,0.1,0,0.1,0c1.2,0,2.3,0,3.4-0.2c0.3,0,0.5-0.1,0.8-0.1C874.8,1972.7,881.3,1965.5,881.7,1956.5
				C881.7,1956.5,881.7,1956.5,881.7,1956.5z M872.9,1952.3c-0.2,3.9-2,7.4-4.7,9.7c-2.6,2.5-6.1,4.1-10,3.9l-13.1-0.5l-22.4-0.9
				c-3.9-0.2-7.3-2-9.7-4.7c-2.5-2.6-4-6.2-3.9-10.1l1.4-34.9c0.2-3.9,2-7.4,4.7-9.7c2.6-2.5,6.1-4.1,10-3.9l22.4,0.9l13.1,0.5
				c3.9,0.2,7.3,2,9.7,4.7c2.5,2.6,4,6.2,3.9,10.1L872.9,1952.3z"/>
			<path class="st1" d="M874.3,1952.2l1.4-34.8c0,0,0,0,0,0c0-1.1,0-2.1-0.2-3.1c-1.1-6.6-6.3-11.8-12.9-12.8
				c-0.5-0.1-1-0.1-1.6-0.1h0l-14.2-0.6l-21.8-0.9l0,0c-0.5,0-1.1,0-1.6,0c-6.7,0.4-12.3,5.2-13.9,11.6c-0.2,1-0.4,2-0.4,3.1
				c0,0,0,0,0,0l-1.4,34.8c0,0,0,0,0,0c-0.3,7.3,4.5,13.6,11.2,15.5c0.2,0.1,0.4,0.1,0.6,0.2c0.9,0.2,1.8,0.3,2.8,0.4
				c0,0,0.1,0,0.1,0h0l21.8,0.9l14.2,0.6l0,0c0,0,0.1,0,0.1,0c0.9,0,1.9,0,2.8-0.2c0.2,0,0.4-0.1,0.6-0.1
				C868.7,1965.4,874,1959.5,874.3,1952.2C874.3,1952.2,874.3,1952.2,874.3,1952.2z M867.1,1948.8c-0.1,3.2-1.6,6-3.8,7.9
				c-2.1,2.1-5,3.3-8.2,3.2l-10.7-0.4l-18.3-0.8c-3.2-0.1-6-1.6-7.9-3.8c-2.1-2.1-3.3-5-3.2-8.2l1.2-28.5c0.1-3.2,1.6-6,3.8-7.9
				c2.1-2.1,5-3.3,8.2-3.2l18.3,0.8l10.7,0.4c3.2,0.1,6,1.6,7.9,3.8c2.1,2.1,3.3,5,3.2,8.2L867.1,1948.8z"/>
			<path class="st1" d="M861.9,1945.1l0.9-21.6c0,0,0,0,0,0c0-0.7,0-1.3-0.1-1.9c-0.7-4.1-3.9-7.3-8-7.9c-0.3,0-0.6-0.1-1-0.1l0,0
				l-8.8-0.4l-13.5-0.6h0c-0.3,0-0.7,0-1,0c-4.2,0.3-7.7,3.2-8.6,7.2c-0.2,0.6-0.2,1.3-0.3,1.9c0,0,0,0,0,0l-0.9,21.6c0,0,0,0,0,0
				c-0.2,4.5,2.8,8.4,7,9.6c0.1,0,0.2,0.1,0.4,0.1c0.6,0.1,1.1,0.2,1.7,0.2c0,0,0,0,0,0l0,0l13.5,0.6l8.8,0.4l0,0c0,0,0,0,0,0
				c0.6,0,1.2,0,1.7-0.1c0.1,0,0.3,0,0.4-0.1C858.5,1953.3,861.7,1949.7,861.9,1945.1C861.9,1945.1,861.9,1945.1,861.9,1945.1z
				 M857.5,1943c-0.1,2-1,3.7-2.4,4.9c-1.3,1.3-3.1,2.1-5.1,2l-6.6-0.3l-11.3-0.5c-2-0.1-3.7-1-4.9-2.4c-1.3-1.3-2-3.1-2-5.1
				l0.7-17.7c0.1-2,1-3.7,2.4-4.9c1.3-1.3,3.1-2.1,5.1-2l11.3,0.5l6.6,0.3c2,0.1,3.7,1,4.9,2.4c1.3,1.3,2,3.1,2,5.1L857.5,1943z"/>
			<path class="st1" d="M846.8,1949.7l-2.2-0.1l-7.1-0.3l-2.2-0.1l0.5-12.5v0c0-0.5-0.5-7,6-6.7c6.4,0.2,5.5,6.7,5.5,7.2l0,0
				L846.8,1949.7z"/>
		</g>
		<path class="st1" d="M917.6,2065.7c4.6-10.8-10.3-21.5-10.3-21.5h0c-3.1-3.3-7.4-5.7-12.2-6.4c0,0-20.8,3.3-32.5,5
			c-5.4,0.8-13.8,1.9-19.7,5.2c-6.9,3.8-10.6,11.1-11.1,13.5c-1.5,7.7,1.3,16.5,3,18.4c6.1,6.6,5.9,7.3,10.7,8
			c-4.2-0.6-15.9,9.4-15.9,22.7c0,13.2,14.9,17.9,9.3,19.2c-3.4,0.3-12.5,3.5-15.4,9.9c-2.8,6.1-5,14.9-1.8,21.2
			c2.7,5.3,7.9,7.8,11.3,8.3c-1.8-0.3-6.6-0.2-11,4.4c-5,5.2-6.8,14.3-5.7,20.6c0.8,4.8,3.6,8.2,6.7,12.1s13.6,6.1,17.3,5.6
			c7.5-0.9,20.2-2.4,27.9-3.7c11.5-1.9,16.3-3.8,20.9-8.8c0,0,0,0,0,0c5.4-5.4,5.6-6.1,9-14c2.7-6.3-1.2-12.5-4.9-16.6
			c0.1-0.3,0.2-0.6,0.2-1.1c0-6.9,9.2-9.7,13.8-20.6c3.7-8.8-5.3-17.4-8.8-20.4c1.2-5.9,9.4-9.1,13.7-19.1c3.6-8.5-4.8-17-8.6-20.2
			c0.1-0.3,0.2-0.6,0.2-1.1C903.8,2079.4,913,2076.6,917.6,2065.7z"/>
		<path class="st0" d="M889.4,2078.2l-33.3,4.2c-8,1-15.2-4.7-16.2-12.7l0,0c-1-8,4.7-15.3,12.6-16.3l33.3-4.2
			c8-1,26.6-0.5,26.6,11.4S897.3,2077.3,889.4,2078.2z"/>
		<path class="st0" d="M889.4,2119.2l-33.3,4.2c-8,1-15.2-4.7-16.2-12.7l0,0c-1-8,4.7-15.3,12.6-16.3l33.3-4.2
			c2.7-0.3,13.2-0.4,18.3,4.4c1.8,1.7,2.5,4.7,2.6,7.4c0.2,2.7-2.7,9.2-4.5,10.8C898.5,2116.2,893.5,2118.7,889.4,2119.2z"/>
		<path class="st0" d="M878.2,2162.2l-33.3,4.2c-8,1-15.2-4.7-16.2-12.7l0,0c-1-8,4.7-15.3,12.6-16.3l33.3-4.2
			c5.4-0.7,14.5-0.3,20.1,2.5c1.4,0.7,4.4,2.6,5.6,5.2c1,2.3,0.5,5.4-0.8,7c-1.4,1.7-5.5,6.8-7.7,8.6
			C886.6,2160.9,881.8,2161.8,878.2,2162.2z"/>
		<path class="st0" d="M873.1,2199.4l-33.3,4.2c-8,1-15.2-4.7-16.2-12.7l0,0c-1-8,4.7-15.3,12.6-16.3l33.3-4.2
			c8-1,25.1,1.2,25.1,11.3c0,3.1-3.6,5.2-5.6,7.5C884.6,2194.7,878.7,2198.7,873.1,2199.4z"/>
		<path class="st0" d="M777,2220.9c3.6-82.9,7.2-138.3,7.2-138.3s-8.3-16.1-15.5-41.8c-2.9-10.5-3.7-26.6-6.7-37.6
			c-4.2-15.5-12.6-25.2-12.6-39.4c0-48.7,34.7-48.7,34.7-48.7s2.9-46.8,2.9-89.5c0-24.1-6.5-94.8-11.1-112.1
			c-0.1-0.4-0.2-0.9-0.5-1.6c-0.7-2.2-1.6-4.2-2.4-6.1c-1-2.3-2.1-5-3.4-7.7l0,0c0,0-6.9-13.6-14.9-19.4h-9c-2.3,0-4.3,1.1-5.5,2.9
			c-1.3-1.7-3.3-2.9-5.6-2.9h-10.1c-3.9,0-7,3.1-7,7c0-3.9-3.1-7-7-7h-10.1c-3.9,0-7,3.1-7,7c0-3.9-3.1-7-7-7h-10.1
			c-3.9,0-7,3.1-7,7v0.9c-0.3-0.2-0.5-0.5-0.8-0.7c-2.9-2.6-7.7-1.9-10.9,1.3c-3.6,3.5-5.4,5.1-9.2,8.2c-3.5,2.8-4.6,7.4-2.4,10.6
			c-2.2-3.2-6.9-3.6-10.7-1.3c-4.1,2.5-6.2,3.7-10.4,5.9c-3.9,2-5.8,6.2-4.3,9.8c-1.5-3.6-6-5-10-3.6c-4.4,1.6-6.7,2.3-11.2,3.5
			c-4.1,1.1-6.9,4.8-6.1,8.6c-0.8-3.8-4.8-6.2-9-5.6c-4.6,0.7-6.9,0.9-11.6,1.2c-3.4,0.2-6.2,2.2-7.2,5l-0.2,2.4v-2.4
			c-1-2.8-3.9-4.8-7.2-5c-4.6-0.3-6.9-0.5-11.6-1.2c-4.2-0.6-8.2,1.8-9,5.6c0.8-3.8-2-7.6-6.1-8.6c-4.5-1.2-6.8-1.9-11.2-3.5
			c-4-1.5-8.5,0-10,3.6c1.5-3.6-0.4-7.8-4.3-9.8c-4.2-2.1-6.3-3.3-10.4-5.9c-3.7-2.3-8.4-1.9-10.7,1.3c2.2-3.2,1.1-7.8-2.4-10.6
			c-3.8-3.1-5.7-4.7-9.2-8.2c-3.3-3.2-8.1-3.9-10.9-1.3c-0.3,0.3-0.5,0.5-0.8,0.7v-0.9c0-3.9-3.1-7-7-7h-10.1c-3.9,0-7,3.1-7,7
			c0-3.9-3.1-7-7-7h-10.1c-3.9,0-7,3.1-7,7c0-3.9-3.1-7-7-7h-10.1c-2.3,0-4.3,1.1-5.6,2.9c-1.2-1.7-3.2-2.9-5.5-2.9h-9
			c-8.1,5.8-14.9,19.4-14.9,19.4l0,0c-1.3,2.7-2.4,5.4-3.4,7.7c-0.9,1.9-1.7,3.9-2.4,6.1c-0.3,0.7-0.4,1.2-0.5,1.6
			c-4.6,17.3-11.1,88-11.1,112.1c0,42.7,2.9,89.5,2.9,89.5s34.7,0,34.7,48.7c0,14.1-8.4,23.9-12.6,39.4c-2.9,11-3.7,27.1-6.7,37.6
			c-7.1,25.6-15.5,41.8-15.5,41.8s3.6,55.4,7.2,138.3c0,23.9-10.1,27-10.1,27.9c3.3,81.3,17.6,183.2,17.6,187.2h407.8
			c0-4,14.3-105.9,17.6-187.2C787.2,2247.9,777,2244.7,777,2220.9z"/>
		<g>
			<path class="st4" d="M539.1,1395.4c-4.9-2.5-11.7-3.7-18.7-5c-16-3.2-35.7-3.4-49.2-3.2c-5.8,0.1-27.8,2-35.5,4.1
				c-9.4,2.5-18.4,5.2-27.5,5.2c-3.7,0-3.7,4-3.7,8.8c0,4.7,1.5,12.4,3.7,12.4c2.2,0,11.4,2,11.4,7.1c0,11.4,4.2,60.6,48.8,60.6
				c44.7,0,66.5-2,76.9-31.3c10.4-29.3,8.3-29.3,15.6-29.3h3.5v-20.2c-2,0-7.9-0.2-13.8-1C548.9,1403.2,545.4,1398.6,539.1,1395.4z
				 M541.1,1452.6c-9.6,27.1-29.9,29-71.3,29c-41.4,0-45.3-45.6-45.3-56.2c0-2.9-0.3-11.1,0.7-17.1c0.6-3.6,6.3-7.5,8.8-7.9
				c4.7-0.9,26.7-4.4,46.9-5.1c18.1-0.6,34.7,1.7,36.4,2c6,1.2,12,3.9,16.4,6.1c2.5,1.3,9.6,10.3,10.5,14.1
				C546.2,1426.1,545.2,1441,541.1,1452.6z"/>
			<path class="st4" d="M720.7,1396.4c-9.1,0-18.1-2.7-27.5-5.2c-7.7-2-29.8-4-35.5-4.1c-13.5-0.2-33.1,0.1-49.2,3.2
				c-7,1.4-13.8,2.5-18.7,5c-6.2,3.2-9.8,7.8-11.4,8.1c-5.9,0.8-11.9,1-13.8,1v20.2h3.5c7.3,0,5.2,0,15.6,29.3
				c10.4,29.3,32.2,31.3,76.9,31.3c44.7,0,48.8-49.2,48.8-60.6c0-5,9.3-7.1,11.4-7.1s3.7-7.7,3.7-12.4
				C724.3,1400.4,724.3,1396.4,720.7,1396.4z M704.3,1425.5c0,10.6-3.9,56.2-45.3,56.2c-41.4,0-61.6-1.9-71.3-29
				c-4.1-11.7-5.1-26.6-3.1-35c0.9-3.9,8-12.8,10.5-14.1c4.3-2.2,10.4-4.9,16.4-6.1c1.7-0.3,18.3-2.6,36.4-2
				c20.2,0.6,42.2,4.2,46.9,5.1c2.5,0.5,8.1,4.3,8.8,7.9C704.6,1414.4,704.3,1422.6,704.3,1425.5z"/>
		</g>
	</g>
</g>
</svg>
