<?xml version="1.0" encoding="utf-8"?>
<!-- Generator: Adobe Illustrator 22.0.1, SVG Export Plug-In . SVG Version: 6.00 Build 0)  -->
<svg version="1.1" id="Layer_1" xmlns="http://www.w3.org/2000/svg" xmlns:xlink="http://www.w3.org/1999/xlink" x="0px" y="0px"
	 viewBox="0 0 1119.5 2436.4" style="enable-background:new 0 0 1119.5 2436.4;" xml:space="preserve">
<style type="text/css">
	.st0{fill:#003D58;}
	.st1{fill:#E8624D;}
	.st2{fill:none;}
	.st3{fill:#C44E41;}
	.st4{fill:#01232D;}
	.st5{fill:#012E35;}
	.st6{fill:#DCD2C6;}
	.st7{fill:#FFE174;}
	.st8{fill:#E9624D;}
	.st9{fill:#FF7B65;}
	.st10{fill:#FEFEFF;}
	.st11{fill:#E5E5E6;}
	.st12{fill:#E9E9E8;}
	.st13{fill:#FFFFFE;}
	.st14{fill:#DD4B33;}
	.st15{fill:#FFF7EA;}
</style>
<g>
	<path class="st0" d="M-4.5,635.4h1124l0-541c0,0-82.3-20.2-157-41.9c-86.7-25.2-723.6-23.5-815,2.4C74,75.7-4.5,94.4-4.5,94.4
		L-4.5,635.4z"/>
	<path class="st1" d="M564.5,0C564.5,0,564.5,0,564.5,0C564.4,0,564.4,0,564.5,0C382,0,238.9,29,147.5,54.9
		c6.7,17.1,19,28.6,33,28.6h127.8c0,0,0,0-0.1,0c21.2,0.1,38.3,26.2,38.3,58.4s-17.1,58.4-38.3,58.4c0,0,0,0,0.1,0h-63.5
		c-21.2,0-38.4,26.2-38.4,58.4c0,32.3,17.2,58.4,38.4,58.4h47v-0.1H413c21.2,0,38.4,26.2,38.4,58.4c0,32.3-17.2,58.4-38.4,58.4
		h-36.2c-0.7,0.1-1.4,0.1-2.1,0.1c0,0,0,0,0.1,0h0.1c-21.2,0-38.4,26.2-38.4,58.4c0,32.3,17.2,58.4,38.4,58.4h63.5c0,0,0,0-0.1,0
		c21.2,0.1,38.3,26.2,38.3,58.4c0,2.9,0,5.7,0,8.4h155.9c0-2.8,0-5.6,0-8.4c0-32.2,17.1-58.4,38.3-58.4c0,0,0,0-0.1,0h63.5
		c21.2,0,38.4-26.2,38.4-58.4c0-32.3-17.2-58.4-38.4-58.4c0,0,0,0,0,0c-0.7,0-1.4,0-2.1-0.1H716c-21.2,0-38.4-26.2-38.4-58.4
		c0-32.3,17.2-58.4,38.4-58.4h121.3v0.1h18.9c21.2,0,38.4-26.2,38.4-58.4c0-32.3-17.2-58.4-38.4-58.4h-55.3c0,0,0,0,0.1,0
		c-21.2-0.1-38.3-26.2-38.3-58.4s17.1-58.4,38.3-58.4c0,0,0,0-0.1,0h127.8c14.7,0,27.4-12.6,33.9-31C875.8,27.3,741.3,0,564.5,0z"/>
	<ellipse class="st2" cx="726.2" cy="635.4" rx="30.6" ry="22.8"/>
	<path class="st1" d="M770.3,652.4c0,0-167,41.9-203.5,118.3s-69,51.3-78.6,65.7s-40.6,48-9.6,76.4s146.7,0.9,168.5-42.4
		c21.8-43.3,30.2-88,134.8-92C741.3,741.3,770.3,652.4,770.3,652.4z"/>
	<path class="st3" d="M761.2,652.4c0,0-167,41.9-203.5,118.3c-30.5,63.9-63.3,59.6-77.2,64c-0.8,0.2-1.9,0.6-3.2,1.4
		c-3.4,2-2.8,2.7-4.7,5c-11.2,12.8-28,48.9-3.1,71.8c30.9,28.4,146.7,0.9,168.5-42.4c19-37.9,29.5-78.2,101.3-90
		c10.3-1.7,20.3-1.4,33.5-1.9C732.2,741.3,761.2,652.4,761.2,652.4z"/>
	<path class="st4" d="M647.1,1644.7l325.9-858.5c0,0,3.1-5.4,6-7.7c2.8-2.2,5.4-1.3,7.2,1.5c3.6,5.6,1.2,7.2-5.2,25.2
		c-6.4,18-297,852-297,852S656,1678.3,647.1,1644.7z"/>
	<path class="st1" d="M480.4,834.7c0,0-13.5,6-7,19.4c11.5,23.8,62.2,56.5,193.4,18.1c205.3-60.1,198.5-87.1,247.4-87.8
		c48.9-0.7,48.9-0.7,48.9-0.7l-145.6,380.1c0,0-223.4-0.7-294.2-117.6c-29.1-48-52.8-64.8-68.9-73.6c-23-12.7-9.7-75.4-7.2-82.3
		c13.9-38.9,23.8-50.7,29-54.2C477.4,835.4,479.8,834.9,480.4,834.7C481.4,834.5,480.4,834.7,480.4,834.7z"/>
	<path class="st1" d="M407.2,1306.8"/>
	<path class="st1" d="M783.4,733.5c5.5-22.9,19.3-47,17.8-61c-3-28-29.8-20-29.8-20s-31.6,0.9-74.4,0.3c-21.4-1.5-47.9-17.5-64.4-35
		c-0.4-0.4-25.9-24.6-48.3-24.7c-45.7-0.1-100.7,23.4-101.2,20.8c-0.1-0.5-6.3,3.3-6.4,3.9c-1.2,11.9-2.1,11.2-3.5,18c0,0,0,0,0,0
		c-0.5,2.3-1,4.7-1.6,7.3c-2.1,8.9-3.4,18.2-3.7,27.4c-1.6,59.2,155.1,110.6,255.3,109.2c24.7-0.4,45,8.3,59.7-1.1
		C794.5,768.9,779,751.6,783.4,733.5z"/>
	<path class="st4" d="M852.9,1470.3h-12.8h-10.8h-32.9l5.7,199.8c0,0,58.5-28.3,56.3-27.6c0,0,0,0,0,0c24-7.8,41.5-30.5,41.5-57.3
		V1529C899.8,1500.2,879.7,1476.2,852.9,1470.3z"/>
	<path class="st4" d="M265.6,1470.3h12.8h10.8h32.9l-5.7,199.8c0,0-58.5-28.3-56.3-27.6c0,0,0,0,0,0c-24-7.8-41.5-30.5-41.5-57.3
		V1529C218.7,1500.2,238.8,1476.2,265.6,1470.3z"/>
	<g>
		<path class="st4" d="M695,2036.5c0,0-258.1-706.4-272.2-752.2c-23.8-77.3-49.9-187.1-87.5-250.7c-19.1-32.1-49.2-50.5-62-44.2
			c-53.3,26,5,200.5,52,342.2s273.7,746.6,273.7,746.6L695,2036.5z"/>
		<path class="st4" d="M466.6,1042.9c0,0-52.8-74.6-72.1-67.3c-19.3,7.3-19.5,25.6-6.8,81.4c6.5,28.5,26.3,164.9,39.4,274.2
			c12.6,104.7,18.6,179.9,25,321c91,288.8,137.3,377,137.3,377L558.3,1706C558.3,1706,532.2,1158.7,466.6,1042.9z"/>
	</g>
	<g>
		<path class="st1" d="M566.7,1745.5c-12.2-12.3-27.5-58.8-65-118.9c-36.9-58.9-162.6-247-206.3-309.2l0,0c0,0,0,0,0,0
			c-0.9-1.2-1.7-2.4-2.5-3.6c0,0-0.1,0-0.2-0.1c-10.6-14.5-49.3-67.2-51.5-70.9c-2.5-4.4-11.2,2.4-27.5,12.9
			c-16.3,10.5-25.1,24.3-27,28.1c-1.9,3.8-5.4,3.5-1.6,6.3c3.7,2.9,44,58.8,44,58.8c0,0,0,0,0,0c2,2,3.8,3.6,5.2,3.6
			c3.6,0,124.1,152.8,174.9,227.8c50.7,75,61.5,90.1,69.2,120.1c7.8,30-5.4,73.8,8.4,73.8c13.7,0,49.2,5.1,54.3,0
			C546.1,1769.2,578.9,1757.8,566.7,1745.5z"/>
		<path class="st4" d="M275.7,1336.6c10.1-9-0.9-17.7,16.3-29.3c2.6-2.9,8.7-5.9,14.1-11.4c6.3-6.3-25.2-78.2-38.9-64.5
			c0,0-140.3,108.5-164.9,133.2c-7,7-7.9,7.8-6,10.3c1.2,1.5,11.3,14.8,16.9,20.6c16.7,17.4,47.9,45.8,64.9,55.5
			c7,4,12.5,7.9,12.5,2.8c0-17.9,8.5-78.1,20.1-99.7c1.9-3.6,5.8-15,21.5-10.9C248,1347.1,265.7,1345.6,275.7,1336.6z"/>
		<path class="st1" d="M102.4,1364.5c-7,7-7.9,7.8-6,10.3c1.2,1.5,11.3,14.8,16.9,20.6c16.7,17.4,47.9,45.8,64.9,55.5
			c7,4,12.5,7.9,12.5,2.8c0-8.7,2-27.5,5.5-47c0,0,0,0,0,0c-7.6,2.9-28.5,8.6-28.5,1.4s4.3-20-5.1-20s-20.8,7.4-20.8-6.8
			s4.3-16-15.9-16c-20.1,0,4-24.8,4-24.9C117.3,1350.9,107.4,1359.5,102.4,1364.5z"/>
	</g>
	<g>
		<g>
			<path class="st1" d="M850.3,1243.5c-10.5-13.5-35.1-33.1-52.3-41.8c-6.5-3.3-15.6-3.6-6.3,1.3c3.1,1.6,6.8,3.9,10.8,7
				c4,3.1,14.7,9.5,25.1,21c3.2,3.5,14.6,15.2,20,26.8c4.3,9.2,3.1,19,3.1,19.7c0,4.5,1.8,7.2,2.3,11.7c0.6,5.2,0.2,12.2,6.8,18.4
				c7.9,7.5,3.8-12.2,6.1-23.9c0.2-1.3,4.7-6.2,7.4-6.2c1.2,0,6.3,3.9,7.4,3.9c8.4,0,6.6-3.3,6.6-3.3S864.9,1262.1,850.3,1243.5z"/>
			<path class="st1" d="M1017.3,1488.7c-1.9-4.9-14.8-49.2-44.9-105.8s-52.3-75.3-52.3-75.3c-3.7,6.4-17.1-12.6-31.3,1.6
				c-14.2,14.3-5.5,22-5.5,22l-6.2,2.9l2.4,7.8c5,1.8,30.1-9.8,39.5,16.8c0.4,1.1,0.2,4.1,1.9,5.2c0.6,0.4,4.7,0.7,7.6,3.2
				c4.3,3.7,8.1,9.6,7.9,13.7c-0.3,6.8,1.4,5.2,4.4,6.4c0.5,0.2,3.8,1.4,6.7,4.2c2.9,2.8,5.3,7.2,5.3,9c0.1,5.9,1,5,4.5,7.3
				c2.6,1.7,8,6.4,10.7,12.1c1.7,3,0.4,7.8,1.1,8.2s3.6,1.5,5.4,3.1c3.4,2.9,7,6.5,6,13.3c-0.4,2.5,6.3,2.3,9.7,10.9
				c1.7,4.3-0.1,5.5,0.6,6.7c0.7,1.1,3.7,1.5,5.6,4.7c0.4,0.7,1.6,2.1,1.8,3.5c0.4,2.1-0.1,4.2,0.6,5.7c0.3,0.6,2.5,0.6,4.2,2.3
				c1.6,1.7,2.6,5.1,2.5,5.4c-0.4,1.7-0.5,2.6-0.4,3.1c0.2,0.9,2,1.7,3.3,2.5c2.1,1.4,2.4,5.3,1.5,8.1s3.7,9.3,4.6,10.3
				c0.9,0.9,4.9-10.7,4.9-10.7S1019.2,1493.6,1017.3,1488.7z M938.8,1357.8c-2,1.4-17.1-11.2-17.1-11.2
				c-13.5-13.6-15.1-18.8-9.1-21.9c6-3.1,9-0.5,17.7,12.7C939,1350.7,940.8,1356.4,938.8,1357.8z"/>
		</g>
		<path class="st4" d="M909.2,1288.5c-10.9-11.2-21.8-10.4-21.8-10.4c-0.9,0-1.8,0-2.6-0.1c-2.3-0.2-4.5-3.7-6.5-4.3
			c-3.1-1.1-5.9,0.4-8.1-0.9c-4.9-3-7.6,3.6-8.2,6.7c-1.3,7.4-7.9,18.4-7.9,18.4c-6.6,9.1-42,58.5-71.8,99.8
			c-33,45.7-69.8,128.9-69.8,128.9S605.4,1769.1,600.3,1781c-2.6,6-0.6,9.1,0.6,14.9c1.2,5.7,1.5,14.2,1.5,17.9
			c0,1.9,9-2.1,10.7-2.9c5.5-2.7,9-4.2,12.8-8.9c6.9-8.6,12-22.1,12-22.1l59.9-129.6c0,0,60.7-132.7,76.4-164
			c15.8-31.4,42.8-65.9,63.8-92.9s40.7-51,40.7-51s1.6-4.8,8.7-5.9c7.1-1.1,1.5-10.6,9.3-18.4c7.9-7.8,19.7-4.3,23.4-10.7
			S920.1,1299.7,909.2,1288.5z M620.6,1799.6c-0.2,1.1-1.6,4.1-5.2,6.2c-2.7,1.6-7.8,2.7-8.3,2.3c-1.2-0.9-1.3-3.5-1.5-6.2
			c-0.2-2.7-0.7-5.3-0.7-7.3c0-3,2.9-1.8,5.4-2.1c2.5-0.3,4.5-2,4.5-2C623.2,1792.6,621,1797.7,620.6,1799.6z M875.9,1289.8
			c-2.1,2.2-8.1,0.5-8.1-1.5s3.9-8,6.8-6.6s5-0.1,7.1,2C883.8,1285.7,878.1,1287.6,875.9,1289.8z"/>
	</g>
	<path class="st4" d="M182.5,2168.7l0-441.9c0-51.4,41.7-93,93-93l571,0c51.4,0,93,41.7,93,93l0,441.9c0,51.4-41.7,93-93,93l-571,0
		C224.2,2261.8,182.5,2220.1,182.5,2168.7z"/>
	<path class="st5" d="M754.2,1444.5h-195h-195c-47.6,0-86.2,38.8-86.2,86.7V2175c0,34.4,19.9,64.1,48.8,78.2c4.1,2,6.5,7.2,10.9,8.6
		c7.8,2.3,18,0,26.5,0h195h195c8.5,0,18.7,2.3,26.5,0c4.5-1.3,6.8-6.6,10.9-8.6c28.9-14,48.8-43.7,48.8-78.2v-643.8
		C840.4,1483.3,801.8,1444.5,754.2,1444.5z"/>
	<path class="st6" d="M464.3,1735c0,0,19.8-58.3,19.8-102.5s76.9,3.7,76.9,3.7v184.5C561,1820.8,464.3,1814.7,464.3,1735z"/>
	<g>
		<g>
			<g>
				<path class="st6" d="M325.1,1585.6c-11.7-2.9-23.5,4.3-26.4,16.1c-2.9,11.8,4.3,23.7,16,26.6c11.7,2.9,23.5-4.3,26.4-16.1
					C344,1600.4,336.8,1588.5,325.1,1585.6z M338.8,1611.6c-2.5,10.5-13.1,16.9-23.5,14.3c-10.4-2.6-16.8-13.1-14.3-23.6
					c2.5-10.5,13.1-16.9,23.5-14.3C335,1590.5,341.4,1601.1,338.8,1611.6z"/>
				<path class="st7" d="M338.8,1611.6c-2.5,10.5-13.1,16.9-23.5,14.3c-10.4-2.6-16.8-13.1-14.3-23.6c2.5-10.5,13.1-16.9,23.5-14.3
					C335,1590.5,341.4,1601.1,338.8,1611.6z"/>
			</g>
			<path class="st2" d="M314.8,1628.3c-11.7-2.9-18.9-14.8-16-26.6c2.9-11.8,14.7-19,26.4-16.1c11.7,2.9,18.9,14.8,16,26.6
				C338.3,1624,326.5,1631.2,314.8,1628.3z"/>
			<g>
				<polygon class="st8" points="311.6,1590.7 307.7,1614.3 316.7,1620.1 327.3,1619.1 334.6,1596.4 				"/>
				<polygon class="st9" points="322.6,1595.9 331.7,1598.1 326,1616.9 317.2,1617.8 				"/>
				<polygon class="st10" points="318.6,1612 317.9,1615.2 324.4,1614.7 327.1,1606.2 320.5,1604.5 319.8,1607.4 323.2,1608.3 
					322,1612 				"/>
				<polygon class="st11" points="321.9,1598.8 314.7,1597 313.3,1605.8 319.8,1607.4 320.5,1604.5 316.7,1603.6 317.1,1600.7 
					321.2,1601.7 				"/>
				<polygon class="st10" points="321.2,1601.7 321.9,1598.8 328.7,1600.5 327.8,1603.3 				"/>
				<polygon class="st11" points="318.6,1612 317.9,1615.2 312.3,1611.7 313.2,1607 316,1607.7 315.7,1610.4 				"/>
			</g>
		</g>
		<g>
			<g>
				<ellipse class="st7" cx="318.5" cy="1529.9" rx="18.9" ry="19"/>
			</g>
			<path class="st6" d="M324.1,1509.4c-11.3-3.1-22.9,3.6-26,14.9c-3.1,11.3,3.5,23,14.8,26.1c11.3,3.1,22.9-3.6,26-14.9
				C342,1524.2,335.4,1512.5,324.1,1509.4z M313.5,1548.2c-10.1-2.8-16-13.2-13.2-23.4s13.2-16.1,23.2-13.3
				c10.1,2.8,16,13.2,13.2,23.4C334,1545,323.6,1551,313.5,1548.2z"/>
			<g>
				<polygon class="st8" points="311.9,1515.7 308,1536 315.5,1541.2 324.7,1540.6 331.6,1521.1 				"/>
				<polygon class="st9" points="321.2,1520.4 329.1,1522.6 323.7,1538.7 316.1,1539.3 				"/>
			</g>
			<g id="Layer_x0020_1_3_">
				<g id="_400352496_3_">
					<g>
						<polygon class="st12" points="319.9,1525.1 313.2,1525.9 312.7,1528.5 319.2,1527.6 326.1,1526.6 327.1,1524.1 						"/>
						<polygon class="st12" points="320.6,1522.4 320.7,1522.4 320.7,1522.4 320.8,1522.4 320.8,1522.4 320.9,1522.4 320.9,1522.4 
							321,1522.5 321,1522.5 321.1,1522.5 321.1,1522.5 321.2,1522.5 321.2,1522.5 321.3,1522.5 321.3,1522.6 321.4,1522.6 
							321.4,1522.6 321.5,1522.6 321.5,1522.6 321.6,1522.6 321.6,1522.6 321.7,1522.7 321.7,1522.7 321.8,1522.7 321.8,1522.7 
							321.9,1522.7 321.9,1522.7 322,1522.7 322,1522.8 322.1,1522.8 322.1,1522.8 322.2,1522.8 322.3,1522.8 322.3,1522.8 
							322.4,1522.8 322.4,1522.9 322.5,1522.9 322.5,1522.9 322.6,1522.9 322.6,1522.9 322.7,1522.9 322.7,1522.9 322.8,1522.9 
							322.8,1523 322.9,1523 322.9,1523 323,1523 323,1523 323.1,1523 323.1,1523 323.2,1523.1 323.2,1523.1 323.3,1523.1 
							323.3,1523.1 323.4,1523.1 323.4,1523.1 323.5,1523.1 323.5,1523.2 323.6,1523.2 323.6,1523.2 323.7,1523.2 323.7,1523.2 
							323.8,1523.2 323.8,1523.2 323.9,1523.3 323.9,1523.3 324,1523.3 324,1523.3 324.1,1523.3 324.1,1523.3 324.2,1523.3 
							324.2,1523.4 324.3,1523.4 324.3,1523.4 324.4,1523.4 324.4,1523.4 324.5,1523.4 324.5,1523.4 324.6,1523.5 324.6,1523.5 
							324.7,1523.5 324.7,1523.5 324.8,1523.5 324.8,1523.5 324.9,1523.5 325,1523.6 325,1523.6 325.1,1523.6 325.1,1523.6 
							325.2,1523.6 325.2,1523.6 325.3,1523.6 325.3,1523.7 325.4,1523.7 325.4,1523.7 325.5,1523.7 325.5,1523.7 325.6,1523.7 
							325.6,1523.7 325.7,1523.8 325.7,1523.8 325.8,1523.8 325.8,1523.8 325.9,1523.8 325.9,1523.8 326,1523.8 326,1523.8 
							326.1,1523.9 326.1,1523.9 326.2,1523.9 326.2,1523.9 326.3,1523.9 326.3,1523.9 326.4,1523.9 326.4,1524 326.5,1524 
							326.5,1524 326.6,1524 326.6,1524 326.7,1524 326.7,1524 326.8,1524.1 326.8,1524.1 326.9,1524.1 326.9,1524.1 327,1524.1 
							327,1524.1 327.1,1524.1 326.9,1524.6 326.7,1525.1 326.5,1525.6 326.3,1526.1 326.1,1526.6 326.1,1526.6 326.1,1526.6 
							326.1,1526.6 326,1526.6 326,1526.6 325.9,1526.6 325.9,1526.6 325.8,1526.5 325.8,1526.5 325.7,1526.5 325.7,1526.5 
							325.6,1526.5 325.6,1526.5 325.5,1526.5 325.5,1526.4 325.4,1526.4 325.4,1526.4 325.3,1526.4 325.3,1526.4 325.2,1526.4 
							325.2,1526.4 325.1,1526.3 325.1,1526.3 325,1526.3 325,1526.3 324.9,1526.3 324.9,1526.3 324.8,1526.3 324.8,1526.2 
							324.7,1526.2 324.7,1526.2 324.6,1526.2 324.6,1526.2 324.5,1526.2 324.5,1526.2 324.4,1526.2 324.4,1526.1 324.3,1526.1 
							324.3,1526.1 324.2,1526.1 324.2,1526.1 324.1,1526.1 324.1,1526.1 324,1526 323.9,1526 323.9,1526 323.8,1526 323.8,1526 
							323.7,1526 323.7,1526 323.6,1525.9 323.6,1525.9 323.5,1525.9 323.5,1525.9 323.4,1525.9 323.4,1525.9 323.3,1525.9 
							323.3,1525.8 323.2,1525.8 323.2,1525.8 323.1,1525.8 323.1,1525.8 323,1525.8 323,1525.8 322.9,1525.7 322.9,1525.7 
							322.8,1525.7 322.8,1525.7 322.7,1525.7 322.7,1525.7 322.6,1525.7 322.6,1525.6 322.5,1525.6 322.5,1525.6 322.4,1525.6 
							322.4,1525.6 322.3,1525.6 322.3,1525.6 322.2,1525.5 322.2,1525.5 322.1,1525.5 322.1,1525.5 322,1525.5 322,1525.5 
							321.9,1525.5 321.9,1525.4 321.8,1525.4 321.8,1525.4 321.7,1525.4 321.7,1525.4 321.6,1525.4 321.6,1525.4 321.5,1525.3 
							321.5,1525.3 321.4,1525.3 321.4,1525.3 321.3,1525.3 321.2,1525.3 321.2,1525.3 321.1,1525.3 321.1,1525.2 321,1525.2 
							321,1525.2 320.9,1525.2 320.9,1525.2 320.8,1525.2 320.8,1525.2 320.7,1525.1 320.7,1525.1 320.6,1525.1 320.6,1525.1 
							320.5,1525.1 320.5,1525.1 320.4,1525.1 320.4,1525 320.3,1525 320.3,1525 320.3,1525 320.2,1525 320.2,1525 320.1,1525 
							320.1,1525 320,1524.9 320,1524.9 319.9,1524.9 319.9,1524.9 319.9,1524.9 319.9,1524.9 319.8,1524.9 319.8,1524.9 
							319.7,1524.9 319.7,1524.8 319.6,1524.8 319.6,1524.8 319.5,1524.8 319.5,1524.8 319.4,1524.8 319.4,1524.8 319.3,1524.7 
							319.3,1524.7 319.2,1524.7 319.2,1524.7 319.1,1524.7 319.1,1524.7 319,1524.7 319,1524.6 318.9,1524.6 318.9,1524.6 
							318.8,1524.6 318.8,1524.6 318.7,1524.6 318.7,1524.6 318.6,1524.5 318.5,1524.5 318.5,1524.5 318.4,1524.5 318.4,1524.5 
							318.3,1524.5 318.3,1524.5 318.2,1524.4 318.2,1524.4 318.1,1524.4 318.1,1524.4 318,1524.4 318,1524.4 317.9,1524.4 
							317.9,1524.4 317.8,1524.3 317.8,1524.3 317.7,1524.3 317.7,1524.3 317.6,1524.3 317.6,1524.3 317.5,1524.3 317.5,1524.2 
							317.4,1524.2 317.4,1524.2 317.3,1524.2 317.3,1524.2 317.2,1524.2 317.2,1524.2 317.1,1524.1 317.1,1524.1 317,1524.1 
							317,1524.1 316.9,1524.1 316.9,1524.1 316.8,1524.1 316.8,1524 316.7,1524 316.7,1524 316.6,1524 316.6,1524 316.5,1524 
							316.5,1524 316.4,1523.9 316.4,1523.9 316.3,1523.9 316.3,1523.9 316.2,1523.9 316.2,1523.9 316.1,1523.9 316.1,1523.8 
							316,1523.8 316,1523.8 315.9,1523.8 315.9,1523.8 315.8,1523.8 315.7,1523.8 315.7,1523.7 315.6,1523.7 315.6,1523.7 
							315.5,1523.7 315.5,1523.7 315.4,1523.7 315.4,1523.7 315.3,1523.6 315.3,1523.6 315.2,1523.6 315.2,1523.6 315.1,1523.6 
							315.1,1523.6 315,1523.6 315,1523.5 314.9,1523.5 314.9,1523.5 314.8,1523.5 314.8,1523.5 314.7,1523.5 314.7,1523.5 
							314.6,1523.4 314.6,1523.4 314.5,1523.4 314.5,1523.4 314.4,1523.4 314.4,1523.4 314.3,1523.4 314.3,1523.4 314.2,1523.3 
							314.2,1523.3 314.1,1523.3 314.1,1523.3 314,1523.3 314,1523.3 313.9,1523.3 313.9,1523.2 313.8,1523.2 313.8,1523.2 
							313.7,1523.2 313.7,1523.2 313.7,1523.1 313.7,1522.7 313.8,1522.3 313.9,1521.8 313.9,1521.4 314,1521 314.1,1520.5 
							314.1,1520.6 314.2,1520.6 314.2,1520.6 314.3,1520.6 314.3,1520.6 314.4,1520.6 314.4,1520.6 314.5,1520.7 314.5,1520.7 
							314.6,1520.7 314.6,1520.7 314.7,1520.7 314.7,1520.7 314.8,1520.7 314.8,1520.8 314.9,1520.8 314.9,1520.8 315,1520.8 
							315,1520.8 315.1,1520.8 315.1,1520.8 315.2,1520.9 315.2,1520.9 315.3,1520.9 315.3,1520.9 315.4,1520.9 315.4,1520.9 
							315.5,1520.9 315.5,1521 315.6,1521 315.6,1521 315.7,1521 315.7,1521 315.8,1521 315.8,1521 315.9,1521.1 315.9,1521.1 
							316,1521.1 316,1521.1 316.1,1521.1 316.1,1521.1 316.2,1521.1 316.2,1521.1 316.3,1521.2 316.3,1521.2 316.4,1521.2 
							316.4,1521.2 316.5,1521.2 316.5,1521.2 316.6,1521.2 316.6,1521.3 316.7,1521.3 316.8,1521.3 316.8,1521.3 316.9,1521.3 
							316.9,1521.3 317,1521.3 317,1521.4 317.1,1521.4 317.1,1521.4 317.2,1521.4 317.2,1521.4 317.3,1521.4 317.3,1521.4 
							317.4,1521.5 317.4,1521.5 317.5,1521.5 317.5,1521.5 317.6,1521.5 317.6,1521.5 317.7,1521.5 317.7,1521.6 317.8,1521.6 
							317.8,1521.6 317.9,1521.6 317.9,1521.6 318,1521.6 318,1521.6 318.1,1521.7 318.1,1521.7 318.2,1521.7 318.2,1521.7 
							318.3,1521.7 318.3,1521.7 318.4,1521.7 318.4,1521.8 318.5,1521.8 318.5,1521.8 318.6,1521.8 318.6,1521.8 318.7,1521.8 
							318.7,1521.8 318.8,1521.9 318.8,1521.9 318.9,1521.9 318.9,1521.9 319,1521.9 319,1521.9 319.1,1521.9 319.1,1522 
							319.2,1522 319.2,1522 319.3,1522 319.3,1522 319.4,1522 319.5,1522 319.5,1522 319.6,1522.1 319.6,1522.1 319.7,1522.1 
							319.7,1522.1 319.8,1522.1 319.8,1522.1 319.9,1522.1 319.9,1522.2 320,1522.2 320,1522.2 320.1,1522.2 320.1,1522.2 
							320.2,1522.2 320.2,1522.2 320.3,1522.3 320.3,1522.3 320.4,1522.3 320.4,1522.3 320.5,1522.3 320.5,1522.3 320.6,1522.3 
							320.6,1522.4 						"/>
						<polygon class="st12" points="313.2,1525.9 325.2,1529.2 324.3,1531.7 312.7,1528.5 						"/>
						<polygon class="st12" points="312.5,1529.9 315.1,1530.7 314.7,1532.8 317.4,1534.3 320.5,1534.2 321.7,1530.9 324.3,1531.6 
							322.3,1537 316.6,1537.1 311.7,1534 						"/>
					</g>
					<g>
						<polygon class="st13" points="319.2,1527.6 326.1,1526.6 327.1,1524.1 319.9,1525.1 						"/>
						<polygon class="st13" points="320.6,1522.4 320.7,1522.4 320.7,1522.4 320.8,1522.4 320.8,1522.4 320.9,1522.4 320.9,1522.4 
							321,1522.5 321,1522.5 321.1,1522.5 321.1,1522.5 321.2,1522.5 321.2,1522.5 321.3,1522.5 321.3,1522.6 321.4,1522.6 
							321.4,1522.6 321.5,1522.6 321.5,1522.6 321.6,1522.6 321.6,1522.6 321.7,1522.7 321.7,1522.7 321.8,1522.7 321.8,1522.7 
							321.9,1522.7 321.9,1522.7 322,1522.7 322,1522.8 322.1,1522.8 322.1,1522.8 322.2,1522.8 322.3,1522.8 322.3,1522.8 
							322.4,1522.8 322.4,1522.9 322.5,1522.9 322.5,1522.9 322.6,1522.9 322.6,1522.9 322.7,1522.9 322.7,1522.9 322.8,1522.9 
							322.8,1523 322.9,1523 322.9,1523 323,1523 323,1523 323.1,1523 323.1,1523 323.2,1523.1 323.2,1523.1 323.3,1523.1 
							323.3,1523.1 323.4,1523.1 323.4,1523.1 323.5,1523.1 323.5,1523.2 323.6,1523.2 323.6,1523.2 323.7,1523.2 323.7,1523.2 
							323.8,1523.2 323.8,1523.2 323.9,1523.3 323.9,1523.3 324,1523.3 324,1523.3 324.1,1523.3 324.1,1523.3 324.2,1523.3 
							324.2,1523.4 324.3,1523.4 324.3,1523.4 324.4,1523.4 324.4,1523.4 324.5,1523.4 324.5,1523.4 324.6,1523.5 324.6,1523.5 
							324.7,1523.5 324.7,1523.5 324.8,1523.5 324.8,1523.5 324.9,1523.5 325,1523.6 325,1523.6 325.1,1523.6 325.1,1523.6 
							325.2,1523.6 325.2,1523.6 325.3,1523.6 325.3,1523.7 325.4,1523.7 325.4,1523.7 325.5,1523.7 325.5,1523.7 325.6,1523.7 
							325.6,1523.7 325.7,1523.8 325.7,1523.8 325.8,1523.8 325.8,1523.8 325.9,1523.8 325.9,1523.8 326,1523.8 326,1523.8 
							326.1,1523.9 326.1,1523.9 326.2,1523.9 326.2,1523.9 326.3,1523.9 326.3,1523.9 326.4,1523.9 326.4,1524 326.5,1524 
							326.5,1524 326.6,1524 326.6,1524 326.7,1524 326.7,1524 326.8,1524.1 326.8,1524.1 326.9,1524.1 326.9,1524.1 327,1524.1 
							327,1524.1 327.1,1524.1 326.9,1524.6 326.7,1525.1 326.5,1525.6 326.3,1526.1 326.1,1526.6 326.1,1526.6 326.1,1526.6 
							326.1,1526.6 326,1526.6 326,1526.6 325.9,1526.6 325.9,1526.6 325.8,1526.5 325.8,1526.5 325.7,1526.5 325.7,1526.5 
							325.6,1526.5 325.6,1526.5 325.5,1526.5 325.5,1526.4 325.4,1526.4 325.4,1526.4 325.3,1526.4 325.3,1526.4 325.2,1526.4 
							325.2,1526.4 325.1,1526.3 325.1,1526.3 325,1526.3 325,1526.3 324.9,1526.3 324.9,1526.3 324.8,1526.3 324.8,1526.2 
							324.7,1526.2 324.7,1526.2 324.6,1526.2 324.6,1526.2 324.5,1526.2 324.5,1526.2 324.4,1526.2 324.4,1526.1 324.3,1526.1 
							324.3,1526.1 324.2,1526.1 324.2,1526.1 324.1,1526.1 324.1,1526.1 324,1526 323.9,1526 323.9,1526 323.8,1526 323.8,1526 
							323.7,1526 323.7,1526 323.6,1525.9 323.6,1525.9 323.5,1525.9 323.5,1525.9 323.4,1525.9 323.4,1525.9 323.3,1525.9 
							323.3,1525.8 323.2,1525.8 323.2,1525.8 323.1,1525.8 323.1,1525.8 323,1525.8 323,1525.8 322.9,1525.7 322.9,1525.7 
							322.8,1525.7 322.8,1525.7 322.7,1525.7 322.7,1525.7 322.6,1525.7 322.6,1525.6 322.5,1525.6 322.5,1525.6 322.4,1525.6 
							322.4,1525.6 322.3,1525.6 322.3,1525.6 322.2,1525.5 322.2,1525.5 322.1,1525.5 322.1,1525.5 322,1525.5 322,1525.5 
							321.9,1525.5 321.9,1525.4 321.8,1525.4 321.8,1525.4 321.7,1525.4 321.7,1525.4 321.6,1525.4 321.6,1525.4 321.5,1525.3 
							321.5,1525.3 321.4,1525.3 321.4,1525.3 321.3,1525.3 321.2,1525.3 321.2,1525.3 321.1,1525.3 321.1,1525.2 321,1525.2 
							321,1525.2 320.9,1525.2 320.9,1525.2 320.8,1525.2 320.8,1525.2 320.7,1525.1 320.7,1525.1 320.6,1525.1 320.6,1525.1 
							320.5,1525.1 320.5,1525.1 320.4,1525.1 320.4,1525 320.3,1525 320.3,1525 320.3,1525 320.2,1525 320.2,1525 320.1,1525 
							320.1,1525 320,1524.9 320,1524.9 319.9,1524.9 						"/>
						<polygon class="st13" points="319.2,1527.6 325.2,1529.2 324.3,1531.7 318.5,1530.1 						"/>
						<polygon class="st13" points="317.4,1534.3 320.5,1534.2 321.7,1530.9 324.3,1531.6 322.3,1537 316.6,1537.1 316.6,1537.1 
													"/>
					</g>
				</g>
			</g>
		</g>
		<g>
			<g>
				<ellipse class="st7" cx="368.6" cy="1564.1" rx="19.2" ry="19.4"/>
			</g>
			<path class="st6" d="M362.9,1543.2c-11.5,3.2-18.2,15.1-15,26.7s15,18.3,26.5,15.1s18.2-15.1,15-26.7
				C386.2,1546.7,374.3,1540,362.9,1543.2z M373.7,1582.7c-10.2,2.9-20.8-3.2-23.7-13.5s3.2-21,13.4-23.8
				c10.2-2.9,20.8,3.2,23.7,13.5C390,1569.2,384,1579.9,373.7,1582.7z"/>
			<polygon class="st9" points="358.4,1554.1 353.3,1563.1 371.8,1575.5 365.4,1552.2 			"/>
			<polygon class="st8" points="357.1,1562 367.3,1559.2 358.4,1554.1 			"/>
			<polygon class="st8" points="371.8,1575.5 361.2,1560.9 367.3,1559.2 			"/>
			<polygon class="st9" points="372.3,1550.3 381.3,1555.3 371.8,1575.5 365.4,1552.2 			"/>
			<polygon class="st8" points="377.4,1556.3 367.3,1559.2 372.3,1550.3 			"/>
			<polygon class="st8" points="371.8,1575.5 373.3,1557.5 367.3,1559.2 			"/>
			<polygon class="st8" points="361.2,1560.9 358.4,1554.1 357.1,1562 			"/>
			<polygon class="st14" points="381.3,1555.3 373.3,1557.5 371.8,1575.5 			"/>
		</g>
		<path class="st6" d="M318.6,1547.4c-12.9-3.6-20.5-17-16.9-29.9c0.1-0.2,0.1-0.4,0.2-0.6c-1.6,2.1-2.9,4.6-3.6,7.3
			c-3.1,11.3,3.5,23,14.8,26.1c6,1.7,12.2,0.5,17-2.6C326.4,1548.5,322.5,1548.4,318.6,1547.4z"/>
		<path class="st6" d="M389.4,1558.3c-1.3-4.7-4.1-8.6-7.6-11.4c5.8,12,1.8,26.8-9.7,34.1c-3,1.9-6.3,3.2-9.7,3.8
			c3.8,1.2,7.9,1.3,12,0.1C385.8,1581.7,392.5,1569.8,389.4,1558.3z"/>
		<path class="st6" d="M314.8,1628.3c6.5,1.6,13.1,0.1,18.2-3.7c-3.9,1.1-8.1,1.2-12.3,0.1c-13.2-3.3-21.4-16.7-18.1-30
			c0.1-0.5,0.2-0.9,0.4-1.4c-0.6,0.8-1.2,1.6-1.8,2.4c-1.1,1.8-1.9,3.8-2.4,5.9C295.9,1613.5,303,1625.4,314.8,1628.3z"/>
	</g>
	<path class="st15" d="M657.6,1735c0,0-19.8-58.3-19.8-102.5s-76.9,3.7-76.9,3.7v184.5C560.8,1820.8,657.6,1814.7,657.6,1735z"/>
	<path class="st0" d="M411.7,1429.1c0,27.4-5.3,49.7-11.9,49.7c-4.9,0-6.4-14.6-8.2-32.4c-0.6-5.9-3.7-23.6-3.7-30.4
		c0-27.4,5.3-36.4,11.9-36.4C406.3,1379.4,411.7,1401.7,411.7,1429.1z"/>
	<path class="st0" d="M707.4,1429.1c0,27.4,5.3,49.7,11.9,49.7c4.9,0,6.4-14.6,8.2-32.4c0.6-5.9,3.7-23.6,3.7-30.4
		c0-27.4-5.3-36.4-11.9-36.4S707.4,1401.7,707.4,1429.1z"/>
	<path class="st0" d="M714.2,1431.9v-99.5l-154.6-34.3l-155.2,48l0.6,85.9c0,0,2.3,118.2,23.5,138.1c21.2,20,78.8,73.9,135.7,73.9
		c56.9,0,133.9-86.9,133.9-86.9S714.2,1503.7,714.2,1431.9z"/>
	<g>
		<ellipse class="st15" cx="484.9" cy="1430.2" rx="27.7" ry="27.8"/>
		<ellipse class="st0" cx="484.9" cy="1430.2" rx="18.1" ry="18.2"/>
		<path class="st1" d="M478.9,1421.2L478.9,1421.2c-0.3,0.3-0.4,0.8-0.1,1.1l1.1,1.3c0.3,0.3,0.8,0.4,1.1,0.1l0,0
			c3.4-1.8,7.6-1,10.1,2.2c2.5,3.3,2.2,8.1-0.9,10.9c-3.4,3.1-8.7,2.8-11.6-0.8c-1.5-1.8-2.1-4.1-1.8-6.2l0,0c0-0.4-0.3-0.8-0.7-0.8
			l-1.7-0.2c-0.4,0-0.8,0.3-0.9,0.7l0,0c-0.4,3.1,0.5,6.4,2.8,9c3.9,4.3,10.6,5,15.2,1.5c5.3-4,6.1-11.5,1.9-16.5
			C489.9,1419.2,483.6,1418.3,478.9,1421.2z"/>
		<path class="st0" d="M523.2,1423c0,0-14.1-6.6-27.7-7.8s-26.5,3-30.1,4.2c-9.8,3.5-19,11.8-25,12.4
			C418.9,1434.2,515.3,1348.1,523.2,1423z"/>
		<path class="st0" d="M452.2,1444.4c0,0,13.8,8.9,30.5,10.4c15.6,1.4,33.8-4.6,43.1-3.8C544.9,1452.8,446.3,1511,452.2,1444.4z"/>
	</g>
	<g>
		<ellipse class="st15" cx="634.2" cy="1430.2" rx="27.7" ry="27.8"/>
		<ellipse class="st0" cx="634.2" cy="1430.2" rx="18.1" ry="18.2"/>
		<path class="st1" d="M640.2,1421.2L640.2,1421.2c0.3,0.3,0.4,0.8,0.1,1.1l-1.1,1.3c-0.3,0.3-0.8,0.4-1.1,0.1l0,0
			c-3.4-1.8-7.6-1-10.1,2.2c-2.5,3.3-2.2,8.1,0.9,10.9c3.4,3.1,8.7,2.8,11.6-0.8c1.5-1.8,2.1-4.1,1.8-6.2l0,0c0-0.4,0.3-0.8,0.7-0.8
			l1.7-0.2c0.4,0,0.8,0.3,0.9,0.7l0,0c0.4,3.1-0.5,6.4-2.8,9c-3.9,4.3-10.6,5-15.2,1.5c-5.3-4-6.1-11.5-1.9-16.5
			C629.2,1419.2,635.5,1418.3,640.2,1421.2z"/>
		<path class="st0" d="M595.9,1423c0,0,14.1-6.6,27.7-7.8s26.5,3,30.1,4.2c9.8,3.5,19,11.8,25,12.4
			C700.2,1434.2,603.8,1348.1,595.9,1423z"/>
		<path class="st0" d="M666.9,1444.4c0,0-13.8,8.9-30.5,10.4c-15.6,1.4-33.8-4.6-43.1-3.8C574.2,1452.8,672.8,1511,666.9,1444.4z"/>
	</g>
	<path class="st1" d="M527.9,1394.4c-0.8,15.4-11.3-1.7-43-1.4s-42.5,14.7-43.4,6.3c-0.6-5.5,18.5-16.5,42.3-17.8
		c17.7-1,37-3.5,43.8,1.8C530,1385.1,528,1391.6,527.9,1394.4z"/>
	<path class="st1" d="M591.2,1394.4c0.8,15.4,11.3-1.7,43-1.4s42.5,14.7,43.4,6.3c0.6-5.5-18.5-16.5-42.3-17.8
		c-17.7-1-37-3.5-43.8,1.8C589.1,1385.1,591.1,1391.6,591.2,1394.4z"/>
	<path class="st15" d="M572.4,1428.1c-7.3-29.3-11.3-63.7-11.3-63.7s0-2.3-1.6-2.3c-1.6,0-1.6,2.3-1.6,2.3s-3.9,34.4-11.3,63.7
		c-7.3,29.3-18.1,53.3-11.1,58.3c14,9.9,16.7-1.7,12.2,13c-4.6,14.7-7.2,22.6-7.2,22.6s-1.6,5,17,5c0.4,0,1.3,0,2.2,0
		c0.8,0,1.6,0,1.9,0c18.6,0,17-5,17-5s-2.6-7.9-7.2-22.6c-4.6-14.7-1.8-3.1,12.2-13C590.6,1481.4,579.8,1457.3,572.4,1428.1z"/>
	<path class="st4" d="M266.2,1470.3c-26.8,5.9-46.9,30-46.9,58.7v56.2c0,28.8,20.1,52.8,46.9,58.7v-127.7c0-13,5.2-33.1,23.6-45.9
		H266.2z"/>
	<path class="st6" d="M557.9,1364.4c0,0-3.9,34.4-11.3,63.7c-7.3,29.3-18.1,53.3-11.1,58.3c14,9.9,16.7-1.7,12.2,13
		c-4.6,14.7-7.2,22.6-7.2,22.6s-1.6,5,17,5c0.3,0,1.2,0,2.1,0V1362C557.9,1362,557.9,1364.4,557.9,1364.4z"/>
	<path class="st1" d="M721.5,1283.6c-0.7-3.5-7.5-10.7-11.6-21.5c-6.2-16.5-25.3-41.6-36.3-52.6c-18.1-18.2-47.3-28.5-59.1-31.5
		c-11.8-3-9.1-5.5-56.3-5.5c-47.2,0-41.7,2.5-53.5,5.5c-11.8,3-41,13.3-59.1,31.5c-10.9,11-30.1,36-36.3,52.6
		c-4.1,10.8-10.9,18-11.6,21.5c-5.2,26.7-1.8,64.3,17.2,56.2c9.2-3.9,37,5.6,52,3.4c54.7-8.2,61.5,6,92.5,6c0,0,0,0,0,0s0,0,0,0
		c31.1,0.1,37.8-14.2,92.5-6c15,2.3,42.8-7.3,52-3.4C723.3,1348,726.7,1310.3,721.5,1283.6z"/>
	<g>
		<path class="st3" d="M716.5,1283.7c-7.2-0.7-13.9,10.3-13.9,10.3s-5-12-12.2-12.6c-7.2-0.6-13.8,10.6-13.8,10.6s-5.2-12-12.4-12.4
			s-13.6,10.8-13.6,10.8s-5.3-11.9-12.5-12.2c-7.2-0.3-13.3,4.6-13.5,11c0,0,0,0,0,0c0.2-6.4-5.5-11.8-12.7-12
			c-7.2-0.2-13.3,11.2-13.3,11.2s-5.6-11.7-12.9-11.8c-7.2-0.1-13.2,11.4-13.2,11.4s-5.8-11.6-13-11.6c-0.1,0-0.1,0-0.2,0
			c-0.1,0-0.1,0-0.2,0c-7.2,0-13,11.6-13,11.6s-5.9-11.5-13.2-11.4c-7.2,0.1-12.9,11.8-12.9,11.8s-6.1-11.4-13.3-11.2
			c-7.2,0.2-12.9,5.6-12.7,12c0,0,0,0,0,0c-0.2-6.4-6.2-11.3-13.5-11c-7.2,0.3-12.5,12.2-12.5,12.2s-6.4-11.2-13.6-10.8
			c-7.2,0.5-12.4,12.4-12.4,12.4s-6.6-11.1-13.8-10.6s-12.2,12.6-12.2,12.6s-6.7-11-13.9-10.3c-7.2,0.7-12.6,6.4-12.1,12.8
			c0.9,10.7,1.4,16,2.3,26.6c0.4,4.7,0.6,7,1,11.6c0.9,10.7,1.4,16,2.3,26.6c0.6,6.4,6.6,10.9,13.5,10.3
			c6.9-0.7,11.6-12.7,11.6-12.7s6.4,11,13.3,10.5c6.9-0.5,11.8-12.5,11.8-12.5s6.3,11.1,13.2,10.7c6.9-0.4,12-12.3,12-12.3
			s6.1,11.2,13,10.9c6.9-0.3,12.3-5.7,12.1-12.1c0,0,0,0,0,0c0.2,6.4,6,11.3,12.9,11.1s12.3-11.9,12.3-11.9s5.8,11.4,12.7,11.3
			c6.9-0.1,12.4-11.7,12.4-11.7s5.7,11.5,12.6,11.5c0,0,0.1,0,0.1,0c0,0,0.1,0,0.1,0c6.9,0,12.6-11.5,12.6-11.5s5.5,11.6,12.4,11.7
			c6.9,0.1,12.7-11.3,12.7-11.3s5.4,11.7,12.3,11.9c6.9,0.2,12.7-4.7,12.9-11.1c0,0,0,0,0,0c-0.2,6.4,5.2,11.8,12.1,12.1
			c6.9,0.3,13-10.9,13-10.9s5.1,11.8,12,12.3c6.9,0.4,13.2-10.7,13.2-10.7s4.9,11.9,11.8,12.5c6.9,0.5,13.3-10.5,13.3-10.5
			s4.7,12,11.6,12.7c6.9,0.7,12.9-3.9,13.5-10.3c0.9-10.7,1.4-16,2.3-26.6c0.4-4.7,0.6-7,1-11.6c0.9-10.7,1.4-16,2.3-26.6
			C729.1,1290.2,723.7,1284.4,716.5,1283.7z"/>
	</g>
	<path class="st1" d="M251.5,1483.7c-12.1,6.2-18.8,17.9-22.3,26.8c-1.2,3-3,11-3.1,13.6c-0.2,4.8-0.4,11.2-0.4,11.2v52.8
		c0,3.4,2.7,6.2,6.1,6.2h0.2c3.4,0,6.1-2.8,6.1-6.2v-60.2c0-0.5,0-1.1,0-1.6C238.2,1492.4,272.8,1472.8,251.5,1483.7z"/>
	<path class="st1" d="M867.6,1483.7c12.1,6.2,18.8,17.9,22.3,26.8c1.2,3,3,11,3.1,13.6c0.2,4.8,0.4,11.2,0.4,11.2v52.8
		c0,3.4-2.7,6.2-6.1,6.2h-0.2c-3.4,0-6.1-2.8-6.1-6.2v-60.2c0-0.5,0-1.1,0-1.6C880.9,1492.4,846.3,1472.8,867.6,1483.7z"/>
	<path class="st1" d="M714.7,1450.1c0,0-6.3,15.8-9.2,29.2c-4.6,21-6.6,33.6-7.5,40.5c-4.2,14.7-7.3,26.4-12.7,31.3
		c-15.3,14.1-27.9,12.3-32.8,9.4c-3.6-2.1-3.2-9.4-16.3-21.6c-14.8-13.9-24.5-26.2-39.6-26.2c-9.4-0.2-28.4,4.7-37.2,4.7
		c-0.1,0-0.2,0-0.3,0c-0.1,0-0.2,0-0.3,0c-8.8,0-27.7-4.9-37.2-4.7c-15.1,0-24.8,12.4-39.6,26.2c-13,12.2-12.7,19.5-16.3,21.6
		c-4.9,2.9-17.5,4.7-32.8-9.4c-5.4-5-8.5-16.6-12.7-31.3c-0.9-6.9-2.9-19.6-7.5-40.5c-2.9-13.3-9.2-29.2-9.2-29.2c0,0.7,0,1.2,0,1.4
		c0,2,0.1,5.6,0.3,10.3c0.1,3.2,0.2,6.2,0.4,9.1c1.2,25.1,3.5,64,4.1,68c4.8,36,21.3,59.2,34.1,81.7c10.2,18,22.2,31.4,34.5,39.5
		c9.1,6,44.4,20,81.8,20c0.1,0,0.2,0,0.3,0c0.1,0,0.2,0,0.3,0c37.4,0,72.7-14,81.8-20c12.3-8.1,24.3-21.5,34.5-39.5
		c12.7-22.5,29.3-45.7,34.1-81.7c0.5-4,2.9-43,4.1-68c0.2-2.9,0.3-5.9,0.4-9.1c0.2-4.7,0.3-8.3,0.3-10.3
		C714.7,1451.3,714.7,1450.8,714.7,1450.1z"/>
	<path class="st0" d="M619.9,1582.3c-0.8-3.8-21.8-13.7-34-16c-8.9-1.7-14.6,0.9-26.3,0.9c-11.7,0-20.8-2.2-31.4,0
		c-8.9,1.8-28.2,11.3-29,15.1c-0.3,1.6,1.4,3.6,3.4,5.2c2.1,1.8,13.2,11.3,24.6,16.2c7.8,3.4,18.4,6.2,32.3,6.6
		c13.9-0.4,24.4-3.2,32.3-6.6c11.4-4.9,22.5-14.4,24.6-16.2C618.4,1585.9,620.2,1583.9,619.9,1582.3z"/>
	<path class="st0" d="M573.2,1490.7l-14-0.2l-14,0.2c0,0-11.3,15.6-2.6,24.5c0,0,3.8-4.5,7.5-9.4c2.8-3.6,4.7-8,9-8s6.3,4.4,9,8
		c3.7,4.9,7.5,9.4,7.5,9.4C584.5,1506.3,573.2,1490.7,573.2,1490.7z"/>
	<path class="st1" d="M318.8,1995.2l6-19.6c8.9-2.5,15.2-10.8,14.8-20.5c0,0,0,0,0,0l-0.5-12.7c4.5-3.3,10.6-4.3,16.5-2.3h0
		c9.6,3.1,14.9,13.4,11.8,23.1l-15.3,48c-2.9,21.5-8.4,46.3-18,51.8c-17.8,10.2-38.6-42.9-38.6-42.9S301.9,2007.4,318.8,1995.2z"/>
	<path class="st1" d="M326.6,1980.1c0,0-2.2,5.2-2.2,13.6c0,8.4-6.9,0.2-6.9,0S326.6,1970.4,326.6,1980.1z"/>
	<path class="st5" d="M274.4,2096.2c4.8,50.4,66.7,60.2,61.2-24.4c-1-15.2-1.7-25.5-1.9-28.5c-1.9-25.3-2.9-52.7-3.3-80.5
		C329.4,1882.5,263.8,1985.2,274.4,2096.2z"/>
	<path class="st1" d="M262.1,1975.8c0.3,0.1,0.5,0.1,0.8,0.1c1.2,0.2,2.4,0.3,3.7,0.2c0,0,0.1,0,0.1,0h0l18.8-0.8l28.9-1.2h0
		c0,0,0.1,0,0.1,0c1.3-0.1,2.5-0.2,3.7-0.5c0.3-0.1,0.5-0.1,0.8-0.2c8.9-2.5,15.3-10.8,14.9-20.5c0,0,0,0,0,0l-1.9-46.2c0,0,0,0,0,0
		c-0.1-1.4-0.3-2.8-0.6-4.1c-2.1-8.6-9.6-14.9-18.5-15.4c-0.7,0-1.4,0-2.1,0h0l-28.9,1.2l-18.8,0.8h0c-0.7,0-1.4,0.1-2.1,0.2
		C252.3,1890.6,253.1,1974,262.1,1975.8z"/>
	<path class="st1" d="M327.8,2000.6"/>
	<path class="st1" d="M327.3,1670.1c-23.5,0.4-59.8,5-69.3,28.5c-3.9,9.5-17.5,63.5-17.2,120c0.3,75.1,16.4,166.5,27,277.6
		c4.8,50.4,49.6,71.7,49.7,134.7c0.1,38.2,10.6,44.7,15,69.7c4.8,27.1,9.3,80.9,9.3,80.9c8.5,14.1-13.2-318.6-14.7-338.2
		c-7.3-98.1-1.9-227.9,5.9-295.5c1.9-16.4,4-34.9,8.5-45.9c7.5-18.3,17.6-24.1,16.1-25.4C350.2,1670.3,333.2,1670,327.3,1670.1z"/>
	<path class="st5" d="M315.4,1681.4c-20.7,0.4-52.8,5-61.2,28.5c-3.4,9.5-15.4,63.5-15.2,120c0.3,75.1,14.5,166.5,23.9,277.6
		c3.1,36.9,22.7,62.6,32.7,109.9c1.4,6.8,17.9,8.9,17.9,39c0,16.7,9.2,16.2,11.6,31.2c7.7,49.5,16.6,102.1,16.7,94
		c0.6-62.3-25.4-310.2-26.5-327c-6.4-98.1-1.7-227.9,5.2-295.5c1.7-16.4,3.6-34.9,7.5-45.9c6.6-18.3,10.3-25.9,8.9-27.2
		C330.3,1679.8,320.6,1681.3,315.4,1681.4z"/>
	<path class="st1" d="M216.5,2049.6c2.5-2.5,3.3-5,4.8-6.8c4.4-5.3,6-7.4,9.5-9.3c6.7-3.7,15.6-7.1,18.5-9.9c4.4-4.2,5-11.4,11.8-14
		c3.4,29.1,6.9,59.5,9.9,91.3c2,20.8,5.5,44.7,9.9,70.2c-19.8-24.8-28.7-62.3-26.6-93.6C243.9,2065.7,206.3,2059.5,216.5,2049.6z"/>
	<path class="st0" d="M247.4,1955.3c0.3,8.4,6.4,15.1,14.3,16.6c0.2,0,0.5,0.1,0.7,0.1c1,0.2,2.1,0.2,3.2,0.2c0,0,0.1,0,0.1,0h0
		l16.3-0.7l25-1h0c0,0,0.1,0,0.1,0c1.1-0.1,2.1-0.2,3.2-0.4c0.2-0.1,0.5-0.1,0.7-0.2c7.7-2.1,13.2-9.4,12.9-17.8c0,0,0,0,0,0
		l-1.6-40c0,0,0,0,0,0c0-1.2-0.2-2.4-0.5-3.5c-1.8-7.4-8.3-12.9-16-13.4c-0.6,0-1.2,0-1.8,0h0l-25,1l-16.3,0.7h0
		c-0.6,0-1.2,0.1-1.8,0.2c-7.6,1.1-13.6,7.1-14.8,14.7c-0.2,1.2-0.3,2.4-0.2,3.6c0,0,0,0,0,0L247.4,1955.3
		C247.4,1955.3,247.4,1955.3,247.4,1955.3z"/>
	<path class="st0" d="M244.9,1956.8c0.4,9,6.9,16.2,15.3,17.8c0.3,0,0.5,0.1,0.8,0.1c1.1,0.2,2.3,0.2,3.4,0.2c0,0,0.1,0,0.1,0h0
		l17.4-0.7l26.7-1.1h0c0,0,0.1,0,0.1,0c1.2-0.1,2.3-0.2,3.4-0.5c0.2-0.1,0.5-0.1,0.7-0.2c8.2-2.3,14.1-10,13.8-19c0,0,0,0,0,0
		l-1.7-42.7c0,0,0,0,0,0c-0.1-1.3-0.2-2.6-0.5-3.8c-2-7.9-8.8-13.8-17.1-14.3c-0.6,0-1.3,0-1.9,0h0l-26.7,1.1l-17.4,0.7h0
		c-0.6,0-1.3,0.1-1.9,0.2c-8.2,1.2-14.6,7.6-15.9,15.7c-0.2,1.2-0.3,2.5-0.2,3.8c0,0,0,0,0,0L244.9,1956.8
		C244.9,1956.8,244.9,1956.8,244.9,1956.8z M252.2,1917.6c-0.2-3.9,1.4-7.5,3.9-10.1c2.4-2.8,5.8-4.6,9.7-4.7l13.1-0.5l22.4-0.9
		c3.9-0.2,7.5,1.4,10,3.9c2.7,2.4,4.5,5.8,4.7,9.7l1.4,35c0.2,3.9-1.4,7.5-3.9,10.1c-2.4,2.8-5.8,4.6-9.7,4.7l-22.4,0.9l-13.1,0.5
		c-3.9,0.2-7.5-1.4-10-3.9c-2.7-2.4-4.5-5.8-4.7-9.7L252.2,1917.6z"/>
	<path class="st1" d="M252.3,1952.5c0.3,7.3,5.6,13.2,12.4,14.5c0.2,0,0.4,0.1,0.6,0.1c0.9,0.1,1.8,0.2,2.8,0.2c0,0,0.1,0,0.1,0h0
		l14.2-0.6l21.8-0.9h0c0,0,0.1,0,0.1,0c0.9,0,1.9-0.2,2.8-0.4c0.2,0,0.4-0.1,0.6-0.2c6.7-1.9,11.5-8.2,11.2-15.5c0,0,0,0,0,0
		l-1.4-34.8c0,0,0,0,0,0c0-1.1-0.2-2.1-0.4-3.1c-1.6-6.5-7.2-11.2-13.9-11.6c-0.5,0-1,0-1.6,0h0l-21.8,0.9l-14.2,0.6h0
		c-0.5,0-1,0.1-1.6,0.1c-6.7,1-11.9,6.2-12.9,12.8c-0.2,1-0.2,2.1-0.2,3.1c0,0,0,0,0,0L252.3,1952.5
		C252.3,1952.5,252.3,1952.5,252.3,1952.5z M258.2,1920.6c-0.1-3.2,1.1-6.1,3.2-8.2c1.9-2.2,4.7-3.7,7.9-3.8l10.7-0.4l18.3-0.8
		c3.2-0.1,6.1,1.1,8.2,3.2c2.2,1.9,3.7,4.7,3.8,7.9l1.2,28.5c0.1,3.2-1.1,6.1-3.2,8.2c-1.9,2.2-4.7,3.7-7.9,3.8l-18.3,0.8l-10.7,0.4
		c-3.2,0.1-6.1-1.1-8.2-3.2c-2.2-1.9-3.7-4.7-3.8-7.9L258.2,1920.6z"/>
	<path class="st1" d="M264.6,1945.4c0.2,4.5,3.5,8.2,7.7,9c0.1,0,0.3,0,0.4,0.1c0.6,0.1,1.1,0.1,1.7,0.1c0,0,0,0,0,0h0l8.8-0.4
		l13.5-0.6h0c0,0,0,0,0,0c0.6,0,1.2-0.1,1.7-0.2c0.1,0,0.3-0.1,0.4-0.1c4.2-1.2,7.2-5.1,7-9.6c0,0,0,0,0,0l-0.9-21.6c0,0,0,0,0,0
		c0-0.7-0.1-1.3-0.3-1.9c-1-4-4.5-7-8.6-7.2c-0.3,0-0.6,0-1,0h0l-13.5,0.6l-8.8,0.4h0c-0.3,0-0.7,0-1,0.1c-4.1,0.6-7.4,3.8-8,7.9
		c-0.1,0.6-0.1,1.3-0.1,1.9c0,0,0,0,0,0L264.6,1945.4C264.6,1945.4,264.6,1945.4,264.6,1945.4z M268.3,1925.5c-0.1-2,0.7-3.8,2-5.1
		c1.2-1.4,2.9-2.3,4.9-2.4l6.6-0.3l11.3-0.5c2-0.1,3.8,0.7,5.1,2c1.4,1.2,2.3,2.9,2.4,4.9l0.7,17.7c0.1,2-0.7,3.8-2,5.1
		c-1.2,1.4-2.9,2.3-4.9,2.4l-11.3,0.5l-6.6,0.3c-2,0.1-3.8-0.7-5.1-2c-1.4-1.2-2.3-2.9-2.4-4.9L268.3,1925.5z"/>
	<path class="st1" d="M279.7,1950l2.2-0.1l7.1-0.3l2.2-0.1l-0.5-12.5v0c0-0.5,0.5-7-6-6.7c-6.4,0.2-5.5,6.7-5.5,7.2l0,0L279.7,1950z
		"/>
	<path class="st1" d="M208.9,2066c-4.6-10.8,10.3-21.5,10.3-21.5h0c3.1-3.3,7.4-5.7,12.2-6.4c0,0,20.8,3.3,32.5,5
		c5.4,0.8,13.8,1.9,19.8,5.2c6.9,3.8,10.6,11.1,11.1,13.5c1.5,7.7-1.3,16.6-3,18.4c-6.1,6.6-5.9,7.3-10.7,8
		c4.2-0.6,15.9,9.4,15.9,22.7s-15,17.9-9.3,19.2c3.4,0.3,12.5,3.5,15.4,9.9c2.8,6.1,5,15,1.8,21.2c-2.7,5.3-7.9,7.8-11.3,8.3
		c1.8-0.3,6.6-0.2,11,4.4c5,5.2,6.8,14.3,5.7,20.6c-0.8,4.8-3.6,8.2-6.7,12.1c-3.1,3.9-13.6,6.1-17.3,5.6c-7.5-0.9-20.2-2.4-28-3.7
		c-11.5-1.9-16.3-3.8-20.9-8.8c0,0,0,0,0,0c-5.4-5.4-5.6-6.1-9-14c-2.7-6.3,1.2-12.5,4.9-16.6c-0.1-0.3-0.2-0.6-0.2-1.1
		c0-6.9-9.2-9.7-13.9-20.6c-3.7-8.8,5.3-17.4,8.8-20.4c-1.2-5.9-9.4-9.1-13.7-19.1c-3.6-8.5,4.8-17,8.6-20.2
		c-0.1-0.3-0.2-0.6-0.2-1.1C222.7,2079.6,213.5,2076.8,208.9,2066z"/>
	<path class="st0" d="M237.2,2078.5l33.3,4.2c8,1,15.2-4.7,16.2-12.7l0,0c1-8-4.7-15.3-12.6-16.3l-33.3-4.2c-8-1-26.6-0.5-26.6,11.4
		C214.1,2072.9,229.2,2077.5,237.2,2078.5z"/>
	<path class="st0" d="M237.2,2119.5l33.3,4.2c8,1,15.2-4.7,16.2-12.7l0,0c1-8-4.7-15.3-12.6-16.3l-33.3-4.2
		c-2.7-0.3-13.2-0.4-18.3,4.4c-1.8,1.7-2.5,4.7-2.6,7.4c-0.2,2.7,2.7,9.2,4.5,10.8C228,2116.5,233,2119,237.2,2119.5z"/>
	<path class="st0" d="M248.3,2162.5l33.3,4.2c8,1,15.2-4.7,16.2-12.7l0,0c1-8-4.7-15.3-12.6-16.3l-33.3-4.2
		c-5.4-0.7-14.5-0.3-20.1,2.5c-1.4,0.7-4.4,2.6-5.6,5.2c-1,2.3-0.5,5.4,0.8,7c1.4,1.7,5.5,6.8,7.7,8.6
		C239.9,2161.2,244.7,2162.1,248.3,2162.5z"/>
	<path class="st0" d="M253.4,2199.7l33.3,4.2c8,1,15.2-4.7,16.2-12.7l0,0c1-8-4.7-15.3-12.6-16.3l-33.3-4.2c-8-1-25.1,1.2-25.1,11.3
		c0,3.1,3.6,5.2,5.6,7.5C241.9,2195,247.8,2199,253.4,2199.7z"/>
	<path class="st1" d="M784.6,2000.6"/>
	<path class="st1" d="M803.1,1995.2l-6-19.6c-8.9-2.5-15.2-10.8-14.8-20.5c0,0,0,0,0,0l0.5-12.7c-4.5-3.3-10.6-4.3-16.5-2.3h0
		c-9.6,3.1-14.9,13.4-11.8,23.1l15.3,48c2.9,21.5,8.4,46.3,18,51.8c17.8,10.2,38.6-42.9,38.6-42.9S820,2007.4,803.1,1995.2z"/>
	<path class="st1" d="M795.3,1980.1c0,0,2.2,5.2,2.2,13.6c0,8.4,6.9,0.2,6.9,0S795.3,1970.4,795.3,1980.1z"/>
	<path class="st5" d="M847.4,2096.2c-4.8,50.4-66.7,60.2-61.2-24.4c1-15.2,1.7-25.5,1.9-28.5c1.9-25.3,2.9-52.7,3.3-80.5
		C792.5,1882.5,858.1,1985.2,847.4,2096.2z"/>
	<path class="st1" d="M860.7,1889.4c-0.7-0.1-1.4-0.2-2.1-0.2h0l-18.8-0.8l-28.9-1.2h0c-0.7,0-1.4,0-2.1,0
		c-8.9,0.5-16.3,6.9-18.5,15.4c-0.3,1.3-0.5,2.7-0.6,4.1c0,0,0,0,0,0l-1.9,46.2c0,0,0,0,0,0c-0.4,9.7,6,18,14.9,20.5
		c0.3,0.1,0.5,0.1,0.8,0.2c1.2,0.3,2.4,0.5,3.7,0.5c0,0,0.1,0,0.1,0h0l28.9,1.2l18.8,0.8h0c0,0,0.1,0,0.1,0c1.3,0,2.5,0,3.7-0.2
		c0.3,0,0.5-0.1,0.8-0.1C868.8,1974,869.6,1890.6,860.7,1889.4z"/>
	<path class="st1" d="M794.1,2000.6"/>
	<path class="st1" d="M794.6,1670.1c23.5,0.4,59.8,5,69.3,28.5c3.9,9.5,17.5,63.5,17.2,120c-0.3,75.1-16.4,166.5-27,277.6
		c-4.8,50.4-49.6,71.7-49.7,134.7c-0.1,38.2-10.6,44.7-15,69.7c-4.8,27.1-9.3,80.9-9.3,80.9c-8.5,14.1,13.2-318.6,14.7-338.2
		c7.3-98.1,1.9-227.9-5.9-295.5c-1.9-16.4-4-34.9-8.5-45.9c-7.5-18.3-17.6-24.1-16.1-25.4C771.7,1670.3,788.7,1670,794.6,1670.1z"/>
	<path class="st5" d="M806.5,1681.4c20.7,0.4,52.8,5,61.2,28.5c3.4,9.5,15.4,63.5,15.2,120c-0.3,75.1-14.5,166.5-23.9,277.6
		c-3.1,36.9-22.7,62.6-32.7,109.9c-1.4,6.8-17.9,8.9-17.9,39c0,16.7-9.2,16.2-11.6,31.2c-7.7,49.5-16.6,102.1-16.7,94
		c-0.6-62.3,25.4-310.2,26.5-327c6.4-98.1,1.7-227.9-5.2-295.5c-1.7-16.4-3.6-34.9-7.5-45.9c-6.6-18.3-10.3-25.9-8.9-27.2
		C791.5,1679.8,801.3,1681.3,806.5,1681.4z"/>
	<path class="st1" d="M905.3,2049.6c-2.5-2.5-3.3-5-4.8-6.8c-4.4-5.3-6-7.4-9.5-9.3c-6.7-3.7-15.6-7.1-18.5-9.9
		c-4.4-4.2-5-11.4-11.8-14c-3.4,29.1-6.9,59.5-9.9,91.3c-2,20.8-5.5,44.7-9.9,70.2c19.8-24.8,28.7-62.3,26.6-93.6
		C878,2065.7,915.5,2059.5,905.3,2049.6z"/>
	<g>
		<path class="st0" d="M874.4,1955.3l1.6-40c0,0,0,0,0,0c0-1.2,0-2.4-0.2-3.6c-1.2-7.5-7.2-13.5-14.8-14.7c-0.6-0.1-1.2-0.1-1.8-0.2
			h0l-16.3-0.7l-25-1h0c-0.6,0-1.2,0-1.8,0c-7.7,0.5-14.2,6-16,13.4c-0.3,1.1-0.5,2.3-0.5,3.5c0,0,0,0,0,0l-1.6,40c0,0,0,0,0,0
			c-0.3,8.4,5.2,15.6,12.9,17.8c0.2,0.1,0.5,0.1,0.7,0.2c1,0.2,2.1,0.4,3.2,0.4c0,0,0.1,0,0.1,0h0l25,1l16.3,0.7h0c0,0,0.1,0,0.1,0
			c1.1,0,2.2,0,3.2-0.2c0.2,0,0.5-0.1,0.7-0.1C868,1970.4,874.1,1963.7,874.4,1955.3C874.4,1955.3,874.4,1955.3,874.4,1955.3z"/>
		<path class="st0" d="M877,1956.8l1.7-42.7c0,0,0,0,0,0c0.1-1.3,0-2.6-0.2-3.8c-1.3-8.1-7.7-14.5-15.9-15.7
			c-0.6-0.1-1.3-0.2-1.9-0.2h0l-17.4-0.7l-26.7-1.1h0c-0.6,0-1.3,0-1.9,0c-8.2,0.5-15.1,6.4-17.1,14.3c-0.3,1.2-0.5,2.5-0.5,3.8
			c0,0,0,0,0,0l-1.7,42.7c0,0,0,0,0,0c-0.4,9,5.5,16.7,13.8,19c0.2,0.1,0.5,0.1,0.7,0.2c1.1,0.3,2.2,0.4,3.4,0.5c0,0,0.1,0,0.1,0h0
			l26.7,1.1l17.4,0.7h0c0,0,0.1,0,0.1,0c1.2,0,2.3,0,3.4-0.2c0.3,0,0.5-0.1,0.8-0.1C870.1,1972.9,876.6,1965.7,877,1956.8
			C877,1956.8,877,1956.8,877,1956.8z M868.2,1952.5c-0.2,3.9-2,7.4-4.7,9.7c-2.6,2.5-6.1,4.1-10,3.9l-13.1-0.5l-22.4-0.9
			c-3.9-0.2-7.3-2-9.7-4.7c-2.5-2.6-4-6.2-3.9-10.1l1.4-35c0.2-3.9,2-7.4,4.7-9.7c2.6-2.5,6.1-4.1,10-3.9l22.4,0.9l13.1,0.5
			c3.9,0.2,7.3,2,9.7,4.7c2.5,2.6,4,6.2,3.9,10.1L868.2,1952.5z"/>
		<path class="st1" d="M869.6,1952.5l1.4-34.8c0,0,0,0,0,0c0-1.1,0-2.1-0.2-3.1c-1.1-6.6-6.3-11.8-12.9-12.8c-0.5-0.1-1-0.1-1.6-0.1
			h0l-14.2-0.6l-21.8-0.9h0c-0.5,0-1.1,0-1.6,0c-6.7,0.4-12.3,5.2-13.9,11.6c-0.2,1-0.4,2-0.4,3.1c0,0,0,0,0,0l-1.4,34.8
			c0,0,0,0,0,0c-0.3,7.3,4.5,13.6,11.2,15.5c0.2,0.1,0.4,0.1,0.6,0.2c0.9,0.2,1.8,0.3,2.8,0.4c0,0,0.1,0,0.1,0h0l21.8,0.9l14.2,0.6
			h0c0,0,0.1,0,0.1,0c0.9,0,1.9,0,2.8-0.2c0.2,0,0.4-0.1,0.6-0.1C864,1965.7,869.3,1959.8,869.6,1952.5
			C869.6,1952.5,869.6,1952.5,869.6,1952.5z M862.5,1949c-0.1,3.2-1.6,6-3.8,7.9c-2.1,2.1-5,3.3-8.2,3.2l-10.7-0.4l-18.3-0.8
			c-3.2-0.1-6-1.6-7.9-3.8c-2.1-2.1-3.3-5-3.2-8.2l1.2-28.5c0.1-3.2,1.6-6,3.8-7.9c2.1-2.1,5-3.3,8.2-3.2l18.3,0.8l10.7,0.4
			c3.2,0.1,6,1.6,7.9,3.8c2.1,2.1,3.3,5,3.2,8.2L862.5,1949z"/>
		<path class="st1" d="M857.3,1945.4l0.9-21.6c0,0,0,0,0,0c0-0.7,0-1.3-0.1-1.9c-0.7-4.1-3.9-7.3-8-7.9c-0.3,0-0.6-0.1-1-0.1h0
			l-8.8-0.4l-13.5-0.6h0c-0.3,0-0.7,0-1,0c-4.2,0.3-7.7,3.2-8.6,7.2c-0.2,0.6-0.2,1.3-0.3,1.9c0,0,0,0,0,0l-0.9,21.6c0,0,0,0,0,0
			c-0.2,4.5,2.8,8.4,7,9.6c0.1,0,0.2,0.1,0.4,0.1c0.6,0.1,1.1,0.2,1.7,0.2c0,0,0,0,0,0h0l13.5,0.6l8.8,0.4l0,0c0,0,0,0,0,0
			c0.6,0,1.2,0,1.7-0.1c0.1,0,0.3,0,0.4-0.1C853.8,1953.6,857.1,1949.9,857.3,1945.4C857.3,1945.4,857.3,1945.4,857.3,1945.4z
			 M852.8,1943.2c-0.1,2-1,3.7-2.4,4.9c-1.3,1.3-3.1,2.1-5.1,2l-6.6-0.3l-11.3-0.5c-2-0.1-3.7-1-4.9-2.4c-1.3-1.3-2-3.1-2-5.1
			l0.7-17.7c0.1-2,1-3.7,2.4-4.9c1.3-1.3,3.1-2.1,5.1-2l11.3,0.5l6.6,0.3c2,0.1,3.7,1,4.9,2.4c1.3,1.3,2,3.1,2,5.1L852.8,1943.2z"/>
		<path class="st1" d="M842.1,1950l-2.2-0.1l-7.1-0.3l-2.2-0.1l0.5-12.5v0c0-0.5-0.5-7,6-6.7s5.5,6.7,5.5,7.2l0,0L842.1,1950z"/>
	</g>
	<path class="st1" d="M913,2066c4.6-10.8-10.3-21.5-10.3-21.5h0c-3.1-3.3-7.4-5.7-12.2-6.4c0,0-20.8,3.3-32.5,5
		c-5.4,0.8-13.8,1.9-19.8,5.2c-6.9,3.8-10.6,11.1-11.1,13.5c-1.5,7.7,1.3,16.6,3,18.4c6.1,6.6,5.9,7.3,10.7,8
		c-4.2-0.6-15.9,9.4-15.9,22.7s15,17.9,9.3,19.2c-3.4,0.3-12.5,3.5-15.4,9.9c-2.8,6.1-5,15-1.8,21.2c2.7,5.3,7.9,7.8,11.3,8.3
		c-1.8-0.3-6.6-0.2-11,4.4c-5,5.2-6.8,14.3-5.7,20.6c0.8,4.8,3.6,8.2,6.7,12.1c3.1,3.9,13.6,6.1,17.3,5.6c7.5-0.9,20.2-2.4,28-3.7
		c11.5-1.9,16.3-3.8,20.9-8.8c0,0,0,0,0,0c5.4-5.4,5.6-6.1,9-14c2.7-6.3-1.2-12.5-4.9-16.6c0.1-0.3,0.2-0.6,0.2-1.1
		c0-6.9,9.2-9.7,13.9-20.6c3.7-8.8-5.3-17.4-8.8-20.4c1.2-5.9,9.4-9.1,13.7-19.1c3.6-8.5-4.8-17-8.6-20.2c0.1-0.3,0.2-0.6,0.2-1.1
		C899.1,2079.6,908.4,2076.8,913,2066z"/>
	<path class="st0" d="M884.7,2078.5l-33.3,4.2c-8,1-15.2-4.7-16.2-12.7l0,0c-1-8,4.7-15.3,12.6-16.3l33.3-4.2
		c8-1,26.6-0.5,26.6,11.4C907.7,2072.9,892.7,2077.5,884.7,2078.5z"/>
	<path class="st0" d="M884.7,2119.5l-33.3,4.2c-8,1-15.2-4.7-16.2-12.7l0,0c-1-8,4.7-15.3,12.6-16.3l33.3-4.2
		c2.7-0.3,13.2-0.4,18.3,4.4c1.8,1.7,2.5,4.7,2.6,7.4c0.2,2.7-2.7,9.2-4.5,10.8C893.9,2116.5,888.9,2119,884.7,2119.5z"/>
	<path class="st0" d="M873.6,2162.5l-33.3,4.2c-8,1-15.2-4.7-16.2-12.7l0,0c-1-8,4.7-15.3,12.6-16.3l33.3-4.2
		c5.4-0.7,14.5-0.3,20.1,2.5c1.4,0.7,4.4,2.6,5.6,5.2c1,2.3,0.5,5.4-0.8,7c-1.4,1.7-5.5,6.8-7.7,8.6
		C881.9,2161.2,877.2,2162.1,873.6,2162.5z"/>
	<path class="st0" d="M868.5,2199.7l-33.3,4.2c-8,1-15.2-4.7-16.2-12.7l0,0c-1-8,4.7-15.3,12.6-16.3l33.3-4.2
		c8-1,25.1,1.2,25.1,11.3c0,3.1-3.6,5.2-5.6,7.5C879.9,2195,874,2199,868.5,2199.7z"/>
	<path class="st0" d="M772.4,2221.2c3.6-82.9,7.2-138.4,7.2-138.4s-8.3-16.1-15.5-41.8c-2.9-10.5-3.7-26.6-6.7-37.6
		c-4.2-15.5-12.6-25.2-12.6-39.4c0-48.7,34.7-48.7,34.7-48.7s2.9-46.8,2.9-89.5c0-24.1-6.5-94.8-11.1-112.1
		c-0.1-0.4-0.2-0.9-0.5-1.6c-0.7-2.2-1.6-4.2-2.4-6.1c-1-2.3-2.1-5-3.4-7.7l0,0c0,0-6.9-13.6-14.9-19.4h-9c-2.3,0-4.3,1.1-5.5,2.9
		c-1.3-1.7-3.3-2.9-5.6-2.9h-10.1c-3.9,0-7,3.1-7,7c0-3.9-3.1-7-7-7h-10.1c-3.9,0-7,3.1-7,7c0-3.9-3.1-7-7-7h-10.1c-3.9,0-7,3.1-7,7
		v0.9c-0.3-0.2-0.5-0.5-0.8-0.7c-2.9-2.6-7.7-1.9-10.9,1.3c-3.6,3.5-5.4,5.1-9.2,8.2c-3.5,2.8-4.6,7.4-2.4,10.6
		c-2.2-3.2-6.9-3.6-10.7-1.3c-4.1,2.5-6.2,3.7-10.4,5.9c-3.9,2-5.8,6.2-4.3,9.8c-1.5-3.6-6-5-10-3.6c-4.4,1.6-6.7,2.3-11.2,3.5
		c-4.1,1.1-6.9,4.8-6.1,8.7c-0.8-3.8-4.8-6.2-9-5.6c-4.6,0.7-6.9,0.9-11.6,1.2c-3.4,0.2-6.2,2.2-7.2,5l-0.2,2.4v-2.4
		c-1-2.8-3.9-4.8-7.2-5c-4.6-0.3-7-0.5-11.6-1.2c-4.2-0.6-8.2,1.8-9,5.6c0.8-3.8-2-7.6-6.1-8.7c-4.5-1.2-6.8-1.9-11.2-3.5
		c-4-1.5-8.5,0-10,3.6c1.5-3.6-0.4-7.8-4.3-9.8c-4.2-2.1-6.3-3.3-10.4-5.9c-3.7-2.3-8.4-1.9-10.7,1.3c2.2-3.2,1.1-7.8-2.4-10.6
		c-3.8-3.1-5.7-4.7-9.2-8.2c-3.3-3.2-8.1-3.9-10.9-1.3c-0.3,0.3-0.5,0.5-0.8,0.7v-0.9c0-3.9-3.1-7-7-7H440c-3.9,0-7,3.1-7,7
		c0-3.9-3.1-7-7-7h-10.1c-3.9,0-7,3.1-7,7c0-3.9-3.1-7-7-7h-10.1c-2.3,0-4.3,1.1-5.6,2.9c-1.2-1.7-3.2-2.9-5.5-2.9h-9
		c-8.1,5.8-14.9,19.4-14.9,19.4l0,0c-1.3,2.7-2.4,5.4-3.4,7.7c-0.9,1.9-1.7,3.9-2.4,6.1c-0.3,0.7-0.4,1.2-0.5,1.6
		c-4.6,17.3-11.1,88.1-11.1,112.1c0,42.7,2.9,89.5,2.9,89.5s34.7,0,34.7,48.7c0,14.1-8.4,23.9-12.6,39.4c-2.9,11-3.7,27.1-6.7,37.6
		c-7.1,25.7-15.5,41.8-15.5,41.8s3.6,55.4,7.2,138.4c0,23.9-10.1,27-10.1,27.9c3.3,81.3,17.6,183.2,17.6,187.2h407.9
		c0-4,14.3-105.9,17.6-187.2C782.5,2248.2,772.4,2245,772.4,2221.2z"/>
	<g>
		<path class="st4" d="M534.4,1395.5c-4.9-2.5-11.7-3.7-18.7-5c-16-3.2-35.7-3.4-49.2-3.2c-5.8,0.1-27.8,2-35.6,4.1
			c-9.4,2.5-18.4,5.2-27.5,5.2c-3.7,0-3.7,4-3.7,8.8c0,4.7,1.5,12.4,3.7,12.4c2.2,0,11.4,2,11.4,7.1c0,11.4,4.2,60.6,48.8,60.6
			c44.7,0,66.5-2,76.9-31.3c10.4-29.3,8.3-29.3,15.6-29.3h3.5v-20.2c-2,0-7.9-0.2-13.9-1C544.2,1403.4,540.6,1398.8,534.4,1395.5z
			 M536.4,1452.8c-9.6,27.1-29.9,29-71.3,29c-41.4,0-45.3-45.6-45.3-56.2c0-2.9-0.3-11.1,0.7-17.1c0.6-3.6,6.3-7.5,8.8-7.9
			c4.7-0.9,26.7-4.4,46.9-5.1c18.1-0.6,34.7,1.7,36.4,2c6,1.2,12.1,3.9,16.4,6.1c2.5,1.3,9.6,10.3,10.5,14.1
			C541.5,1426.2,540.5,1441.1,536.4,1452.8z"/>
		<path class="st4" d="M716,1396.5c-9.1,0-18.1-2.7-27.5-5.2c-7.7-2-29.8-4-35.6-4.1c-13.5-0.2-33.1,0.1-49.2,3.2
			c-7,1.4-13.8,2.5-18.7,5c-6.2,3.2-9.8,7.8-11.4,8.1c-5.9,0.8-11.9,1-13.9,1v20.2h3.5c7.3,0,5.2,0,15.6,29.3
			c10.4,29.3,32.2,31.3,76.9,31.3c44.7,0,48.8-49.2,48.8-60.6c0-5,9.3-7.1,11.4-7.1s3.7-7.7,3.7-12.4
			C719.6,1400.6,719.6,1396.5,716,1396.5z M699.6,1425.6c0,10.6-3.9,56.2-45.3,56.2c-41.4,0-61.7-1.9-71.3-29
			c-4.1-11.7-5.1-26.6-3.1-35.1c0.9-3.9,8-12.8,10.5-14.1c4.3-2.2,10.4-4.9,16.4-6.1c1.7-0.3,18.3-2.6,36.4-2
			c20.2,0.6,42.2,4.2,46.9,5.1c2.5,0.5,8.1,4.3,8.8,7.9C699.9,1414.5,699.6,1422.7,699.6,1425.6z"/>
	</g>
</g>
</svg>
