<svg id="Layer_2" data-name="Layer 2" xmlns="http://www.w3.org/2000/svg" xmlns:xlink="http://www.w3.org/1999/xlink" viewBox="0 0 329.7 325.72"><defs><style>.cls-1{fill:none;}.cls-2{fill:#fff;}.cls-3,.cls-5{fill:#293541;}.cls-4{fill:#ed3825;}.cls-5{stroke:#293541;stroke-miterlimit:10;stroke-width:4px;}.cls-6{clip-path:url(#clip-path);}.cls-7{fill:#eff3f6;}.cls-8{fill:#ffc313;}</style><clipPath id="clip-path"><circle class="cls-1" cx="168" cy="164.22" r="146"/></clipPath></defs><title>chickin-icon-logo-02</title><circle class="cls-2" cx="167" cy="163.22" r="157.78"/><circle class="cls-3" cx="167" cy="163.22" r="152"/><circle class="cls-3" cx="168" cy="163.22" r="146"/><path class="cls-4" d="M75.53,50.23a145.81,145.81,0,0,0-52.24,93.56C40.87,198.34,72,227.22,72.41,227.32A109.69,109.69,0,0,1,78.08,209C74.32,199,63.37,139.92,69,94.22,72.1,69,74.73,54.66,75.53,50.23Z"/><path class="cls-4" d="M88.54,203.44a110.79,110.79,0,0,1,21.82-31c-.17.36,6.51-48.39,39.64-79.23,46.61-43.4,84.67-49.65,99.88-50.89-1.37-.93-2.77-1.84-4.18-2.73l-.59-.37q-4.2-2.61-8.57-4.95l-.67-.35q-4.37-2.3-8.89-4.3l-.76-.33c-1.5-.65-3-1.28-4.52-1.89h0c-1.53-.6-3.08-1.18-4.63-1.73l-.88-.31q-2.28-.81-4.59-1.53h-.06c-1.57-.49-3.15-.94-4.73-1.38l-1-.27c-1.54-.41-3.1-.81-4.67-1.17H201c-1.59-.37-3.2-.7-4.81-1l-1.1-.21c-1.58-.29-3.16-.57-4.76-.82h-.11c-1.62-.25-3.26-.46-4.9-.65l-1.18-.14c-1.62-.18-3.24-.34-4.88-.46h-.08c-1.66-.12-3.32-.21-5-.28L173,17.31c-1.67,0-3.35-.09-5-.09a145.52,145.52,0,0,0-48,8.1C76.61,102.29,84.51,179.7,88.54,203.44Z"/><path class="cls-4" d="M124.32,216.3a137.85,137.85,0,0,1,47.15-3.45C171,213,203.24,166.08,306,210.9A146.3,146.3,0,0,0,295.3,91.7c-34.13,9.2-73.17,21.61-98.3,35.52C133.53,162.36,124.14,216.25,124.32,216.3Z"/><path class="cls-4" d="M51.51,251.23c7.59,1.74,17.3,2.32,17.38,2.61s.11-9.62,1.47-17.27c-4.63-3.84-14-10.61-23.36-19.35-8.57-8-16.15-15.86-21.29-21.16A145.34,145.34,0,0,0,51.51,251.23Z"/><rect class="cls-5" x="95.13" y="142.11" width="28.26" height="31.18" transform="translate(-71.96 94.72) rotate(-36.12)"/><path class="cls-3" d="M89,154.46c-2.93,0-4.42-1.21-5.16-2.22-1.51-2.08-1.22-5.1.84-8.52a30.65,30.65,0,0,1,8.16-8.48c4.8-3.5,10-5.6,13.79-5.6,2.92,0,4.42,1.21,5.15,2.22,1.52,2.08,1.22,5.11-.84,8.52a30.65,30.65,0,0,1-8.16,8.48C98,152.37,92.84,154.46,89,154.46Z"/><path class="cls-3" d="M106.64,131.64a4.16,4.16,0,0,1,3.54,1.4c2.09,2.87-1.74,9.23-8.56,14.21-4.58,3.34-9.34,5.21-12.61,5.21a4.16,4.16,0,0,1-3.54-1.4c-2.09-2.87,1.74-9.23,8.56-14.21,4.58-3.34,9.34-5.21,12.61-5.21m0-4h0c-4.24,0-9.84,2.24-15,6A33.09,33.09,0,0,0,83,142.69c-3.37,5.6-1.91,9.13-.74,10.73.83,1.14,2.8,3,6.77,3,4.24,0,9.83-2.24,15-6a32.77,32.77,0,0,0,8.7-9.06c3.37-5.6,1.91-9.13.74-10.74-.83-1.13-2.81-3-6.77-3Z"/><path class="cls-4" d="M97.85,150.56a8.73,8.73,0,0,1-8.07-6.16,8,8,0,0,1,3.07-9.16c4.8-3.5,10-5.6,13.79-5.6,2.92,0,4.42,1.21,5.15,2.22,1.52,2.08,1.22,5.11-.84,8.52a30.65,30.65,0,0,1-8.16,8.48A8.31,8.31,0,0,1,97.85,150.56Z"/><path class="cls-3" d="M106.64,131.64a4.16,4.16,0,0,1,3.54,1.4c2.09,2.87-1.74,9.23-8.56,14.21a6.36,6.36,0,0,1-3.77,1.31c-5.37,0-9.38-7.65-3.82-11.71,4.58-3.34,9.34-5.21,12.61-5.21m0-4h0c-4.24,0-9.84,2.24-15,6a10,10,0,0,0-3.8,11.4,10.78,10.78,0,0,0,10,7.54A10.34,10.34,0,0,0,104,150.5a32.77,32.77,0,0,0,8.7-9.06c3.37-5.61,1.91-9.13.74-10.74-.83-1.13-2.81-3-6.77-3Z"/><path class="cls-4" d="M104.34,159.3,115.05,174l14.59-10.64L118.15,147.6S96.21,148.16,104.34,159.3Z"/><path class="cls-3" d="M109.2,130.27a3.12,3.12,0,0,0-1.31,2.1,3.3,3.3,0,0,0-3.71,2.7,3.17,3.17,0,0,0-2.4.61,3.11,3.11,0,0,0-1.3,2.1,3.29,3.29,0,0,0-3.72,2.81,3.09,3.09,0,0,0-2.51.58,3.19,3.19,0,0,0-1.31,2.1,3.32,3.32,0,0,0-3.7,2.71,3.3,3.3,0,0,0-3.71,2.7,3.17,3.17,0,0,0-2.4.61,2.62,2.62,0,0,0-.95,3.55l4,5.52,2,2.77,4,5.52a2.62,2.62,0,0,0,3.67.18,3.16,3.16,0,0,0,1.31-2.1,3.17,3.17,0,0,0,2.4-.61,3.11,3.11,0,0,0,1.3-2.1,3.12,3.12,0,0,0,2.4-.6,3.16,3.16,0,0,0,1.31-2.1,3.17,3.17,0,0,0,2.4-.61,3.09,3.09,0,0,0,1.32-2.2,3.3,3.3,0,0,0,3.81-2.69,3.3,3.3,0,0,0,3.71-2.7,3.32,3.32,0,0,0,3.71-2.71,3.12,3.12,0,0,0,2.4-.6,2.64,2.64,0,0,0,1-3.55l-4-5.53-2-2.77-4-5.52a2.62,2.62,0,0,0-3.7-.19Z"/><path class="cls-4" d="M109.74,130.87a1.72,1.72,0,0,0-.59,2.33l4.35,6,1.34,1.84,4.35,6a1.89,1.89,0,0,0,3-2.19l-4.34-6L116.49,137l-4.35-6A1.71,1.71,0,0,0,109.74,130.87Z"/><path class="cls-4" d="M106,133.6a1.71,1.71,0,0,0-.59,2.33l4.34,6,1.35,1.85,4.34,5.95a1.89,1.89,0,0,0,3-2.18l-4.35-6-1.34-1.85-4.35-5.95A1.7,1.7,0,0,0,106,133.6Z"/><path class="cls-4" d="M102.25,136.33a1.72,1.72,0,0,0-.59,2.33l4.35,6,1.35,1.85,4.34,6a1.89,1.89,0,0,0,3-2.18l-4.35-6L109,142.43l-4.34-6A1.73,1.73,0,0,0,102.25,136.33Z"/><path class="cls-4" d="M98.51,139.06a1.73,1.73,0,0,0-.59,2.34l4.34,5.95,1.35,1.85,4.35,6a1.88,1.88,0,0,0,3-2.18l-4.34-6-1.35-1.84-4.35-6A1.73,1.73,0,0,0,98.51,139.06Z"/><path class="cls-4" d="M94.77,141.79a1.72,1.72,0,0,0-.59,2.34l4.34,6L99.87,152l4.34,6a1.89,1.89,0,0,0,3-2.19l-4.35-6L101.52,148l-4.35-6A1.71,1.71,0,0,0,94.77,141.79Z"/><path class="cls-4" d="M91,144.52a1.73,1.73,0,0,0-.59,2.34l4.35,5.95,1.35,1.85,4.34,6a1.89,1.89,0,0,0,3-2.19l-4.35-6-1.35-1.85-4.34-6A1.73,1.73,0,0,0,91,144.52Z"/><path class="cls-4" d="M87.28,147.26a1.72,1.72,0,0,0-.59,2.33l4.34,6,1.35,1.84,4.35,6a1.89,1.89,0,0,0,3-2.19l-4.34-6L94,153.36l-4.35-6A1.71,1.71,0,0,0,87.28,147.26Z"/><g class="cls-6"><path class="cls-7" d="M132.27,87.26a34.55,34.55,0,0,0-3.53-9.21c-2.8-4.86-5-16.09-1.63-23.65a17.64,17.64,0,0,1,16.28-10.11,19,19,0,0,1,5.75.9,13,13,0,0,0,4,.66c5,0,9-3.18,13-6.25s7.59-5.88,12-5.88a10.74,10.74,0,0,1,4.25.91c7.14,3.13,4.47,11.39,2.87,16.32l-.61,1.89-1.89-.6a29.59,29.59,0,0,0-9-1.46c-15.81,0-25.88,13.82-28.51,22.53v.22A54.46,54.46,0,0,1,137.66,86l-.09.1c-.57.58-1.17,1.23-1.85,2L133.17,91Z"/><path class="cls-3" d="M178.17,35.72a8.57,8.57,0,0,1,3.45.75c5,2.19,3.81,7.56,1.77,13.86a31.75,31.75,0,0,0-9.62-1.55c-16.29,0-27.36,13.8-30.42,24h0a52.63,52.63,0,0,1-7.21,12c-.64.65-1.28,1.35-1.92,2.08a36.91,36.91,0,0,0-3.74-9.74c-2.46-4.26-4.63-14.92-1.54-21.84a15.63,15.63,0,0,1,14.45-8.92,16.93,16.93,0,0,1,5.14.8,14.91,14.91,0,0,0,4.59.75c10.56,0,17-12.13,25-12.13m0-4c-5.14,0-9.27,3.2-13.27,6.3s-7.52,5.83-11.78,5.83a11,11,0,0,1-3.37-.56,20.78,20.78,0,0,0-6.36-1,19.62,19.62,0,0,0-18.1,11.29C121.65,61.75,124,73.82,127,79.05a32.53,32.53,0,0,1,3.32,8.68l1.79,7.52,5.1-5.81c.66-.75,1.24-1.37,1.77-1.92l.1-.1.09-.1a56.35,56.35,0,0,0,7.83-13l.1-.22.07-.23c2.46-8.15,11.86-21.1,26.59-21.1a27.93,27.93,0,0,1,8.41,1.36l3.79,1.2,1.22-3.78a30.69,30.69,0,0,0,1.95-9.82,9.48,9.48,0,0,0-5.92-8.94,12.39,12.39,0,0,0-5.05-1.08Z"/><path class="cls-8" d="M124.63,120.1a4.34,4.34,0,0,1-3.69-1.83c-1.52-2.21-.82-5.36.71-9.41a55.48,55.48,0,0,1,16.18-23l3.88-3.25,1,5c.91,4.6,4.78,9.7,8.88,15.11l2.27,3-3.41,1.56a143.43,143.43,0,0,0-13.47,7.3c-6.24,3.67-9.62,5.59-12.33,5.59Z"/><path class="cls-3" d="M139.75,88.14c1,5.14,4.88,10.34,9.43,16.34-11,5-20.88,12.62-24.55,12.62-1.87,0-2.14-1.95-.17-7.19a52.15,52.15,0,0,1,15.29-21.77M143.67,77l-7.77,6.51a58.55,58.55,0,0,0-17.05,24.26c-1.62,4.27-2.78,8.7-.37,12.18a7.33,7.33,0,0,0,6.15,3.12c3.65,0,7.49-2.26,13.85-6a143.42,143.42,0,0,1,13.19-7.15l6.82-3.11-4.53-6C150.25,96,146.41,90.9,145.64,87l-2-10Z"/><path class="cls-4" d="M286.13,233.69c-.9,0-2.53-.48-3.35-3.67l-.76-3a70,70,0,0,0-2-7.15c-.68-1.84-1.42-3.7-2.2-5.53a119.81,119.81,0,0,0-38.43-48.73c-17.73-13-38.13-19.93-59-19.93-2.57,0-5.21.09-7.83.28l-2,.15-.12-2c-1.08-17.25-10.22-29.3-17.56-39C147.06,97.43,142,90.8,142.49,83.66c.66-10.23,13-30.15,33.25-30.15,10.86,0,22.07,5.64,33.32,16.76.42.41,1.11,1.23,2.12,2.49,31.74,30.9,59.28,82.7,73.66,138.61,1.24,4.83,3.73,16.11,3.92,17a5.16,5.16,0,0,1-.67,4.27A2.55,2.55,0,0,1,286.13,233.69Z"/><path class="cls-3" d="M175.77,55.54c9.15,0,20,4.36,31.91,16.18a28.52,28.52,0,0,1,2,2.41c33.31,32.39,59.89,86,73.2,137.77,1.23,4.75,3.71,16,3.9,16.94.35,1.72-.09,2.85-.7,2.85-.46,0-1-.65-1.41-2.17l-.77-3c-1-3.87-1.78-6.72-2-7.34-.7-1.89-1.44-3.77-2.24-5.63-16.69-39-54.46-69.87-99.26-69.87-2.67,0-5.33.1-8,.29-2-31.27-28.91-45.29-27.94-60.19.64-9.94,12.48-28.28,31.25-28.28m0-4h0c-9.39,0-18.39,4.15-25.36,11.7-5.6,6-9.48,14-9.89,20.32-.51,7.88,4.73,14.79,10.8,22.79,7.55,10,16.11,21.25,17.15,37.91l.25,4,4-.29c2.58-.19,5.17-.28,7.69-.28,20.43,0,40.42,6.75,57.8,19.54a117.66,117.66,0,0,1,37.85,48c.77,1.79,1.5,3.62,2.17,5.43,0,.08.34,1,1.89,7,.24.93.5,1.92.76,3,1.21,4.67,4.1,5.17,5.29,5.17a4.58,4.58,0,0,0,3.54-1.71,7,7,0,0,0,1.08-5.93c-.19-1-2.71-12.35-3.94-17.15a367.19,367.19,0,0,0-29.43-77c-13.12-25.15-28.56-46.75-44.69-62.47-.69-.89-1.42-1.74-2.19-2.56-11.64-11.5-23.32-17.34-34.73-17.34Z"/></g><path class="cls-4" d="M164.22,310.85a148.49,148.49,0,0,1-63.71-14.2h-.1A150.53,150.53,0,0,1,73.35,279l-.91-.74-.27-1.14a107.14,107.14,0,1,1,211.28-26.58v1.22l-.75,1A148.87,148.87,0,0,1,164.22,310.85Z"/><path class="cls-3" d="M176.4,148.22A103.66,103.66,0,0,1,280,250.53a146.33,146.33,0,0,1-177.95,43,145.89,145.89,0,0,1-26.43-17.25,103.64,103.64,0,0,1,100.83-128m0-7A110.63,110.63,0,0,0,68.79,277.94l.55,2.28,1.81,1.49a153.83,153.83,0,0,0,27.7,18.07H99a153.22,153.22,0,0,0,186.47-45l1.49-1.94V250.4A110.68,110.68,0,0,0,176.4,141.22Z"/><path class="cls-3" d="M277,253.35a135.83,135.83,0,0,0-3.23-28.56c-1.77-5.57-3.59-5.75-4.77-5.57a2.65,2.65,0,0,0-1.62,1.54,8.24,8.24,0,0,0-.2,4.21q.4,1.5.78,3a119.75,119.75,0,0,1,3.32,28.35q0,4.31-.29,8.48A117.65,117.65,0,0,0,277,253.35Z"/><path class="cls-3" d="M266.46,271A92,92,0,1,0,89.85,286.56,146,146,0,0,0,266.46,271Z"/><circle class="cls-4" cx="176" cy="254.22" r="11"/><path class="cls-3" d="M183.23,261.45a9.91,9.91,0,0,1-14,0c-3.87-3.87,10.13-17.87,14-14A9.91,9.91,0,0,1,183.23,261.45Z"/><path class="cls-4" d="M176,178.22h0a1.5,1.5,0,0,1,1.5,1.5v7a1.5,1.5,0,0,1-1.5,1.5h0a1.5,1.5,0,0,1-1.5-1.5v-7A1.5,1.5,0,0,1,176,178.22Z"/><path class="cls-4" d="M185.63,238.4l19.9-29a1.49,1.49,0,0,1,2.08-.39h0a1.49,1.49,0,0,1,.39,2.08l-19.89,29a1.51,1.51,0,0,1-2.09.38h0A1.49,1.49,0,0,1,185.63,238.4Z"/><path class="cls-4" d="M133.11,260.46l23.12-4.31a1.51,1.51,0,0,1,1.75,1.2h0a1.5,1.5,0,0,1-1.2,1.75l-23.12,4.31a1.5,1.5,0,0,1-1.75-1.2h0A1.49,1.49,0,0,1,133.11,260.46Z"/><path class="cls-4" d="M222.66,205.42l5-4.95a1.51,1.51,0,0,1,2.12,0h0a1.5,1.5,0,0,1,0,2.13l-4.95,4.94a1.49,1.49,0,0,1-2.12,0h0A1.49,1.49,0,0,1,222.66,205.42Z"/><path class="cls-4" d="M128.52,303.81l.81-.8a1.51,1.51,0,0,0,0-2.12,1.49,1.49,0,0,0-2.11,0h0l-2,2C126.33,303.18,127.42,303.51,128.52,303.81Z"/><path class="cls-4" d="M101.5,252.72h7a1.5,1.5,0,0,1,1.5,1.5h0a1.5,1.5,0,0,1-1.5,1.5h-7a1.5,1.5,0,0,1-1.5-1.5h0A1.5,1.5,0,0,1,101.5,252.72Z"/><path class="cls-4" d="M243.5,252.72h7a1.5,1.5,0,0,1,1.5,1.5h0a1.5,1.5,0,0,1-1.5,1.5h-7a1.5,1.5,0,0,1-1.5-1.5h0A1.5,1.5,0,0,1,243.5,252.72Z"/><path class="cls-4" d="M122.25,200.48h0a1.51,1.51,0,0,1,2.12,0l4.95,5a1.5,1.5,0,0,1,0,2.13h0a1.51,1.51,0,0,1-2.12,0l-5-4.95A1.5,1.5,0,0,1,122.25,200.48Z"/><path class="cls-4" d="M146.81,184h0a1.5,1.5,0,0,1,2,.81l2.69,6.46a1.5,1.5,0,0,1-.81,2h0a1.5,1.5,0,0,1-2-.81L146,186A1.49,1.49,0,0,1,146.81,184Z"/><path class="cls-4" d="M200.34,191.23l2.67-6.47a1.5,1.5,0,0,1,2-.81h0a1.49,1.49,0,0,1,.82,2l-2.67,6.48a1.5,1.5,0,0,1-2,.81h0A1.5,1.5,0,0,1,200.34,191.23Z"/><path class="cls-4" d="M106.64,281.45l6.46-2.69a1.49,1.49,0,0,1,2,.81h0a1.5,1.5,0,0,1-.81,2l-6.46,2.69a1.5,1.5,0,0,1-2-.81h0A1.5,1.5,0,0,1,106.64,281.45Z"/><path class="cls-4" d="M237.75,226.9l6.46-2.69a1.49,1.49,0,0,1,2,.81h0a1.5,1.5,0,0,1-.81,2l-6.46,2.69a1.5,1.5,0,0,1-2-.81h0A1.5,1.5,0,0,1,237.75,226.9Z"/><path class="cls-4" d="M105.74,225.24h0a1.49,1.49,0,0,1,2-.82l6.48,2.67a1.5,1.5,0,0,1,.81,2h0a1.5,1.5,0,0,1-2,.81l-6.47-2.67A1.48,1.48,0,0,1,105.74,225.24Z"/><path class="cls-4" d="M237,279.37h0a1.49,1.49,0,0,1,1.95-.82l6.48,2.67a1.5,1.5,0,0,1,.81,2h0a1.51,1.51,0,0,1-2,.82l-6.47-2.67A1.49,1.49,0,0,1,237,279.37Z"/><path class="cls-3" d="M242.16,181h0a1.49,1.49,0,0,1,2.12,0l4.95,5a1.49,1.49,0,0,1,0,2.12h0a1.51,1.51,0,0,1-2.12,0l-5-5A1.49,1.49,0,0,1,242.16,181Z"/><path class="cls-3" d="M84.56,278A73.24,73.24,0,0,1,81.2,252c.14-2.44-1.84-4.47-3.68-3.77l-.9.34A2.92,2.92,0,0,0,75,251.27a82.64,82.64,0,0,0,4,27.61q4,3.08,8.16,5.87A63.64,63.64,0,0,1,84.56,278Z"/><path class="cls-7" d="M160,154.6a13.58,13.58,0,0,1-5.34-1.34l-.45-.19a11.26,11.26,0,0,1-6.22-7c-1.39-4.53-.07-9.88,3.92-15.88l.06-.11a7.61,7.61,0,0,0-1-1.89,27,27,0,0,1-1.77-3.08c-.73-1.5-.21-3.67.33-6a15.28,15.28,0,0,0,.49-2.6,37.08,37.08,0,0,0-2.79-6.36l-.87-1.64,2.07-1.29h.63c.73,0,1.55,0,4.51,3.78a83.43,83.43,0,0,1,13.17,27.63c.14.52.34,1.23.58,2,.84,2.91,1.49,5.22,1.66,6.26l.09.63-.28.57c-2.16,4.31-5.1,6.49-8.76,6.49Z"/><path class="cls-3" d="M149,109.2c.58,0,2.94,3,2.94,3a81.31,81.31,0,0,1,12.81,26.93c.53,1.91,2,6.7,2.19,8.07-2.12,4.23-4.67,5.38-7,5.38a13.06,13.06,0,0,1-5-1.38c-2.88-1.19-10-7-1.4-19.95,1.31-2-.9-3.52-2.6-7-.73-1.52,1.25-6.42,1-8-.3-1.89-3-7-3-7H149m0-4a4.14,4.14,0,0,0-2.17.62l-3.17,2,1.74,3.3a44,44,0,0,1,2.55,5.59c-.07.45-.28,1.35-.43,2-.62,2.65-1.21,5.16-.19,7.3a32.63,32.63,0,0,0,1.9,3.29l.43.67c-3.9,6.19-5.12,11.81-3.61,16.72a13.3,13.3,0,0,0,7.37,8.29l.42.18a15.71,15.71,0,0,0,6.13,1.5c3.08,0,7.41-1.31,10.55-7.59l.57-1.15-.2-1.26c-.18-1.15-.82-3.42-1.71-6.5-.23-.8-.44-1.51-.57-2a85.38,85.38,0,0,0-13.48-28.28h0c-2.73-3.49-4.15-4.55-6.09-4.55Z"/></svg>