<svg id="Layer_2" data-name="Layer 2" xmlns="http://www.w3.org/2000/svg" xmlns:xlink="http://www.w3.org/1999/xlink" viewBox="0 0 329.7 325.72">
  <defs>
    <style>
      .cls-1 {
        fill: none;
      }

      .cls-2, .cls-4 {
        fill: #293541;
      }

      .cls-3 {
        fill: #ed3825;
      }

      .cls-4 {
        stroke: #293541;
        stroke-miterlimit: 10;
        stroke-width: 4px;
      }

      .cls-5 {
        clip-path: url(#clip-path);
      }

      .cls-6 {
        fill: #eff3f6;
      }

      .cls-7 {
        fill: #ffc313;
      }
    </style>
    <clipPath id="clip-path">
      <circle class="cls-1" cx="168" cy="164.22" r="146"/>
    </clipPath>
  </defs>
  <title>chickin-icon-logo</title>
  <circle class="cls-2" cx="167" cy="163.22" r="152"/>
  <circle class="cls-2" cx="168" cy="163.22" r="146"/>
  <path class="cls-3" d="M75.53,50.23a145.8,145.8,0,0,0-52.24,93.56C40.87,198.34,72,227.22,72.41,227.32A109.89,109.89,0,0,1,78.08,209C74.32,199,63.37,139.92,69,94.22,72.1,69,74.73,54.66,75.53,50.23Z"/>
  <path class="cls-3" d="M88.54,203.44a110.77,110.77,0,0,1,21.82-31c-.17.36,6.51-48.39,39.64-79.23,46.61-43.4,84.67-49.65,99.88-50.89-1.37-.93-2.77-1.84-4.18-2.73l-.59-.37q-4.2-2.61-8.57-4.95l-.67-.35q-4.37-2.3-8.89-4.3l-.76-.33c-1.5-.65-3-1.28-4.52-1.89h0q-2.3-.9-4.63-1.73l-.88-.31q-2.28-.81-4.59-1.53l-.06,0c-1.57-.49-3.15-.94-4.73-1.38l-1-.27c-1.54-.41-3.1-.81-4.67-1.17l-.1,0c-1.59-.37-3.2-.7-4.81-1l-1.1-.21c-1.58-.29-3.16-.57-4.76-.82l-.11,0c-1.62-.25-3.26-.46-4.9-.65l-1.18-.14c-1.62-.18-3.24-.34-4.88-.46h-.08c-1.66-.12-3.32-.21-5-.28L173,17.31c-1.67,0-3.35-.09-5-.09a145.54,145.54,0,0,0-48,8.1C76.61,102.29,84.51,179.7,88.54,203.44Z"/>
  <path class="cls-3" d="M124.32,216.3a137.8,137.8,0,0,1,47.15-3.45C171,213,203.24,166.08,306,210.9A146.31,146.31,0,0,0,295.3,91.7c-34.13,9.2-73.17,21.61-98.3,35.52C133.53,162.36,124.14,216.25,124.32,216.3Z"/>
  <path class="cls-3" d="M51.51,251.23c7.59,1.74,17.3,2.32,17.38,2.61s.11-9.62,1.47-17.27c-4.63-3.84-14-10.61-23.36-19.35-8.57-8-16.15-15.86-21.29-21.16A145.39,145.39,0,0,0,51.51,251.23Z"/>
  <rect class="cls-4" x="95.12" y="142.12" width="28.26" height="31.18" transform="translate(-71.96 94.7) rotate(-36.12)"/>
  <g>
    <path class="cls-2" d="M89,154.46c-2.93,0-4.42-1.21-5.16-2.22-1.51-2.08-1.22-5.1.84-8.52a30.72,30.72,0,0,1,8.16-8.48c4.8-3.5,10-5.6,13.79-5.6,2.92,0,4.42,1.21,5.15,2.22,1.52,2.08,1.22,5.11-.84,8.52a30.72,30.72,0,0,1-8.16,8.48C98,152.37,92.84,154.46,89,154.46Z"/>
    <path class="cls-2" d="M106.64,131.64a4.16,4.16,0,0,1,3.54,1.4c2.09,2.87-1.74,9.23-8.56,14.21-4.58,3.34-9.34,5.21-12.61,5.21a4.15,4.15,0,0,1-3.54-1.4c-2.09-2.87,1.74-9.23,8.56-14.21,4.58-3.34,9.34-5.21,12.61-5.21m0-4h0c-4.24,0-9.84,2.24-15,6A33,33,0,0,0,83,142.69c-3.37,5.6-1.91,9.13-.74,10.73.83,1.14,2.8,3,6.77,3,4.24,0,9.83-2.24,15-6a32.84,32.84,0,0,0,8.7-9.06c3.37-5.6,1.91-9.13.74-10.74-.83-1.13-2.81-3-6.77-3Z"/>
  </g>
  <g>
    <path class="cls-3" d="M97.85,150.56a8.73,8.73,0,0,1-8.07-6.16,8,8,0,0,1,3.07-9.16c4.8-3.5,10-5.6,13.79-5.6,2.92,0,4.42,1.21,5.15,2.22,1.52,2.08,1.22,5.11-.84,8.52a30.72,30.72,0,0,1-8.16,8.48A8.32,8.32,0,0,1,97.85,150.56Z"/>
    <path class="cls-2" d="M106.64,131.64a4.16,4.16,0,0,1,3.54,1.4c2.09,2.87-1.74,9.23-8.56,14.21a6.38,6.38,0,0,1-3.77,1.31c-5.37,0-9.38-7.65-3.82-11.71,4.58-3.34,9.34-5.21,12.61-5.21m0-4h0c-4.24,0-9.84,2.24-15,6a10,10,0,0,0-3.8,11.4,10.77,10.77,0,0,0,10,7.54,10.39,10.39,0,0,0,6.12-2.08,32.84,32.84,0,0,0,8.7-9.06c3.37-5.61,1.91-9.13.74-10.74-.83-1.13-2.81-3-6.77-3Z"/>
  </g>
  <path class="cls-3" d="M104.34,159.3,115.05,174l14.59-10.64L118.15,147.6S96.21,148.16,104.34,159.3Z"/>
  <path class="cls-2" d="M109.2,130.27a3.12,3.12,0,0,0-1.31,2.1,3.3,3.3,0,0,0-3.71,2.7,3.14,3.14,0,0,0-2.4.61,3.11,3.11,0,0,0-1.3,2.1,3.12,3.12,0,0,0-2.4.6,3.08,3.08,0,0,0-1.32,2.21,3.1,3.1,0,0,0-2.51.58,3.18,3.18,0,0,0-1.31,2.1,3.32,3.32,0,0,0-3.7,2.71,3.3,3.3,0,0,0-3.71,2.7,3.14,3.14,0,0,0-2.4.61,2.62,2.62,0,0,0-.95,3.55l4,5.52,2,2.77,4,5.52a2.63,2.63,0,0,0,3.67.18,3.15,3.15,0,0,0,1.31-2.1,3.14,3.14,0,0,0,2.4-.61,3.11,3.11,0,0,0,1.3-2.1,3.11,3.11,0,0,0,2.4-.6,3.15,3.15,0,0,0,1.31-2.1,3.14,3.14,0,0,0,2.4-.61,3.08,3.08,0,0,0,1.32-2.2,3.14,3.14,0,0,0,2.51-.59,3.11,3.11,0,0,0,1.3-2.1,3.3,3.3,0,0,0,3.71-2.7,3.32,3.32,0,0,0,3.71-2.71,3.13,3.13,0,0,0,2.4-.6,2.64,2.64,0,0,0,1-3.55l-4-5.53-2-2.77-4-5.52A2.62,2.62,0,0,0,109.2,130.27Z"/>
  <path class="cls-3" d="M109.74,130.87a1.72,1.72,0,0,0-.59,2.33l4.35,6,1.34,1.84,4.35,6a1.89,1.89,0,0,0,3-2.19l-4.34-6L116.49,137,112.14,131A1.71,1.71,0,0,0,109.74,130.87Z"/>
  <path class="cls-3" d="M106,133.6a1.71,1.71,0,0,0-.59,2.33l4.34,6,1.35,1.85,4.34,5.95a1.89,1.89,0,0,0,3-2.18l-4.35-6-1.34-1.85-4.35-5.95A1.71,1.71,0,0,0,106,133.6Z"/>
  <path class="cls-3" d="M102.25,136.33a1.72,1.72,0,0,0-.59,2.33l4.35,6,1.35,1.85,4.34,5.95a1.89,1.89,0,0,0,3-2.18l-4.35-6L109,142.43l-4.34-6A1.73,1.73,0,0,0,102.25,136.33Z"/>
  <path class="cls-3" d="M98.51,139.06a1.73,1.73,0,0,0-.59,2.34l4.34,5.95,1.35,1.85,4.35,6a1.88,1.88,0,0,0,3-2.18l-4.34-6-1.35-1.84-4.35-6A1.72,1.72,0,0,0,98.51,139.06Z"/>
  <path class="cls-3" d="M94.77,141.79a1.72,1.72,0,0,0-.59,2.34l4.34,6,1.35,1.85,4.34,6a1.89,1.89,0,0,0,3-2.19l-4.35-6-1.34-1.84-4.35-6A1.72,1.72,0,0,0,94.77,141.79Z"/>
  <path class="cls-3" d="M91,144.52a1.73,1.73,0,0,0-.59,2.34l4.35,5.95,1.35,1.85,4.34,6a1.89,1.89,0,0,0,3-2.19l-4.35-6-1.35-1.85-4.34-6A1.73,1.73,0,0,0,91,144.52Z"/>
  <path class="cls-3" d="M87.28,147.26a1.72,1.72,0,0,0-.59,2.33l4.34,6,1.35,1.84,4.35,6a1.89,1.89,0,0,0,3-2.19l-4.34-5.95L94,153.36l-4.35-6A1.71,1.71,0,0,0,87.28,147.26Z"/>
  <g class="cls-5">
    <g>
      <g>
        <path class="cls-6" d="M132.27,87.26a34.31,34.31,0,0,0-3.53-9.21c-2.8-4.86-5-16.09-1.63-23.65a17.64,17.64,0,0,1,16.28-10.11,19,19,0,0,1,5.75.9,12.86,12.86,0,0,0,4,.66c4.95,0,9-3.18,13-6.25s7.59-5.88,12-5.88a10.69,10.69,0,0,1,4.25.91c7.14,3.13,4.47,11.39,2.87,16.32l-.61,1.89-1.89-.6a29.82,29.82,0,0,0-9-1.46c-15.81,0-25.88,13.82-28.51,22.53l0,.11,0,.11A54.28,54.28,0,0,1,137.66,86l-.09.1c-.57.58-1.17,1.23-1.85,2L133.17,91Z"/>
        <path class="cls-2" d="M178.17,35.72a8.54,8.54,0,0,1,3.45.75c5,2.19,3.81,7.56,1.77,13.86a31.77,31.77,0,0,0-9.62-1.55c-16.29,0-27.36,13.8-30.42,24h0a52.37,52.37,0,0,1-7.21,12c-.64.65-1.28,1.35-1.92,2.08a36.75,36.75,0,0,0-3.74-9.74c-2.46-4.26-4.63-14.92-1.54-21.84a15.64,15.64,0,0,1,14.45-8.92,16.91,16.91,0,0,1,5.14.8,14.91,14.91,0,0,0,4.59.75c10.56,0,17-12.13,25-12.13m0-4c-5.14,0-9.27,3.2-13.27,6.3s-7.52,5.83-11.78,5.83a11.06,11.06,0,0,1-3.37-.56,20.72,20.72,0,0,0-6.36-1,19.62,19.62,0,0,0-18.1,11.29C121.65,61.75,124,73.82,127,79.05a32.5,32.5,0,0,1,3.32,8.68l1.79,7.52,5.1-5.81c.66-.75,1.24-1.37,1.77-1.92l.1-.1.09-.1a56.58,56.58,0,0,0,7.83-13l.1-.22.07-.23c2.46-8.15,11.86-21.1,26.59-21.1a28,28,0,0,1,8.41,1.36l3.79,1.2,1.22-3.78c1.24-3.8,2-6.93,1.95-9.82a9.48,9.48,0,0,0-5.92-8.94,12.5,12.5,0,0,0-5.05-1.08Z"/>
      </g>
      <g>
        <path class="cls-7" d="M124.63,120.1a4.34,4.34,0,0,1-3.69-1.83c-1.52-2.21-.82-5.36.71-9.41a55.5,55.5,0,0,1,16.18-23l3.88-3.25,1,5c.91,4.6,4.78,9.7,8.88,15.11l2.27,3-3.41,1.56a145.22,145.22,0,0,0-13.47,7.3c-6.24,3.67-9.62,5.59-12.33,5.59Z"/>
        <path class="cls-2" d="M139.75,88.14c1,5.14,4.88,10.34,9.43,16.34-11,5-20.88,12.62-24.55,12.62-1.87,0-2.14-1.95-.17-7.19a52.12,52.12,0,0,1,15.29-21.77M143.67,77l-7.77,6.51a58.51,58.51,0,0,0-17.05,24.26c-1.62,4.27-2.78,8.7-.37,12.18a7.34,7.34,0,0,0,6.15,3.12c3.65,0,7.49-2.26,13.85-6a143.68,143.68,0,0,1,13.19-7.15l6.82-3.11-4.53-6C150.25,96,146.41,90.9,145.64,87l-2-10Z"/>
      </g>
      <g>
        <path class="cls-3" d="M286.13,233.69c-.9,0-2.53-.48-3.35-3.67l-.76-3c-1.54-5.89-1.89-7-2-7.15-.68-1.84-1.42-3.7-2.2-5.53a119.78,119.78,0,0,0-38.43-48.73c-17.73-13-38.13-19.93-59-19.93-2.57,0-5.21.09-7.83.28l-2,.15-.12-2c-1.08-17.25-10.22-29.3-17.56-39-5.82-7.68-10.85-14.31-10.39-21.45.66-10.23,13-30.15,33.25-30.15,10.86,0,22.07,5.64,33.32,16.76.42.41,1.11,1.23,2.12,2.49,31.74,30.9,59.28,82.7,73.66,138.61,1.24,4.83,3.73,16.11,3.92,17a5.15,5.15,0,0,1-.67,4.27A2.57,2.57,0,0,1,286.13,233.69Z"/>
        <path class="cls-2" d="M175.77,55.54c9.15,0,20,4.36,31.91,16.18.39.39,1.13,1.27,2,2.41,33.31,32.39,59.89,86,73.2,137.77,1.23,4.75,3.71,16,3.9,16.94.35,1.72-.09,2.85-.7,2.85-.46,0-1-.65-1.41-2.17l-.77-3c-1-3.87-1.78-6.72-2-7.34-.7-1.89-1.44-3.77-2.24-5.63-16.69-39-54.46-69.87-99.26-69.87q-4,0-8,.29c-2-31.27-28.91-45.29-27.94-60.19.64-9.94,12.48-28.28,31.25-28.28m0-4h0c-9.39,0-18.39,4.15-25.36,11.7-5.6,6.05-9.48,14-9.89,20.32-.51,7.88,4.73,14.79,10.8,22.79,7.55,10,16.11,21.25,17.15,37.91l.25,4,4-.29c2.58-.19,5.17-.28,7.69-.28,20.43,0,40.42,6.75,57.8,19.54A117.61,117.61,0,0,1,276,215.17c.77,1.79,1.5,3.62,2.17,5.43,0,.08.34,1,1.89,7,.24.93.5,1.92.76,3,1.21,4.67,4.1,5.17,5.29,5.17a4.57,4.57,0,0,0,3.54-1.71,7,7,0,0,0,1.08-5.93c-.19-1-2.71-12.35-3.94-17.15a367.46,367.46,0,0,0-29.43-77c-13.12-25.15-28.56-46.75-44.69-62.47a32.77,32.77,0,0,0-2.19-2.56c-11.64-11.5-23.32-17.34-34.73-17.34Z"/>
      </g>
    </g>
  </g>
  <g>
    <path class="cls-3" d="M164.22,310.85a148.47,148.47,0,0,1-63.71-14.2l-.1,0a150.51,150.51,0,0,1-27.06-17.66l-.91-.74-.27-1.14a107.14,107.14,0,1,1,211.28-26.58l0,1.22-.75,1A148.88,148.88,0,0,1,164.22,310.85Z"/>
    <path class="cls-2" d="M176.4,148.22A103.67,103.67,0,0,1,280,250.53a146.34,146.34,0,0,1-177.95,43,146.12,146.12,0,0,1-26.43-17.25,103.63,103.63,0,0,1,100.83-128m0-7a110.58,110.58,0,0,0-94,52.08,109.76,109.76,0,0,0-13.66,84.58l.55,2.28,1.81,1.49a153.81,153.81,0,0,0,27.7,18.07l.09,0,.1,0a153.46,153.46,0,0,0,133.83-1.66,154.87,154.87,0,0,0,52.64-43.34l1.49-1.94,0-2.44A110.68,110.68,0,0,0,176.4,141.22Z"/>
  </g>
  <path class="cls-2" d="M277,253.35a135.9,135.9,0,0,0-3.23-28.56c-1.77-5.57-3.59-5.75-4.77-5.57a2.66,2.66,0,0,0-1.62,1.54,8.27,8.27,0,0,0-.2,4.21c.27,1,.53,2,.78,3a119.63,119.63,0,0,1,3.32,28.35q0,4.31-.29,8.48A118.81,118.81,0,0,0,277,253.35Z"/>
  <path class="cls-2" d="M266.46,271A92,92,0,1,0,89.85,286.56,146,146,0,0,0,266.46,271Z"/>
  <circle class="cls-3" cx="176" cy="254.22" r="11"/>
  <path class="cls-2" d="M183.23,261.45a9.91,9.91,0,0,1-14,0c-3.87-3.87,10.13-17.87,14-14A9.91,9.91,0,0,1,183.23,261.45Z"/>
  <rect class="cls-3" x="174.5" y="178.22" width="3" height="10" rx="1.5" ry="1.5"/>
  <rect class="cls-3" x="177.74" y="223.24" width="38.17" height="3" rx="1.5" ry="1.5" transform="translate(-99.85 259.92) rotate(-55.55)"/>
  <rect class="cls-3" x="131.69" y="258.27" width="26.52" height="3" rx="1.5" ry="1.5" transform="translate(-45.12 30.94) rotate(-10.55)"/>
  <rect class="cls-3" x="221.2" y="202.51" width="10" height="3" rx="1.5" ry="1.5" transform="translate(-78.01 219.7) rotate(-45)"/>
  <path class="cls-3" d="M128.52,303.81l.81-.8a1.51,1.51,0,0,0,0-2.12,1.49,1.49,0,0,0-2.12,0l-2,2C126.33,303.18,127.42,303.51,128.52,303.81Z"/>
  <rect class="cls-3" x="100" y="252.72" width="10" height="3" rx="1.5" ry="1.5"/>
  <rect class="cls-3" x="242" y="252.72" width="10" height="3" rx="1.5" ry="1.5"/>
  <rect class="cls-3" x="124.29" y="199.01" width="3" height="10" rx="1.5" ry="1.5" transform="translate(-107.42 148.71) rotate(-45)"/>
  <rect class="cls-3" x="147.23" y="183.66" width="3" height="10" rx="1.5" ry="1.5" transform="translate(-61.06 71.6) rotate(-22.59)"/>
  <rect class="cls-3" x="198.07" y="187.08" width="10" height="3" rx="1.5" ry="1.5" transform="translate(-48.69 304.41) rotate(-67.59)"/>
  <rect class="cls-3" x="105.44" y="279.99" width="10" height="3" rx="1.5" ry="1.5" transform="translate(-99.65 64.02) rotate(-22.59)"/>
  <rect class="cls-3" x="236.55" y="225.45" width="10" height="3" rx="1.5" ry="1.5" transform="translate(-68.64 110.19) rotate(-22.59)"/>
  <rect class="cls-3" x="108.86" y="222.15" width="3" height="10" rx="1.5" ry="1.5" transform="translate(-141.71 242.57) rotate(-67.59)"/>
  <rect class="cls-3" x="240.14" y="276.29" width="3" height="10" rx="1.5" ry="1.5" transform="translate(-110.53 397.43) rotate(-67.59)"/>
  <rect class="cls-2" x="244.2" y="179.51" width="3" height="10" rx="1.5" ry="1.5" transform="translate(-58.51 227.78) rotate(-45)"/>
  <path class="cls-2" d="M84.56,278a73.28,73.28,0,0,1-3.36-26.05c.14-2.44-1.84-4.47-3.68-3.77l-.9.34A2.93,2.93,0,0,0,75,251.27a82.67,82.67,0,0,0,4,27.61q4,3.08,8.16,5.87Q85.68,281.48,84.56,278Z"/>
  <g>
    <path class="cls-6" d="M160,154.6a13.59,13.59,0,0,1-5.34-1.34l-.45-.19a11.24,11.24,0,0,1-6.22-7c-1.39-4.53-.07-9.88,3.92-15.88a.64.64,0,0,0,.06-.11,7.49,7.49,0,0,0-1-1.89,27.22,27.22,0,0,1-1.77-3.08c-.73-1.5-.21-3.67.33-6a15.57,15.57,0,0,0,.49-2.6,36.53,36.53,0,0,0-2.79-6.36l-.87-1.64,2.07-1.29.63,0c.73,0,1.55,0,4.51,3.78a83.45,83.45,0,0,1,13.17,27.63c.14.52.34,1.23.58,2,.84,2.91,1.49,5.22,1.66,6.26l.09.63-.28.57c-2.16,4.31-5.1,6.49-8.76,6.49Z"/>
    <path class="cls-2" d="M149,109.2c.58,0,2.94,3,2.94,3a81.3,81.3,0,0,1,12.81,26.93c.53,1.91,2,6.7,2.19,8.07-2.12,4.23-4.67,5.38-7,5.38a13.15,13.15,0,0,1-5-1.38c-2.88-1.19-10-7-1.4-19.95,1.31-2-.9-3.52-2.6-7.05-.73-1.52,1.25-6.42,1-8-.3-1.89-3-7-3-7l.06,0m0-4a4.14,4.14,0,0,0-2.17.62l-3.17,2,1.74,3.3a42.92,42.92,0,0,1,2.55,5.59c-.07.45-.28,1.35-.43,2-.62,2.65-1.21,5.16-.19,7.3a31.86,31.86,0,0,0,1.9,3.29l.43.67c-3.9,6.19-5.12,11.81-3.61,16.72a13.31,13.31,0,0,0,7.37,8.29l.42.18a15.54,15.54,0,0,0,6.13,1.5c3.08,0,7.41-1.31,10.55-7.59l.57-1.15-.2-1.26c-.18-1.15-.82-3.42-1.71-6.5-.23-.8-.44-1.51-.57-2a85.51,85.51,0,0,0-13.48-28.28l0,0,0,0c-2.73-3.49-4.15-4.55-6.09-4.55Z"/>
  </g>
</svg>
