<svg xmlns="http://www.w3.org/2000/svg" xmlns:xlink="http://www.w3.org/1999/xlink" viewBox="0 0 260.79 104.48">
  <defs>
    <style>
      .cls-1 {
        isolation: isolate;
      }

      .cls-2 {
        fill: #f2f3ff;
      }

      .cls-3 {
        fill: url(#linear-gradient);
      }

      .cls-4 {
        fill: #e8e8ef;
        mix-blend-mode: overlay;
      }
    </style>
    <linearGradient id="linear-gradient" x1="604.55" y1="34.35" x2="604.55" y2="67.93" gradientTransform="translate(-526.77)" gradientUnits="userSpaceOnUse">
      <stop offset="0" stop-color="#c4b7ff"/>
      <stop offset="0.17" stop-color="#a380de"/>
      <stop offset="0.57" stop-color="#580092"/>
      <stop offset="1" stop-color="#580092"/>
    </linearGradient>
  </defs>
  <title>pitchr-icon</title>
  <g class="cls-1">
    <g id="NAV">
      <g>
        <g>
          <path class="cls-2" d="M69.66,47.86a7.68,7.68,0,0,1,2.23-5.6,8.79,8.79,0,0,1,11.79,0,8.15,8.15,0,0,1,0,11.19,8.8,8.8,0,0,1-11.8,0A7.65,7.65,0,0,1,69.66,47.86ZM85.22,98.65c-.65.12-1.59.28-2.84.48a23,23,0,0,1-3.8.31,21.12,21.12,0,0,1-3.46-.26,6.11,6.11,0,0,1-2.58-1.05A5.17,5.17,0,0,1,70.93,96a9.22,9.22,0,0,1-.57-3.54V63.65c.64-.12,1.59-.28,2.84-.48a24.05,24.05,0,0,1,3.8-.31,21.08,21.08,0,0,1,3.45.26A6,6,0,0,1,83,64.17a5.1,5.1,0,0,1,1.62,2.14,9.29,9.29,0,0,1,.57,3.54Z"/>
          <path class="cls-2" d="M69.65,55.58a10.62,10.62,0,0,1-3.07-7.71,10.58,10.58,0,0,1,3.07-7.71,10.81,10.81,0,0,1,7.8-3.1c0-.23,0-.45,0-.69q0-15.22-11-24.13T34.65,3.35a58.61,58.61,0,0,0-9.81.83A56.66,56.66,0,0,0,13.15,6.81,12.5,12.5,0,0,0,8.4,9.6a6.63,6.63,0,0,0-1.73,4.9v71a18.5,18.5,0,0,0,.9,6.34,8.13,8.13,0,0,0,2.72,3.77,10.86,10.86,0,0,0,4.44,1.88,31.59,31.59,0,0,0,6.11.53,55.58,55.58,0,0,0,7-.45,41.72,41.72,0,0,0,5.21-.91V69h7.32a51.19,51.19,0,0,0,16.21-2.34A31,31,0,0,0,68.2,60a26.52,26.52,0,0,0,2.89-3.21A10.61,10.61,0,0,1,69.65,55.58Zm-19-10.24q-3.39,3-9.72,2.95h-8V24.91a26.42,26.42,0,0,1,3.24-.38c1.05-.05,2.39-.07,4-.07q6.8,0,10.33,3.09T54,36.37Q54,42.4,50.62,45.34Z"/>
          <path class="cls-2" d="M109.51,84.15A3.6,3.6,0,0,0,111,87.38a7.3,7.3,0,0,0,4.06,1,17,17,0,0,0,2.71-.22,14.87,14.87,0,0,0,2.45-.56,10.35,10.35,0,0,1,1.35,2.14,6.45,6.45,0,0,1,.57,2.84A6.77,6.77,0,0,1,119.6,98q-2.49,2.08-8.78,2.09-7.69,0-11.84-3.49T94.83,85.2V47.79c.64-.17,1.56-.36,2.75-.56a21.9,21.9,0,0,1,3.8-.31,11.24,11.24,0,0,1,6,1.35q2.14,1.36,2.14,5.73v5.59H121a14.87,14.87,0,0,1,1,2.4,10.12,10.12,0,0,1,.48,3.19c0,2-.45,3.52-1.35,4.42A4.92,4.92,0,0,1,117.46,71h-7.95Z"/>
          <path class="cls-2" d="M153,66.67a12.18,12.18,0,0,0-4.15.7,9.72,9.72,0,0,0-3.41,2,10,10,0,0,0-2.32,3.37,11.8,11.8,0,0,0-.87,4.72q0,5.42,3.1,8.12a11.08,11.08,0,0,0,7.56,2.71,14.94,14.94,0,0,0,4.54-.61,27.76,27.76,0,0,0,3.41-1.31,9.05,9.05,0,0,1,2.62,2.67,6.55,6.55,0,0,1,.88,3.45A6.12,6.12,0,0,1,161,98.09q-3.4,2-9.44,2a29.23,29.23,0,0,1-10-1.61,22.64,22.64,0,0,1-7.65-4.55,20.08,20.08,0,0,1-4.94-7,23.09,23.09,0,0,1-1.74-9.09,25.07,25.07,0,0,1,1.88-10.1,19.51,19.51,0,0,1,5.11-7.12,21.59,21.59,0,0,1,7.47-4.19,28.49,28.49,0,0,1,9-1.4c4.19,0,7.43.76,9.7,2.27a6.81,6.81,0,0,1,3.4,5.86,6.43,6.43,0,0,1-.78,3.1,11,11,0,0,1-1.84,2.49,28,28,0,0,0-3.58-1.36A15.37,15.37,0,0,0,153,66.67Z"/>
          <path class="cls-2" d="M213.76,98.65a20,20,0,0,1-2.75.53,29,29,0,0,1-3.89.26,21,21,0,0,1-3.45-.26,6,6,0,0,1-2.58-1.05A5.1,5.1,0,0,1,199.47,96a9.22,9.22,0,0,1-.57-3.54V73.05c0-2.39-.59-4.06-1.79-5a6.75,6.75,0,0,0-4.41-1.45,12.38,12.38,0,0,0-3.32.44,9.39,9.39,0,0,0-2.54,1V98.65a20,20,0,0,1-2.75.53,28.88,28.88,0,0,1-3.89.26,21.08,21.08,0,0,1-3.45-.26,6,6,0,0,1-2.58-1.05A5.17,5.17,0,0,1,172.56,96a9.22,9.22,0,0,1-.57-3.54V41.76l2.85-.48a24,24,0,0,1,3.8-.3,20,20,0,0,1,3.45.26,5.77,5.77,0,0,1,2.58,1,5,5,0,0,1,1.61,2.14,9.22,9.22,0,0,1,.57,3.54v8.56a31.7,31.7,0,0,1,3.46-1,21.31,21.31,0,0,1,5.11-.57c5.76,0,10.27,1.44,13.5,4.33s4.85,7.18,4.85,12.89Z"/>
          <path class="cls-2" d="M237.79,98.65a20,20,0,0,1-2.75.53,29,29,0,0,1-3.89.26,21.12,21.12,0,0,1-3.46-.26,6,6,0,0,1-2.57-1.05A5.1,5.1,0,0,1,223.5,96a9.22,9.22,0,0,1-.57-3.54V66.23a7.38,7.38,0,0,1,.75-3.45,8,8,0,0,1,2.14-2.58,15.57,15.57,0,0,1,3.45-2.05,36.11,36.11,0,0,1,4.41-1.62,38.22,38.22,0,0,1,4.89-1.09,33.3,33.3,0,0,1,5.07-.39,12,12,0,0,1,6.64,1.61c1.64,1.08,2.45,2.84,2.45,5.29a8.57,8.57,0,0,1-.35,2.41,10.88,10.88,0,0,1-.87,2.14c-1.23,0-2.48,0-3.76.17s-2.53.29-3.76.52-2.37.48-3.45.75a14.74,14.74,0,0,0-2.75.91Z"/>
        </g>
        <path class="cls-3" d="M69.66,47.86a7.68,7.68,0,0,1,2.23-5.6,8.79,8.79,0,0,1,11.79,0,8.15,8.15,0,0,1,0,11.19,8.8,8.8,0,0,1-11.8,0A7.65,7.65,0,0,1,69.66,47.86Z"/>
        <path class="cls-4" d="M69.66,47.86a7.68,7.68,0,0,1,2.23-5.6,8.79,8.79,0,0,1,11.79,0,8.15,8.15,0,0,1,0,11.19,8.8,8.8,0,0,1-11.8,0A7.65,7.65,0,0,1,69.66,47.86Z"/>
      </g>
    </g>
  </g>
</svg>
