<svg xmlns="http://www.w3.org/2000/svg" xmlns:xlink="http://www.w3.org/1999/xlink" viewBox="0 0 260.79 270.48">
  <defs>
    <style>
      .cls-1 {
        isolation: isolate;
      }

      .cls-2 {
        fill: #323232;
      }

      .cls-3 {
        fill: #e8e8ef;
        mix-blend-mode: overlay;
      }

      .cls-4 {
        fill: url(#linear-gradient);
      }

      .cls-5 {
        fill: #edefff;
      }

      .cls-6 {
        fill: url(#linear-gradient-2);
      }
    </style>
    <linearGradient id="linear-gradient" x1="130.39" y1="-98.59" x2="130.39" y2="364.96" gradientTransform="translate(132.9 -52.97) rotate(45)" gradientUnits="userSpaceOnUse">
      <stop offset="0" stop-color="#c4b7ff"/>
      <stop offset="0.17" stop-color="#a380de"/>
      <stop offset="0.57" stop-color="#580092"/>
    </linearGradient>
    <linearGradient id="linear-gradient-2" x1="133.81" y1="9.36" x2="133.81" y2="257.72" gradientTransform="matrix(1, 0, 0, 1, 0, 0)" xlink:href="#linear-gradient"/>
  </defs>
  <title>pitchr-icon</title>
  <g class="cls-1">
    <g id="NAV">
      <g>
        <path class="cls-2" d="M253.16,122.49l-10.22-10.13,6.3-15.12A15.38,15.38,0,0,0,241,77.14l-16.34-6.81-.08-16A15.37,15.37,0,0,0,209.1,39l-15.5.07-5.92-14.37a15.37,15.37,0,0,0-20.06-8.36l-15.26,6.28L140.67,11.07a15.37,15.37,0,0,0-21.73.11l-10.6,10.69L94.79,16.23a15.37,15.37,0,0,0-20.1,8.27L68.36,39.7l-17.58.09a15.37,15.37,0,0,0-15.3,15.44l.07,15.51L21.19,76.65a15.38,15.38,0,0,0-8.36,20.07L19.11,112,7.52,123.67a15.37,15.37,0,0,0,.1,21.73l11.83,11.71L13.83,170.6a15.38,15.38,0,0,0,8.27,20.1l14.06,5.85.08,17a15.37,15.37,0,0,0,15.44,15.29l15.54-.07,5.88,14.28a15.37,15.37,0,0,0,20.06,8.36l15.19-6.25,11.76,11.65a15.37,15.37,0,0,0,21.74-.11l11.29-11.4,15.13,6.3a15.37,15.37,0,0,0,20.1-8.27l6.32-15.17,15.32-.08a15.36,15.36,0,0,0,15.29-15.44l-.07-15.6,14.36-5.91A15.37,15.37,0,0,0,248,171.07L241.7,155.9l11.57-11.68A15.37,15.37,0,0,0,253.16,122.49Z"/>
        <g>
          <rect class="cls-3" x="35.86" y="39.41" width="189.06" height="189.07" rx="15.37" ry="15.37" transform="translate(132.01 -52.98) rotate(44.73)"/>
          <rect class="cls-3" x="35.86" y="39.41" width="189.06" height="189.07" rx="15.37" ry="15.37" transform="translate(263.71 2.91) rotate(89.73)"/>
          <rect class="cls-3" x="35.89" y="39.35" width="189.01" height="189.09" rx="15.37" ry="15.37" transform="translate(204.55 -37.66) rotate(67.62)"/>
          <rect class="cls-3" x="37.03" y="39.37" width="189.01" height="189.09" rx="15.37" ry="15.37" transform="translate(-42.67 203.84) rotate(-67.38)"/>
        </g>
        <g>
          <circle class="cls-4" cx="130.39" cy="133.95" r="84.84" transform="translate(-56.52 131.43) rotate(-45)"/>
          <circle class="cls-3" cx="130.39" cy="133.95" r="84.84"/>
        </g>
        <circle class="cls-5" cx="130.39" cy="133.95" r="71.25" transform="translate(-14.26 252.35) rotate(-85.07)"/>
        <path class="cls-6" d="M123.53,178.1a39.91,39.91,0,0,1-5,.87,53,53,0,0,1-6.73.43,29.86,29.86,0,0,1-5.86-.51,10.23,10.23,0,0,1-4.27-1.8,7.85,7.85,0,0,1-2.61-3.62,17.64,17.64,0,0,1-.87-6.08V99.2a6.36,6.36,0,0,1,1.67-4.7,11.8,11.8,0,0,1,4.56-2.68,54,54,0,0,1,11.21-2.53,101.06,101.06,0,0,1,12.67-.8q20,0,30.55,8.54t10.56,23.16A34.72,34.72,0,0,1,167.18,133a26.63,26.63,0,0,1-6.66,9.85,30,30,0,0,1-11.14,6.37,49.14,49.14,0,0,1-15.57,2.24H123.53Zm7.53-46.47q6.09,0,9.34-2.82c2.17-1.88,3.26-4.76,3.26-8.62,0-3.66-1.14-6.49-3.41-8.46s-5.57-3-9.91-3c-1.55,0-2.82,0-3.84.07a24.53,24.53,0,0,0-3.11.36v22.44Z"/>
      </g>
    </g>
  </g>
</svg>
