<?xml version="1.0" encoding="utf-8"?>
<!-- Generator: Adobe Illustrator 22.0.1, SVG Export Plug-In . SVG Version: 6.00 Build 0)  -->
<svg version="1.1" id="Layer_1" xmlns="http://www.w3.org/2000/svg" xmlns:xlink="http://www.w3.org/1999/xlink" x="0px" y="0px"
	 viewBox="0 0 1846.2 1817.2" style="enable-background:new 0 0 1846.2 1817.2;" xml:space="preserve">
<style type="text/css">
	.st0{fill:#292521;}
	.st1{fill:#B7B7B7;}
	.st2{fill:#606161;}
	.st3{fill:#FFFFFF;}
</style>
<circle class="st0" cx="923.1" cy="908.6" r="630.8"/>
<circle class="st1" cx="923.1" cy="908.6" r="596.4"/>
<path class="st0" d="M1260.8,889L747.3,599.6c-19.4-10.9-45.9,0.4-45.9,19.6l0,289.4l0,289.4c0,19.2,26.5,30.6,45.9,19.6
	l513.5-289.4C1277.6,918.8,1277.6,898.5,1260.8,889z"/>
<path class="st3" d="M1431,824.8c-10.8-119.6-64.2-227-145-306.7c-79.3-78.7-185.1-130.6-302.9-141.2c-24.1-2.2-44.8,17-44.8,41.2v0
	c0,21.3,16.2,39.2,37.4,41.1c82.6,7.4,158.2,39.3,219.4,88.4c1.3,1.1,2.6,2.3,4,3.4c10,8.2,19.7,16.9,28.9,26
	c41.5,41.2,74.2,91.2,95.2,146.9c0.3,0.8,6.3,16,8.4,22.7c8.6,27.4,14.4,56.1,17.1,85.7c1.9,21.2,19.8,37.4,41.1,37.4l0,0
	C1414.1,869.6,1433.2,848.9,1431,824.8z"/>
</svg>
