<svg xmlns="http://www.w3.org/2000/svg" xmlns:xlink="http://www.w3.org/1999/xlink" viewBox="0 0 2264.33 1432">
  <defs>
    <style>
      .cls-1, .cls-16 {
        fill: none;
      }

      .cls-2 {
        clip-path: url(#clip-path);
      }

      .cls-3 {
        fill: #dedfe0;
      }

      .cls-4 {
        fill: #f6545a;
      }

      .cls-5 {
        fill: #33404c;
      }

      .cls-6 {
        fill: #eff3f6;
      }

      .cls-7 {
        fill: #293541;
      }

      .cls-8 {
        fill: #babdbf;
      }

      .cls-9 {
        clip-path: url(#clip-path-2);
      }

      .cls-10 {
        fill: #25313a;
      }

      .cls-11 {
        fill: #ffc313;
      }

      .cls-12 {
        fill: #f28d16;
      }

      .cls-13 {
        fill: #f08901;
      }

      .cls-14 {
        fill: #ff6602;
      }

      .cls-15 {
        fill: #dfe2e5;
      }

      .cls-16 {
        stroke: #293541;
        stroke-linecap: round;
        stroke-miterlimit: 10;
        stroke-width: 3px;
        stroke-dasharray: 5 5;
      }
    </style>
    <clipPath id="clip-path">
      <rect class="cls-1" x="60.24" y="171.64" width="2198.94" height="1253.8"/>
    </clipPath>
    <clipPath id="clip-path-2">
      <path class="cls-1" d="M2039.56,831.25s-27,55.11-180.82,55.11-194.17-55.11-194.17-55.11V469.7h375Z"/>
    </clipPath>
  </defs>
  <title>chickenin_slides</title>
  <g id="Layer_5" data-name="Layer 5">
    <g class="cls-2">
      <path class="cls-3" d="M1662.05,672.61s30.48-12.54,40.15,60.53c2.29,17.38,27.53,20,44.31,22.74,8.55,1.38,23.44,14.22,22.11,18.32-11.51,35.56-76.39,41.37-76.39,41.37s-49.53,16.62-54.35,5.43C1629,800.27,1662.05,746.26,1662.05,672.61Z"/>
      <path class="cls-4" d="M1212.44,773.39a12.31,12.31,0,0,1,3,8.05,35.51,35.51,0,0,0-15.16,3.93Z"/>
      <path class="cls-5" d="M1190.78,1475.12h46.07V781.41l-3.08-1-36.85,1-24.56,25-116.69,336.85S1090.47,1452.12,1190.78,1475.12Z"/>
      <path class="cls-6" d="M1913.43,1395.78h3.07a1.5,1.5,0,0,0,0-3h-3.07a1.5,1.5,0,0,0,0,3Z"/>
      <g>
        <path class="cls-7" d="M964.81,817.6l-.65.19Z"/>
        <path class="cls-7" d="M969.25,816.36l-2.41.67Z"/>
        <path class="cls-7" d="M964.08,817.81l-.58.16Z"/>
        <path class="cls-7" d="M966.75,817.05l-1.85.52Z"/>
        <path class="cls-7" d="M972.3,815.54l-3,.8Z"/>
        <path class="cls-7" d="M962.42,818.29l0,0Z"/>
        <path class="cls-7" d="M1232.82,1483.19c-96.84-120.5-90.13-354.92-90.13-354.92s-6.71-234.41,90.13-354.92a18.6,18.6,0,0,1,1.29-1.44c6.52-2.88,42.81-9.07,236.52-9.07,147,0,480.37,9.4,765.49,48.94,203.27,28.19,642.61,115.59,858.46,196.86,31.86,12,38,38.74,57.45,52.07,2.83,1.94,42.35,2.68,47.09,15.36-3.07,44-4.68,117.74-26.79,133-18.34,12.69-43.46,25.89-77.75,38.8-215.85,81.27-655.19,168.66-858.46,196.85-285.12,39.55-618.45,48.94-765.49,48.94C1226.61,1493.7,1232.75,1483.47,1232.82,1483.19Z"/>
        <path class="cls-7" d="M963.43,818l-.38.11Z"/>
        <path class="cls-7" d="M962.57,818.25l-.1,0Z"/>
        <path class="cls-7" d="M963,818.13l-.29.09Z"/>
      </g>
      <path class="cls-6" d="M2241,1300.24s65-3.46,155.68-11.24c49-4.21,17.32,38.88,83.85,31.71,57.92-6.23,192.23-22.28,248.74-32.75,36.87-6.84,84.65-16,122.89-22.54,18.78-3.21,27.08.35,38.84-1,15.26-1.76,26.61-8.19,29.69-2,1,2-3.59,2.25-19.8,7-138.59,40.63-346.46,87.51-640.32,121.37q-38.13,4.4-74.74,8.38C2141.79,1374.58,2136.37,1341.69,2241,1300.24Z"/>
      <g>
        <path class="cls-7" d="M964.81,817.6l-.65.19Z"/>
        <path class="cls-7" d="M969.25,816.36l-2.41.67Z"/>
        <path class="cls-7" d="M964.08,817.81l-.58.16Z"/>
        <path class="cls-7" d="M966.75,817.05l-1.85.52Z"/>
        <path class="cls-7" d="M972.3,815.54l-3,.8Z"/>
        <path class="cls-7" d="M962.42,818.29l0,0Z"/>
        <path class="cls-7" d="M963.43,818l-.38.11Z"/>
        <path class="cls-7" d="M962.57,818.25l-.1,0Z"/>
        <path class="cls-7" d="M963,818.13l-.29.09Z"/>
      </g>
      <path class="cls-3" d="M1197.23,781.41,1211,781c-90.65,122.5-84.22,347.24-84.22,347.24s-6.42,224.26,83.93,346.85h-19.59c-100.31-23-135.11-331.87-135.11-331.87L1172.66,806.4Z"/>
      <path class="cls-7" d="M941.9,818.31s95.2-28.88,270.45-45c-96.85,120.51-90.13,354.92-90.13,354.92s-6.72,234.42,90.13,354.92c-175.25-16.08-270.45-45-270.45-45-93-97.89-86.78-310-86.78-310S848.92,916.19,941.9,818.31Z"/>
      <path class="cls-7" d="M830.47,1017.72a24.09,24.09,0,0,1,9.73,2,12,12,0,0,1,7.06,12.56c-6.65,54.61-5.44,96-5.44,96s-1.21,41.36,5.44,96a12.06,12.06,0,0,1-7.06,12.56,24.25,24.25,0,0,1-9.73,2c-61.06,0-141.26-49.49-141.26-110.55S769.41,1017.72,830.47,1017.72Z"/>
      <g>
        <path class="cls-6" d="M2194.7,1398.15l13.46-1.48Z"/>
        <path class="cls-6" d="M2228.48,1394.4l12.69-1.44Z"/>
        <path class="cls-6" d="M2245.27,1392.5l15.31-1.76Z"/>
        <path class="cls-6" d="M2210.4,1396.42l15.38-1.72Z"/>
        <path class="cls-6" d="M2161.15,1401.78q15.26-1.63,30.78-3.33Q2176.4,1400.15,2161.15,1401.78Z"/>
        <path class="cls-6" d="M2133.92,1263.15l.35,0Z"/>
        <path class="cls-6" d="M2128.21,1405.24q15.32-1.59,30.92-3.25Q2143.53,1403.65,2128.21,1405.24Z"/>
        <path class="cls-6" d="M1227.83,1278.35c132.12,4.91,383.75,16.26,895.42-14.55l-.57,0,5.31,141.43c-442.23,45.79-711.84,46.62-862.24,46.84a29.5,29.5,0,0,1-26.25-15.83c-19.58-37.76-32.81-80.64-41.73-122.14A29.61,29.61,0,0,1,1227.83,1278.35Z"/>
      </g>
      <g>
        <path class="cls-7" d="M2232.64,1164.36c-12.69-20.44-156.55-9.37-335.78-8.33-197.86,1.16-432.19-5.86-432.15,9.9.83,332.75,200.58,523.25,336.68,614.46,70.41,47.19,182.19,114.92,224.07,130.53,156.87,58.46,401.38,39.38,385.43-92.41C2410.89,1818.51,2292.77,1278.44,2232.64,1164.36Z"/>
        <path class="cls-6" d="M1570.78,1227.47h102.38c7.34,0,13.48,5,14.17,11.64,5.6,53.8,41.43,284.39,254.6,490.83-25.39,11.74-46.39,26.59-61,45.23a658.8,658.8,0,0,1-148.7-146.09c-151.72-205.44-172.93-345.44-175.71-388C1556.09,1233.69,1562.59,1227.47,1570.78,1227.47Z"/>
      </g>
      <path class="cls-6" d="M1179.49,1146.13a11,11,0,0,1,11-11.13h32c62.44,0,116.69,11.26,116.69,94.17S1442.59,1308,1442.59,1308l-10.88,104.91-54.63-9.71s-54.4,69.6-148.44,9.76C1185.83,1314.3,1180.07,1191.81,1179.49,1146.13Z"/>
      <path class="cls-6" d="M782.36,1094.49c-26.15,0-50.1,3-68.63,8a3.75,3.75,0,0,1-4.3-5.36c19.27-36.67,69.42-63.36,110.93-65h0a3.63,3.63,0,0,1,3.19,5.6c-4.69,7.36-15,13.89-15.64,20.94a25.27,25.27,0,0,0,1.49,10.19,19.59,19.59,0,0,1-19.05,25.73C787.74,1094.53,785.06,1094.49,782.36,1094.49Z"/>
      <path class="cls-5" d="M1302.48,1367.23h-167a.63.63,0,0,1-.63-.63v-15.25a.63.63,0,0,1,.63-.63h148.85a.63.63,0,0,1,.63.63l18.12,15.25A.63.63,0,0,1,1302.48,1367.23Z"/>
      <path class="cls-5" d="M1316.5,1389.42H1150.15a.94.94,0,0,1-.94-.94v-14.64a1,1,0,0,1,.94-.94h148.24a1,1,0,0,1,.94.94l18.11,14.64A.94.94,0,0,1,1316.5,1389.42Z"/>
      <rect class="cls-3" x="1218.18" y="1372.9" width="25.82" height="16.51"/>
      <rect class="cls-3" x="1218.18" y="1350.86" width="25.36" height="16.51"/>
      <path class="cls-7" d="M939.16,1333h283.39a18,18,0,0,1,18,18v35.59a18,18,0,0,1-18,18H939.16a4.67,4.67,0,0,1-4.67-4.67v-62.31a4.67,4.67,0,0,1,4.67-4.67Z" transform="translate(2175.07 2737.65) rotate(180)"/>
      <path class="cls-6" d="M961.83,1347.14c14.14,0,18.54,7.85,18.54,18.54s6.7,13.83,31.63,13.83h203.76a1.57,1.57,0,0,1,1.57,1.57h0a1.57,1.57,0,0,1-1.57,1.57h-93.34c-23.89,0-11.47,13.83-25.77,13.83H970.31c-26.4,0-28.91-19.49-28.91-28.91S947.68,1347.14,961.83,1347.14Z"/>
      <path class="cls-5" d="M1304,868.36H1137a.63.63,0,0,0-.63.63v15.25a.63.63,0,0,0,.63.63h148.85a.63.63,0,0,0,.63-.63L1304.62,869A.63.63,0,0,0,1304,868.36Z"/>
      <path class="cls-5" d="M1318,846.17H1151.66a.94.94,0,0,0-.94.94v14.63a.94.94,0,0,0,.94.94H1299.9a.94.94,0,0,0,.93-.94L1319,847.11A.94.94,0,0,0,1318,846.17Z"/>
      <rect class="cls-3" x="1219.69" y="846.17" width="25.36" height="16.51"/>
      <rect class="cls-3" x="1219.69" y="868.21" width="25.36" height="16.51"/>
      <path class="cls-7" d="M939.16,829.38h283.39a18,18,0,0,1,18,18V883a18,18,0,0,1-18,18H939.16a4.67,4.67,0,0,1-4.67-4.67V834.05a4.67,4.67,0,0,1,4.67-4.67Z" transform="translate(2175.07 1730.41) rotate(180)"/>
      <path class="cls-6" d="M961.83,886.89c14.14,0,18.54-7.86,18.54-18.54s6.7-13.83,31.63-13.83h203.76a1.58,1.58,0,0,0,1.57-1.57h0a1.57,1.57,0,0,0-1.57-1.57h-93.34c-23.89,0-11.47-13.83-25.77-13.83H970.31c-26.4,0-28.91,19.48-28.91,28.91S947.68,886.89,961.83,886.89Z"/>
      <path class="cls-7" d="M1710,901.15s3.22,3.22,9,.27c7-3.57,16.42-13.62,16.71-23.38v-.54s-1.37-.23-1.8-.37.22-.2-.07-.25c-4-.62-7.5-1-10.66-1.21-20-1.31-24.9,4.65-24.9,4.65Z"/>
      <path class="cls-7" d="M773.24,1231.67l58,218.68c3.71,14,2.9,30.23-1.75,35.45l-15,16.76c-4.66,5.21-11.23-2.79-14.32-17.45l-56.81-269A191.12,191.12,0,0,0,773.24,1231.67Z"/>
      <path class="cls-7" d="M773.72,1022.68a192.55,192.55,0,0,0-30,15.52l56.41-267.12c3.09-14.66,9.66-22.67,14.32-17.45l15,16.76c4.65,5.21,5.46,21.47,1.75,35.45Z"/>
      <path class="cls-7" d="M618.84,754.36l17.92-26.49c5.58-8.23,14.14-2.38,18.68,12.76l89.3,297.72c-9.09,8.48-17.72,17.25-25.67,26.15l-100.79-269C613,781.49,613.27,762.6,618.84,754.36Z"/>
      <path class="cls-7" d="M641.54,1502.65l77.93-298.43a176,176,0,0,0,21.35,15.25l-69.25,322.25c-3.67,17.07-10.59,26.58-15.1,20.73L642,1543.6C637.48,1537.75,637.28,1519,641.54,1502.65Z"/>
      <path class="cls-4" d="M2048.55,820.29s28.25-11.56-29.54-24.4-21.83,68.71-21.83,68.71Z"/>
      <polygon class="cls-4" points="1680.12 816.75 1679.98 784.33 1759.6 784.33 1746.76 862.67 1680.12 816.75"/>
      <path class="cls-7" d="M1677.41,807.45s2.9-15.61,40.62-15.61c22.53,0,3.58-12-20.07-15.21-16-2.2-37.24,3.85-37.24,3.85S1656.87,807.45,1677.41,807.45Z"/>
      <path class="cls-8" d="M2055,811.3V786.9s-18-10.27-40.44-10.27-30.19,17.89-10.93,17.89C2019,794.52,2055,802.31,2055,811.3Z"/>
      <g class="cls-9">
        <g>
          <path class="cls-10" d="M2019.57,784.26s-1.24-1.74-4.39-1.74-2.36,7.3-2.36,7.3S2019.57,790.42,2019.57,784.26Z"/>
          <path class="cls-10" d="M1702.21,784.26s1.23-1.74,4.38-1.74,2.36,7.3,2.36,7.3S1702.21,790.42,1702.21,784.26Z"/>
          <path class="cls-7" d="M1710,758.39l8.77,3.56-.78,8.77s-8.33-.53-9.29-11.29C1708.58,758.47,1709.13,758,1710,758.39Z"/>
          <path class="cls-11" d="M1713,811.44c0,147.52,295.82,147.52,295.82,0s-66.22-267.13-147.91-267.13S1713,663.91,1713,811.44Z"/>
          <path class="cls-12" d="M1913.55,561.75c51.77,35.65,89.61,122.32,94.65,226-55.88,35.24-133.88,67-133.88-30.07,0,0,91.51,13.22,91.51-20.55,0-16.83,15.13-50,3-87.18C1956.61,612.46,1930,575.13,1913.55,561.75Z"/>
          <path class="cls-12" d="M1767.28,608.58l-2.6-.07,1.17-1.93C1766.31,605.84,1768.64,607.75,1767.28,608.58Z"/>
          <path class="cls-12" d="M1957.11,812.88s52.5-29,24.45-155.91c17.14,43.61,27.22,96.91,27.22,154.47a94.51,94.51,0,0,1-11.87,46.92C1973.49,855.2,1956.09,842.9,1957.11,812.88Z"/>
          <path class="cls-12" d="M1782.58,740c-.3-38.09,11.94-46.86,19.8-48.67,2.11-.48,4,3.49,2.75,5.77-5.63,10.3-14.94,32.33-6.61,65.28,7.27,28.74,41.67,76.41,52,91.78,17.1,25.42,57.68,26,82.93,23.48,1,4.07,1.44,6.35,1.44,6.35s-43,42.4-68.67,4.19c-15.72-23.36-40.51-38.22-59.68-70.38C1794.35,797.33,1782.75,760.69,1782.58,740Z"/>
          <polygon class="cls-7" points="2012.84 759.33 2006.04 760.04 2006.04 765.09 2012.84 759.33"/>
          <path class="cls-13" d="M1724.12,766.56l15.75-16.76L1761,773.05l30.1-18.85L1806,773.05l24.32-14.66,18.13,16.34,14.57-18.65,21.5,17.18L1901.46,753l17,16,21.13-14.45,17.53,12.15,17.68-11.53,23.58,11.32,7.74-6.08a480.62,480.62,0,0,1,2.69,51c0,147.52-295.82,147.52-295.82,0a478.65,478.65,0,0,1,2.56-49.67Z"/>
          <path class="cls-13" d="M1752.91,669.27l1.6-4a9.85,9.85,0,0,0,.41-6,4.15,4.15,0,0,0-1.08-1.93,9.32,9.32,0,0,1-3.61-7.8c0-6.11-5-9.84-5-9.84l2.43-1.1a.71.71,0,0,1,.81.17c1.2,1.29,5,5.78,5,10.21,0,3.16,2.28,5.5,3.49,6.86a10.38,10.38,0,0,1,1.59,3.89,9.81,9.81,0,0,1-.51,5.51l-1.61,4a9.83,9.83,0,0,1-10.92,6.22A10,10,0,0,0,1752.91,669.27Z"/>
          <g>
            <path class="cls-14" d="M1758.61,663.31v0Z"/>
            <path class="cls-14" d="M1754.53,672.38l-.14.15Z"/>
            <path class="cls-14" d="M1758.22,664.83a.76.76,0,0,1,0-.11A.76.76,0,0,0,1758.22,664.83Z"/>
            <path class="cls-14" d="M1758.5,663.83l0-.12Z"/>
            <path class="cls-14" d="M1758.38,664.31v0Z"/>
            <path class="cls-14" d="M1756.2,669.85c0-.05,0-.1.07-.14S1756.22,669.8,1756.2,669.85Z"/>
            <path class="cls-14" d="M1755.24,671.48l.12-.16Z"/>
            <path class="cls-14" d="M1756,670.29l.09-.16Z"/>
            <path class="cls-14" d="M1755.5,671.1a1,1,0,0,0,.11-.17A1,1,0,0,1,1755.5,671.1Z"/>
            <path class="cls-14" d="M1755.75,670.71l.1-.17Z"/>
            <path class="cls-14" d="M1758.46,659.3l-.06-.24Z"/>
            <path class="cls-14" d="M1758.71,660.73a.34.34,0,0,1,0-.1A.34.34,0,0,0,1758.71,660.73Z"/>
            <path class="cls-14" d="M1758.55,659.7v0Z"/>
            <path class="cls-14" d="M1755,671.85l.13-.17Z"/>
            <path class="cls-14" d="M1758.73,662.3v0Z"/>
            <path class="cls-14" d="M1758.68,662.8a.37.37,0,0,0,0-.11A.37.37,0,0,1,1758.68,662.8Z"/>
            <path class="cls-14" d="M1758.74,661.27v0Z"/>
            <polygon class="cls-14" points="1758.06 665.27 1758.06 665.27 1758.06 665.27 1757.25 667.27 1758.06 665.27"/>
            <path class="cls-14" d="M1758.75,661.66v0Z"/>
            <path class="cls-14" d="M1758.65,660.25a.28.28,0,0,1,0-.09A.28.28,0,0,0,1758.65,660.25Z"/>
            <path class="cls-14" d="M1748.54,675.58l.26,0Z"/>
            <path class="cls-14" d="M1749,675.51l.26,0Z"/>
            <path class="cls-14" d="M1749.38,675.43l.25-.06Z"/>
            <path class="cls-14" d="M1749.8,675.32l.24-.07Z"/>
            <path class="cls-14" d="M1750.21,675.2l.24-.08Z"/>
            <path class="cls-14" d="M1750.61,675.06l.24-.09Z"/>
            <path class="cls-14" d="M1707.8,656.53l40.29-18.1h0l-2.88,1.3s5,3.73,5,9.84a9.32,9.32,0,0,0,3.61,7.8,4.15,4.15,0,0,1,1.08,1.93,9.85,9.85,0,0,1-.41,6l-1.6,4a10,10,0,0,1-7.38,6.22,10.68,10.68,0,0,0,1.25.16,9.42,9.42,0,0,1-2.2-.39l-36.31-10.86A4.26,4.26,0,0,1,1707.8,656.53Z"/>
            <path class="cls-14" d="M1746.81,675.65h0Z"/>
            <path class="cls-14" d="M1747.68,675.65h0Z"/>
            <path class="cls-14" d="M1748.11,675.63l.27,0Z"/>
            <path class="cls-14" d="M1753.08,673.71l.17-.13Z"/>
            <path class="cls-14" d="M1754.69,672.2c0-.06.09-.11.13-.16S1754.73,672.14,1754.69,672.2Z"/>
            <path class="cls-14" d="M1753.43,673.44l.16-.14Z"/>
            <path class="cls-14" d="M1751,674.9l.23-.1Z"/>
            <path class="cls-14" d="M1747.54,675.66h0Z"/>
            <path class="cls-14" d="M1754.08,672.85l.15-.15Z"/>
            <path class="cls-14" d="M1753.76,673.15l.15-.14Z"/>
            <path class="cls-14" d="M1751.4,674.73l.23-.11Z"/>
            <path class="cls-14" d="M1751.77,674.54l.24-.13Z"/>
            <path class="cls-14" d="M1752,674.39c.18-.1.35-.21.52-.32C1752.39,674.18,1752.22,674.29,1752,674.39Z"/>
            <path class="cls-14" d="M1752.73,674l.18-.13Z"/>
          </g>
          <ellipse class="cls-7" cx="1733.73" cy="657.1" rx="3.46" ry="1.61" transform="matrix(0.97, -0.25, 0.25, 0.97, -110.1, 462.46)"/>
          <path class="cls-7" d="M1760.23,632.25a1.5,1.5,0,0,0,0-3,1.5,1.5,0,0,0,0,3Z"/>
          <path class="cls-15" d="M1751.21,628.16c-3.18,12.65-.66,24.31,5.62,26.06s17.78-44.06,11.5-45.8S1754.39,615.51,1751.21,628.16Z"/>
          <path class="cls-7" d="M1749.63,627.72c-1.32,5.26-.94,9.91.84,10.41s6.56-18.53,4.78-19S1751,622.47,1749.63,627.72Z"/>
          <path class="cls-7" d="M1767.26,608.22a6.51,6.51,0,0,1,1.07.2c6.28,1.74-5.22,47.54-11.5,45.8a6.07,6.07,0,0,1-1-.39C1761.9,650.27,1770.89,614.48,1767.26,608.22Z"/>
          <path class="cls-6" d="M1755.7,645.86c1,.49,2.75-1.12,3.79-3.6s1-4.89,0-5.38S1754.64,645.37,1755.7,645.86Z"/>
          <g>
            <path class="cls-6" d="M1860.89,790.2c-111.49,0-144.65-2.91-154.51-4.63q.8-13.5,2.27-26.61a.46.46,0,0,1,.88-.13l10.17,13.7a.44.44,0,0,0,.7,0L1741,747.43a.44.44,0,0,1,.64,0l20.58,18.1a.44.44,0,0,0,.48.07l27.75-13.12a.46.46,0,0,1,.49.08L1809.56,769a.44.44,0,0,0,.52,0L1831,756.38a.46.46,0,0,1,.41,0l16.48,7.24a.43.43,0,0,0,.44,0l14.55-10.27a.43.43,0,0,1,.42,0l20.45,8.19a.44.44,0,0,0,.44-.06L1898.45,750a.44.44,0,0,1,.49,0l19.73,10.93a.44.44,0,0,0,.37,0l20.39-8.11a.44.44,0,0,1,.4.05l17,11.37a.44.44,0,0,0,.5,0l17.15-12.06a.42.42,0,0,1,.54,0l23,19.35a.44.44,0,0,0,.58,0l13.62-11.85a.52.52,0,0,0,.1-.11h0a.45.45,0,0,1,.84.2q1.41,12.69,2.18,25.79C2005.47,787.29,1972.26,790.2,1860.89,790.2Z"/>
            <path class="cls-5" d="M1860.78,815.36h.21c115.06,0,146.58-3.11,155.22-4.8,0,1.6,0,3.21,0,4.82,0,155-310.72,155-310.72,0q0-2.42,0-4.83C1714.13,812.24,1745.59,815.35,1860.78,815.36Z"/>
          </g>
          <path class="cls-6" d="M1860.89,790.2c-111.49,0-144.65-2.91-154.51-4.63q.8-13.5,2.27-26.61a.46.46,0,0,1,.88-.13l10.17,13.7a.44.44,0,0,0,.7,0L1741,747.43a.44.44,0,0,1,.64,0l20.58,18.1a.44.44,0,0,0,.48.07l27.75-13.12a.46.46,0,0,1,.49.08L1809.56,769a.44.44,0,0,0,.52,0L1831,756.38a.46.46,0,0,1,.41,0l16.48,7.24a.43.43,0,0,0,.44,0l14.55-10.27a.43.43,0,0,1,.42,0l20.45,8.19a.44.44,0,0,0,.44-.06L1898.45,750a.44.44,0,0,1,.49,0l19.73,10.93a.44.44,0,0,0,.37,0l20.39-8.11a.44.44,0,0,1,.4.05l17,11.37a.44.44,0,0,0,.5,0l17.15-12.06a.42.42,0,0,1,.54,0l23,19.35a.44.44,0,0,0,.58,0l7.42-6.45,6.2-5.4a.52.52,0,0,0,.1-.11h0a.45.45,0,0,1,.84.2q1.41,12.69,2.18,25.79C2005.47,787.29,1972.26,790.2,1860.89,790.2Z"/>
          <path class="cls-11" d="M1806.09,919.8c9.67-8.41,26.67-18.12,53.69-18.12h2.12c27,0,44,9.71,53.7,18.12,1,.87.82,3.33-.26,3.73-10.57,3.93-28.28,8.38-54.5,8.46-26.22-.08-43.93-4.53-54.49-8.46C1805.27,923.13,1805.1,920.67,1806.09,919.8Z"/>
          <path class="cls-6" d="M1802.31,925.06h0c8,3.9,26.23,10.66,57.46,10.8,31.24-.14,49.51-6.9,57.47-10.8h0c1.11-.55,3.45-2.06,1.92-5-.26-.36-.55-.74-.87-1.16-5.93-7.66-23-24.63-57.54-24.63h-2c-34.57,0-51.61,17-57.54,24.63-.32.42-.61.8-.87,1.16C1798.86,923,1801.19,924.51,1802.31,925.06Zm6.26-5c9-7.87,25-17,50.23-17h2c25.28,0,41.19,9.08,50.23,17,.93.81.76,3.11-.25,3.49-9.88,3.68-26.45,7.83-51,7.91-24.53-.08-41.09-4.23-51-7.91C1807.81,923.21,1807.64,920.91,1808.57,920.1Z"/>
          <path class="cls-6" d="M1783,917.51a150.49,150.49,0,0,1-34.86-19.13c-15.45-35-17.84-74.15-12.94-88.22,6.72.27,14.46.51,23.37.73C1752.71,828.15,1753.17,877.81,1783,917.51Z"/>
          <path class="cls-16" d="M1761.65,903.15c-2-3.68-12.4-22.53-15.58-41.88-3.93-23.87-.44-48.79,0-50.21"/>
          <path class="cls-5" d="M1860.89,790.2c158.27,0,158.68-5.86,158.68-5.86l-.1,25.15s-.41,5.86-158.48,5.87h-.21c-158.07,0-158.47-5.87-158.47-5.87l-.1-25.15S1702.61,790.2,1860.89,790.2Z"/>
          <g>
            <path class="cls-6" d="M1702.25,794.69c3.53.37,7.77.75,12.86,1.11a2.84,2.84,0,0,1,2.33,3v2.3c0,1.74-1.2,3.12-2.62,3-5-.35-9.08-.72-12.54-1.08Z"/>
            <path class="cls-6" d="M1745.2,800.32v2.3a2.76,2.76,0,0,1-2.56,3c-4.74-.19-9.09-.39-13.09-.6a2.82,2.82,0,0,1-2.36-3v-2.3c0-1.72,1.17-3.1,2.57-3,4,.21,8.33.41,13,.6A2.81,2.81,0,0,1,1745.2,800.32Z"/>
            <path class="cls-6" d="M1773,801.2v2.31a2.77,2.77,0,0,1-2.52,3q-6.9-.16-13.08-.36a2.8,2.8,0,0,1-2.41-3v-2.31a2.77,2.77,0,0,1,2.53-3c4.12.13,8.46.25,13.06.36A2.81,2.81,0,0,1,1773,801.2Z"/>
            <path class="cls-6" d="M1800.72,801.73V804a2.78,2.78,0,0,1-2.5,3q-6.81-.09-13.08-.21a2.8,2.8,0,0,1-2.43-3v-2.31a2.77,2.77,0,0,1,2.51-3c4.18.07,8.53.15,13.06.21A2.8,2.8,0,0,1,1800.72,801.73Z"/>
            <path class="cls-6" d="M1828.48,802v2.31a2.78,2.78,0,0,1-2.49,3q-6.75,0-13.07-.11a2.79,2.79,0,0,1-2.45-3v-2.31a2.78,2.78,0,0,1,2.49-3L1826,799A2.79,2.79,0,0,1,1828.48,802Z"/>
            <path class="cls-6" d="M1856.24,802.13v2.31a2.78,2.78,0,0,1-2.47,3c-4.48,0-8.83,0-13.08,0a2.79,2.79,0,0,1-2.46-3V802.1a2.78,2.78,0,0,1,2.48-3l13.06,0A2.78,2.78,0,0,1,1856.24,802.13Z"/>
            <path class="cls-6" d="M1976.37,800.32v2.3a2.76,2.76,0,0,0,2.56,3c4.74-.19,9.09-.39,13.09-.6a2.82,2.82,0,0,0,2.37-3v-2.3c0-1.72-1.18-3.1-2.58-3-4,.21-8.32.41-13,.6A2.81,2.81,0,0,0,1976.37,800.32Z"/>
            <path class="cls-6" d="M1948.61,801.2v2.31a2.77,2.77,0,0,0,2.53,3q6.9-.16,13.07-.36a2.8,2.8,0,0,0,2.41-3v-2.31a2.77,2.77,0,0,0-2.53-3q-6.16.2-13,.36A2.81,2.81,0,0,0,1948.61,801.2Z"/>
            <path class="cls-6" d="M1920.85,801.73V804a2.78,2.78,0,0,0,2.51,3q6.8-.09,13.07-.21a2.8,2.8,0,0,0,2.43-3v-2.31a2.77,2.77,0,0,0-2.51-3c-4.17.07-8.52.15-13,.21A2.8,2.8,0,0,0,1920.85,801.73Z"/>
            <path class="cls-6" d="M1893.09,802v2.31a2.78,2.78,0,0,0,2.49,3q6.75,0,13.07-.11a2.79,2.79,0,0,0,2.45-3v-2.31a2.77,2.77,0,0,0-2.49-3l-13.06.11A2.79,2.79,0,0,0,1893.09,802Z"/>
            <path class="cls-6" d="M1865.33,802.13v2.31a2.78,2.78,0,0,0,2.48,3q6.7,0,13.07,0a2.79,2.79,0,0,0,2.46-3V802.1a2.78,2.78,0,0,0-2.48-3l-13.06,0A2.79,2.79,0,0,0,1865.33,802.13Z"/>
            <path class="cls-6" d="M2006.46,795.8c5.16-.37,9.44-.75,13-1.12h.06l0,8.35c-3.5.37-7.69.74-12.73,1.1-1.43.11-2.63-1.27-2.63-3v-2.3A2.85,2.85,0,0,1,2006.46,795.8Z"/>
          </g>
          <path class="cls-7" d="M1705.51,815.38q0-2.42,0-4.83c6.7,1.32,27.31,3.5,90.71,4.4-2.13,1.37-35.81,1.14-45,.75-15.34-.64-29.93-.12-33.74,3.7-6.43,6.42-1.3,33.53,2,47.83C1710.6,852.48,1705.51,835.2,1705.51,815.38Z"/>
          <path class="cls-7" d="M1976.1,815.1l-6.57-1.17c29.83-1,41.84-2.43,46.68-3.37,0,1.6,0,3.21,0,4.82,0,25-8.09,46-21.65,62.9q-1,.91-2,1.8C2007.46,858.46,2023,823.57,1976.1,815.1Z"/>
          <path class="cls-5" d="M1976.26,647.06s-6.59-2.18-13.54,7.26-39.15,94.54-67,98.65-34.31-4.4-37.16-23.69-21.79-108.78-33.23-117.35-50.81-24.31-50.81-24.31-6-2,4.61-16.45,36.87-57.76,70.07-62.66,64.06-7.88,86,8.59,40.45,37.15,40.19,81.35c-.06,10.66,0,19.23,1,25.63.19,1.22-1,1.73-.73,2.79.53,2,2.64,4.4,3.53,5.85C1982.85,638.58,1984.88,645.79,1976.26,647.06Z"/>
          <path class="cls-7" d="M1821.25,508.46s12.89.43,17.07,9.28,9.6,26.19,3.18,39.23-13.39,20.64-29.48,23-25.53-3.33-25.53-3.33-12.29-6.67-10.33-19.28C1786.37,544.64,1821.25,508.46,1821.25,508.46Z"/>
          <path class="cls-5" d="M1813.25,507s18.29.2,20.53,15.38-2,30.78-13.55,37.22-33.24,9.91-40.28,4.64-2.16-14.67-2.16-14.67-3.81-2.86.53-8.75S1802.91,513,1802.91,513a4.38,4.38,0,0,1,4.63-2.26C1810.75,511.3,1810.18,507.44,1813.25,507Z"/>
          <path class="cls-11" d="M1802.76,517.21s-17.9,18.41-19.87,24.49-.66,6.14,1.69,7.9,16,5.79,25.43-2.7,9.61-18,9.61-18,0-8.68-8.43-11.12S1802.76,517.21,1802.76,517.21Z"/>
          <path class="cls-5" d="M1888.09,663.66c8.35,1.59,15.71,2.19,15.71,2.19s6.62,1.28,8-8.23a123.38,123.38,0,0,0,1.39-12.55c.3-2-.12-6.32-8.32-7.85-10.94-2.06-18.69-3.45-20.15,1.84s-4,18.08-4,18.08S1879.74,662.07,1888.09,663.66Zm-2.32-8.52s1.78-8.79,2.78-12.43,6.34-2.68,13.86-1.27c5.64,1.06,5.93,4,5.72,5.4a84.46,84.46,0,0,1-1,8.63c-1,6.54-5.51,5.66-5.51,5.66s-5.06-.41-10.8-1.5S1885.77,655.14,1885.77,655.14Z"/>
          <path class="cls-12" d="M1770,611.23a8,8,0,0,0-.23-1,.14.14,0,0,0,0-.06,8.14,8.14,0,0,0,7.94-.91l.38.09a8.16,8.16,0,0,0,7.15,4.24,8,8,0,0,0,3.78-.94,8.13,8.13,0,0,0,11.13,5.64c0,.22,0,.43,0,.66a8.14,8.14,0,0,0,8.14,8.13,9,9,0,0,0,1.17-.08,7.7,7.7,0,0,0-.18,1.67,8.15,8.15,0,0,0,8.14,8.14c.28,0,.55,0,.82,0,0,.21,0,.42,0,.63a675.44,675.44,0,0,1,18.66,13.3,8.06,8.06,0,0,0,5.61-2.25s2-1.57,4.5-4a79.52,79.52,0,0,1-6.48,6A8.13,8.13,0,0,1,1827,647a8.23,8.23,0,0,1-2.77.49,8.14,8.14,0,0,1-8.14-8.14c0-.22,0-.43,0-.64a7.5,7.5,0,0,1-.82,0,8.13,8.13,0,0,1-8.14-8.13,8.4,8.4,0,0,1,.17-1.68,7.46,7.46,0,0,1-1.16.09,8.14,8.14,0,0,1-8.14-8.14q0-.33,0-.66a8,8,0,0,1-3.21.66,8.14,8.14,0,0,0-11.71-5.36,8.12,8.12,0,0,1-7.14-4.24l-.39-.09a8,8,0,0,1-4.77,1.55,6.51,6.51,0,0,1-.77,0A13.21,13.21,0,0,0,1770,611.23Z"/>
          <path class="cls-15" d="M1753.33,598c5.55-7.53,9.07-17.27,15.2-22.53a6.67,6.67,0,0,1,6.49-5.13,6.74,6.74,0,0,1,1.86.27,15.57,15.57,0,0,0,12.63.53,6.68,6.68,0,0,0,10.52,5,6.68,6.68,0,0,1,6.67,6.53,6.61,6.61,0,0,1,4-1.37,6.68,6.68,0,0,1,6.68,6.68,6.84,6.84,0,0,1-.05.79,7.1,7.1,0,0,1,1.31-.13,6.67,6.67,0,0,1,6.51,5.2l.42.27a6.67,6.67,0,0,1,8.67,6l.86.63A6.66,6.66,0,0,1,1844,607q0,.32,0,.63l.24.2a6.26,6.26,0,0,1,1.45-.16,6.67,6.67,0,0,1,6.67,6.67,7.2,7.2,0,0,1-.08,1,7.2,7.2,0,0,1,1-.08,6.68,6.68,0,0,1,4.93,11.17c-.28,9.42-15.86,22-15.87,22a8.06,8.06,0,0,1-5.61,2.25,8.16,8.16,0,0,0-10.52-5.16,8.14,8.14,0,0,1-8.14-8.14c0-.21,0-.42,0-.63-.27,0-.54,0-.82,0a8.15,8.15,0,0,1-8.14-8.14,7.7,7.7,0,0,1,.18-1.67,9,9,0,0,1-1.17.08,8.14,8.14,0,0,1-8.14-8.13c0-.23,0-.44,0-.66a12,12,0,0,0-14.91-4.7,8.16,8.16,0,0,1-7.15-4.24l-.38-.09a8.14,8.14,0,0,1-11.33-1.76,8.25,8.25,0,0,1-3.37.73,8.13,8.13,0,0,1-7.23-4.41C1752.57,602.4,1751.39,600.64,1753.33,598Z"/>
          <path class="cls-15" d="M1860,621.91s-.1,7.23-3.67,10.81-23.72-.88-23.72-.88S1851.86,621.91,1860,621.91Z"/>
          <path class="cls-7" d="M1808.31,510.77a2.5,2.5,0,0,0,2-1.29,27.73,27.73,0,0,0,6.51,3.54,16.45,16.45,0,0,1,9.26,10.45S1815.67,512.41,1808.31,510.77Z"/>
          <path class="cls-7" d="M1806.91,556.27a.34.34,0,0,0-.22,0,45.63,45.63,0,0,1-12.39,1.56c-5.34,0-8.39-1-9.72-1.58a.29.29,0,0,0-.34.46c.83,1,2.77,2.9,9.26,2.9a56.68,56.68,0,0,0,14.94-2,.29.29,0,0,0,.06-.55Z"/>
          <path class="cls-7" d="M1846.89,571.3c5.56-9.33,126.78,40.94,130,55.1l-2.36.47s-1.43.3-4.83-1.71c-20.51-12.09-64.38-35.2-124.58-51.93A6.23,6.23,0,0,0,1846.89,571.3Z"/>
          <path class="cls-15" d="M1854.7,547.58s1.26-2-2-2.84-4.24-1.35-5.44.27-7.76,2.2-10,1.47-3.84-2.19-4.82-.86a8.64,8.64,0,0,1-6-1.75c-1.17-.87-3.37-1.6-5.09,2.6a30,30,0,0,1-2.6,5.37s-.9,2.77,2.68,2.24,6.87,2.4,6.87,2.4-1.48,2.32,2.61,3.56,7,4.75,7.39,7.58.27,3.64,2.72,4.33,4.15,1.81,5.74-.35S1854.7,547.58,1854.7,547.58Z"/>
          <path class="cls-7" d="M1829.42,548l-2,4.31a.74.74,0,0,1-.9.39,1.57,1.57,0,0,0-1-.81c-.4-.1-.91,0-1.19-.2a1,1,0,0,1-.24-.95l1.69-3.79a.74.74,0,0,1,.8-.41,4.89,4.89,0,0,0,1.12.39,2.18,2.18,0,0,0,1.23,0A.74.74,0,0,1,1829.42,548Z"/>
          <path class="cls-7" d="M1837.49,558l-2-1.53a1.94,1.94,0,0,1-.64-2.18l1.06-3a1.93,1.93,0,0,1,1.81-1.28h2.62a1.93,1.93,0,0,1,1.8,2.6l-1.69,4.5A1.92,1.92,0,0,1,1837.49,558Z"/>
          <path class="cls-7" d="M1852.55,549.19l-6.17,18.69a1.56,1.56,0,0,1-1.93,1l-.94-.28a1.56,1.56,0,0,1-1-2l6.68-18.55a1.56,1.56,0,0,1,1.93-1l.44.14A1.56,1.56,0,0,1,1852.55,549.19Z"/>
          <path class="cls-7" d="M1868.33,749.8c31.56,0,41.28-13,41.28-40s41.48-52.2,55-65.7-1.5-22.77-1.5-22.77q6.92,0,13,.55c.27,2.23-.52,3.38,0,5.15s2.31,4.31,3.13,5.65c3.62,5.86,5.65,13.07-3,14.34,0,0-6.59-2.18-13.54,7.26s-39.15,94.54-67,98.65c-14,2.07-22.62.94-28.07-3.16Z"/>
          <path class="cls-6" d="M1854.7,547.58l.09-.17c.47.15,1,.33,1.55.53,7.72,2.81,76.58,23.18,119.25,55.13,2.64,2,3.22,26.21.14,23.91,0,0-49.26-34.19-128.81-55.55C1848.67,568.52,1854.7,547.58,1854.7,547.58Z"/>
          <path class="cls-15" d="M1963.73,619.48s9.8,1.8,9.8-17.93l2.06,1.52c2.64,2,3.22,26.21.14,23.91,0,0-4.16-2.89-12-7.5Z"/>
          <path class="cls-12" d="M1802.76,517.21s0-1.84,8.43.59a11.71,11.71,0,0,1,3.72,1.79c-3.2-1.75-12.64-3.41-28.75,19.76-1.52,2.19-3.37,5-3.38,8.89-1-1-1.26-2.32.11-6.54C1784.86,535.62,1802.76,517.21,1802.76,517.21Z"/>
          <ellipse class="cls-6" cx="1810.67" cy="539.84" rx="6.65" ry="3.67" transform="translate(361.4 1752.11) rotate(-56.51)"/>
        </g>
      </g>
      <path class="cls-7" d="M1671,811.3s83.48,32.11,196.49,32.11c74.55,0,141-12.79,173.36-23.12,16.71-5.32,14.13-9,14.13-9l16,44.76s-84.07,37.43-218.91,37.43S1671,847.26,1671,847.26Z"/>
      <path class="cls-6" d="M1678.71,667.07c7.67,2.83,14.07,8.58,16.71,16.95,8,25.23,6.17,63.86,7.45,99.76.14,4.11.46,8,.9,11.7l.06,0,0,.14c.59,4.88,1.4,9.45,2.36,13.79,2.4,3.51,6.56,7.21,13.62,10.47,37,17.07,86.47,28.28,88.94,51.74,3.51,33.33-92.29,20.77-112.92,17.68-15.21-2.11-31.69-7.55-36-9-.66-.23-1.33-.43-2-.62-7.08-1.92-53.44-16.89-60.08-80-1.91-18.08,1.47-36.62,7.46-54.11,5.05-14.73,21-37.62,36.2-55.2C1654,675.68,1676.23,666.16,1678.71,667.07Z"/>
      <polygon class="cls-8" points="2056.53 791.07 2056.53 791.07 2056.53 791.07 2056.53 791.07"/>
      <path class="cls-3" d="M2055,786.92v0Z"/>
      <path class="cls-3" d="M2055,817.5h0s-66.78,23.34-129.7,23.34c-.07,0,9.06-1.43,12.42-6.57a115.41,115.41,0,0,1,18.66-22.22c12.12-11,28.22-20,48.54-20,50.9,0,50.19-4.8,50.09-5.12l7.7,20.53C2062.68,811.73,2059.21,814.77,2055,817.5Z"/>
      <path class="cls-8" d="M2062.59,808.53c0,.17-.05.35-.08.52l-.09.31a3.74,3.74,0,0,1-.12.45l-.12.32c0,.14-.1.27-.16.41l-.15.33-.2.37c-.06.11-.12.22-.19.33s-.14.24-.22.35l-.22.33-.25.33a4,4,0,0,1-.26.32c-.08.11-.17.21-.26.32l-.3.32-.28.29c-.1.11-.21.22-.32.32l-.29.27-.37.33-.28.24-.42.35-.24.19-.49.38-.16.11c-.68.51-1.4,1-2.15,1.48h0a117.75,117.75,0,0,1-16.69,5.36c1.7-2.53,9.94-6.09,14.12-10.27,6.46-6.46,6.72-12.81,5.86-16.92l4.42,11.78a7.37,7.37,0,0,1,0,.82C2062.62,808.35,2062.6,808.44,2062.59,808.53Z"/>
    </g>
  </g>
</svg>
