<svg xmlns="http://www.w3.org/2000/svg" xmlns:xlink="http://www.w3.org/1999/xlink" viewBox="0 0 1312.33 1136">
  <defs>
    <style>
      .cls-1, .cls-13 {
        fill: none;
      }

      .cls-2 {
        clip-path: url(#clip-path);
      }

      .cls-3 {
        fill: #293541;
      }

      .cls-4 {
        fill: #f6545a;
      }

      .cls-5 {
        fill: #db4550;
      }

      .cls-6 {
        fill: #eff3f6;
      }

      .cls-7 {
        fill: #1b2126;
      }

      .cls-8 {
        fill: #ffc313;
      }

      .cls-9 {
        fill: #33404c;
      }

      .cls-10 {
        fill: #e2d8c9;
      }

      .cls-11 {
        fill: #080a0c;
      }

      .cls-12 {
        fill: #dfe2e5;
      }

      .cls-13 {
        stroke: #1a1a1a;
        stroke-linecap: round;
        stroke-miterlimit: 10;
        stroke-width: 10px;
        stroke-dasharray: 20 30;
      }
    </style>
    <clipPath id="clip-path">
      <rect class="cls-1" x="-1139.76" y="-1524.36" width="2198.94" height="1253.8"/>
    </clipPath>
  </defs>
  <title>chickenin_slides</title>
  <g id="Layer_5" data-name="Layer 5">
    <g class="cls-2">
      <g>
        <g>
          <path class="cls-3" d="M1032.64-531.64C1020-552.08,876.09-541,696.86-540c-197.86,1.16-432.19-5.86-432.15,9.9C265.54-197.32,465.29-6.82,601.39,84.39c70.41,47.19,182.19,114.92,224.07,130.53,156.87,58.46,401.38,39.38,385.43-92.41C1210.89,122.51,1092.77-417.56,1032.64-531.64Z"/>
          <path class="cls-4" d="M693.71,143.24C693.23-48.1,1188,21.24,1188,21.24h0c14,60.94,22.87,101.27,22.87,101.27,15.95,131.79-228.56,150.87-385.43,92.41-25.93-9.66-78.64-39.3-131.75-71.68Z"/>
          <path class="cls-5" d="M693.71,143.24C693.23-48.1,1188,21.24,1188,21.24h0c14,60.94,22.87,101.27,22.87,101.27,15.95,131.79-228.56,150.87-385.43,92.41-25.93-9.66-78.64-39.3-131.75-71.68Z"/>
        </g>
        <path class="cls-6" d="M768.5,66.09c134.4,120,268.85,132.42,357.21,113.39,3.9-.84,6.71,3.23,4.25,6.08C1098,222.61,901.4,224.16,717.3,110.63,728.52,92.26,746.28,77.64,768.5,66.09Z"/>
        <path class="cls-6" d="M370.78-468.53H473.16c7.34,0,13.48,5,14.17,11.64,5.6,53.8,41.43,284.39,254.6,490.83C716.54,45.68,695.54,60.53,681,79.17A658.8,658.8,0,0,1,532.28-66.92c-151.72-205.44-172.93-345.44-175.71-388C356.09-462.31,362.59-468.53,370.78-468.53Z"/>
      </g>
    </g>
    <g>
      <ellipse class="cls-7" cx="589.58" cy="971.61" rx="508.91" ry="79.94"/>
      <path class="cls-8" d="M905.32,921.53c-3-5.68-10.6-8.42-19.48-11.16-4.32-1.33-9.58-3.44-13.52-4.39-10.74-2.61-17.2-3.07-29.34-3.54-15.77-.6-20.83-6.21-26.29-10.05l.18-.13c-29.25-82.79-32.06-232.93-32.06-232.93-22.93-67.06-161.9,74.49-161.9,74.49S679.79,798.23,713.64,901c-2.64,5.37-5,9.83-5.75,17.58-1.72,18.26-.48,40.06,1.23,42.38,3,4,7.73,12.18,14.69,12.18,14.46,0,29.4,13.28,43.88,13.1,22-.28,64.49,19.79,64.49,19.79s30,6.3,43-2.55a48,48,0,0,0,16.19-18.52c0-.46-.06-.91-.08-1.4a64,64,0,0,0-2.1-27.42,26.49,26.49,0,0,0-8.93-12.75c-5.89-4.77-5-5.17,1.7,1.29,6,5.8,11.63,16.39,12.86,21.63.87,3.71-.08,11.68.85,15.48C917.15,974.25,918.85,947.26,905.32,921.53Z"/>
      <path class="cls-8" d="M565.47,664.82c17.35-72.05-184.68-25-184.68-25S393.86,722.05,370.12,826l-.12,0-3.55,13.12S359,870,355,875c-4.7,5.88-5.94,10-23.89,10.64-12.2.46-18.69.92-29.48,3.53-4,1-9.25,3.08-13.59,4.41-8.92,2.75-16.57,5.5-19.57,11.21-13.61,25.85-11.92,53,9.65,60.53.94-3.82,0-11.83.86-15.55,1.24-5.26,6.87-15.9,12.94-21.73,6.76-6.49,7.63-6.09,1.7-1.29a26.54,26.54,0,0,0-9,12.8,64.29,64.29,0,0,0-2.12,27.55c0,.49-.06.95-.09,1.41a48.3,48.3,0,0,0,16.26,18.61c13.08,8.9,43.22,2.58,43.22,2.58s42.67-20.14,64.8-19.86c14.56.19,29.57-13.14,44.1-13.14,7,0,11.75-8.16,14.76-12.23,1.72-2.32,3-24.23,1.26-42.58a38.67,38.67,0,0,0-3.73-13.47h.08C483.79,798.93,565.47,664.82,565.47,664.82Z"/>
      <path class="cls-3" d="M880.66,941.82c19.26,11.13,15,39.94,15,39.94s-2,1.33-2.94.67.68-.26-1.78,4.22c0,0,0,.16-.05,0a1.09,1.09,0,0,1,0-.18c2.07-13.39.18-26.47-4.71-34-1.58-2.45-19.79-3.09-21.59-4.87-2-2,6-2.42,8.16-5.65,1.53-2.26-2.18-8.44-3.27-10-3.07-4.31-8.77-11.17-6-9.85,1.25.6,5.28,7.24,9.64,12.66A34.57,34.57,0,0,0,880.66,941.82Z"/>
      <path class="cls-8" d="M860.75,965.27s6.92-16.68,24-15h0l.5.66.14.19.38.54.11.16c.16.23.31.47.46.7,0,0,.05.1.08.14l.36.6.12.21c.12.21.25.43.36.65l.06.09.39.77.09.18.3.62.09.2.36.79v0c.11.25.22.51.32.77,0,.06,0,.13.08.2l.27.69c0,.05,0,.09,0,.13l.3.84s0,.08,0,.13c.09.24.17.48.25.72,0,.06,0,.12,0,.18.19.57.36,1.13.52,1.7,0,0,0,.1,0,.15.07.26.14.51.2.76l0,.12c.08.29.15.59.23.88h0a75.11,75.11,0,0,1,1.91,18.28,24.47,24.47,0,0,1-1.76,4.17l-.11.21s0,0,0,0c-1,2.06-4.76,6.26-7.33,9.4Z"/>
      <path class="cls-3" d="M916.11,938.83s13.8,16.86-1.38,14.26-.65,13.95-1,19.6a4.79,4.79,0,0,1-1,2.82c24.34,2.54,48.91.23,26.1-28.42q-3.54-4.46-6.84-8.27c-1.21-.73-2.4-1.48-3.57-2.27C910.89,924.76,916.11,938.83,916.11,938.83Z"/>
      <path class="cls-3" d="M865.06,946s-15.46,2.13-15.46,11.41S857,971.19,860.7,981s6.2,12.15,6.2,17.45-9.47,6.66-9.47,6.66-3.12,2.63,3.83,3.3,45.63-5.17,45.31-5S865.06,946,865.06,946Z"/>
      <path class="cls-9" d="M927.63,986.9c-13.34-16.76-24-26.65-32.27-32.46-1.29-1.21-11.38-6.48-13.84-7.21-4.79-1.41-12.85-.69-16,0-9.47,2-18.81,8.08-11.34,17.46,1.47,1.84,13.69,21.77,14,32.59,0,10.61-9.67,8.75-8.33,10.55.45.6,7.44,2.23,8.49,2.34C879.76,1011.25,964,1032.61,927.63,986.9Z"/>
      <path class="cls-3" d="M904.85,978.64s13.8,16.86-1.38,14.26-.66,14-1,19.59a4.83,4.83,0,0,1-1,2.82c24.33,2.54,48.91.24,26.1-28.41q-3.55-4.46-6.85-8.27c-1.2-.73-2.39-1.49-3.56-2.27C899.62,964.56,904.85,978.64,904.85,978.64Z"/>
      <path class="cls-9" d="M938.4,946.47c-10.87-13.65-20-22.74-27.44-28.78a53.52,53.52,0,0,0-9.45-3.92c-7.69-2.31-16.71-3.95-18.36-4.43-4.78-1.42-12.85-.69-16,0-9.47,2-9.66,5.56-2.2,14.94A75.45,75.45,0,0,1,875.55,941,47.23,47.23,0,0,1,879,956.85c0,10.61-9.67,8.75-8.32,10.55.45.6,7.44,2.23,8.49,2.33C890.54,970.83,974.8,992.19,938.4,946.47Z"/>
      <path class="cls-8" d="M860.75,965.27s6.92-16.68,24-15h0l.5.66.14.19.38.54.11.16c.16.23.31.47.46.7,0,0,.05.1.08.14l.36.6.12.21c.12.21.25.43.36.65l.06.09.39.77.09.18.3.62.09.2.36.79v0c.11.25.22.51.32.77,0,.06,0,.13.08.2l.27.69c0,.05,0,.09,0,.13l.3.84s0,.08,0,.13c.09.24.17.48.25.72,0,.06,0,.12,0,.18.19.57.36,1.13.52,1.7,0,0,0,.1,0,.15.07.26.14.51.2.76l0,.12c.08.29.15.59.23.88h0a75.11,75.11,0,0,1,1.91,18.28,24.47,24.47,0,0,1-1.76,4.17l-.11.21s0,0,0,0c-1,2.06-4.76,6.26-7.33,9.4Z"/>
      <path class="cls-10" d="M916.11,938.83s13.8,16.86-1.38,14.26-.65,13.95-1,19.6a4.79,4.79,0,0,1-1,2.82c24.34,2.54,48.91.23,26.1-28.42q-3.54-4.46-6.84-8.27c-1.21-.73-2.4-1.48-3.57-2.27C910.89,924.76,916.11,938.83,916.11,938.83Z"/>
      <path class="cls-9" d="M927.63,986.9c-13.34-16.76-24-26.65-32.27-32.46-1.29-1.21-11.38-6.48-13.84-7.21-4.79-1.41-12.85-.69-16,0-9.47,2-18.81,8.08-11.34,17.46,1.47,1.84,13.69,21.77,14,32.59,0,10.61-9.67,8.75-8.33,10.55.45.6,7.44,2.23,8.49,2.34C879.76,1011.25,964,1032.61,927.63,986.9Z"/>
      <path class="cls-7" d="M880.66,941.82a34.57,34.57,0,0,1-7.55-7.12c-4.36-5.42-8.39-12.06-9.64-12.66a1.7,1.7,0,0,0-.33-.14c-5.56-7.63-4.63-10.73,4-12.58,3.16-.67,11.23-1.4,16,0,.28.08.76.18,1.4.31-2.23-1.1-6-2.5-8-2.45a65.74,65.74,0,0,0-19.1,3.46c-8.17,2.92-.45,8.64,3.3,11,1,.65,6.91,7.61,8.78,10.24,1.09,1.53,4.8,7.71,3.27,10A6.86,6.86,0,0,1,870,944a52.26,52.26,0,0,1-7.24,2.5c-4.31,1-13.15,3.94-13.15,11,0,9.27,7.35,13.76,11.1,23.59s6.2,12.15,6.2,17.45-9.47,6.66-9.47,6.66-3.12,2.63,3.83,3.3a4.14,4.14,0,0,1-1.38-.61c-1.34-1.8,8.33.06,8.33-10.55-.35-10.82-12.57-30.75-14-32.59-7.21-9.06,1.25-15,10.38-17.24h0l1-.22.25-.05.11,0c3.37-.65,11-1.27,15.65.09a74.8,74.8,0,0,1,8.86,4.22A27,27,0,0,0,880.66,941.82Z"/>
      <path class="cls-10" d="M904.85,978.64s13.8,16.86-1.38,14.26-.66,14-1,19.59a4.83,4.83,0,0,1-1,2.82c24.33,2.54,48.91.24,26.1-28.41q-3.55-4.46-6.85-8.27c-1.2-.73-2.39-1.49-3.56-2.27C899.62,964.56,904.85,978.64,904.85,978.64Z"/>
      <path class="cls-3" d="M308.4,990.84a22.6,22.6,0,0,1,8.14-2,41.54,41.54,0,0,0,7.8,3A69,69,0,0,1,308.4,990.84Z"/>
      <g>
        <path class="cls-9" d="M508.5,761c-8.2,3.24-26.63,4.22-46.1,1.75-5.65-.72-32.75-7.39-57.08-19.29-11.55-5.57-18.51-10.51-21.77-14-.87,16.21-2.51,34.07-5.31,53.11,8.86,7.37,25.87,16.16,53,21.36,30.24,5.79,49,6,59.54,4.9,7.42-17.22,15.47-34.3,23.47-50.37C512.33,759.42,510,760.42,508.5,761Z"/>
        <path class="cls-9" d="M384.52,722.52s-.28.05-.66.16c0,.19,0,.38,0,.57A4.68,4.68,0,0,1,384.52,722.52Z"/>
      </g>
      <path class="cls-9" d="M414.51,696.65c-26.21-14.34-30.19-16.72-38.05-27.48-7.43-10.17,2.46-46.32,14.45-61,9.16-11.21,19.76-4.34,19.76-4.34s11.24-3.91,67,19.45,80.19,44.78,80.19,44.78,4.17.82,3.81,13.73c-.43,15.27-7.59,35.67-19,42.9C516.74,741.15,453.62,718,414.51,696.65Z"/>
      <path class="cls-11" d="M557.9,668.07s-24.38-21.42-80.19-44.78-67-19.45-67-19.45-10.6-6.87-19.76,4.34c-4.62,5.66-8.93,14.5-12.05,23.82a14.08,14.08,0,0,0,1.34,2.66c8.57,13.11,12.83,16.45,40.91,37,37.14,27.18,90.38,47.43,123.89,51.52,10-7.86,16.35-28.88,16.71-41.38C562.07,668.89,557.9,668.07,557.9,668.07Z"/>
      <path class="cls-6" d="M421.86,663.89c-26.09-19.52-32.47-27.95-40.28-40.67-7.39-12,19.58-25.52,31.54-39.14,9.14-10.42,3.19-15.17,3.19-15.17s11.2-2.31,66.76,31.62,79.82,60.67,79.82,60.67,7.54,2.08,3.77,15.21c-10.26,35.74-5,41.17-17.86,41.44C518.61,718.5,460.8,693,421.86,663.89Z"/>
      <path class="cls-9" d="M752.88,713.29c28.37-18,32.65-21,40.91-34.66,7.79-12.87-4.54-59-18.34-77.76-10.55-14.35-22-5.7-22-5.7s-12.56-5.06-73.21,24.2-86.73,56.32-86.73,56.32-4.56,1-3.66,17.45c1.08,19.43,15.21,52.1,29.55,55.07C653.07,755.17,710.57,740.19,752.88,713.29Z"/>
      <path class="cls-9" d="M798.14,812.51c-2.64-16.66-4.77-33.49-6.48-49.6-7.25,6.86-20.8,16.29-35.22,23.45-5.22,2.59-32,12.47-59.12,16.69-13,2.09-21.85,1.86-26.75.79,7.48,13.25,15.2,28.19,22.62,44.64,11.63,1.13,31.72-.93,58.59-12.38C774.55,826.41,789.25,818.3,798.14,812.51Z"/>
      <g>
        <path class="cls-9" d="M816.87,892.26c-3.25-9.21-6.18-19.25-8.81-29.83a7.09,7.09,0,0,1-.6,2.78c-2.48,5.91-11.41,15.57-34.4,23.53-38.95,10.09-59.63,9.39-59.57,9.3a7.56,7.56,0,0,1-.83,0q3.57,10.63,6.8,21.82a6.75,6.75,0,0,0,5.85,4.87,41.41,41.41,0,0,1,9.1,2.11,13,13,0,0,0,5.18.66c4.42-.35,9.49-1,15.42-1.75a173.1,173.1,0,0,0,37.91-11.07A62.68,62.68,0,0,0,804.28,908a13.25,13.25,0,0,0,4-4.85C810.62,898.39,813.37,894.45,816.87,892.26Z"/>
        <path class="cls-9" d="M711.32,894.08h0c.11-.08.52-.25.7-.35l-.06-.17a5,5,0,0,1-.53.31l-.17.07Z"/>
        <path class="cls-9" d="M807.45,860c0-.1,0-.19-.07-.29l-.1,0S807.35,859.79,807.45,860Z"/>
      </g>
      <path class="cls-11" d="M599.21,725.89c30.91-10.88,43.08-34,86.41-56.3,28.83-14.86,86.34-26.06,104-38.47a134.35,134.35,0,0,0-9.91-23.5,16.43,16.43,0,0,0-7,2.71s-14-5.62-81.3,26.87-96.29,62.54-96.29,62.54-2.11.47-3.33,5.67A105,105,0,0,0,599.21,725.89Z"/>
      <path class="cls-6" d="M835.1,285.88v0l-.06-.29c-.13-.66-.27-1.33-.41-2l-.27-1.33-.42-2-.3-1.35c-.14-.64-.28-1.28-.43-1.92-.1-.45-.21-.91-.31-1.36l-.45-1.89-.33-1.35c-.16-.63-.31-1.26-.47-1.88-.11-.45-.23-.89-.34-1.34-.17-.62-.33-1.24-.49-1.86l-.36-1.33c-.17-.62-.33-1.23-.51-1.85l-.36-1.3c-.18-.62-.35-1.24-.53-1.85-.13-.42-.25-.85-.38-1.27-.18-.62-.36-1.24-.55-1.85-.13-.41-.25-.82-.38-1.23l-.58-1.87c-.13-.38-.25-.76-.37-1.14-.21-.64-.42-1.29-.63-1.92-.11-.32-.22-.64-.32-1-.24-.69-.47-1.39-.71-2.08v0c-.65-1.9-1.33-3.78-2-5.64l-.06-.16-.75-2-.38-1c-.23-.6-.47-1.18-.7-1.77-.15-.38-.3-.77-.46-1.15l-.69-1.68c-.17-.41-.33-.81-.5-1.21l-.69-1.62c-.18-.41-.35-.83-.53-1.24s-.47-1.05-.7-1.58-.37-.83-.56-1.24-.47-1-.71-1.55-.38-.83-.58-1.24l-.72-1.52-.6-1.24c-.24-.5-.48-1-.73-1.49l-.62-1.23-.75-1.47-.63-1.22L811,216l-.66-1.21-.77-1.42-.68-1.2c-.26-.47-.52-.94-.79-1.4l-.69-1.19c-.26-.46-.53-.92-.8-1.37s-.47-.78-.71-1.17l-.82-1.37c-.23-.38-.47-.76-.71-1.14s-.56-.9-.85-1.35l-.69-1.06c-.56-.88-1.14-1.76-1.72-2.62l-.75-1.13-.85-1.22-.81-1.17-.85-1.19-.84-1.16-.86-1.17-.86-1.14-.87-1.15-.88-1.13c-.29-.38-.59-.75-.89-1.13l-.89-1.11-.9-1.1c-.31-.37-.61-.74-.92-1.1l-.91-1.08-.94-1.08-.92-1-1-1.08-.93-1c-.32-.36-.65-.71-1-1.06s-.62-.67-.94-1l-1-1.05c-.31-.32-.62-.65-.94-1l-1-1-.94-.93-1.08-1-.94-.9-1.13-1.05-.91-.84-1.26-1.12-.82-.73c-.58-.52-1.18-1-1.77-1.53l-.64-.54L769.06,164l-.82-.65-1.35-1.07-.93-.71-1.28-1c-.32-.25-.65-.49-1-.73l-1.25-.91-1-.72-1.24-.87-1-.71-1.26-.84-1.06-.69-1.26-.81-1.08-.68-1.28-.78-1.09-.65-1.3-.76c-.37-.21-.74-.43-1.11-.63s-.87-.5-1.32-.74l-1.1-.61c-.45-.24-.9-.48-1.36-.71s-.73-.39-1.1-.58l-1.39-.7-1.1-.55-1.44-.69-1.08-.51-1.53-.69-1-.46-1.72-.74-.85-.36-2.61-1.06-2.74-1-.93-.33c-.61-.22-1.21-.44-1.83-.65l-1.11-.37-1.66-.55-1.19-.37-1.59-.5-1.24-.35c-.52-.15-1-.31-1.57-.45l-1.26-.34-1.55-.41-1.29-.31-1.54-.38-1.32-.29c-.51-.11-1-.23-1.52-.33l-1.33-.27-1.53-.31-1.34-.24-1.53-.27-1.35-.22-1.53-.24-1.36-.19-1.53-.21-1.37-.17-1.54-.17-1.38-.14-1.54-.15-1.38-.11L689.5,133l-1.39-.09-1.55-.08-1.4-.07-1.55-.05-1.4,0-1.56,0h-4.37l-1.58,0-1.4.05q-.79,0-1.59.06l-1.4.06-1.6.09-1.4.09-1.61.12-1.39.12-1.62.15-1.4.14-1.63.18-1.39.16-1.64.21-1.38.19-1.66.24-1.37.21-1.68.27-1.36.23-1.69.3-1.36.25-1.71.34-1.34.27-1.73.37L640,137l-1.76.4-1.3.31-1.79.44-1.28.32-1.83.49-1.23.32-1.9.53-1.17.34-2,.58-1.1.33-2.11.66-1,.31c-.78.24-1.55.5-2.32.76l-.77.25-2.78,1-.3.1c-3.1,1.1-6.22,2.28-9.33,3.53l-.46.19L603,148.91l-.79.33-2.3,1-.93.41-2.16,1-1,.46-2.07.95-1.09.51-2,.94-1.13.55-2,1-1.16.58-1.92,1-1.2.62-1.89,1-1.21.65-1.87,1-1.23.67-1.86,1-1.23.7-1.85,1-1.24.72L569.09,166l-1.25.74L566,167.81l-1.26.77L563,169.69l-1.26.78-1.81,1.14-1.26.81-1.8,1.16-1.26.83-1.79,1.19-1.26.84-1.79,1.21-1.26.87c-.6.41-1.2.82-1.79,1.24-.42.29-.84.58-1.25.88-.6.42-1.2.84-1.79,1.27l-1.25.89-1.78,1.3-1.25.91-1.78,1.33c-.25.18-.49.35-.73.54l0,0c-61.91,46.47-119.21,120.18-157.9,211-24.41,57.29-1.87,112.43,43.37,155.91h0c.87.84,1.75,1.67,2.64,2.5h0q2.67,2.49,5.43,4.92l0,0q2.75,2.41,5.58,4.77l.08.07c1.88,1.57,3.79,3.11,5.73,4.64l.11.09c1.93,1.52,3.88,3,5.87,4.5l.13.1q3,2.22,6,4.38l.14.1q3,2.15,6.17,4.25l.15.1q3.12,2.1,6.32,4.13l.14.09q3.19,2,6.47,4l.12.07q3.29,2,6.63,3.91l.1,0c2.24,1.29,4.51,2.55,6.79,3.8l.05,0q5.17,2.82,10.47,5.47l.06,0q3.5,1.75,7.05,3.43l.12.06q3.53,1.67,7.08,3.26l.18.08q3.54,1.59,7.11,3.09l.22.09q3.56,1.5,7.16,2.93l.24.1q3.59,1.43,7.21,2.77l.24.09q3.63,1.35,7.27,2.61l.25.09q3.65,1.27,7.32,2.46l.24.08q3.69,1.18,7.39,2.3l.21.06c2.48.75,5,1.46,7.47,2.15l.16,0c1.25.34,2.51.69,3.77,1h0c1.25.33,2.51.66,3.76,1l.11,0,3.78.93.1,0,3.77.88h0l3.78.85.17,0c2.51.55,5,1.06,7.52,1.54l.21,0q3.73.72,7.47,1.35l.26,0c2.47.42,4.94.8,7.41,1.16l.29,0c2.46.36,4.92.68,7.38,1l.29,0c2.45.29,4.9.56,7.35.79l.29,0q3.66.33,7.31.59l.29,0c2.43.16,4.86.3,7.29.4h.25c2.43.1,4.86.17,7.27.21h.23c66.59.93,125.84-22.93,151-82.08C838.87,462.86,850.52,363.9,835.1,285.88Z"/>
      <path class="cls-12" d="M796.86,561.45c42-98.59,53.66-197.55,38.24-275.57v0l-.06-.29c-.13-.66-.27-1.33-.41-2l-.27-1.33-.42-2-.3-1.35c-.14-.64-.28-1.28-.43-1.92-.1-.45-.21-.91-.31-1.36l-.45-1.89-.33-1.35c-.16-.63-.31-1.26-.47-1.88-.11-.45-.23-.89-.34-1.34-.17-.62-.33-1.24-.49-1.86l-.36-1.33c-.17-.62-.33-1.23-.51-1.85l-.36-1.3c-.18-.62-.35-1.24-.53-1.85-.13-.42-.25-.85-.38-1.27-.18-.62-.36-1.24-.55-1.85-.13-.41-.25-.82-.38-1.23l-.58-1.87c-.13-.38-.25-.76-.37-1.14-.21-.64-.42-1.29-.63-1.92-.11-.32-.22-.64-.32-1-.24-.69-.47-1.39-.71-2.08v0c-.65-1.9-1.33-3.78-2-5.64l-.06-.16-.75-2-.38-1c-.23-.6-.47-1.18-.7-1.77-.15-.38-.3-.77-.46-1.15l-.69-1.68c-.17-.41-.33-.81-.5-1.21l-.69-1.62c-.18-.41-.35-.83-.53-1.24s-.47-1.05-.7-1.58-.37-.83-.56-1.24-.47-1-.71-1.55-.38-.83-.58-1.24l-.72-1.52-.6-1.24c-.24-.5-.48-1-.73-1.49l-.62-1.23-.75-1.47-.63-1.22L811,216l-.66-1.21-.77-1.42-.68-1.2c-.26-.47-.52-.94-.79-1.4l-.69-1.19c-.26-.46-.53-.92-.8-1.37s-.47-.78-.71-1.17l-.82-1.37c-.23-.38-.47-.76-.71-1.14s-.56-.9-.85-1.35l-.69-1.06c-.56-.88-1.14-1.76-1.72-2.62l-.75-1.13-.85-1.22-.81-1.17-.85-1.19-.84-1.16-.86-1.17-.86-1.14-.87-1.15-.88-1.13c-.29-.38-.59-.75-.89-1.13l-.89-1.11-.9-1.1c-.31-.37-.61-.74-.92-1.1l-.91-1.08-.94-1.08-.92-1-1-1.08-.93-1c-.32-.36-.65-.71-1-1.06s-.62-.67-.94-1l-1-1.05c-.31-.32-.62-.65-.94-1l-1-1-.94-.93-1.08-1-.94-.9-1.13-1.05-.91-.84-1.26-1.12-.82-.73c-.58-.52-1.18-1-1.77-1.53l-.64-.54L769.06,164l-.82-.65-1.35-1.07-.93-.71-1.28-1c-.32-.25-.65-.49-1-.73l-1.25-.91-1-.72-1.24-.87-1-.71-1.26-.84-1.06-.69-1.26-.81-1.08-.68-1.28-.78-1.09-.65-1.3-.76c-.37-.21-.74-.43-1.11-.63s-.87-.5-1.32-.74l-1.1-.61c-.45-.24-.9-.48-1.36-.71s-.73-.39-1.1-.58l-1.39-.7-1.1-.55-1.44-.69-1.08-.51-1.53-.69-1-.46-1.72-.74-.85-.36-2.61-1.06-2.74-1-.93-.33c-.61-.22-1.21-.44-1.83-.65l-1.11-.37-1.66-.55-1.19-.37-1.59-.5-1.24-.35c-.52-.15-1-.31-1.57-.45l-1.26-.34-1.55-.41-1.29-.31-1.54-.38-1.32-.29c-.51-.11-1-.23-1.52-.33l-1.33-.27-1.12-.23C850.06,279.5,740.88,497.7,740.88,497.7c-83.17,83.18-90.5,125.18-63.66,144.31C730.56,635.88,775.71,611.1,796.86,561.45Z"/>
      <path class="cls-9" d="M812.28,536.27s-136.92-84.45-248.66-98.89-198-8.36-198-8.36-54.34,114.77,43.71,212.82c50.55,50.55,145.18,77.53,180.14,77.53,12.93-20.52,63.85-69.92,96.54-83.61s75.25-17.48,112.49-17.48C822.05,594.72,812.37,536.36,812.28,536.27Z"/>
      <path class="cls-6" d="M686,635.76c-32.69,13.69-83.61,63.09-96.54,83.61,0,0,2.28,9.51,8.75,2.67,3.38-3.59,40.74-47.59,90.07-69.55,44.85-20,102.23-18.25,102.23-18.25s13.3-.76,8-16C761.25,618.28,718.68,622.08,686,635.76Z"/>
      <path class="cls-6" d="M424.93,428.91c-5.26,0-10.22.12-14.85.22h0s11.06,85.36-49.2,136.87a179.83,179.83,0,0,0,10.28,24.25S432.55,550.38,424.93,428.91Z"/>
      <path class="cls-6" d="M656.39,653.57c10.47-7.71,20.71-14.08,29.61-17.81-109.71-65-104.14-132.25-96.21-193.87-8.82-1.87-17.57-3.4-26.17-4.51C544.62,557.47,603.91,602.7,656.39,653.57Z"/>
      <path class="cls-6" d="M376.64,401.27l-11,27.75s86.28-6.08,198,8.36c109.79,14.19,243.89,96,248.53,98.81h0s8-27.71,8-36.48C762.26,467.1,660,414.59,562.86,402,433,385.25,376.64,401.27,376.64,401.27Z"/>
      <path class="cls-13" d="M663.31,643.56S602,591.68,584.9,551,573.12,444.6,573.12,444.6"/>
      <path class="cls-13" d="M369.91,574.47c13.08-14.1,26.28-31,33.33-47.78,17.1-40.67,14.44-93.87,14.44-93.87"/>
      <path class="cls-6" d="M1153.89,259l-21.7-10.14a2,2,0,0,0-2.15-.16l-13.59,7.34a2,2,0,0,0-1,1.57l-35.3,404.48,20.83-2.22,29.61,6.14,24.15-405.31A2,2,0,0,0,1153.89,259Z"/>
      <polygon class="cls-9" points="1223.95 343.67 1028.79 303.25 1027.11 311.89 984.63 260.66 1037.74 235.43 1037.17 243.11 1221.63 298.41 1221.98 293.63 1248.08 327.7 1223.27 350.09 1223.95 343.67"/>
      <polygon class="cls-6" points="1024.65 314.22 1027.11 311.89 984.54 260.54 980.98 263.42 1024.65 314.22"/>
      <polygon class="cls-6" points="1028.31 305.72 1219.02 345.4 1218.7 349.76 1223.27 350.09 1223.95 343.67 1028.58 303.24 1028.31 305.72"/>
      <polygon class="cls-6" points="1218.34 297.42 1218.55 294.84 1221.98 293.63 1221.63 298.41 1218.34 297.42"/>
      <polygon class="cls-9" points="1180.77 320.46 1223.08 355.51 1175.96 408.63 1176.53 400.94 1048.99 403.48 1048.49 410.33 1037.01 384.65 1052.45 356.34 1052.13 360.7 1180.33 332.12 1180.77 320.46"/>
      <polygon class="cls-6" points="1180.77 320.46 1187.96 322.03 1231.13 356.73 1183.79 410.04 1175.9 409.46 1223.08 355.51 1180.77 320.46"/>
      <polygon class="cls-6" points="1054.82 403.37 1054.27 410.76 1048.49 410.33 1049.04 402.86 1054.82 403.37"/>
      <polygon class="cls-6" points="1058.89 359.2 1059.11 356.21 1052.5 355.72 1052.13 360.7 1058.89 359.2"/>
      <path class="cls-9" d="M1232.54,703.78c0-41.24-57.56-74.67-128.57-74.67S975.4,662.54,975.4,703.78,1232.54,745,1232.54,703.78Z"/>
      <path class="cls-9" d="M1091.2,648.53s-1-45.47-60.91-60.9,49.86,19,49.86,74.54S1091.2,648.53,1091.2,648.53Z"/>
      <path class="cls-9" d="M1079.18,649s-.72-33.39-44.71-44.71c-3.85-1,4.5,10.11,9.18,16.75,2,2.85,1.87,3.07,9.8,7.18s17.62,12.95,17.62,30.79C1071.07,699.76,1079.18,649,1079.18,649Z"/>
      <path class="cls-9" d="M1128.88,638.54s2.89-25,38.34-42-30.75,9.89-30.75,48S1128.88,638.54,1128.88,638.54Z"/>
      <path class="cls-9" d="M1134.06,638.54s-11.63-15.12,26.32-25.41c23.72-6.44,13-3-.32,6.82-8,5.92-17,11.84-19.62,25.89C1133.53,683.32,1134.06,638.54,1134.06,638.54Z"/>
      <path class="cls-9" d="M423.88,855.26c-27.31-13.42-44.47-25-53.22-31.61h0c-.18.79-.35,1.58-.53,2.38l-.12,0-3.55,13.12s-2.9,12-6.06,22.31l.37.05c4.87,3.79,11,8,18.64,12.93,6.45,4.18,25.39,14.06,42.34,19.2a76,76,0,0,0,19.12,3,10.31,10.31,0,0,0,6.09-1.77,39.72,39.72,0,0,1,16.2-6.33s0-.07,0-.11h.08c1.94-8.41,4.42-17.22,7.31-26.28C462.13,864.27,446.09,864.05,423.88,855.26Z"/>
      <path class="cls-3" d="M293.23,925.18c-19.36,11.18-15.11,40.13-15.11,40.13s2,1.34,3,.67-.69-.26,1.78,4.24c0,0,0,.17.05,0a1.08,1.08,0,0,0,0-.18c-2.08-13.45-.17-26.59,4.74-34.2,1.59-2.47,19.88-3.11,21.7-4.89,2.06-2-6-2.43-8.2-5.68-1.54-2.27,2.19-8.48,3.28-10,3.09-4.34,8.83-11.23,6.08-9.91-1.26.61-5.31,7.28-9.68,12.72A34.58,34.58,0,0,1,293.23,925.18Z"/>
      <path class="cls-8" d="M313.23,948.75s-7-16.76-24.07-15.12h0l-.51.67-.14.19c-.12.18-.25.35-.37.54l-.12.16-.46.71s-.05.09-.08.14a6,6,0,0,0-.36.6,2.39,2.39,0,0,1-.13.21l-.36.65-.05.1c-.14.25-.27.5-.4.76l-.09.19-.3.62-.09.2-.36.8v0L285,941c0,.06-.05.13-.07.2-.1.23-.19.46-.28.7l0,.12c-.11.28-.21.56-.31.84,0,0,0,.09,0,.13-.09.24-.17.49-.25.73,0,.06,0,.12-.05.18-.19.57-.36,1.14-.52,1.71a.83.83,0,0,0,0,.15l-.21.76,0,.12c-.08.3-.15.59-.22.89h0A75.51,75.51,0,0,0,281,965.87a25.44,25.44,0,0,0,1.78,4.2,2,2,0,0,0,.1.21v0c1.06,2.07,4.78,6.29,7.37,9.45Z"/>
      <path class="cls-3" d="M257.61,922.17S243.74,939.1,259,936.5s.65,14,1,19.69a4.82,4.82,0,0,0,1,2.83c-24.45,2.54-49.14.21-26.21-28.57q3.57-4.47,6.88-8.3c1.21-.73,2.41-1.49,3.59-2.28C262.87,908,257.61,922.17,257.61,922.17Z"/>
      <path class="cls-3" d="M308.9,929.41s15.54,2.15,15.53,11.47-7.38,13.83-11.16,23.7S307,976.78,307,982.11s9.51,6.7,9.51,6.7,3.14,2.64-3.84,3.31-45.86-5.21-45.53-5S308.9,929.41,308.9,929.41Z"/>
      <path class="cls-9" d="M246,970.46c13.41-16.83,24.18-26.76,32.43-32.6,1.3-1.21,11.44-6.51,13.91-7.24,4.82-1.42,12.92-.69,16.09,0,9.52,2,18.9,8.13,11.39,17.56C318.36,950,306.07,970,305.72,980.9c0,10.67,9.71,8.8,8.36,10.61-.45.61-7.48,2.24-8.53,2.34C294.1,995,209.43,1016.38,246,970.46Z"/>
      <path class="cls-3" d="M268.91,962.17S255,979.1,270.29,976.5s.65,14,1,19.69a4.82,4.82,0,0,0,1,2.83c-24.45,2.54-49.14.21-26.21-28.56,2.38-3,4.67-5.75,6.88-8.31,1.21-.73,2.41-1.49,3.59-2.28C274.17,948,268.91,962.17,268.91,962.17Z"/>
      <path class="cls-9" d="M235.21,929.84c10.93-13.72,20.1-22.85,27.59-28.92a54.45,54.45,0,0,1,9.5-3.93c7.72-2.32,16.79-4,18.44-4.44,4.81-1.42,12.92-.69,16.09,0,9.52,2,9.71,5.59,2.2,15a76.23,76.23,0,0,0-10.67,16.81,47.37,47.37,0,0,0-3.45,15.92c0,10.67,9.71,8.8,8.36,10.61-.45.61-7.47,2.24-8.53,2.34C283.3,954.33,198.62,975.76,235.21,929.84Z"/>
      <path class="cls-8" d="M313.23,948.75s-7-16.76-24.07-15.12h0l-.51.67-.14.19c-.12.18-.25.35-.37.54l-.12.16-.46.71s-.05.09-.08.14a6,6,0,0,0-.36.6,2.39,2.39,0,0,1-.13.21l-.36.65-.05.1c-.14.25-.27.5-.4.76l-.09.19-.3.62-.09.2-.36.8v0L285,941c0,.06-.05.13-.07.2-.1.23-.19.46-.28.7l0,.12c-.11.28-.21.56-.31.84,0,0,0,.09,0,.13-.09.24-.17.49-.25.73,0,.06,0,.12-.05.18-.19.57-.36,1.14-.52,1.71a.83.83,0,0,0,0,.15l-.21.76,0,.12c-.08.3-.15.59-.22.89h0A75.51,75.51,0,0,0,281,965.87a25.44,25.44,0,0,0,1.78,4.2,2,2,0,0,0,.1.21v0c1.06,2.07,4.78,6.29,7.37,9.45Z"/>
      <path class="cls-10" d="M257.61,922.17S243.74,939.1,259,936.5s.65,14,1,19.69a4.82,4.82,0,0,0,1,2.83c-24.45,2.54-49.14.21-26.21-28.57q3.57-4.47,6.88-8.3c1.21-.73,2.41-1.49,3.59-2.28C262.87,908,257.61,922.17,257.61,922.17Z"/>
      <path class="cls-9" d="M246,970.46c13.41-16.83,24.18-26.76,32.43-32.6,1.3-1.21,11.44-6.51,13.91-7.24,4.82-1.42,12.92-.69,16.09,0,9.52,2,18.9,8.13,11.39,17.56C318.36,950,306.07,970,305.72,980.9c0,10.67,9.71,8.8,8.36,10.61-.45.61-7.48,2.24-8.53,2.34C294.1,995,209.43,1016.38,246,970.46Z"/>
      <path class="cls-7" d="M293.23,925.18a34.58,34.58,0,0,0,7.6-7.15c4.37-5.44,8.42-12.11,9.68-12.72l.33-.13c5.59-7.67,4.66-10.78-4-12.64-3.17-.68-11.28-1.41-16.09,0-.27.08-.76.18-1.4.31,2.24-1.11,6.06-2.51,8.05-2.46a65.76,65.76,0,0,1,19.19,3.49c8.22,2.93.45,8.68-3.31,11-1,.65-6.95,7.64-8.84,10.29-1.09,1.53-4.82,7.74-3.28,10a6.85,6.85,0,0,0,2.8,2.12,50.15,50.15,0,0,0,7.27,2.51c4.33,1,13.22,4,13.21,11,0,9.32-7.38,13.83-11.16,23.7S307,976.78,307,982.11s9.51,6.7,9.51,6.7,3.14,2.64-3.84,3.31a3.84,3.84,0,0,0,1.38-.61c1.35-1.81-8.37.06-8.36-10.61.35-10.87,12.64-30.89,14.12-32.73,7.25-9.11-1.25-15.1-10.42-17.33h0l-1-.23-.24-.05-.12,0c-3.39-.66-11.09-1.29-15.73.08a75.42,75.42,0,0,0-8.9,4.24A27.3,27.3,0,0,1,293.23,925.18Z"/>
      <path class="cls-10" d="M268.91,962.17S255,979.1,270.29,976.5s.65,14,1,19.69a4.82,4.82,0,0,0,1,2.83c-24.45,2.54-49.14.21-26.21-28.56,2.38-3,4.67-5.75,6.88-8.31,1.21-.73,2.41-1.49,3.59-2.28C274.17,948,268.91,962.17,268.91,962.17Z"/>
      <path class="cls-9" d="M572,799.5a1.5,1.5,0,0,0,0-3,1.5,1.5,0,0,0,0,3Z"/>
    </g>
  </g>
</svg>
