<svg enable-background="new 0 0 1125 823.9" viewBox="0 0 1125 823.9" xmlns="http://www.w3.org/2000/svg" xmlns:xlink="http://www.w3.org/1999/xlink"><radialGradient id="a" cx="967.5247" cy="-136.7556" gradientTransform="matrix(.01101562 -.602 .4705 .00504163 883.7531 953.2814)" gradientUnits="userSpaceOnUse" r="80.6611"><stop offset="0" stop-color="#e8624d"/><stop offset="1" stop-color="#ffe074" stop-opacity="0"/></radialGradient><linearGradient id="b" gradientTransform="matrix(1 0 .00077636 .7609 .5587 -171.998)" gradientUnits="userSpaceOnUse" x1="651.0466" x2="721.8799" y1="677.8105" y2="706.4772"><stop offset="0" stop-color="#fff" stop-opacity="0"/><stop offset="1" stop-color="#01232d"/></linearGradient><path d="m690.6 755h-100.7c-2.7 0-4.2-.2-5-.3-3.7-.7-10.2-3.1-10.2-11.6 0-9.1 7.5-11.2 11-11.7h28.2c1.3-.1-24-.2-24-.2h-18.1-50.3-3-4.6s2.9 0 4.2.2c3.5.5 11 2.6 11 11.7 0 8.5-6.5 10.9-10.2 11.6-.8.1-2.4.3-5 .3h-60.8s-12.8 0-12.8 11.9 12.8 11.9 12.8 11.9h118.8 118.8s12.8 0 12.8-11.9-12.9-11.9-12.9-11.9z" fill="#477b8c"/><path d="m728.7 707.5h-72.5c-2.7 0-4.2-.2-5-.3-3.7-.7-10.2-3.1-10.2-11.6 0-9.1 7.5-11.2 11-11.7 1.3-.1 4.2-.1 4.2-.1h-4.6-3-38.6-103.3-3-4.6s2.9 0 4.2.1c3.5.5 11 2.6 11 11.7 0 8.5-6.5 10.9-10.2 11.6-.8.1-2.4.3-5 .3h-122.2s-12.8 0-12.8 11.9 12.8 11.9 12.8 11.9h232.9 118.8s12.8 0 12.8-11.9-12.7-11.9-12.7-11.9z" fill="#477b8c"/><path d="m710.2 671.9c0-11.9-12.8-11.9-12.8-11.9h-87.5-201.6s-12.8 0-12.8 11.9 12.8 11.9 12.8 11.9h201.6 87.5c0-.1 12.8-.1 12.8-11.9z" fill="#477b8c"/><path d="m669 659.4h-81.3c-2.2 0-3.4-.1-4.1-.2-3-.6-8.3-2.5-8.3-9.4 0-7.4 6.1-9.1 8.9-9.5h22.8c1-.1-19.4-.1-19.4-.1h-14.6-40.6-2.4-3.7s2.3 0 3.4.1c2.8.4 8.9 2.1 8.9 9.5 0 6.8-5.3 8.8-8.3 9.4-.7.1-1.9.2-4.1.2h-49.1s-10.3 0-10.3 9.6 10.3 9.6 10.3 9.6h96 96s10.3 0 10.3-9.6-10.4-9.6-10.4-9.6z" fill="#01232d"/><path d="m699.8 621h-58.6c-2.2 0-3.4-.1-4.1-.2-3-.6-8.3-2.5-8.3-9.4 0-7.4 6.1-9.1 8.9-9.5 1-.1 3.4-.1 3.4-.1h-3.7-2.4-31.2-83.4-2.4-3.7s2.3 0 3.4.1c2.8.4 8.9 2.1 8.9 9.5 0 6.8-5.3 8.8-8.3 9.4-.7.1-1.9.2-4.1.2h-98.5s-10.3 0-10.3 9.6 10.3 9.6 10.3 9.6h188.1 96s10.3 0 10.3-9.6-10.3-9.6-10.3-9.6z" fill="#01232d"/><path d="m684.8 592.2c0-9.6-10.3-9.6-10.3-9.6h-70.7-162.8s-10.3 0-10.3 9.6 10.3 9.6 10.3 9.6h162.8 70.7s10.3 0 10.3-9.6z" fill="#01232d"/><path d="m495 790.3h-272.9c-3.3 0-5.1-.2-6.2-.3-4.6-.8-12.5-3.8-12.5-14.2s8-13.3 12.5-14.2c1-.2 2.9-.3 6.2-.3h113s15.6 0 15.6-14.5-15.6-14.5-15.6-14.5h-241c-1.3 0-15.5-.6-15.5-14.5 0-14.5 15.6-14.5 15.6-14.5h113c3.3 0 5.1-.2 6.2-.3 4.6-1 12.6-4 12.6-14.3 0-10.4-8-13.3-12.5-14.2-.8-.1-213.4 13.5-213.4 13.5v131.4h494.9s15.6 0 15.6-14.5c0-14.6-15.6-14.6-15.6-14.6z" fill="#849ea8"/><path d="m295.1 512.6c-26.6 29.6-42.8 68.7-42.8 111.6 0 92.2 74.8 167 167 167s167-74.8 167-167c0-42.9-16.2-82-42.8-111.6z" fill="#dcd2c6"/><path d="m563.9 581.4c0-17.6-2.2-34.8-6.4-51.1-4.2-6.2-8.9-12.1-13.9-17.7h-248.5c-26.6 29.6-42.8 68.7-42.8 111.6 0 77.9 53.3 143.3 125.4 161.8 104.5-9.8 186.2-97.6 186.2-204.6z" fill="#fff7ea"/><path d="m316 679.9c0 14.7-12.2 22.4-25.8 19.2-12.1-2.8-23.3-13.8-26.4-26.1-3.5-14 4-26.7 18.8-26.7 17.3 0 33.4 16.3 33.4 33.6z" fill="#dcd2c6"/><path d="m501.7 589.1c3.4-14.9 15-24.2 26.3-22.2 11.2 2 19.6 14.9 18.7 30.1-1 17.1-13.1 30.6-26.9 28.2-13.9-2.3-21.8-19.3-18.1-36.1z" fill="#dcd2c6"/><path d="m455.5 715.7c11.5-10.1 25.3-13.3 31.9-8.1 6.5 5.2 4.4 17.5-5.6 28.6-11.2 12.4-27.9 18.7-36 12.4-8.2-6.2-3.2-21.5 9.7-32.9z" fill="#dcd2c6"/><path d="m1125.3 652.9h-218.3-4.5-6.9s4.3 0 6.2.2c5.2.7 16.4 3.9 16.4 17.4 0 12.6-9.7 16.2-15.2 17.2-1.2.2-3.5.4-7.5.4h-25.5s-19 0-19 17.6 19 17.6 19 17.6h58.8c-1.2 10.6-9.9 13.8-15.1 14.8-1.2.2-3.5.4-7.5.4h-107.5s-19 0-19 17.6 19 17.6 19 17.6h326.6z" fill="#849ea8"/><path d="m1125.3 459h-1125.2v68.3h697.1c4.7.5 17.2 3.2 17.2 17.5 0 17.6 21.6 17.6 21.6 17.6h42s4.3 0 6.2.2c5.2.7 16.4 3.9 16.4 17.4 0 12.6-9.7 16.2-15.2 17.2-1.2.2-3.5.4-7.5.4h-118.8s-19 0-19 17.6 19 17.6 19 17.6h466.2v-70.4z" fill="#849ea8"/><path d="m314.5 502.3c-.9 2-1.4 4.5-1.4 7.4 0 17.6 19 17.6 19 17.6h793.1v-25z" fill="#849ea8"/><path d="m842.2 622.8h122.7c4.5 0 7.1-.3 8.5-.5 6.3-1.2 17.3-5.3 17.3-19.6 0-15.4-12.7-19-18.7-19.8-2.2-.2-7.1-.3-7.1-.3h7.9 5.1 147.2v80.4h-283s-21.6 0-21.6-20.1 21.7-20.1 21.7-20.1z" fill="#01232d"/><path d="m872.7 703.2h118.3c4.5 0 7.1-.3 8.5-.5 6.3-1.2 17.3-5.3 17.3-19.6 0-15.4-12.7-19-18.7-19.8-2.2-.2-7.1-.3-7.1-.3h7.9 5.1 121v80.4h-252.3s-21.6 0-21.6-20.1c-.1-20.1 21.6-20.1 21.6-20.1z" fill="#01232d"/><path d="m980.2 582.6h-19.6" fill="#01232d"/><path d="m1125.1 542.1c-177.6.2-50 .4-53.7.4h-118.3s-21.6 0-21.6 20.1 21.6 20.1 21.6 20.1h172.1v-40.6z" fill="#01232d"/><path d="m1125.1 743.4h-43.2-5.1-7.9s4.9 0 7.1.3c5.9.8 18.7 4.4 18.7 19.8 0 14.4-11 18.5-17.3 19.6-1.4.2-4 .5-8.5.5h-29s-21.6 0-21.6 20.1 21.6 20.1 21.6 20.1h85.3v-80.4z" fill="#01232d"/><path d="m594 527.1h-25-351.3v35.2h-189.8l.6 140.9h407.9s19 0 19-17.6-19-17.6-19-17.6h-137c-4 0-6.2-.2-7.5-.4-5.5-1-15.2-4.6-15.2-17.2 0-13.5 11.2-16.7 16.4-17.4h29.5c1.9-.2-23.3-.2-23.3-.2h204.7s19 0 19-17.6-19-17.6-19-17.6h-107.5c-4 0-6.2-.2-7.5-.4-5.5-1-15.2-4.6-15.2-17.2 0-13.5 11.2-16.7 16.4-17.4 1.9-.2 6.2-.2 6.2-.2h172.6 25 9.5s21.6 0 21.6-17.6 19-17.6 19-17.6h-50.1z" fill="#849ea8"/><path d="m305.7 272.3c-130.4 0-233.7 12.4-305.6 27.5v159.1l704 20.1 415.2-20.1c0-367.7 0-293.6 0-361.7-396.3 0-479.8 175.1-813.6 175.1z" fill="#849ea8"/><path d="m.1 299.8v159.1h298.7c15.1-19 23.1-40.6 19.2-65-10.5-65.5 43.8-105.4 96.3-128.3-33.3 4.3-69.2 6.7-108.6 6.7-130.3 0-233.7 12.4-305.6 27.5z" fill="#477b8c"/><path d="m735.6 166.9c36.1-6.4 276.9-45.5 383.7 27 0-66.3 0-55.5 0-96.7-171.1 0-283.9 32.6-383.7 69.7z" fill="#477b8c"/><path d="m992.6 363.7c16.4 19.1-13.2 42-91.8 51.8-54.1 6.7-141.6-3.1-150.7-4.1-36.1-3.8-79.6-4-93.6-12.7-12-7.5-17.2-16-17.8-24.6-.9-15 30.9-39.9 69.7-47.7 18.5-3.7 58.8-4 82.9-4.9 29.8-1.1 56-8.3 84.7-4.6 52 6.6 101.2 28.9 116.6 46.8z" fill="#f1d1ae" opacity=".5"/><path d="m945 363.1c15.7 18.3-12.6 34.7-66.9 38.5-13.1.9-49.5 1-64.7.5-34.8-1.3-39.5-8.8-60.3-16-19.4-6.8-30.5-6-31-14.5-.4-6.8 14-11.3 24.6-18 6.6-4.2 5.1-12.6 13.1-16.7 8.6-4.4 28.1-2.9 43.3-3.4 17.6-.6 44.6-4.1 61.9-2.4 40.9 3.9 68.2 18.2 80 32z" fill="#ffdcb2"/><path d="m861.2 361.9c3.4 5.2-8.9 10.2-28.7 10.6-20.8.5-38-4.3-37.5-9.9.4-5 15-8.7 31.9-8.7 16.4-.1 31.3 3.3 34.3 8z" fill="#dcd2c6"/><path d="m833.4 355.5s-3.3-4.1-4-6.4c-.5-1.6-2-3.7-2.7-5.2-.3-.7-1-1.2-2.1.7-1.7 2.8-3.6 7.5-1.5 11 3.3 5.7 11 2.6 10.3-.1z" fill="#ffe074"/><path d="m832.4 363.2s4.5-4.6 3-10.4c-.7-2.9-2.1-5-3.1-6.7-1.1-1.8-2.7-4.5-4.5-1.4-2.5 4.2-5.5 10.4-4.6 12.8 1.4 4 9.2 5.7 9.2 5.7z" fill="#faad17"/><path d="m822 363.8c1.1.4 3 .7 5.8.7 5.3 0 7.2-1.3 7.2-1.3 1.4-1.3 1.6-4.1 1.3-7.4-.2-1.5-4.2-2.1-6.3-3.7-3-2.3-4.6-5.2-7.2-2.8-7.6 7.1-2.1 13.9-2.1 13.9s.5.3 1.3.6z" fill="#e8624d"/><path d="m820.4 364.3c1.4.5 3.8.9 7.5.9 6.8 0 9.3-1.7 9.3-1.7 4.4-4 0-18.5-3.3-27.7-1.6-4.4-3.2-5.6-3.3-4.6-.1.7-.1.5-.4 1.6-1 3.3-3.4 8.1-8.8 13-9.9 8.9-2.7 17.6-2.7 17.6s.6.5 1.7.9z" fill="url(#a)"/><path d="m1119.3 59.9c-62 8.3-110.2 74.6-110.2 155.2s48.3 146.8 110.2 155.2h5.8v-74.4l.2-235.9h-6z" fill="#01232d"/><path d="m1048.4 165c-4.6-10.9-8.2-21.3-10.2-39.1-12.1 24-19.6 52.2-20.8 82.5-1.3 32.6 4.9 63.3 16.7 89.5-1.5-14.6-2-30-1.4-45.9 1.2-31.9 6.9-61.7 15.7-87z" fill="#012e35" opacity=".5"/><path d="m1120.5.8c-45.5 6.1-81 54.8-81 114s35.5 107.9 81 114h4.6l.1-168.9-.1-59.1h-4.6z" fill="#01232d"/><path d="m688.8 332c-21.9 8-39.5 20.7-46.7 31.8l65.5-2.1c17.3-.5 10.9-13.6 10.9-13.6z" fill="#01232d" opacity=".5"/><path d="m688.8 332c-21.9 8-39.5 20.7-46.7 31.8l65.5-2.1c17.3-.5 10.9-13.6 10.9-13.6z" fill="url(#b)" opacity=".5"/><path d="m730.3 349.5-19 7.2-3.6 4.9 31.5 4.3z" fill="#01232d"/><path d="m730.3 349.5 6.8-9.5 16-2.8 11.2 7.8-8.8 8.3-16.3 12.6z" fill="#dcd2c6"/><path d="m737.1 340-18.4 8-7.4 8.7 19-7.2z" fill="#01232d"/><path d="m1051.2 77.2c-4 12.8-5.3 29-5.6 44.5.4 5.1 1.1 10 2.1 14.9 2-7.6 5.1-19.1 5.8-21.8 11.2-41.7 35.6-78.4 67-86.1v-21.7c-30.1 7.4-57.2 32-69.3 70.2z" fill="#012e35" opacity=".5"/><path d="m442.4 469.1-.4-11.7-4.2-3.2-1.5 10.3z" fill="#01232d"/><path d="m904.2 415.1 5.3 4 39.6 3.7 2.5-3.3-33.2-11.4z" fill="#012e35" opacity=".5"/><path d="m1004.7 414.1-54.9-150.2c-1.2-2.4-4.8 0-4.8 1.2l54.9 150.2z" fill="#a28f80"/><path d="m945 264.7c0-.6 1.8-1.8 2.4-.6l13.7 37.4s.1.1.1.1l26.5 72.4.4 1.2v.3l13.1 35.8.4 1.2s.2.8-.2.9-1.9.5-1.9.5l-13.7-37.5-27.2-74.4v-.1z" fill="#ffdcb2"/><path d="m904.2 415.1 57.4-148.8c.6-2.6-3.7-3.1-4.4-2.2l-55 150.2z" fill="#a28f80"/><path d="m957.4 263.8c.4-.5 2.5-.2 2.2 1.1l-13.7 37.4v.1l-26.5 72.4-.4 1.2s-.1.1-.2.3l-13.1 35.8-1.5 3s-.4-.1-.7-.3c-.4-.2-1.3-.5-1.3-.5z" fill="#ffdcb2"/><path d="m1125.1 295.8-169.8-19.4-51.1 138.7 221.1 23.5z" fill="#e8624d"/><path d="m1054.5 395.9c-76.6 6-150.3 19.1-150.3 19.1l221.1 23.5-.2-142.8c-3.4 11.8-25.4 96.7-70.6 100.2z" fill="#c44e41"/><path d="m1106 330.5c-16.6-14.7-39.8-17.6-60.8-17.6-50.1 0-91.3 48.2-96.2 110-8.1-3.3-16.9-5.1-26-5.1-33.1 0-61.1 23.5-70.3 55.7-2.3-.5-4.7-.7-7.2-.7-18.3 0-34 13.7-41.2 33.4-31.9 7.2-56.1 42.4-56.1 84.7l136.3 45.8 240.6 8.5.1-289.8c-2.7-15.4-16.8-22.8-19.2-24.9z" fill="#01232d"/><path d="m1035.6 318c-44.2 8.5-76.9 51.5-77 104h-.1l.1 2c.1 3.5 20.7 2.9 20.6 0-.1-2.8 0 0 0 0-.1-1.5-.2-2.9-.2-4.4-1.5-45.9 22-85.2 56.6-101.6z" fill="#012e35" opacity=".5"/><g fill="#01232d"><path d="m748.3 586.5h56v-80.3c-30.8 6.9-54.4 39.9-56 80.3z"/><path d="m748.3 586.5h370.6l1 80.3h-315.6c-30.8-6.9-54.4-39.9-56-80.3z"/><path d="m352.9 460c12.6-19.3 19.9-42.4 19.9-67.2 0-68.2-55.3-123.4-123.4-123.4s-123.4 55.3-123.4 123.4c0 24.8 7.3 47.8 19.9 67.2z"/><path d="m547.9 487h-48.6-60-439.2v201h245.1 64.3 86s21.6 0 21.6-20.1-21.6-20.1-21.6-20.1h-122.7c-4.5 0-7.1-.3-8.5-.5-6.3-1.2-17.3-5.3-17.3-19.6 0-15.4 12.7-19 18.7-19.8 2.2-.2 7.1-.3 7.1-.3h200s21.6 0 21.6-20.1-21.6-20.1-21.6-20.1h-122.9c-4.5 0-7.1-.3-8.5-.5-6.3-1.2-17.3-5.3-17.3-19.6 0-15.4 12.7-19 18.7-19.8 2.2-.2 7.1-.3 7.1-.3h198.1s21.6 0 21.6-20.1-21.7-20.1-21.7-20.1z"/><path d="m565.4 486.7h-50.7s-19 0-19-17.6c0-17-5.3-44.3-6.8-51.3-14.6-65.7-62.3-113.8-118.9-113.8-65.9 0-119.7 65.3-123.2 147.5h-246.7v94.9h282.1c.3-13.8 11.1-17.8 17.3-19 1.4-.2 4-.5 8.5-.5h257.2s21.6 0 21.6-20.1-21.4-20.1-21.4-20.1z"/><path d="m80.5 203.5c-29.2 0-56.5 7.5-80.4 20.7v235.8h219.7c16.9-26 26.7-57.1 26.7-90.4.1-91.7-74.3-166.1-166-166.1z"/></g><path d="m207.3 367.8c0 2.1 0 4.1-.1 6.2h26.3c-1.2-75.3-45.2-137.3-102.7-149.5 44.9 23.2 76.5 78.6 76.5 143.3z" fill="#012e35" opacity=".5"/><path d="m453.1 453.8c0 2.1-.1 3-.1 6.2s26.3 5.9 26.3 0-.1-3.9-.2-5.9c-3.3-72.6-46.5-131.8-102.5-143.7 44.9 23.3 76.5 78.7 76.5 143.4z" fill="#012e35" opacity=".5"/></svg>