<?xml version="1.0" encoding="utf-8"?>
<!-- Generator: Adobe Illustrator 22.0.1, SVG Export Plug-In . SVG Version: 6.00 Build 0)  -->
<svg version="1.1" id="Layer_1" xmlns="http://www.w3.org/2000/svg" xmlns:xlink="http://www.w3.org/1999/xlink" x="0px" y="0px"
	 viewBox="0 0 280.8 283.3" style="enable-background:new 0 0 280.8 283.3;" xml:space="preserve">
<style type="text/css">
	.st1, .st2 {fill:#E9624D;}
</style>
<g>
	<path class="st1" d="M140.4,0.7C62.6,0.7-0.5,63.8-0.5,141.6s63.1,140.9,140.9,140.9s140.9-63.1,140.9-140.9S218.2,0.7,140.4,0.7z
		 M140.4,267.6c-69.6,0-126-56.4-126-126s56.4-126,126-126s126,56.4,126,126S210,267.6,140.4,267.6z"/>
	
	<g>
	<path class="st2" d="M140.4,0.7C62.6,0.7-0.5,63.8-0.5,141.6s63.1,140.9,140.9,140.9s140.9-63.1,140.9-140.9S218.2,0.7,140.4,0.7z
		 M140.4,267.6c-69.6,0-126-56.4-126-126s56.4-126,126-126s126,56.4,126,126S210,267.6,140.4,267.6z"/>
	</g>
</g>
</svg>
