<?xml version="1.0" encoding="utf-8"?>
<!-- Generator: Adobe Illustrator 22.0.1, SVG Export Plug-In . SVG Version: 6.00 Build 0)  -->
<svg version="1.1" id="Layer_1" xmlns="http://www.w3.org/2000/svg" xmlns:xlink="http://www.w3.org/1999/xlink" x="0px" y="0px"
	 viewBox="0 0 280.8 283.3" style="enable-background:new 0 0 280.8 283.3;" xml:space="preserve">
<style type="text/css">
	.st0{fill:#E8624D;}
</style>
<g>
	<path class="st0" d="M140.4,0.7C62.6,0.7-0.5,63.8-0.5,141.6s63.1,140.9,140.9,140.9s140.9-63.1,140.9-140.9S218.2,0.7,140.4,0.7z
		 M140.4,267.6c-69.6,0-126-56.4-126-126s56.4-126,126-126s126,56.4,126,126S210,267.6,140.4,267.6z"/>
	<g>
		<path class="st0" d="M192.2,157l-103.5,0c-10.5,0-15.8,12.7-8.4,20.2l49.3,49.3c6,6,15.6,6,21.5,0l49.3-49.3
			C208,169.7,202.7,157,192.2,157z"/>
		<path class="st0" d="M129.6,141.9c6,6,15.6,6,21.5,0l49.3-49.3c7.4-7.4,2.2-20.2-8.4-20.2H88.6c-10.5,0-15.8,12.7-8.4,20.2
			L129.6,141.9z"/>
	</g>
</g>
</svg>
