<svg id="Layer_1" data-name="Layer 1" xmlns="http://www.w3.org/2000/svg" viewBox="0 0 100 100">
  <defs>
    <style>
      .cls-1 {
        fill: #4681a0;
      }

      .cls-2 {
        fill: #513b2c;
      }

      .cls-3 {
        fill: #b3814b;
      }

      .cls-4 {
        fill: #efc75e;
      }

      .cls-5 {
        fill: #ea9a57;
      }

      .cls-6 {
        fill: #e8823d;
      }

      .cls-7 {
        fill: #e07127;
      }

      .cls-8 {
        fill: #012e35;
      }
    </style>
  </defs>
  <title>nav-icon</title>
  <circle class="cls-1" cx="50" cy="50" r="50"/>
  <path class="cls-2" d="M93,67.84S13.59,80.36,11.28,80.93a3.29,3.29,0,0,0-.44.16A49.88,49.88,0,0,0,23.47,92.38l64.45-16A7,7,0,0,0,93,67.86Z"/>
  <path class="cls-3" d="M17.07,86.41c-1-3.46-3.35-5.84-5.52-5.53l73-18.15h0A7,7,0,0,1,93,67.84S18.2,86.43,17.73,86.57,17.1,86.51,17.07,86.41Z"/>
  <path class="cls-4" d="M71.65,33.19A64.39,64.39,0,0,1,67.16,42a1.12,1.12,0,0,1-2-.21C61,29.28,48.25,19.47,42.56,15.58a1.12,1.12,0,0,0-1.75,1.1c.55,3.39,0,10-6.93,21.23-11.05,18-6.09,29.25-6.09,29.25h0c2.4,8.73,12.09,15.27,23.69,15.27A25.36,25.36,0,0,0,75.17,67.16h0c5.43-12.07,1-27.32-1.42-34A1.13,1.13,0,0,0,71.65,33.19Z"/>
  <path class="cls-5" d="M41.44,72.33c0-5.65,6.27-27.92,10-17.32s10,11.68,10,17.32a10,10,0,1,1-19.93,0Z"/>
  <path class="cls-6" d="M75.17,67.16h0c3.3-7.35,3-15.87,1.64-22.91v0l-.09-.51,0-.06c-.1-.5-.2-1-.31-1.47l0-.1c0-.14-.06-.29-.1-.43l0-.14c-.1-.44-.21-.87-.31-1.29a.75.75,0,0,1,0-.16c0-.12-.06-.24-.1-.36a1.33,1.33,0,0,0-.05-.19l-.09-.35s0-.1,0-.15c-.06-.21-.12-.42-.17-.63l-.06-.2-.09-.3-.06-.22-.09-.28a1.55,1.55,0,0,0-.07-.23c0-.16-.09-.31-.14-.46s-.05-.16-.07-.24,0-.16-.08-.25,0-.15-.07-.23,0-.16-.08-.23l-.08-.26c0-.1-.07-.19-.1-.28s-.07-.21-.1-.31a1.59,1.59,0,0,0-.07-.2,2.25,2.25,0,0,0-.08-.24l-.06-.18L74.05,34l0-.14c0-.13-.09-.25-.13-.37l-.06-.15,0-.14a1.13,1.13,0,0,0-2.11,0A64.39,64.39,0,0,1,67.16,42a1.12,1.12,0,0,1-2-.21C61,29.28,48.25,19.47,42.56,15.58a1.1,1.1,0,0,0-1.17-.06c8,8.79,40.26,48.19-6.36,61.74a25.24,25.24,0,0,0,4,2.39l.06,0,.77.35.35.15.39.17.65.25.18.07.86.3h0a29.26,29.26,0,0,0,9.2,1.45A25.36,25.36,0,0,0,75.17,67.16Z"/>
  <path class="cls-7" d="M61.37,72.33c0-3.45-2.35-5.2-5-8.46-2.75,4.23-7.39,8-14.59,11a10.09,10.09,0,0,0,7.78,7.46c.64,0,1.29.06,1.94.06s1.19,0,1.77-.06A10.16,10.16,0,0,0,61.37,72.33Z"/>
  <path class="cls-2" d="M89.23,81,89,80.93c-2.28-.57-4.84,1.79-5.79,5.5a3.93,3.93,0,0,1-.52.17L7.26,67.84v0a7,7,0,0,0,5.12,8.49l64.26,16A49.73,49.73,0,0,0,89.23,81Z"/>
  <path class="cls-3" d="M83.22,86.43c1-3.47,3.35-5.86,5.53-5.55l-73-18.15h0a7,7,0,0,0-8.49,5.12l75.58,18.8A.29.29,0,0,0,83.22,86.43Z"/>
  <path class="cls-8" d="M50,0a50,50,0,1,0,50,50A50,50,0,0,0,50,0Zm0,94.94A44.94,44.94,0,1,1,94.94,50,44.94,44.94,0,0,1,50,94.94Z"/>
</svg>
