<svg id="Layer_1" data-name="Layer 1" xmlns="http://www.w3.org/2000/svg" viewBox="0 0 100 100">
  <defs>
    <style>
      .cls-1 {
        fill: #4681a0;
      }

      .cls-2 {
        fill: #b3814b;
      }

      .cls-3 {
        fill: #efc75e;
      }

      .cls-4 {
        fill: #e8823d;
      }

      .cls-5 {
        fill: #513b2c;
      }

      .cls-6 {
        fill: #2b414d;
      }

      .cls-7 {
        fill: #273a45;
      }

      .cls-8 {
        fill: #012e35;
      }
    </style>
  </defs>
  <title>nav-icon</title>
  <circle class="cls-1" cx="50" cy="50" r="50"/>
  <path class="cls-2" d="M53,99.92V62.24l-6,.08v37.6A50,50,0,0,0,53,99.92Z"/>
  <path class="cls-3" d="M50,15c4.12,0,17,21.43,17,38S59.37,75,50,75,33,69.58,33,53,46.51,15,50,15Z"/>
  <path class="cls-4" d="M50,35c2.43,0,10,15,10,24.4S55.5,75,50,75,40,68.8,40,59.41,47.94,35,50,35Z"/>
  <path class="cls-5" d="M47,72h6V84s-1.51-2-3-2-3,2-3,2Z"/>
  <path class="cls-6" d="M50.09,56c3.32-.06,6,1.43,5.89,6.67S53.09,74.94,49.77,75,43.89,68.14,44,62.9,46.78,56.07,50.09,56Z"/>
  <path class="cls-7" d="M50.77,73c-3.31,0-5.88-6.86-5.79-12.1a10.12,10.12,0,0,1,.41-2.9A7.85,7.85,0,0,0,44,62.9c-.09,5.24,2.47,12.15,5.79,12.1,1.81,0,3.46-2.14,4.61-4.9C53.36,71.81,52.11,73,50.77,73Z"/>
  <path class="cls-8" d="M50,0a50,50,0,1,0,50,50A50,50,0,0,0,50,0Zm0,94.94A44.94,44.94,0,1,1,94.94,50,44.94,44.94,0,0,1,50,94.94Z"/>
</svg>
