<svg id="pick-icon-button" xmlns="http://www.w3.org/2000/svg" viewBox="0 0 351.54 358.4">
    <circle fill="#e8624c" class="button" cx="179.25" cy="179.3" r="175.59"/>
    <g class="ice-pick-icon">
      <path fill="#003D58" class="ice-pick-part" d="M266.05,121.12c-5.54-3.55-30.07-21-57.85-29.91C178.8,81.73,146.13,80.8,142,80.71c-21.06-.47-35.54,2.06-50.17,7.32-20.24,7.28.34,6,9.48,10.52s7.29-1.36,10.26-4.14a3.67,3.67,0,0,1,4.34,0c2.21,1.43,4.21,4.19,8.6,2,1.59-.8,1-5.2,4.23-4.94,3,.24,4.78,3.48,8.67,4.57,2.48.69,5.32-4,8-3.41,3.08.73,4.86,4.26,7.58,5.72A40.64,40.64,0,0,0,164.18,102c10,2.3,29.49,7.68,47.13,17.76,3.21,1.84,17.09,6.62,28.19,14.08,9.21,6.19,15.85,15.06,18.74,17.95,5.78,5.77,6.85,13.43,11,15,1.91.7,8.15-2.84,9.23-3.19,7.35-2.43,15.75-5.48,11.87-13.62C284.63,138,277.45,128.44,266.05,121.12Zm-3.86,21a5.3,5.3,0,1,1,2.71-7A5.29,5.29,0,0,1,262.19,142.11Zm16.5,15.15a7.5,7.5,0,1,1,3.82-9.89A7.49,7.49,0,0,1,278.69,157.26Z"/>
      <path fill="#003D58" class="ice-pick-part" d="M190.33,113.62,157.9,204.14a9.31,9.31,0,0,1-3.5,4.58l-2.61,1.79L144,215.59a5,5,0,0,0-1.84,6.18l2.94,6.64-7.81,5.07a5,5,0,0,0-1.84,6.19l2.93,6.63-7.81,5.08a5,5,0,0,0-1.84,6.19l2.94,6.63-7.81,5.08a5,5,0,0,0-1.84,6.18l2.94,6.64s-1.44,19.33,7.6,19.54,16.32,2.66,14.91-10.64,17-51,20.26-60.14c1.87-5.24,31.42-60.4,48.7-105.07A212.63,212.63,0,0,0,190.33,113.62Z"/>
    </g>
</svg>
